<?xml version="1.0" standalone="no"?>
<!DOCTYPE svg PUBLIC "-//W3C//DTD SVG 1.1//EN" "http://www.w3.org/Graphics/SVG/1.1/DTD/svg11.dtd" >
<svg xmlns="http://www.w3.org/2000/svg">
<metadata>
Created by FontPrep 20130207 at Fri Jul 25 20:59:41 2014
 By Lucas Dino Nolte
Copyright (c) 2012 by Sindre Bremnes. Published by Monokrom Type Foundry.
</metadata>
<defs>
<font id="0975cf6baccb3862c31522c2b5b8fabc" horiz-adv-x='1024' >
  <font-face 
    font-family="Telefon"
    font-weight="400"
    font-stretch="normal"
    units-per-em="2048"
    panose-1="2 11 5 2 2 2 2 2 3 3"
    ascent="1536"
    descent="-512"
    x-height="895"
    cap-height="1434"
    bbox="-1159 -551 2521 2048"
    underline-thickness="102"
    underline-position="-102"
    unicode-range="U+0020-FB04"
  />
<missing-glyph horiz-adv-x="1363" 
 />
    <glyph glyph-name=".notdef" horiz-adv-x="1363" 
 />
    <glyph glyph-name=".null" horiz-adv-x="0" 
 />
    <glyph glyph-name="nonmarkingreturn" horiz-adv-x="681" 
 />
    <glyph glyph-name="space" unicode=" " horiz-adv-x="512" 
 />
    <glyph glyph-name="exclam" unicode="!" horiz-adv-x="581" 
d="M292 -25q-52 0 -90 37t-38 90q0 52 37 90t90 38t90 -38q37 -36 37 -88t-37 -91q-37 -38 -89 -38zM197 1434h188q14 0 16 -3t2 -18l-41 -1005q0 -14 -4 -18t-18 -3h-98q-14 0 -19 3q-4 3 -4 18l-41 1005q0 13 2 17t17 4z" />
    <glyph glyph-name="quotedbl" unicode="&#x22;" horiz-adv-x="737" 
d="M612 1434q14 0 18 -4t1 -17l-39 -418q-2 -20 -21 -20h-77q-18 0 -21 20l-39 418q-2 13 1 17t18 4h159zM285 1434q14 0 17 -4t1 -17l-39 -418q-2 -20 -20 -20h-78q-18 0 -21 20l-39 418q-2 13 2 17t17 4h160z" />
    <glyph glyph-name="numbersign" unicode="#" horiz-adv-x="1073" 
d="M399 498h222l53 301h-221zM190 0q-12 0 -15 4t-1 16l59 347h-149q-14 0 -17 4t-4 16v90q-1 13 3 17t18 4h172l53 301h-164q-14 0 -17 4t-3 16v90q0 13 3 17t17 4h189l59 340l6 15t19 5h102q25 0 17 -20l-60 -340h221l60 340l6 15t18 5h103q25 0 16 -20l-59 -340h149
q13 0 17 -4t4 -17v-90q0 -12 -3 -16t-18 -4h-174l-53 -301h166q14 0 17 -4t3 -17v-90q0 -12 -3 -16t-17 -4h-189l-59 -347l-6 -15t-19 -5h-102q-12 0 -15 4t-1 16l59 347h-221l-60 -347l-6 -15t-18 -5h-103z" />
    <glyph glyph-name="dollar" unicode="$" horiz-adv-x="1046" 
d="M451 217v436l-50 23q-145 68 -216 154t-71 217q0 129 88 227q87 98 249 112v130q0 14 3 17t17 3h88q13 0 17 -3t4 -17v-130q127 0 256 -81q16 -10 16 -21v-182q0 -14 -8 -15q-6 0 -10 5q-129 129 -254 129v-408l82 -39q270 -133 270 -348q0 -162 -95 -255t-257 -120v-133
q0 -14 -3 -17t-18 -3h-88q-14 0 -17 3t-3 17v133q-63 0 -151 26t-120 46t-33 31v182q-1 14 7 14t12 -4q57 -57 138 -93t147 -36zM291 1061q0 -76 40 -122t120 -83v365q-160 -12 -160 -160zM752 390q0 120 -78 172q-29 19 -94 54v-399q72 4 122 53q50 50 50 120z" />
    <glyph glyph-name="percent" unicode="%" horiz-adv-x="1984" 
d="M530 51l811 1405q8 16 27 6l88 -51q16 -10 8 -29l-811 -1405q-8 -16 -26 -6l-88 52q-17 10 -9 28zM1130 334q0 144 98 246t256 102q159 0 256 -101t97 -247t-97 -246q-97 -102 -256 -102q-158 0 -256 102t-98 246zM1683 334q0 90 -54 149t-145 59q-92 0 -146 -58
q-54 -60 -54 -150t54 -150t146 -59q92 -1 145 59q54 60 54 150zM147 1100q-1 144 97 246t257 102t256 -101t97 -247t-97 -246q-97 -102 -256 -102t-257 102t-97 246zM700 1100q0 90 -54 149t-145 59t-145 -58q-54 -60 -55 -150q0 -90 54 -150q53 -60 145 -59q92 -1 146 59
t54 150z" />
    <glyph glyph-name="ampersand" unicode="&#x26;" horiz-adv-x="1312" 
d="M552 1303q-66 -1 -104 -41t-38 -110t114 -212q8 -8 16 -8t56 40q49 40 77 79q27 39 27 105t-41 106t-107 41zM293 408q0 -131 83 -198t179 -67q97 0 155 24t117 87q12 12 0 31l-323 401q-6 8 -12 8l-15 -6q-67 -51 -95 -78t-58 -82t-31 -120zM1067 272q0 -6 8 -16
l176 -229l4 -7l5 -12q0 -8 -19 -8h-174q-14 0 -27 14l-86 113q-4 6 -7 6t-9 -6q-131 -147 -369 -147q-195 0 -331 110t-136 316q0 147 71 239t204 182q8 3 8 11t-4 12q-147 176 -147 310t94 214t227 80t227 -80t94 -206t-54 -204q-56 -78 -165 -159q-8 -2 -8 -12t6 -19
l273 -348q6 -8 13 -8t9 8q27 59 41 205q0 16 17 16h149q18 0 19 -16q-11 -178 -103 -344q-6 -9 -6 -15z" />
    <glyph glyph-name="quotesingle" unicode="'" horiz-adv-x="409" 
d="M285 1434q14 0 17 -4t1 -17l-39 -418q-2 -20 -20 -20h-78q-18 0 -21 20l-39 418q-2 13 2 17t17 4h160z" />
    <glyph glyph-name="parenleft" unicode="(" horiz-adv-x="536" 
d="M94 611q0 447 199 876q6 14 14 14t10 -2l136 -59q10 -4 10 -12t-2 -11q-182 -385 -182 -812t182 -812q2 -2 2 -10t-10 -12l-136 -60q-2 -2 -10 -2q-8 1 -14 15q-199 440 -199 887z" />
    <glyph glyph-name="parenright" unicode=")" horiz-adv-x="536" 
d="M74 -217q0 8 2 10q182 385 182 812t-182 812q-2 2 -2 10t10 13l135 59q2 2 10 2t15 -14q199 -427 199 -875t-199 -888q-6 -14 -15 -15q-8 0 -10 2l-135 60q-10 4 -10 12z" />
    <glyph glyph-name="asterisk" unicode="*" horiz-adv-x="677" 
d="M289 934q-14 0 -18 4q-3 4 -3 16l19 144l-6 4l-121 -82q-16 -12 -29 8l-43 74q-4 6 -4 15t10 13l137 60v8l-137 62q-16 8 -6 28l43 74q10 20 27 8l123 -86l6 2l-19 148q0 12 3 16t18 4h98q14 0 17 -4t4 -16l-19 -146l6 -4l123 86q16 10 27 -8l43 -74q12 -18 -6 -28
l-136 -64v-6l136 -60q16 -6 13 -15q-1 -3 -7 -13l-43 -74q-12 -20 -29 -8l-119 82l-6 -4l17 -144q0 -12 -4 -16t-17 -4h-98z" />
    <glyph glyph-name="plus" unicode="+" 
d="M594 582q0 -14 3 -18t17 -3h318q14 0 17 -4t3 -16v-111q0 -12 -3 -16t-17 -4h-318q-14 0 -17 -3t-3 -18v-369q0 -12 -3 -16t-18 -4h-122q-14 0 -18 4q-3 4 -3 16v369q0 13 -3 17t-17 4h-318q-14 0 -17 4t-3 16v111q0 12 3 16t17 4h318q14 0 17 3t3 18v366q0 12 3 16t18 5
h122q13 0 17 -4t4 -17v-366z" />
    <glyph glyph-name="comma" unicode="," horiz-adv-x="512" 
d="M346 199q20 0 19 -21l-117 -401q-4 -9 -6 -15t-19 -6h-88q-16 0 -16 21l45 401q2 20 22 21h160z" />
    <glyph glyph-name="hyphen" unicode="-" horiz-adv-x="614" 
d="M102 614q0 14 4 18t17 3h369q14 0 17 -3t3 -18v-122q0 -14 -3 -18t-17 -3h-369q-14 0 -18 3q-3 3 -3 18v122z" />
    <glyph glyph-name="period" unicode="." horiz-adv-x="512" 
d="M257 -25q-52 0 -90 37t-38 90q0 52 37 90t90 38t90 -38q37 -36 37 -88t-37 -91q-37 -38 -89 -38z" />
    <glyph glyph-name="slash" unicode="/" 
d="M211 -164q-12 -20 -29 -14l-106 51q-20 10 -8 29l745 1589q12 20 29 14l106 -51q20 -10 8 -29z" />
    <glyph glyph-name="zero" unicode="0" horiz-adv-x="1040" 
d="M285 645q0 -494 235 -493q236 0 236 494t-236 493q-236 0 -235 -494zM948 645q0 -325 -110 -495t-318 -170t-318 171t-110 495t110 494q110 171 318 171t318 -171t110 -495z" />
    <glyph glyph-name="one" unicode="1" horiz-adv-x="634" 
d="M471 20q0 -14 -3 -17t-17 -3h-144q-14 0 -17 3t-3 17v1020q0 16 -3 20t-18 1l-180 -60q-12 -6 -16 -4t-4 17v133q0 20 20 29l365 127q16 4 18 1t2 -18v-1266z" />
    <glyph glyph-name="two" unicode="2" horiz-adv-x="960" 
d="M840 162q14 0 17 -3t3 -18v-121q0 -14 -3 -17t-17 -3h-801q-14 0 -14 13t12 26l446 475q188 199 189 397q0 103 -51 167t-149 64t-154 -60q-56 -62 -56 -160q0 -20 -20 -21h-150q-18 0 -18 19q0 166 104 278t288 113q184 0 290 -108t106 -266q0 -159 -62 -285t-218 -292
l-164 -174q-16 -16 -17 -20q0 -4 19 -4h420z" />
    <glyph glyph-name="three" unicode="3" horiz-adv-x="997" 
d="M476 1311q166 -1 272 -97t106 -244t-119 -251q-8 -8 -8 -12t8 -11q180 -123 180 -321q-1 -168 -121 -282q-120 -113 -298 -113t-290 93t-132 240q0 14 16 15h156q12 0 16 -13q18 -77 76 -123t158 -46t164 62t65 164q0 102 -65 166q-65 62 -173 62h-102q-12 0 -14 3t-2 15
v125q0 11 2 15t14 4h109q82 0 129 60t47 144t-54 136q-54 51 -142 51q-87 0 -139 -48t-52 -118q0 -14 -3 -17t-18 -3h-137q-13 0 -17 3t-4 17q4 139 106 231t266 93z" />
    <glyph glyph-name="four" unicode="4" 
d="M647 819q0 8 -4 8l-2 -2q-2 0 -2 -1t-2 -1l-313 -442q-6 -8 -7 -12q0 -6 11 -7h301q12 0 15 4t3 15v438zM823 18q0 -12 -2 -15t-16 -3h-139q-12 0 -16 3q-3 3 -3 15v170q0 12 -3 16t-15 3h-606q-13 0 -13 4t4 12l795 1110q4 4 9 4t5 -6v-950q0 -12 3 -15t16 -4h110
q12 0 16 -3t3 -15v-119q0 -12 -3 -15t-16 -3h-110q-12 0 -16 -3t-3 -16v-170z" />
    <glyph glyph-name="five" unicode="5" horiz-adv-x="933" 
d="M227 1290h547q14 0 18 -3t3 -17v-119q0 -14 -3 -17t-18 -4h-397q-18 0 -21 -18l-20 -291q0 -14 3 -17t49 -1t58 2q190 0 302 -115t110 -287q0 -172 -122 -298q-122 -125 -326 -125t-349 143q-6 6 -6 13t11 18l98 98q10 10 15 10t14 -12q27 -39 88 -73t131 -34
q112 0 184 69q72 70 72 188t-72 187t-196 69t-216 -68q-6 -2 -14 -8t-14 -7q-6 0 -6 19l53 678q2 20 24 20z" />
    <glyph glyph-name="six" unicode="6" 
d="M268 400q0 -112 66 -184t180 -73q114 0 182 74t68 183q0 110 -68 182t-182 72t-180 -72q-66 -70 -66 -182zM515 -20q-197 0 -315 122t-118 295q0 174 116 316q48 59 192 226t276 333q12 18 32 18h189q14 0 14 -5t-8 -13l-381 -455q-4 -4 -4 -9t10 -5h27q178 0 292 -114
q113 -114 113 -290q0 -175 -118 -297t-317 -122z" />
    <glyph glyph-name="seven" unicode="7" horiz-adv-x="833" 
d="M575 1128h-507q-12 0 -16 4t-3 15v125q0 12 3 15t16 3h778q12 0 12 -8l-2 -4q0 -4 -2 -6l-600 -1254q-8 -18 -29 -18h-157q-12 0 -13 8l533 1092q2 4 2 10l2 4q0 14 -17 14z" />
    <glyph glyph-name="eight" unicode="8" horiz-adv-x="1001" 
d="M270 712q0 4 -8 13q-119 103 -119 247q1 144 101 241t258 97t259 -98t101 -238t-123 -249q-8 -8 -8 -12t8 -11q182 -127 183 -327q0 -168 -118 -282q-118 -113 -304 -113t-303 114t-117 281q0 208 182 327q8 6 8 10zM504 1155q-80 0 -132 -55t-53 -131q1 -76 51 -130
q50 -55 131 -55t133 54t52 133q0 78 -51 131t-131 53zM260 380q0 -97 70 -168t171 -71t171 71t70 168t-67 166q-67 68 -175 68t-174 -68t-66 -166z" />
    <glyph glyph-name="nine" unicode="9" horiz-adv-x="983" 
d="M135 0q-14 0 -14 4q5 5 8 14l385 486q4 4 4 8t-8 3t-35 -1q-174 0 -288 109q-113 109 -113 281t113 290q113 117 305 117t307 -117t114 -293q-1 -94 -29 -157q-28 -62 -48 -97q-45 -78 -180 -248q-136 -170 -298 -381q-12 -18 -32 -18h-191zM729 903q0 102 -65 173
q-66 71 -171 71t-170 -71t-65 -172t67 -170q67 -68 173 -68t169 67q62 68 62 170z" />
    <glyph glyph-name="colon" unicode=":" horiz-adv-x="512" 
d="M257 -25q-52 0 -90 37t-38 90q0 52 37 90t90 38t90 -38q37 -36 37 -88t-37 -91q-37 -38 -89 -38zM257 672q-52 0 -90 37t-38 90t37 90t90 37t90 -37t37 -89t-37 -90t-89 -38z" />
    <glyph glyph-name="semicolon" unicode=";" horiz-adv-x="512" 
d="M257 672q-52 0 -90 37t-38 90t37 90t90 37t90 -37t37 -89t-37 -90t-89 -38zM344 199q20 0 18 -21l-116 -401q-4 -9 -6 -15t-19 -6h-88q-16 0 -16 21l45 401q2 20 22 21h160z" />
    <glyph glyph-name="less" unicode="&#x3c;" 
d="M952 909v-129q0 -20 -20 -28l-635 -252q-4 -5 -4 -11t4 -10l635 -268q20 -8 20 -29v-129q0 -16 -10 -16q-8 4 -10 4l-840 369q-20 8 -20 45v67q0 31 20 39l840 361q2 0 10 4q10 0 10 -17z" />
    <glyph glyph-name="equal" unicode="=" 
d="M932 733q14 0 17 -4t3 -16v-111q0 -12 -3 -16t-17 -4h-840q-14 0 -17 4t-3 16v111q0 12 3 16t17 4h840zM932 389q14 0 17 -4t3 -16v-111q0 -12 -3 -16t-17 -4h-840q-14 0 -17 4t-3 16v111q0 12 3 16t17 4h840z" />
    <glyph glyph-name="greater" unicode="&#x3e;" 
d="M72 53v129q0 20 20 29l635 268q4 4 4 10t-4 11l-635 252q-20 8 -20 28v129q0 16 10 17q8 -4 10 -4l840 -361q20 -8 20 -39v-67q0 -37 -20 -45l-840 -369q-2 0 -10 -4q-10 0 -10 16z" />
    <glyph glyph-name="question" unicode="?" horiz-adv-x="860" 
d="M440 1284q-190 0 -190 -215q0 -20 -21 -20h-137q-18 0 -18 18v33q0 160 94 259t273 99t275 -89t95 -235q0 -146 -119 -273q-49 -52 -98 -103q-119 -124 -119 -234v-116q0 -14 -4 -18t-18 -3h-99q-12 0 -16 3q-22 16 -22 161q-1 145 104 263q43 48 87 93q107 109 105 201
q0 176 -172 176zM417 -25q-52 0 -90 37t-38 90q0 52 37 90t90 38t90 -38q37 -36 37 -88t-37 -91q-37 -38 -89 -38z" />
    <glyph glyph-name="at" unicode="@" horiz-adv-x="1556" 
d="M1026 811h117q12 0 14 -2t0 -16l-82 -443q-12 -61 -12 -109t41 -48q70 0 136 100t67 248q1 231 -139 357t-372 126t-386 -168q-156 -168 -156 -429t160 -422t434 -161t391 119q4 4 11 4t7 -14v-160q0 -10 -16 -20q-164 -82 -401 -82q-344 1 -550 201t-206 532t210 542
t500 210t485 -170q196 -170 196 -443q0 -195 -117 -349t-285 -153q-92 0 -125 101q-2 6 -8 6t-8 -6q-104 -104 -232 -104t-220 100q-93 100 -93 239q0 185 101 309t274 123q68 1 124 -29t83 -83q2 -6 8 -6t8 6l16 76q4 18 25 18zM942 481q0 195 -182 195q-92 0 -150 -77
t-59 -171q0 -94 46 -154t135 -61q89 0 150 74q60 74 60 194z" />
    <glyph glyph-name="A" unicode="A" horiz-adv-x="1150" 
d="M573 1464q8 0 11 -8l532 -1436q2 -2 2 -11t-16 -9h-178q-20 0 -27 20l-82 216q-6 20 -27 20h-438q-20 0 -26 -20l-76 -216q-6 -20 -27 -20h-172q-16 0 -16 9t2 11l528 1436q2 8 10 8zM570 913q-8 0 -13 -6l-160 -458q6 -8 13 -9h321q14 0 14 6q-4 10 -4 15l-159 446
q-4 6 -12 6z" />
    <glyph glyph-name="B" unicode="B" horiz-adv-x="1073" 
d="M346 856q0 -14 3 -17t18 -3h135q96 0 155 55t59 155t-58 153q-58 54 -156 54h-135q-13 0 -17 -3t-4 -17v-377zM561 180q104 0 163 67q58 67 58 174t-62 171t-169 63h-184q-13 0 -17 -3t-4 -17v-434q0 -13 3 -17t18 -4h194zM150 1413q0 13 3 17t17 4h332q200 0 310 -100
t110 -279q0 -178 -152 -267q-8 -6 -8 -13t8 -9q96 -39 163 -126t66 -228q0 -188 -128 -300t-339 -112h-362q-14 0 -17 3t-3 17v1393z" />
    <glyph glyph-name="C" unicode="C" horiz-adv-x="1273" 
d="M831 -20q-333 0 -535 213t-202 524t202 524t535 213q164 0 328 -82q16 -10 17 -20v-219q0 -15 -8 -15t-11 4q-133 133 -326 133q-243 -1 -379 -159t-136 -379t136 -380q138 -159 379 -159q193 0 326 133q4 4 11 4t8 -14v-219q0 -10 -17 -21q-164 -81 -328 -81z" />
    <glyph glyph-name="D" unicode="D" horiz-adv-x="1288" 
d="M971 720q0 320 -189 454q-102 74 -297 73h-114q-13 0 -17 -3t-4 -17v-1020q0 -13 3 -17t18 -4h116q184 0 287 74q197 140 197 460zM504 1434q232 0 384 -94t229 -256t77 -378t-103 -394q-180 -312 -606 -312h-315q-14 0 -17 3t-3 17v1393q0 13 3 17t17 4h334z" />
    <glyph glyph-name="E" unicode="E" horiz-adv-x="1048" 
d="M150 1413q0 13 3 17t17 4h764q14 0 17 -3t3 -18v-147q0 -14 -3 -18t-17 -3h-563q-13 0 -17 -3t-4 -17v-506q0 -13 3 -17t18 -4h542q13 0 17 -3t4 -17v-146q0 -14 -3 -17t-18 -3h-542q-13 0 -17 -3t-4 -17v-283q0 -13 3 -17t18 -4h573q14 0 18 -3t3 -17v-148q0 -14 -3 -17
t-18 -3h-774q-14 0 -17 3t-3 17v1393z" />
    <glyph glyph-name="F" unicode="F" horiz-adv-x="1003" 
d="M150 1413q0 13 3 17t17 4h739q13 0 17 -3t4 -18v-147q0 -14 -3 -18t-18 -3h-538q-13 0 -17 -3t-4 -17v-506q0 -13 3 -17t18 -4h522q14 0 17 -3t3 -17v-146q0 -14 -3 -17t-17 -3h-522q-13 0 -17 -3t-4 -17v-472q0 -14 -3 -17t-17 -3h-160q-14 0 -17 3t-3 17v1393z" />
    <glyph glyph-name="G" unicode="G" horiz-adv-x="1353" 
d="M831 1255q-247 -1 -381 -155t-134 -384t136 -388q138 -158 388 -158q135 0 202 33q10 4 11 14v346q0 13 -3 17t-18 4h-268q-14 0 -18 3q-3 3 -3 17v141q0 13 3 17t18 4h465q14 0 17 -3t3 -18v-641q0 -14 -12 -22q-125 -102 -397 -102q-338 0 -542 213t-204 524t202 524
t535 213q188 0 334 -82q16 -10 17 -20v-219q0 -14 -8 -15q-6 0 -11 4q-133 133 -332 133z" />
    <glyph glyph-name="H" unicode="H" horiz-adv-x="1212" 
d="M1063 20q0 -14 -3 -17t-18 -3h-159q-14 0 -18 3q-3 3 -3 17v472q0 14 -3 17t-17 3h-471q-13 0 -17 -3t-4 -17v-472q0 -14 -3 -17t-17 -3h-160q-14 0 -17 3t-3 17v1393q0 13 3 17t17 4h160q14 0 17 -3t3 -18v-694q0 -13 3 -17t18 -4h471q14 0 17 3t3 18v694q0 13 3 17
t18 4h159q14 0 18 -3t3 -18v-1393z" />
    <glyph glyph-name="I" unicode="I" horiz-adv-x="495" 
d="M147 1413q-1 13 3 17t18 4h160q14 0 17 -3t3 -18v-1393q0 -14 -3 -17t-17 -3h-160q-14 0 -17 3t-4 17v1393z" />
    <glyph glyph-name="J" unicode="J" horiz-adv-x="606" 
d="M258 1417q0 16 16 17h168q16 0 17 -17v-1143q-1 -156 -63 -226t-192 -68q-130 0 -145 20q-2 4 -2 14v138q0 18 21 16q45 -10 91 -10t68 32t21 111v1116z" />
    <glyph glyph-name="K" unicode="K" horiz-adv-x="1150" 
d="M350 20q0 -14 -3 -17t-17 -3h-160q-14 0 -17 3t-3 17v1393q0 13 3 17t17 4h160q14 0 17 -3t3 -18v-571q0 -14 12 -15q12 0 19 11l450 575q18 20 33 21h213q27 0 8 -21l-499 -633q-4 -4 -4 -10t4 -10l522 -740q2 -4 6 -9t4 -8t-18 -3h-213q-14 0 -33 20l-471 680
q-6 8 -19 8t-14 -14v-674z" />
    <glyph glyph-name="L" unicode="L" horiz-adv-x="925" 
d="M150 1413q0 13 3 17t17 4h156q14 0 17 -3t3 -18v-1204q0 -13 3 -17t18 -4h475q14 0 17 -3t3 -17v-148q0 -14 -3 -17t-17 -3h-672q-14 0 -17 3t-3 17v1393z" />
    <glyph glyph-name="M" unicode="M" horiz-adv-x="1568" 
d="M784 242q-6 0 -16 10l-389 549q-6 6 -18 6t-13 -12v-775q0 -14 -3 -17t-17 -3h-158q-14 0 -17 3t-3 17v1430q0 14 6 14t14 -10l602 -881q8 -8 13 -8t12 8l602 881q8 10 14 10t6 -14v-1430q0 -14 -3 -17t-17 -3h-158q-14 0 -17 3t-3 17v775q-1 12 -13 12t-18 -6l-389 -549
q-11 -10 -17 -10z" />
    <glyph glyph-name="N" unicode="N" horiz-adv-x="1208" 
d="M346 893q-16 0 -16 -12v-861q0 -14 -3 -17t-18 -3h-151q-14 0 -18 3q-3 3 -3 17v1430q0 14 6 14t15 -10l690 -907q6 -6 18 -6t13 12v860q0 13 3 17t17 4h152q14 0 17 -3t3 -18v-1429q0 -14 -6 -15q-4 0 -14 11l-691 907q-6 6 -14 6z" />
    <glyph glyph-name="O" unicode="O" horiz-adv-x="1622" 
d="M315 717q-1 -221 141 -380t355 -159t354 159t142 380t-141 380t-355 159t-355 -160q-142 -158 -141 -379zM1528 717q0 -303 -209 -520t-508 -217t-508 217t-209 520t209 520t508 217t508 -217t209 -520z" />
    <glyph glyph-name="P" unicode="P" horiz-adv-x="1046" 
d="M371 1253q-13 0 -17 -3t-4 -17v-518q0 -13 3 -17t18 -4h129q132 0 204 74t72 203t-65 206q-66 77 -211 76h-129zM150 1413q0 13 3 17t17 4h307q217 0 344 -91q166 -125 166 -361t-160 -364q-133 -104 -342 -104h-114q-13 0 -17 -3t-4 -17v-474q0 -14 -3 -17t-17 -3h-160
q-14 0 -17 3t-3 17v1393z" />
    <glyph glyph-name="Q" unicode="Q" horiz-adv-x="1632" 
d="M315 717q-1 -221 141 -380t355 -159t354 159t142 380t-141 380t-355 159t-355 -160q-142 -158 -141 -379zM1528 723q0 -178 -62 -295t-178 -233q-6 -5 -6 -13t27 -8l241 8q14 0 18 -3t3 -17v-142q0 -14 -3 -17t-196 1t-222 4q-30 0 -150 -14t-189 -14q-299 0 -508 217
t-209 520t209 520t508 217t508 -214t209 -517z" />
    <glyph glyph-name="R" unicode="R" horiz-adv-x="1116" 
d="M346 20q0 -14 -3 -17t-17 -3h-154q-25 0 -25 20v1393q-1 13 3 17t18 4h326q233 0 359 -105t126 -317q0 -156 -91 -261t-255 -139q-8 -2 -8 -7t4 -9l444 -576q2 -4 6 -9t4 -8t-18 -3h-205q-14 0 -33 20l-456 598q-10 12 -17 13q-8 0 -8 -19v-592zM512 766q258 0 258 246
q0 119 -71 180t-195 61h-137q-13 0 -17 -3t-4 -17v-447q0 -14 3 -17t18 -3h145z" />
    <glyph glyph-name="S" unicode="S" horiz-adv-x="1030" 
d="M516 -20q-129 0 -248 66t-180 173q-6 10 -6 15t10 16l113 112q10 10 15 10t13 -12q63 -104 133 -146t164 -42t153 57q58 57 58 141q0 146 -214 264q-89 50 -179 104t-152 144t-63 203q0 157 110 263t283 106q238 0 365 -178q6 -10 6 -15t-10 -16l-101 -100
q-10 -10 -15 -10t-13 12q-74 119 -228 119q-88 0 -136 -50t-48 -122q0 -124 158 -209q181 -98 295 -184q69 -50 113 -133t44 -187q0 -180 -117 -291q-118 -110 -323 -110z" />
    <glyph glyph-name="T" unicode="T" horiz-adv-x="946" 
d="M53 1413q0 13 3 17t18 4h798q14 0 18 -3t3 -18v-147q0 -14 -3 -18t-18 -3h-278q-14 0 -17 -3t-4 -17v-1205q0 -14 -3 -17t-17 -3h-160q-14 0 -17 3t-3 17v1205q0 14 -3 17t-18 3h-278q-14 0 -18 3q-3 3 -3 18v147z" />
    <glyph glyph-name="U" unicode="U" horiz-adv-x="1265" 
d="M915 1413q-1 13 3 17t18 4h162q14 0 17 -3t3 -18v-964q0 -227 -133 -349t-351 -120q-218 0 -352 122t-135 347v964q-1 13 3 17t18 4h162q14 0 17 -3t3 -18v-926q0 -169 73 -241t213 -72t210 72t69 241v926z" />
    <glyph glyph-name="V" unicode="V" horiz-adv-x="1138" 
d="M569 547q8 0 13 6l303 860q8 20 24 21h185q12 0 12 -4t-4 -17l-522 -1436q-2 -8 -10 -8t-11 8l-522 1436q-4 12 -4 16t12 5h188q16 0 25 -21l299 -860q4 -6 12 -6z" />
    <glyph glyph-name="W" unicode="W" horiz-adv-x="1722" 
d="M856 893q-8 0 -10 -6l-307 -910q-3 -8 -11 -8t-10 8l-477 1436q-4 12 -4 16t12 5h193q16 0 24 -21l258 -852q4 -6 10 -6t11 6l293 883q8 20 24 20t25 -20l295 -883q2 -6 10 -6t10 6l262 852q8 20 25 21h184q13 0 13 -4t-5 -17l-487 -1436q-2 -8 -10 -8t-10 8l-308 910
q-2 6 -10 6z" />
    <glyph glyph-name="X" unicode="X" horiz-adv-x="1183" 
d="M270 1434q18 0 27 -21l289 -502q4 -6 10 -6t10 6l291 502q12 20 27 21h198q12 0 13 -9l-5 -12l-401 -674l-4 -12l4 -12l418 -695l4 -12q0 -8 -12 -8h-203q-18 0 -27 20l-307 523q-4 6 -10 6t-10 -6l-310 -523q-12 -20 -26 -20h-201q-12 0 -12 8l4 12l418 695l4 12l-4 12
l-394 674l-4 12q0 8 13 9h200z" />
    <glyph glyph-name="Y" unicode="Y" horiz-adv-x="1122" 
d="M240 1434q18 0 26 -21l285 -465q2 -6 10 -6t10 6l287 465q12 20 27 21h200q12 0 13 -9l-4 -12l-432 -690v-703q0 -14 -4 -17t-17 -3h-160q-14 0 -17 3t-3 17v703l-432 690l-4 12q0 8 12 9h203z" />
    <glyph glyph-name="Z" unicode="Z" horiz-adv-x="995" 
d="M879 186q14 0 17 -3t3 -17v-146q0 -14 -3 -17t-17 -3h-822q-14 0 -14 10l4 13l578 1194q6 12 6 21t-15 9h-499q-14 0 -18 3q-3 3 -3 18v145q0 13 3 17t18 4h811q14 0 14 -9l-577 -1208q-4 -12 -5 -18q0 -12 13 -13h506z" />
    <glyph glyph-name="bracketleft" unicode="[" horiz-adv-x="614" 
d="M145 1477q0 14 3 17t18 3h369q14 0 17 -3t3 -17v-113q0 -14 -3 -17t-17 -4h-185q-14 0 -17 -3t-3 -17v-1436q0 -14 3 -17t17 -3h195q14 0 17 -3t3 -18v-112q0 -14 -3 -18t-17 -3h-379q-14 0 -18 3q-3 3 -3 18v1743z" />
    <glyph glyph-name="backslash" unicode="\" 
d="M813 -164l-745 1589q-12 18 8 29l106 51q16 6 29 -14l745 -1589q12 -18 -8 -29l-106 -51q-17 -6 -29 14z" />
    <glyph glyph-name="bracketright" unicode="]" horiz-adv-x="614" 
d="M469 -266q0 -14 -3 -18t-17 -3h-379q-14 0 -18 3q-3 3 -3 18v112q0 14 3 18t18 3h194q14 0 18 3q3 3 3 17v1436q0 14 -3 17t-18 3h-184q-14 -1 -18 3t-3 18v113q0 14 3 17t18 3h369q14 0 17 -3t3 -17v-1743z" />
    <glyph glyph-name="asciicircum" unicode="^" 
d="M516 1249q-8 0 -12 -4l-234 -493q-8 -20 -28 -21h-154q-16 0 -16 10l2 4q0 4 2 7l319 661q8 20 45 21h150q31 0 39 -21l319 -661q2 -4 2 -7l2 -4q0 -10 -16 -10h-145q-20 0 -29 21l-234 493q-4 4 -12 4z" />
    <glyph glyph-name="underscore" unicode="_" horiz-adv-x="925" 
d="M12 -147q0 14 4 17t17 3h860q14 0 17 -3t3 -17v-66q0 -14 -3 -17t-17 -3h-860q-14 0 -18 3q-3 3 -3 17v66z" />
    <glyph glyph-name="grave" unicode="`" 
d="M481 1036q-16 0 -37 21l-247 254q-17 17 -10 18q7 2 18 2h196q17 0 33 -20l197 -254q16 -20 -4 -21h-146z" />
    <glyph glyph-name="a" unicode="a" horiz-adv-x="954" 
d="M66 286q0 144 99 228t243 84t235 -72q2 -2 9 -2t7 15v47q0 178 -213 178q-131 0 -213 -66q-6 -6 -14 -6t-8 17v125q0 14 16 24q84 57 236 57q373 0 373 -327v-568q0 -12 -3 -16t-18 -4h-129q-14 0 -17 4t-3 16v70q0 4 -8 4t-9 -2q-90 -112 -236 -112t-247 80
q-100 82 -100 226zM655 306q0 66 -61 108q-60 42 -150 41q-90 0 -146 -45t-56 -118t54 -119t143 -46t153 57q63 56 63 122z" />
    <glyph glyph-name="b" unicode="b" horiz-adv-x="1126" 
d="M311 793q0 -5 7 -5t10 3q124 125 300 125t304 -137t129 -331q0 -194 -128 -331q-127 -137 -307 -137t-298 124q-2 2 -10 2t-7 -4v-82q0 -12 -3 -16t-17 -4h-139q-14 0 -18 4q-3 4 -3 16v1496q0 12 3 16t18 4h139q14 0 17 -4t3 -16v-723zM596 143q125 1 203 89t78 216
t-79 216t-203 88t-204 -88t-80 -216t80 -216t205 -89z" />
    <glyph glyph-name="c" unicode="c" horiz-adv-x="843" 
d="M530 -20q-200 0 -332 135t-132 334t132 333t332 133q121 0 218 -43q16 -6 16 -20v-168q0 -14 -5 -14t-14 4q-77 78 -209 78t-209 -85t-77 -219t76 -220t214 -85q138 0 214 86q2 2 9 2t7 -14v-170q0 -14 -16 -20q-98 -47 -224 -47z" />
    <glyph glyph-name="d" unicode="d" horiz-adv-x="1126" 
d="M815 1516q0 12 3 16t18 4h139q14 0 17 -4t3 -16v-1496q0 -12 -3 -16t-17 -4h-139q-14 0 -18 4q-3 4 -3 16v82q0 4 -7 4t-9 -2q-125 -124 -301 -124t-304 137t-128 332t128 331t306 135q178 0 299 -124q2 -3 9 -3t7 5v723zM535 143q125 1 203 89t77 216q0 128 -79 216
q-78 88 -202 88t-204 -88t-80 -216t80 -216t205 -89z" />
    <glyph glyph-name="e" unicode="e" horiz-adv-x="991" 
d="M503 754q-101 0 -168 -62t-79 -157q0 -13 3 -17t17 -4h439q16 0 19 3t1 18q-11 99 -71 159t-161 60zM829 217v-141q0 -16 -16 -29q-88 -68 -264 -67q-229 0 -352 131t-123 333t119 336t311 135q192 0 304 -134q110 -134 110 -332v-58q0 -12 -4 -16t-17 -4h-608
q-14 0 -19 -3q-4 -4 -4 -16q10 -98 85 -153t198 -56q67 0 147 25t113 61q20 20 20 -12z" />
    <glyph glyph-name="f" unicode="f" horiz-adv-x="546" 
d="M457 1405q-104 0 -105 -139v-351q0 -14 3 -17t18 -3h125q14 0 17 -4t3 -17v-118q0 -12 -3 -16t-17 -5h-125q-13 0 -17 -3t-4 -17v-695q0 -12 -3 -16t-17 -4h-139q-14 0 -18 4q-3 4 -3 16v695q0 14 -3 17t-17 3h-82q-14 0 -18 4q-3 4 -3 17v118q0 12 3 16t18 5h82
q14 0 17 3t3 17v334q0 319 250 320q113 0 115 -35v-121q0 -18 -13 -18q-40 10 -67 10z" />
    <glyph glyph-name="g" unicode="g" horiz-adv-x="1122" 
d="M227 -213q-1 20 5 20t16 -6q126 -84 280 -84t221 73t66 239v73q0 4 -7 4t-9 -2q-119 -124 -298 -124t-307 137t-128 332t128 331t307 135q179 0 298 -124q2 -3 9 -3t7 5v81q0 12 3 16t18 5h139q14 0 17 -4t3 -17v-837q1 -236 -115 -360t-343 -123q-180 0 -291 57
q-18 8 -19 24v152zM531 752q-125 0 -203 -88t-78 -216t78 -216t202 -89q124 0 205 88q80 89 80 217t-80 216t-204 88z" />
    <glyph glyph-name="h" unicode="h" horiz-adv-x="1056" 
d="M938 20q0 -12 -3 -16t-17 -4h-140q-14 0 -17 4t-3 16v508q0 223 -197 224q-109 0 -179 -71t-71 -192v-469q0 -12 -3 -16t-17 -4h-139q-14 0 -18 4q-3 4 -3 16v1496q0 12 3 16t18 4h139q14 0 17 -4t3 -16v-723q0 -5 7 -5t10 3q116 125 280 125t247 -95q83 -94 83 -252
v-549z" />
    <glyph glyph-name="i" unicode="i" horiz-adv-x="458" 
d="M229 1083q-51 0 -89 37t-38 90q0 54 37 92t90 38t90 -38t37 -90t-38 -90q-38 -39 -89 -39zM139 874q0 12 3 16t18 5h139q14 0 17 -4t3 -17v-854q0 -12 -3 -16t-17 -4h-139q-14 0 -18 4q-3 4 -3 16v854z" />
    <glyph glyph-name="j" unicode="j" horiz-adv-x="446" 
d="M231 1083q-51 0 -89 37t-38 90q0 54 37 92t90 38t91 -38q36 -38 36 -90t-38 -90q-38 -39 -89 -39zM319 -143q0 -158 -60 -233t-187 -75q-49 0 -64 2l-24 5q-10 4 -16 6t-5 18v121q0 18 25 14t47 -4q104 0 104 139v1024q0 12 3 16t18 5h139q14 0 17 -4t3 -17v-1017z" />
    <glyph glyph-name="k" unicode="k" horiz-adv-x="899" 
d="M311 563q1 -14 13 -14t18 10l262 315q18 20 33 21h184q16 0 17 -6q0 -4 -9 -15l-315 -372q-4 -4 -4 -10t4 -11l342 -461q2 -4 6 -9t4 -8t-18 -3h-184q-14 0 -33 20l-287 402q-6 8 -19 8t-14 -14v-396q0 -12 -3 -16t-17 -4h-139q-14 0 -18 4q-3 4 -3 16v1496q0 12 3 16
t18 4h139q14 0 17 -4t3 -16v-953z" />
    <glyph glyph-name="l" unicode="l" horiz-adv-x="458" 
d="M139 1516q0 12 3 16t18 4h139q14 0 17 -4t3 -16v-1496q0 -12 -3 -16t-17 -4h-139q-14 0 -18 4q-3 4 -3 16v1496z" />
    <glyph glyph-name="m" unicode="m" horiz-adv-x="1593" 
d="M856 754q4 0 8 4q131 158 287 157q324 0 324 -346v-549q1 -12 -3 -16t-18 -4h-139q-14 0 -18 4q-3 4 -3 16v508q0 113 -39 168q-39 56 -139 56t-162 -70t-61 -193v-469q0 -12 -3 -16t-18 -4h-139q-14 0 -17 4t-3 16v508q0 113 -39 168q-39 56 -139 56q-99 0 -161 -70
t-63 -193v-469q0 -12 -3 -16t-17 -4h-139q-14 0 -18 4q-3 4 -3 16v854q0 12 3 16t18 5h139q14 0 17 -4t3 -17v-81q0 -5 7 -5t10 3q100 125 245 124q212 1 275 -157q4 -4 8 -4z" />
    <glyph glyph-name="n" unicode="n" horiz-adv-x="1036" 
d="M918 20q0 -12 -4 -16t-17 -4h-139q-14 0 -18 4q-3 4 -3 16v508q0 223 -184 224q-106 0 -174 -71t-68 -192v-469q0 -12 -3 -16t-17 -4h-139q-14 0 -18 4q-3 4 -3 16v854q0 14 3 18t18 3h139q14 0 17 -4t3 -17v-81q0 -5 7 -5t10 3q68 65 125 95t143 29q322 0 322 -346v-549
z" />
    <glyph glyph-name="o" unicode="o" horiz-adv-x="1062" 
d="M532 752q-126 0 -204 -88t-78 -216t79 -216t205 -89q126 0 202 87q77 88 77 218t-78 217t-203 87zM66 449q0 193 137 329t329 137q192 0 329 -137q136 -138 136 -330t-136 -330t-329 -138q-194 0 -330 138t-136 331z" />
    <glyph glyph-name="p" unicode="p" horiz-adv-x="1126" 
d="M311 793q0 -5 7 -5t10 3q120 125 298 125t306 -137t129 -331q0 -194 -128 -331q-129 -137 -307 -137t-298 124q-2 2 -10 2t-7 -4v-532q0 -12 -3 -16t-17 -5h-139q-14 1 -18 5t-3 16v1304q0 12 3 16t18 5h139q14 0 17 -4t3 -17v-81zM596 143q125 1 203 89t78 216t-79 216
t-203 88t-204 -88t-80 -216t80 -216t205 -89z" />
    <glyph glyph-name="q" unicode="q" horiz-adv-x="1126" 
d="M815 874q0 12 3 16t18 5h139q14 0 17 -4t3 -17v-1304q0 -12 -3 -16t-17 -5h-139q-14 1 -18 5t-3 16v532q0 4 -7 4t-9 -2q-119 -124 -298 -124t-307 137t-128 332t128 331t307 135q179 0 298 -124q2 -3 9 -3t7 5v81zM531 752q-125 0 -203 -88t-78 -216t78 -216t202 -89
q124 0 205 88q80 89 80 217t-80 216t-204 88z" />
    <glyph glyph-name="r" unicode="r" horiz-adv-x="653" 
d="M311 20q0 -12 -3 -16t-17 -4h-139q-14 0 -18 4q-3 4 -3 16v854q0 12 3 16t18 5h139q14 0 17 -4t3 -17v-108q0 -4 7 -4t10 2q32 59 108 105t160 46q14 0 17 -4t3 -16v-147q0 -23 -10 -23l-55 4q-115 0 -177 -93t-63 -261v-355z" />
    <glyph glyph-name="s" unicode="s" horiz-adv-x="770" 
d="M393 764q-55 0 -88 -29t-33 -75q0 -80 151 -136q63 -22 125 -52t106 -87t44 -152t-78 -175q-79 -79 -235 -78q-203 0 -315 151q-4 8 -4 15t8 16l84 84q8 8 14 8t14 -10q80 -111 203 -111q63 0 98 29t35 75q0 47 -43 77t-105 54t-124 54q-150 70 -150 242q0 98 78 175
t209 76q186 0 275 -122q4 -7 4 -15t-9 -16l-79 -80q-8 -8 -14 -8t-15 10q-53 80 -156 80z" />
    <glyph glyph-name="t" unicode="t" horiz-adv-x="540" 
d="M350 1292v-377q0 -14 3 -17t18 -3h125q14 0 17 -4t3 -17v-118q0 -12 -3 -16t-17 -5h-125q-13 0 -17 -3t-4 -17v-695q0 -12 -3 -16t-17 -4h-137q-14 0 -18 4q-3 4 -3 16v695q0 14 -3 17t-17 3h-82q-14 0 -18 4q-3 4 -3 17v118q0 12 3 16t18 5h82q14 0 17 3t3 17v273
q0 20 21 33l133 82l14 6q10 0 10 -17z" />
    <glyph glyph-name="u" unicode="u" horiz-adv-x="966" 
d="M483 143q85 1 139 55t54 156v520q0 12 3 16t17 5h140q14 0 17 -4t3 -17v-532q0 -158 -97 -260t-275 -102t-276 102q-97 102 -97 260v532q0 12 3 16t17 5h139q14 0 18 -4t3 -17v-520q0 -102 53 -156t139 -55z" />
    <glyph glyph-name="v" unicode="v" horiz-adv-x="870" 
d="M14 888q0 6 19 7h157q16 0 27 -21l205 -505q4 -7 12 -7t12 7l209 505q10 20 27 21h158q23 0 14 -21l-408 -892q-17 -39 -38 0l-390 892q-4 8 -4 14z" />
    <glyph glyph-name="w" unicode="w" horiz-adv-x="1327" 
d="M35 895h151q16 0 27 -21l203 -514q2 -6 12 -6t12 6l207 545q8 20 17 21q8 0 16 -21l209 -545q4 -6 12 -6t12 6l201 514q10 20 27 21h151q18 0 19 -8q-2 -4 -4 -13l-385 -892q-8 -18 -19 -19q-10 0 -20 19l-205 518q-2 6 -12 6t-13 -6l-209 -518q-6 -18 -20 -19
q-10 0 -18 19l-386 892l-4 13q0 8 19 8z" />
    <glyph glyph-name="x" unicode="x" horiz-adv-x="931" 
d="M215 0h-164q-18 0 -18 5t6 15l295 431q4 4 4 8t-4 8l-285 407q-8 8 -8 17q0 4 18 4h170q14 0 33 -21l191 -286q4 -4 8 -4t8 4l193 286q18 20 32 21h164q18 0 19 -4q0 -8 -9 -17l-282 -407q-4 -4 -4 -8t4 -8l305 -431q8 -8 8 -14t-18 -6h-166q-14 0 -33 20l-213 310
q-4 4 -8 4t-8 -4l-205 -310q-18 -20 -33 -20z" />
    <glyph glyph-name="y" unicode="y" horiz-adv-x="927" 
d="M465 264q6 0 8 6l240 604q10 20 26 21h154q18 0 18 -8q-2 -4 -4 -13l-530 -1304q-10 -20 -27 -21h-151q-18 0 -19 9q2 4 4 12l181 446q2 2 2 10t-2 11l-345 837l-4 13q0 8 19 8h158q16 0 26 -21l238 -604q2 -6 8 -6z" />
    <glyph glyph-name="z" unicode="z" horiz-adv-x="770" 
d="M432 726q0 9 -12 9h-326q-14 0 -17 3t-3 18v118q0 14 3 18t17 3h613q14 0 14 -8l-4 -13l-387 -679q-6 -11 -6 -21t12 -10h334q14 0 17 -3t3 -18v-123q0 -14 -3 -17t-17 -3h-623q-14 0 -14 10l4 13l389 682q6 12 6 21z" />
    <glyph glyph-name="braceleft" unicode="{" horiz-adv-x="614" 
d="M242 946v293q0 131 70 195q71 63 184 63h49q14 0 17 -3t3 -17v-113q0 -14 -3 -17t-17 -4h-31q-98 0 -98 -131v-323q0 -242 -148 -273q-6 -2 -6 -10t6 -10q56 -12 102 -74t46 -203v-321q0 -131 98 -131h31q14 0 17 -3t3 -18v-112q0 -14 -3 -18t-17 -3h-49q-113 -1 -184 63
t-70 195v291q0 250 -156 250q-14 0 -17 3t-3 17v146q0 14 3 17t17 3q156 0 156 248z" />
    <glyph glyph-name="bar" unicode="|" horiz-adv-x="512" 
d="M178 1516q0 12 3 16t18 4h114q13 0 17 -4t4 -16v-2008q0 -12 -3 -16t-18 -4h-114q-14 0 -18 4q-3 4 -3 16v2008z" />
    <glyph glyph-name="braceright" unicode="}" horiz-adv-x="614" 
d="M373 1239v-293q0 -248 155 -248q14 0 18 -3t3 -17v-146q0 -14 -3 -17t-18 -3q-156 0 -155 -250v-291q0 -131 -71 -194t-183 -64h-49q-14 0 -18 3q-3 3 -3 18v112q0 14 3 18t18 3h30q98 0 99 131v321q0 139 45 201t102 76q6 2 6 10t-6 10q-147 31 -147 273v323
q0 131 -99 131h-30q-14 -1 -18 3t-3 18v113q0 14 3 17t18 3h49q113 1 183 -63t71 -195z" />
    <glyph glyph-name="asciitilde" unicode="~" 
d="M942 682v-55q0 -95 -61 -157t-175 -62t-222 80q-104 82 -148 81q-86 0 -86 -94v-20q0 -13 -3 -17t-18 -4h-127q-14 0 -17 4t-3 17v53q0 96 64 159q65 62 188 62q74 0 144 -41t125 -81q54 -40 87 -40q84 0 84 92v23q0 12 3 16t18 4h127q14 0 17 -4t3 -16z" />
    <glyph glyph-name="exclamdown" unicode="&#xa1;" horiz-adv-x="581" 
d="M290 1458q52 0 90 -37t38 -90t-37 -90t-90 -37t-90 37t-37 89t37 90t89 38zM385 0h-188q-14 0 -17 3q-2 3 -2 17l41 1006q0 14 4 17t19 4h98q14 1 18 -3t4 -18l41 -1006q0 -14 -2 -17t-16 -3z" />
    <glyph glyph-name="cent" unicode="&#xa2;" horiz-adv-x="872" 
d="M268 448q0 -112 54 -192t151 -104v589q-97 -25 -151 -103t-54 -190zM592 -82q0 -14 -3 -17t-18 -3h-77q-14 0 -18 3q-3 3 -3 17v68q-173 24 -281 154t-108 308t109 306q109 129 280 153v97q0 14 3 17t18 3h77q13 0 17 -3t4 -17v-93q117 -12 184 -41q16 -6 17 -20v-166
q1 -14 -5 -14t-14 4q-70 68 -182 76v-607q123 10 190 82q2 2 10 2t7 -14v-166q-1 -14 -17 -20q-70 -33 -190 -45v-64z" />
    <glyph glyph-name="sterling" unicode="&#xa3;" horiz-adv-x="1159" 
d="M281 1008q-1 218 111 332t286 114t338 -82q16 -10 16 -20v-199q0 -14 -7 -14t-11 4q-133 133 -307 133q-121 0 -181 -65t-61 -207v-207q0 -12 12 -13h303q20 0 21 -20v-107q0 -20 -21 -20h-303q-12 0 -12 -12v-445q0 -14 3 -17t17 -3h541q20 0 21 -21v-119q0 -20 -21 -20
h-903q-20 0 -21 20v119q0 20 21 21h137q14 0 18 3q3 3 3 17v445q0 12 -13 12h-147q-16 0 -17 16v115q0 16 17 16h147q12 0 13 13v211z" />
    <glyph glyph-name="currency" unicode="&#xa4;" horiz-adv-x="1200" 
d="M1034 762q0 -115 -76 -232q0 -2 -2 -8t0 -8l162 -162q4 -4 4 -8t-4 -8l-90 -90q-4 -4 -8 -4t-8 4l-162 162q-4 4 -8 4t-8 -4q-106 -76 -232 -76t-237 74q-5 4 -9 4t-8 -4l-162 -162q-4 -4 -8 -4t-8 4l-90 90q-4 4 -4 8t4 8l162 162q2 2 2 5t-4 11q-72 96 -72 234t72 233
q4 3 4 9t-2 8l-162 162q-4 4 -4 8t4 8l90 90q4 4 8 4t8 -4l162 -162q4 -4 8 -4t9 4q113 74 237 74t232 -76q4 -4 8 -4t8 4l162 162q4 4 8 4t8 -4l90 -90q4 -4 4 -8t-4 -9l-162 -161q-2 -2 0 -9t2 -8q76 -116 76 -231zM874 762q0 116 -78 198t-194 82q-114 0 -194 -83
t-80 -197t80 -198q80 -83 194 -83t194 83q78 83 78 198z" />
    <glyph glyph-name="yen" unicode="&#xa5;" horiz-adv-x="1159" 
d="M686 635h307q20 0 21 -21v-98q0 -20 -21 -20h-307q-12 0 -12 -11v-465q0 -14 -3 -17t-18 -3h-143q-14 0 -17 3t-4 17v465q-4 10 -12 11h-311q-16 0 -16 16v106q0 16 16 17h311q10 0 12 8v47q0 49 -32 84q-4 4 -11 4h-280q-16 0 -16 17v106q0 16 16 17h201l-320 495l-4 12
q0 8 12 9h174q16 0 29 -21l313 -516q3 -6 11 -6t10 6l313 516q12 20 31 21h172q12 0 12 -9l-4 -12l-319 -495h196q20 0 21 -21v-98q0 -20 -21 -21h-276q-6 0 -10 -4q-33 -33 -33 -84v-47q2 -8 12 -8z" />
    <glyph glyph-name="brokenbar" unicode="&#xa6;" horiz-adv-x="512" 
d="M178 328q0 12 3 16t18 4h114q13 0 17 -4t4 -16v-820q0 -12 -3 -16t-18 -4h-114q-14 0 -18 4q-3 4 -3 16v820zM178 1516q0 12 3 16t18 4h114q13 0 17 -4t4 -16v-820q0 -12 -3 -16t-18 -4h-114q-14 0 -18 4q-3 4 -3 16v820z" />
    <glyph glyph-name="section" unicode="&#xa7;" horiz-adv-x="1050" 
d="M813 410q0 76 -72 142t-235 146l-68 33q-10 6 -22 2q-123 -37 -123 -164q0 -76 63 -128t224 -134l110 -59q10 -6 25 -2q98 41 98 164zM520 -471q-131 -1 -251 65t-181 175q-6 10 -6 15t10 15l103 103q10 10 14 10t14 -12q65 -109 139 -156t174 -47t157 51t57 129t-54 140
t-198 137q-221 108 -301 192t-80 213q0 158 155 262q8 6 9 10q0 4 -9 13q-116 92 -116 248t109 260q110 102 267 102q250 0 373 -184q6 -10 6 -16t-10 -15l-98 -98q-9 -11 -15 -11t-14 13q-80 147 -240 147q-82 0 -138 -45t-56 -122t58 -138t240 -155t266 -182
q85 -89 85 -234q0 -180 -131 -279q-8 -6 -8 -10t8 -10q80 -98 80 -245t-112 -244t-306 -97z" />
    <glyph glyph-name="dieresis" unicode="&#xa8;" 
d="M301 1061q-49 0 -86 35t-37 87t37 89t86 37t86 -37t37 -86t-37 -87t-86 -38zM722 1061q-48 0 -85 35t-37 87t36 89t86 37t87 -38t37 -85t-38 -86t-86 -39z" />
    <glyph glyph-name="copyright" unicode="&#xa9;" horiz-adv-x="1064" 
d="M180 984q0 -158 98 -266t256 -108q156 0 253 106t97 267q0 159 -96 267q-98 108 -254 108t-255 -108t-99 -266zM66 985q0 193 137 330t329 137t330 -137q137 -137 137 -330t-137 -331t-330 -138q-194 0 -330 138t-136 331zM555 809q82 0 143 53q8 8 14 8t7 -16v-84
q0 -20 -14 -29q-66 -43 -154 -43q-129 0 -204 83t-75 205t73 203t206 81q72 0 154 -39q14 -6 14 -29v-86q0 -16 -7 -16t-14 6q-61 53 -143 53t-121 -51t-39 -125t39 -124t121 -50z" />
    <glyph glyph-name="ordfeminine" unicode="&#xaa;" horiz-adv-x="774" 
d="M211 1143q0 -78 50 -129t124 -51t125 51t51 129t-51 129t-125 51t-124 -51t-50 -129zM596 1434h92q14 0 18 -4t3 -19v-539q0 -12 -3 -16t-18 -4h-92q-14 0 -17 4t-4 16v54q0 4 -9 4t-11 -2q-63 -90 -195 -90t-213 85q-82 85 -81 220q0 135 81 220q82 85 213 85t195 -90
q2 -2 11 -2t9 4v53q-1 13 3 17t18 4z" />
    <glyph glyph-name="guillemotleft" unicode="&#xab;" 
d="M783 891q7 0 16 -6l112 -66q12 -6 13 -14l-4 -12l-199 -326q-6 -11 -6 -21t6 -22l199 -322q6 -8 6 -13t-15 -13l-112 -66q-7 -6 -15 -6t-14 12l-248 422l-4 13l4 12l248 416q6 12 13 12zM374 891q8 0 15 -6l113 -66q12 -6 12 -14l-4 -12l-199 -326q-6 -11 -6 -21t6 -22
l199 -322q6 -8 6 -13t-14 -13l-113 -66q-8 -6 -15 -6t-14 12l-247 422l-4 13l4 12l247 416q6 12 14 12z" />
    <glyph glyph-name="logicalnot" unicode="&#xac;" 
d="M92 614q-14 0 -17 4t-3 17v110q0 13 3 17t17 4h840q14 0 17 -4t3 -17v-518q0 -12 -3 -16t-17 -4h-123q-14 0 -17 4t-4 16v367q0 14 -3 17t-17 3h-676z" />
    <glyph glyph-name="uni00AD" unicode="&#xad;" horiz-adv-x="638" 
d="M115 614q0 14 4 18t16 3h369q14 0 17 -3t3 -18v-122q0 -14 -3 -18t-17 -3h-369q-14 0 -17 3t-3 18v122z" />
    <glyph glyph-name="registered" unicode="&#xae;" horiz-adv-x="1064" 
d="M373 727q-14 0 -18 3q-3 3 -3 18v489q0 14 3 17t18 3h180q84 0 130 -44q46 -43 46 -129t-94 -132q-4 -4 -4 -7t6 -11l102 -186q6 -12 6 -16t-16 -5h-92q-14 0 -25 16l-80 156q-8 20 -24 21h-27q-14 0 -17 -4t-3 -17v-151q0 -14 -3 -18t-18 -3h-67zM532 1016q82 0 82 73
t-82 72h-51q-14 0 -17 -3t-3 -17v-107q0 -12 3 -15t17 -3h51zM180 984q0 -158 98 -266t256 -108q156 0 253 106t97 267q0 159 -96 267q-98 108 -254 108t-255 -108t-99 -266zM66 985q0 193 137 330t329 137t330 -137q137 -137 137 -330t-137 -331t-330 -138q-194 0 -330 138
t-136 331z" />
    <glyph glyph-name="macron" unicode="&#xaf;" 
d="M186 1229q0 14 4 17t17 3h610q13 0 17 -3t4 -17v-90q0 -13 -3 -17t-18 -4h-610q-14 0 -18 3q-3 3 -3 18v90z" />
    <glyph glyph-name="degree" unicode="&#xb0;" horiz-adv-x="712" 
d="M66 1163q0 117 80 201q81 84 209 84t210 -84t82 -201t-82 -201t-210 -83q-129 -1 -209 83t-80 201zM518 1163q0 74 -44 125t-118 51t-118 -51t-43 -125q0 -74 44 -125q43 -51 117 -51t118 51t44 125z" />
    <glyph glyph-name="plusminus" unicode="&#xb1;" 
d="M932 154q14 0 17 -4t3 -17v-110q0 -13 -3 -17t-17 -4h-840q-14 0 -17 4t-3 17v110q0 13 3 17t17 4h840zM594 733q0 -14 3 -17t17 -3h318q14 0 17 -4t3 -17v-110q0 -12 -3 -16t-17 -5h-318q-14 0 -17 -3t-3 -17v-265q0 -12 -3 -16t-18 -4h-122q-14 0 -18 4q-3 4 -3 16v265
q0 14 -3 17t-17 3h-318q-14 0 -17 4t-3 17v110q0 12 3 16t17 5h318q14 0 17 3t3 17v264q0 13 3 17t18 4h122q13 0 17 -4t4 -17v-264z" />
    <glyph glyph-name="twosuperior" unicode="&#xb2;" horiz-adv-x="681" 
d="M76 1427q0 119 68 191q69 72 198 72t198 -71q68 -71 68 -198t-178 -311l-45 -45q-6 -6 -6 -11t10 -5h186q13 0 17 -3t4 -18v-96q0 -14 -3 -18t-18 -3h-495q-8 1 -8 7t2 12l237 256q70 78 105 130t35 103q0 127 -115 127q-51 0 -80 -30t-29 -89q0 -14 -3 -17t-17 -3h-111
q-14 0 -17 3t-3 17z" />
    <glyph glyph-name="threesuperior" unicode="&#xb3;" horiz-adv-x="681" 
d="M203 1450h-99q-14 0 -17 3t-3 17q4 100 73 160t179 60t178 -62t68 -143q0 -82 -68 -133q-8 -8 -8 -12t8 -11q104 -71 104 -185t-74 -180t-203 -67q-128 0 -203 67t-75 175q-1 14 3 17t18 3h104q14 0 18 -3t3 -17q0 -45 38 -76t89 -31q125 0 125 103q0 47 -32 75t-93 27
h-68q-14 0 -17 3t-3 17v93q0 14 3 17t17 3h54q109 0 108 86q0 47 -28 75t-74 28q-95 -1 -105 -89q0 -14 -3 -17t-17 -3z" />
    <glyph glyph-name="acute" unicode="&#xb4;" 
d="M623 1331h196q10 0 18 -2t-10 -18l-247 -254q-20 -20 -37 -21h-146q-20 0 -4 21l197 254q16 20 33 20z" />
    <glyph glyph-name="mu" unicode="&#xb5;" horiz-adv-x="1034" 
d="M309 -4v-432q0 -12 -3 -16t-17 -5h-144q-14 0 -17 4t-3 17v1310q0 12 3 16t17 5h144q14 0 17 -4t3 -17v-507q0 -223 185 -224q106 0 174 71t67 192v468q0 12 3 16t18 5h143q14 0 17 -4t4 -17v-854q0 -12 -4 -16t-17 -4h-143q-14 0 -18 4q-3 4 -3 16v82q0 4 -4 4t-40 -32
q-105 -95 -240 -94q-83 0 -138 20q-4 0 -4 -4z" />
    <glyph glyph-name="paragraph" unicode="&#xb6;" horiz-adv-x="1091" 
d="M926 1434q14 0 17 -3t3 -18v-1726q0 -13 -3 -17t-17 -4h-154q-14 0 -17 3t-3 18v1726q0 13 3 17t17 4h154zM567 512q-209 0 -342 104q-159 125 -159 367t165 360q123 90 344 91q20 0 21 -21v-881q0 -20 -21 -20h-8z" />
    <glyph glyph-name="periodcentered" unicode="&#xb7;" horiz-adv-x="512" 
d="M257 524q-52 0 -90 37t-38 90t37 90t90 37t90 -37t37 -89t-37 -90t-89 -38z" />
    <glyph glyph-name="cedilla" unicode="&#xb8;" 
d="M707 -196q0 -99 -65 -168q-65 -68 -162 -68t-152 39q-12 10 -11 24l17 88q4 23 22 11q54 -33 100 -33t74 28q28 29 29 77q0 48 -36 75t-75 27t-56 -2t-21 4t0 24l16 88h57q102 0 183 -57q80 -58 80 -157z" />
    <glyph glyph-name="onesuperior" unicode="&#xb9;" horiz-adv-x="681" 
d="M182 1442q-6 0 -6 16v105q0 20 21 28l284 99q17 2 19 1t2 -18v-743q0 -12 -2 -16t-17 -3h-123q-12 0 -15 3t-3 16v538q0 16 -3 20t-17 1l-125 -43q-9 -4 -15 -4z" />
    <glyph glyph-name="ordmasculine" unicode="&#xba;" horiz-adv-x="774" 
d="M387 838q-141 0 -231 85t-90 220t90 220t230 85t231 -86t91 -220t-90 -219t-231 -85zM387 1321q-78 0 -126 -48t-48 -129t48 -131t126 -50t126 50t48 131t-48 129t-126 48z" />
    <glyph glyph-name="guillemotright" unicode="&#xbb;" 
d="M241 4q-7 0 -16 6l-112 66q-14 8 -15 14q0 4 6 12l199 322q6 12 6 22t-6 21l-199 326l-4 12q0 8 13 14l112 66q7 6 15 6t14 -12l248 -416l4 -12l-4 -13l-248 -422q-6 -12 -13 -12zM650 4q-8 0 -15 6l-113 66q-14 8 -14 13t6 13l199 322q6 12 6 22t-6 21l-199 326l-4 12
q0 8 12 14l113 66q8 6 15 6t14 -12l247 -416l4 -12l-4 -13l-247 -422q-6 -12 -14 -12z" />
    <glyph glyph-name="onequarter" unicode="&#xbc;" horiz-adv-x="1368" 
d="M1020 449q0 10 -4 10t-8 -6l-138 -179q-8 -10 -8 -15t12 -5h125q14 0 18 3q3 3 3 17v175zM625 129q-31 0 -15 18l535 660q6 6 12 6t6 -8v-533q0 -14 3 -17t18 -3h61q13 0 17 -3t4 -18v-81q0 -14 -3 -18t-18 -3h-61q-14 0 -18 -3t-3 -17v-72q0 -13 -3 -17t-17 -4h-103
q-14 0 -17 3t-3 18v72q0 14 -3 17t-18 3h-374zM88 1217q-6 0 -6 16v104q0 20 20 29l285 98q17 2 19 1t2 -17v-743q0 -11 -2 -15t-17 -4h-123q-12 0 -15 3t-3 16v538q0 17 -3 21t-18 0l-125 -43q-8 -4 -14 -4zM186 51l811 1405q8 16 27 6l88 -51q16 -10 8 -29l-811 -1405
q-8 -16 -26 -6l-88 52q-17 10 -9 28z" />
    <glyph glyph-name="onehalf" unicode="&#xbd;" horiz-adv-x="1449" 
d="M186 51l811 1405q8 16 27 6l88 -51q16 -10 8 -29l-811 -1405q-8 -16 -26 -6l-88 52q-17 10 -9 28zM88 1217q-6 0 -6 16v104q0 20 20 29l285 98q17 2 19 1t2 -17v-743q0 -11 -2 -15t-17 -4h-123q-12 0 -15 3t-3 16v538q0 17 -3 21t-18 0l-125 -43q-8 -4 -14 -4zM815 532
q0 119 69 191q70 72 198 72t197 -71t69 -198t-179 -311l-45 -45q-6 -6 -6 -11t10 -5h187q14 0 17 -3t3 -18v-96q0 -13 -3 -17t-17 -4h-496q-8 0 -8 6t4 11l2 6l234 252q70 78 104 130q35 52 35 103q0 127 -115 127q-51 -1 -80 -31t-28 -88q0 -14 -3 -17t-18 -3h-110
q-14 0 -18 3q-3 3 -3 17z" />
    <glyph glyph-name="threequarters" unicode="&#xbe;" horiz-adv-x="1529" 
d="M242 1225h-99q-14 0 -17 3t-3 17q4 99 73 159q70 60 180 60t178 -61t67 -143q0 -82 -68 -134q-8 -8 -8 -12t8 -10q104 -72 104 -186q-1 -114 -75 -180t-202 -66t-203 66t-75 175q0 13 3 17t18 4h104q13 0 17 -3t4 -18q0 -45 38 -75t89 -31q125 0 125 102q0 47 -32 75
t-93 28h-68q-14 0 -17 3t-3 17v92q0 14 3 18t17 3h53q109 0 109 86q0 47 -28 75t-74 27q-95 0 -105 -88q0 -14 -3 -17t-17 -3zM1182 449q0 10 -5 10t-8 -6l-137 -179q-8 -10 -8 -15t12 -5h125q14 0 18 3q3 3 3 17v175zM786 129q-29 0 -14 18l535 660q6 6 12 6t6 -8v-533
q0 -14 3 -17t18 -3h61q14 0 17 -3t3 -18v-81q0 -14 -3 -18t-17 -3h-61q-14 0 -18 -3t-3 -17v-72q0 -13 -3 -17t-17 -4h-103q-14 0 -17 3t-3 18v72q0 14 -3 17t-18 3h-375zM348 51l811 1405q8 16 27 6l88 -51q16 -10 8 -29l-811 -1405q-8 -16 -27 -6l-88 52q-16 10 -8 28z
" />
    <glyph glyph-name="questiondown" unicode="&#xbf;" horiz-adv-x="860" 
d="M420 150q190 0 190 215q0 20 21 20h137q18 0 18 -18v-33q0 -160 -94 -259t-273 -99t-275 88q-96 90 -95 237q0 147 119 271l98 104q119 125 119 233v117q0 14 4 17t19 4h98q12 1 16 -3q22 -19 22 -164q1 -145 -104 -260q-43 -48 -87 -94q-105 -109 -105 -200
q0 -176 172 -176zM443 1458q53 0 91 -37t38 -90t-38 -90q-36 -37 -90 -37t-90 37q-37 37 -37 89t37 90t89 38z" />
    <glyph glyph-name="Agrave" unicode="&#xc0;" horiz-adv-x="1150" 
d="M647 1536h-145q-16 0 -37 20l-248 254q-17 17 -10 19q8 2 18 2h197q17 -1 33 -21l196 -254q16 -20 -4 -20zM570 913q-8 0 -13 -6l-160 -458q6 -8 13 -9h321q14 0 14 6q-4 10 -4 15l-159 446q-4 6 -12 6zM573 1464q8 0 11 -8l532 -1436q2 -2 2 -11t-16 -9h-178
q-20 0 -27 20l-82 216q-6 20 -27 20h-438q-20 0 -26 -20l-76 -216q-6 -20 -27 -20h-172q-16 0 -16 9t2 11l528 1436q2 8 10 8z" />
    <glyph glyph-name="Aacute" unicode="&#xc1;" horiz-adv-x="1150" 
d="M918 1831q10 0 17 -2t-9 -19l-248 -254q-20 -20 -37 -20h-145q-20 0 -4 20l196 254q16 20 33 21h197zM573 1464q8 0 11 -8l532 -1436q2 -2 2 -11t-16 -9h-178q-20 0 -27 20l-82 216q-6 20 -27 20h-438q-20 0 -26 -20l-76 -216q-6 -20 -27 -20h-172q-16 0 -16 9t2 11
l528 1436q2 8 10 8zM570 913q-8 0 -13 -6l-160 -458q6 -8 13 -9h321q14 0 14 6q-4 10 -4 15l-159 446q-4 6 -12 6z" />
    <glyph glyph-name="Acircumflex" unicode="&#xc2;" horiz-adv-x="1150" 
d="M649 1831q25 0 39 -21l221 -254q6 -8 6 -14t-12 -6h-127q-14 0 -35 20l-153 154q-4 4 -12 4t-13 -4l-149 -154q-20 -20 -35 -20h-131q-12 0 -12 6t6 14l213 254q18 20 39 21h155zM573 1464q8 0 11 -8l532 -1436q2 -2 2 -11t-16 -9h-178q-20 0 -27 20l-82 216
q-6 20 -27 20h-438q-20 0 -26 -20l-76 -216q-6 -20 -27 -20h-172q-16 0 -16 9t2 11l528 1436q2 8 10 8zM570 913q-8 0 -13 -6l-160 -458q6 -8 13 -9h321q14 0 14 6q-4 10 -4 15l-159 446q-4 6 -12 6z" />
    <glyph glyph-name="Atilde" unicode="&#xc3;" horiz-adv-x="1150" 
d="M268 1561q-14 0 -17 4t-3 16v29q0 84 51 142t132 58t129 -30t80 -61q32 -29 63 -29t51 19t20 52v23q0 12 3 16t18 4h90q14 0 17 -4t3 -16v-31q0 -86 -48 -142q-49 -57 -121 -57q-132 -1 -182 60q-51 61 -105 61q-29 0 -49 -19t-21 -54v-21q0 -12 -3 -16t-18 -4h-90z
M573 1464q8 0 11 -8l532 -1436q2 -2 2 -11t-16 -9h-178q-20 0 -27 20l-82 216q-6 20 -27 20h-438q-20 0 -26 -20l-76 -216q-6 -20 -27 -20h-172q-16 0 -16 9t2 11l528 1436q2 8 10 8zM570 913q-8 0 -13 -6l-160 -458q6 -8 13 -9h321q14 0 14 6q-4 10 -4 15l-159 446
q-4 6 -12 6z" />
    <glyph glyph-name="Adieresis" unicode="&#xc4;" horiz-adv-x="1150" 
d="M365 1559q-49 1 -86 35t-37 86t37 89t86 37t86 -37t37 -86t-37 -87q-37 -37 -86 -37zM909 1683q0 -47 -38 -85t-86 -39q-48 1 -85 35q-36 34 -36 86t35 89q36 37 86 37t87 -38t37 -85zM573 1464q8 0 11 -8l532 -1436q2 -2 2 -11t-16 -9h-178q-20 0 -27 20l-82 216
q-6 20 -27 20h-438q-20 0 -26 -20l-76 -216q-6 -20 -27 -20h-172q-16 0 -16 9t2 11l528 1436q2 8 10 8zM570 913q-8 0 -13 -6l-160 -458q6 -8 13 -9h321q14 0 14 6q-4 10 -4 15l-159 446q-4 6 -12 6z" />
    <glyph glyph-name="Aring" unicode="&#xc5;" horiz-adv-x="1150" 
d="M575 1516q-78 0 -132 51t-54 133t53 136t132 54q80 0 134 -55t54 -132t-54 -132t-133 -55zM575 1788q-37 0 -61 -25t-22 -61q0 -36 23 -60t59 -24t61 24t25 61t-24 61t-61 24zM573 1464q8 0 11 -8l532 -1436q2 -2 2 -11t-16 -9h-178q-20 0 -27 20l-82 216q-6 20 -27 20
h-438q-20 0 -26 -20l-76 -216q-6 -20 -27 -20h-172q-16 0 -16 9t2 11l528 1436q2 8 10 8zM570 913q-8 0 -13 -6l-160 -458q6 -8 13 -9h321q14 0 14 6q-4 10 -4 15l-159 446q-4 6 -12 6z" />
    <glyph glyph-name="AE" unicode="&#xc6;" horiz-adv-x="1564" 
d="M702 440q14 0 18 3q3 3 3 18v690q0 8 -11 8t-14 -6l-297 -692l-4 -12q0 -8 19 -9h286zM743 0q-14 0 -17 3t-3 17v216q0 14 -3 17t-18 3h-368q-20 0 -27 -20l-94 -216q-6 -20 -27 -20h-168q-16 0 -16 9t2 11l621 1393q8 20 28 21h789q14 0 17 -3t3 -18v-147q0 -14 -3 -18
t-17 -3h-502q-14 0 -17 -3t-3 -17v-506q0 -13 3 -17t17 -4h492q14 0 17 -3t3 -17v-146q0 -14 -3 -17t-17 -3h-492q-14 0 -17 -3t-3 -17v-283q0 -13 3 -17t17 -4h512q14 0 17 -3t4 -17v-148q1 -14 -3 -17t-18 -3h-709z" />
    <glyph glyph-name="Ccedilla" unicode="&#xc7;" horiz-adv-x="1273" 
d="M911 -195q-1 -100 -65 -169q-64 -68 -161 -68t-153 39q-12 10 -10 24l17 88q4 23 22 11q53 -33 99 -33t76 28q28 29 28 77t-36 75t-75 27t-56 -2t-20 3t-2 25l13 66q2 18 -15 24q-221 72 -350 264t-129 433q0 311 202 524t535 213q164 0 328 -82q16 -10 17 -20v-219
q0 -15 -8 -15t-11 4q-133 133 -326 133q-243 -1 -379 -159t-136 -379t136 -380q138 -159 379 -159q193 0 326 133q4 4 11 4t8 -14v-219q0 -10 -17 -21q-160 -80 -334 -79q-10 0 -10 -8t6 -11q90 -58 90 -158z" />
    <glyph glyph-name="Egrave" unicode="&#xc8;" horiz-adv-x="1048" 
d="M756 1536h-146q-16 0 -37 20l-247 254q-17 17 -10 19t18 2h196q19 -1 33 -21l197 -254q16 -20 -4 -20zM150 1413q0 13 3 17t17 4h764q14 0 17 -3t3 -18v-147q0 -14 -3 -18t-17 -3h-563q-13 0 -17 -3t-4 -17v-506q0 -13 3 -17t18 -4h542q13 0 17 -3t4 -17v-146
q0 -14 -3 -17t-18 -3h-542q-13 0 -17 -3t-4 -17v-283q0 -13 3 -17t18 -4h573q14 0 18 -3t3 -17v-148q0 -14 -3 -17t-18 -3h-774q-14 0 -17 3t-3 17v1393z" />
    <glyph glyph-name="Eacute" unicode="&#xc9;" horiz-adv-x="1048" 
d="M819 1831q10 0 18 -2t-10 -19l-247 -254q-20 -20 -37 -20h-146q-20 0 -4 20l197 254q16 20 33 21h196zM150 1413q0 13 3 17t17 4h764q14 0 17 -3t3 -18v-147q0 -14 -3 -18t-17 -3h-563q-13 0 -17 -3t-4 -17v-506q0 -13 3 -17t18 -4h542q13 0 17 -3t4 -17v-146
q0 -14 -3 -17t-18 -3h-542q-13 0 -17 -3t-4 -17v-283q0 -13 3 -17t18 -4h573q14 0 18 -3t3 -17v-148q0 -14 -3 -17t-18 -3h-774q-14 0 -17 3t-3 17v1393z" />
    <glyph glyph-name="Ecircumflex" unicode="&#xca;" horiz-adv-x="1048" 
d="M598 1831q25 0 39 -21l221 -254q6 -8 6 -14t-12 -6h-127q-14 0 -35 20l-153 154q-5 4 -13 4t-12 -4l-150 -154q-20 -20 -34 -20h-131q-12 0 -13 6q0 6 6 14l213 254q18 20 39 21h156zM150 1413q0 13 3 17t17 4h764q14 0 17 -3t3 -18v-147q0 -14 -3 -18t-17 -3h-563
q-13 0 -17 -3t-4 -17v-506q0 -13 3 -17t18 -4h542q13 0 17 -3t4 -17v-146q0 -14 -3 -17t-18 -3h-542q-13 0 -17 -3t-4 -17v-283q0 -13 3 -17t18 -4h573q14 0 18 -3t3 -17v-148q0 -14 -3 -17t-18 -3h-774q-14 0 -17 3t-3 17v1393z" />
    <glyph glyph-name="Edieresis" unicode="&#xcb;" horiz-adv-x="1048" 
d="M354 1559q-49 1 -86 35t-37 86t37 89t86 37t86 -37t37 -86t-37 -87t-86 -37zM899 1683q0 -47 -38 -85t-86 -39q-48 1 -85 35t-37 86t36 89t86 37t87 -38t37 -85zM150 1413q0 13 3 17t17 4h764q14 0 17 -3t3 -18v-147q0 -14 -3 -18t-17 -3h-563q-13 0 -17 -3t-4 -17v-506
q0 -13 3 -17t18 -4h542q13 0 17 -3t4 -17v-146q0 -14 -3 -17t-18 -3h-542q-13 0 -17 -3t-4 -17v-283q0 -13 3 -17t18 -4h573q14 0 18 -3t3 -17v-148q0 -14 -3 -17t-18 -3h-774q-14 0 -17 3t-3 17v1393z" />
    <glyph glyph-name="Igrave" unicode="&#xcc;" horiz-adv-x="495" 
d="M367 1536h-146q-16 0 -37 20l-247 254q-17 17 -10 19t18 2h196q19 -1 33 -21l197 -254q16 -20 -4 -20zM147 1413q-1 13 3 17t18 4h160q14 0 17 -3t3 -18v-1393q0 -14 -3 -17t-17 -3h-160q-14 0 -17 3t-4 17v1393z" />
    <glyph glyph-name="Iacute" unicode="&#xcd;" horiz-adv-x="495" 
d="M555 1831q10 0 17 -2t-9 -19l-248 -254q-20 -20 -36 -20h-146q-20 0 -4 20l197 254q14 20 32 21h197zM147 1413q-1 13 3 17t18 4h160q14 0 17 -3t3 -18v-1393q0 -14 -3 -17t-17 -3h-160q-14 0 -17 3t-4 17v1393z" />
    <glyph glyph-name="Icircumflex" unicode="&#xce;" horiz-adv-x="495" 
d="M322 1831q25 0 38 -21l222 -254q6 -8 6 -14t-13 -6h-126q-14 0 -35 20l-154 154q-4 4 -12 4t-12 -4l-150 -154q-20 -20 -35 -20h-131q-12 0 -12 6t6 14l213 254q18 20 39 21h156zM147 1413q-1 13 3 17t18 4h160q14 0 17 -3t3 -18v-1393q0 -14 -3 -17t-17 -3h-160
q-14 0 -17 3t-4 17v1393z" />
    <glyph glyph-name="Idieresis" unicode="&#xcf;" horiz-adv-x="495" 
d="M37 1559q-49 1 -86 35t-37 86t37 89t86 37t86 -37t37 -86t-37 -87t-86 -37zM582 1683q0 -47 -38 -85t-86 -39q-48 1 -85 35t-37 86t36 89t86 37t87 -38t37 -85zM147 1413q-1 13 3 17t18 4h160q14 0 17 -3t3 -18v-1393q0 -14 -3 -17t-17 -3h-160q-14 0 -17 3t-4 17v1393z
" />
    <glyph glyph-name="Eth" unicode="&#xd0;" horiz-adv-x="1288" 
d="M971 720q0 320 -189 454q-102 74 -297 73h-114q-13 0 -17 -3t-4 -17v-508q0 -13 3 -17t18 -4h198q13 0 17 -3t4 -17v-131q0 -13 -3 -17t-18 -4h-198q-13 0 -17 -3t-4 -17v-299q0 -13 3 -17t18 -4h116q184 0 287 74q197 140 197 460zM504 1434q232 0 384 -94t229 -256
t77 -378t-103 -394q-180 -312 -606 -312h-315q-14 0 -17 3t-3 17v494q-2 12 -21 12h-86q-14 0 -17 3t-3 18v131q0 14 4 17t16 3h86q14 0 17 3t4 18v694q0 13 3 17t17 4h334z" />
    <glyph glyph-name="Ntilde" unicode="&#xd1;" horiz-adv-x="1208" 
d="M311 1561q-14 0 -17 4t-3 16v29q0 84 51 142t132 58t129 -30t80 -61q32 -29 63 -29t51 19t20 52v23q0 12 3 16t18 4h90q14 0 17 -4t3 -16v-31q0 -86 -48 -142q-48 -57 -120 -57q-130 -1 -182 60t-106 61q-30 0 -50 -19t-20 -54v-21q0 -12 -3 -16t-18 -4h-90zM346 893
q-16 0 -16 -12v-861q0 -14 -3 -17t-18 -3h-151q-14 0 -18 3q-3 3 -3 17v1430q0 14 6 14t15 -10l690 -907q6 -6 18 -6t13 12v860q0 13 3 17t17 4h152q14 0 17 -3t3 -18v-1429q0 -14 -6 -15q-4 0 -14 11l-691 907q-6 6 -14 6z" />
    <glyph glyph-name="Ograve" unicode="&#xd2;" horiz-adv-x="1622" 
d="M954 1536h-145q-16 0 -37 20l-248 254q-17 17 -10 19q8 2 18 2h197q17 -1 33 -21l196 -254q16 -20 -4 -20zM315 717q-1 -221 141 -380t355 -159t354 159t142 380t-141 380t-355 159t-355 -160q-142 -158 -141 -379zM1528 717q0 -303 -209 -520t-508 -217t-508 217
t-209 520t209 520t508 217t508 -217t209 -520z" />
    <glyph glyph-name="Oacute" unicode="&#xd3;" horiz-adv-x="1622" 
d="M1116 1831q18 0 18 -7q-1 -5 -10 -14l-247 -254q-20 -20 -37 -20h-146q-20 0 -4 20l197 254q14 20 33 21h196zM315 717q-1 -221 141 -380t355 -159t354 159t142 380t-141 380t-355 159t-355 -160q-142 -158 -141 -379zM1528 717q0 -303 -209 -520t-508 -217t-508 217
t-209 520t209 520t508 217t508 -217t209 -520z" />
    <glyph glyph-name="Ocircumflex" unicode="&#xd4;" horiz-adv-x="1622" 
d="M885 1831q25 0 39 -21l221 -254q6 -10 6 -15t-12 -5h-127q-14 0 -35 20l-154 154q-4 4 -12 4t-12 -4l-150 -154q-20 -20 -35 -20h-131q-12 0 -12 6t6 14l213 254q18 20 39 21h156zM315 717q-1 -221 141 -380t355 -159t354 159t142 380t-141 380t-355 159t-355 -160
q-142 -158 -141 -379zM1528 717q0 -303 -209 -520t-508 -217t-508 217t-209 520t209 520t508 217t508 -217t209 -520z" />
    <glyph glyph-name="Otilde" unicode="&#xd5;" horiz-adv-x="1622" 
d="M504 1561q-14 0 -18 4q-3 4 -3 16v29q-1 84 51 142t133 58t129 -30t80 -61q32 -29 62 -29t51 19q20 19 21 52v23q0 12 3 16t17 4h90q14 0 18 -4t3 -16v-31q0 -86 -48 -142q-48 -57 -121 -57q-130 -1 -182 60t-106 61q-29 0 -49 -19t-21 -54v-21q0 -12 -3 -16t-17 -4h-90z
M315 717q-1 -221 141 -380t355 -159t354 159t142 380t-141 380t-355 159t-355 -160q-142 -158 -141 -379zM1528 717q0 -303 -209 -520t-508 -217t-508 217t-209 520t209 520t508 217t508 -217t209 -520z" />
    <glyph glyph-name="Odieresis" unicode="&#xd6;" horiz-adv-x="1622" 
d="M600 1559q-49 1 -86 35t-37 86t37 89t86 37t86 -37t37 -86t-37 -87t-86 -37zM1145 1683q0 -47 -38 -85t-86 -39q-48 1 -85 35t-37 86t36 89t86 37t87 -38t37 -85zM315 717q-1 -221 141 -380t355 -159t354 159t142 380t-141 380t-355 159t-355 -160q-142 -158 -141 -379z
M1528 717q0 -303 -209 -520t-508 -217t-508 217t-209 520t209 520t508 217t508 -217t209 -520z" />
    <glyph glyph-name="multiply" unicode="&#xd7;" 
d="M512 594q4 0 14 10l260 260q10 10 14 10t15 -10l76 -76q10 -10 10 -14t-10 -14l-260 -260q-10 -10 -10 -14t10 -15l260 -260q10 -10 10 -14t-10 -15l-76 -76q-10 -10 -14 -10t-15 10l-260 261q-8 8 -14 8t-14 -8l-260 -261q-10 -10 -16 -10t-13 10l-76 76q-10 6 -10 12
t10 17l260 260q8 8 8 14t-8 15l-260 260q-10 10 -10 14t10 14l76 76q10 10 14 10t15 -10l260 -260q10 -10 14 -10z" />
    <glyph glyph-name="Oslash" unicode="&#xd8;" horiz-adv-x="1622" 
d="M1122 1136q0 4 -6 9q-127 111 -305 110q-213 -1 -354 -159t-142 -379q0 -156 78 -295q4 -6 8 -6t11 6l704 704q6 6 6 10zM1221 1018q-4 0 -11 -6l-704 -705q-6 -6 -6 -9t6 -9q127 -111 305 -111q213 0 354 159t142 380q0 162 -78 295q-4 6 -8 6zM94 717q0 303 209 520
t508 217q258 0 461 -172l139 139q6 6 12 6t13 -6l80 -80q6 -6 6 -12t-6 -12l-144 -143q156 -199 156 -457q0 -303 -209 -520t-491 -217t-478 172l-139 -140q-6 -6 -12 -6t-13 6l-80 80q-6 6 -6 12t6 13l142 141q-154 207 -154 459z" />
    <glyph glyph-name="Ugrave" unicode="&#xd9;" horiz-adv-x="1265" 
d="M770 1536h-145q-16 0 -37 20l-248 254q-17 17 -10 19q8 2 18 2h197q17 -1 33 -21l196 -254q16 -20 -4 -20zM915 1413q-1 13 3 17t18 4h162q14 0 17 -3t3 -18v-964q0 -227 -133 -349t-351 -120q-218 0 -352 122t-135 347v964q-1 13 3 17t18 4h162q14 0 17 -3t3 -18v-926
q0 -169 73 -241t213 -72t210 72t69 241v926z" />
    <glyph glyph-name="Uacute" unicode="&#xda;" horiz-adv-x="1265" 
d="M913 1831q10 0 17 -2t-8 -19l-248 -254q-20 -20 -37 -20h-145q-20 0 -5 20l197 254q16 20 33 21h196zM915 1413q-1 13 3 17t18 4h162q14 0 17 -3t3 -18v-964q0 -227 -133 -349t-351 -120q-218 0 -352 122t-135 347v964q-1 13 3 17t18 4h162q14 0 17 -3t3 -18v-926
q0 -169 73 -241t213 -72t210 72t69 241v926z" />
    <glyph glyph-name="Ucircumflex" unicode="&#xdb;" horiz-adv-x="1265" 
d="M707 1831q25 0 38 -21l222 -254q6 -8 6 -14t-12 -6h-127q-14 0 -35 20l-154 154q-4 4 -12 4t-12 -4l-150 -154q-20 -20 -35 -20h-131q-12 0 -12 6t6 14l213 254q18 20 39 21h156zM915 1413q-1 13 3 17t18 4h162q14 0 17 -3t3 -18v-964q0 -227 -133 -349t-351 -120
q-218 0 -352 122t-135 347v964q-1 13 3 17t18 4h162q14 0 17 -3t3 -18v-926q0 -169 73 -241t213 -72t210 72t69 241v926z" />
    <glyph glyph-name="Udieresis" unicode="&#xdc;" horiz-adv-x="1265" 
d="M422 1559q-49 1 -86 35t-37 86t37 89t86 37t86 -37t37 -86t-37 -87t-86 -37zM967 1683q0 -47 -38 -85t-86 -39q-48 1 -85 35t-37 86t36 89t86 37t87 -38t37 -85zM915 1413q-1 13 3 17t18 4h162q14 0 17 -3t3 -18v-964q0 -227 -133 -349t-351 -120q-218 0 -352 122
t-135 347v964q-1 13 3 17t18 4h162q14 0 17 -3t3 -18v-926q0 -169 73 -241t213 -72t210 72t69 241v926z" />
    <glyph glyph-name="Yacute" unicode="&#xdd;" horiz-adv-x="1122" 
d="M846 1831q10 0 17 -2t-9 -19l-248 -254q-20 -20 -37 -20h-145q-20 0 -4 20l196 254q14 20 33 21h197zM240 1434q18 0 26 -21l285 -465q2 -6 10 -6t10 6l287 465q12 20 27 21h200q12 0 13 -9l-4 -12l-432 -690v-703q0 -14 -4 -17t-17 -3h-160q-14 0 -17 3t-3 17v703
l-432 690l-4 12q0 8 12 9h203z" />
    <glyph glyph-name="Thorn" unicode="&#xde;" horiz-adv-x="1077" 
d="M367 977q-13 0 -17 -3t-4 -18v-477q0 -14 3 -17t18 -3h188q102 0 164 73q61 74 61 185t-61 185t-164 75h-188zM326 1434q14 0 17 -3t3 -18v-229q0 -14 3 -18t18 -3h180q203 0 325 -128t121 -318q0 -189 -122 -317t-324 -128h-180q-13 0 -17 -3t-4 -17v-232q0 -14 -3 -17
t-17 -3h-160q-14 0 -18 3q-3 3 -3 17v1393q0 13 3 17t18 4h160z" />
    <glyph glyph-name="germandbls" unicode="&#xdf;" horiz-adv-x="1116" 
d="M307 20q0 -12 -3 -16t-17 -4h-140q-14 0 -17 4t-3 16v1162q0 190 105 287q104 97 278 97t278 -100t105 -272q0 -135 -141 -276q-4 -4 -4 -10t10 -9q276 -111 276 -430q0 -213 -129 -351t-368 -138h-29q-14 0 -18 4q-3 4 -3 16v123q0 12 3 16t18 4h29q153 0 231 85t78 241
q0 227 -184 295q-43 18 -146 18h-39q-14 0 -17 4t-3 17v123q0 12 3 16t17 4h66q68 12 119 89t51 165q1 88 -53 146t-146 57q-207 0 -207 -240v-1143z" />
    <glyph glyph-name="agrave" unicode="&#xe0;" horiz-adv-x="954" 
d="M467 1036q-16 0 -37 21l-248 254q-16 16 -9 18t17 2h197q19 0 33 -20l196 -254q16 -20 -4 -21h-145zM655 306q0 66 -61 108q-60 42 -150 41q-90 0 -146 -45t-56 -118t54 -119t143 -46t153 57q63 56 63 122zM66 286q0 144 99 228t243 84t235 -72q2 -2 9 -2t7 15v47
q0 178 -213 178q-131 0 -213 -66q-6 -6 -14 -6t-8 17v125q0 14 16 24q84 57 236 57q373 0 373 -327v-568q0 -12 -3 -16t-18 -4h-129q-14 0 -17 4t-3 16v70q0 4 -8 4t-9 -2q-90 -112 -236 -112t-247 80q-100 82 -100 226z" />
    <glyph glyph-name="aacute" unicode="&#xe1;" horiz-adv-x="954" 
d="M584 1331h196q10 0 18 -2t-10 -18l-247 -254q-20 -20 -37 -21h-146q-20 0 -4 21l197 254q14 20 33 20zM66 286q0 144 99 228t243 84t235 -72q2 -2 9 -2t7 15v47q0 178 -213 178q-131 0 -213 -66q-6 -6 -14 -6t-8 17v125q0 14 16 24q84 57 236 57q373 0 373 -327v-568
q0 -12 -3 -16t-18 -4h-129q-14 0 -17 4t-3 16v70q0 4 -8 4t-9 -2q-90 -112 -236 -112t-247 80q-100 82 -100 226zM655 306q0 66 -61 108q-60 42 -150 41q-90 0 -146 -45t-56 -118t54 -119t143 -46t153 57q63 56 63 122z" />
    <glyph glyph-name="acircumflex" unicode="&#xe2;" horiz-adv-x="954" 
d="M408 1331h155q25 0 39 -20l221 -254q6 -9 6 -15t-12 -6h-127q-14 0 -35 21l-153 153q-4 4 -12 4t-13 -4l-149 -153q-20 -20 -35 -21h-131q-12 0 -12 6t6 15l213 254q18 20 39 20zM66 286q0 144 99 228t243 84t235 -72q2 -2 9 -2t7 15v47q0 178 -213 178q-131 0 -213 -66
q-6 -6 -14 -6t-8 17v125q0 14 16 24q84 57 236 57q373 0 373 -327v-568q0 -12 -3 -16t-18 -4h-129q-14 0 -17 4t-3 16v70q0 4 -8 4t-9 -2q-90 -112 -236 -112t-247 80q-100 82 -100 226zM655 306q0 66 -61 108q-60 42 -150 41q-90 0 -146 -45t-56 -118t54 -119t143 -46
t153 57q63 56 63 122z" />
    <glyph glyph-name="atilde" unicode="&#xe3;" horiz-adv-x="954" 
d="M199 1061q-14 0 -18 4q-3 4 -3 16v29q0 84 51 142t133 58t128 -30q48 -30 80 -60t63 -30t51 19t21 53v22q0 12 3 16t17 5h90q13 -1 17 -5t4 -16v-31q0 -86 -48 -142t-122 -56q-131 0 -181 60q-51 60 -93 60q-81 2 -83 -73v-21q0 -12 -3 -16t-17 -4h-90zM66 286
q0 144 99 228t243 84t235 -72q2 -2 9 -2t7 15v47q0 178 -213 178q-131 0 -213 -66q-6 -6 -14 -6t-8 17v125q0 14 16 24q84 57 236 57q373 0 373 -327v-568q0 -12 -3 -16t-18 -4h-129q-14 0 -17 4t-3 16v70q0 4 -8 4t-9 -2q-90 -112 -236 -112t-247 80q-100 82 -100 226z
M655 306q0 66 -61 108q-60 42 -150 41q-90 0 -146 -45t-56 -118t54 -119t143 -46t153 57q63 56 63 122z" />
    <glyph glyph-name="adieresis" unicode="&#xe4;" horiz-adv-x="954" 
d="M295 1061q-49 0 -86 35t-37 87t37 89t86 37t86 -37t37 -86t-37 -87t-86 -38zM716 1061q-48 0 -85 35t-37 87t36 89t86 37t87 -38t37 -85t-38 -86t-86 -39zM66 286q0 144 99 228t243 84t235 -72q2 -2 9 -2t7 15v47q0 178 -213 178q-131 0 -213 -66q-6 -6 -14 -6t-8 17v125
q0 14 16 24q84 57 236 57q373 0 373 -327v-568q0 -12 -3 -16t-18 -4h-129q-14 0 -17 4t-3 16v70q0 4 -8 4t-9 -2q-90 -112 -236 -112t-247 80q-100 82 -100 226zM655 306q0 66 -61 108q-60 42 -150 41q-90 0 -146 -45t-56 -118t54 -119t143 -46t153 57q63 56 63 122z" />
    <glyph glyph-name="aring" unicode="&#xe5;" horiz-adv-x="954" 
d="M508 1018q-78 0 -132 51t-54 133t53 136t132 54t133 -54q54 -56 54 -133t-54 -132t-132 -55zM507 1120q37 0 61 25t24 61t-24 60t-60 24t-61 -24q-23 -24 -23 -62q0 -36 24 -60t59 -24zM66 286q0 144 99 228t243 84t235 -72q2 -2 9 -2t7 15v47q0 178 -213 178
q-131 0 -213 -66q-6 -6 -14 -6t-8 17v125q0 14 16 24q84 57 236 57q373 0 373 -327v-568q0 -12 -3 -16t-18 -4h-129q-14 0 -17 4t-3 16v70q0 4 -8 4t-9 -2q-90 -112 -236 -112t-247 80q-100 82 -100 226zM655 306q0 66 -61 108q-60 42 -150 41q-90 0 -146 -45t-56 -118
t54 -119t143 -46t153 57q63 56 63 122z" />
    <glyph glyph-name="ae" unicode="&#xe6;" horiz-adv-x="1544" 
d="M377 -20q-150 0 -233 87t-83 219q-1 132 91 224t240 92t235 -70q2 -2 9 -2t7 17v39q0 178 -215 178q-121 0 -211 -66l-12 -4q-10 0 -10 15v125q0 14 16 24q85 57 225 57t212 -52t97 -115q9 -9 17 0q124 168 316 168t292 -132q100 -131 100 -335v-60q0 -12 -3 -16t-17 -4
h-598q-14 0 -18 -3t-5 -16q10 -98 83 -152q72 -54 168 -54t172 23q76 24 110 62q20 20 20 -12v-141q0 -16 -16 -29q-88 -68 -260 -67q-240 0 -371 165q0 5 -7 5t-9 -3q-131 -167 -342 -167zM434 131q100 0 153 58q52 58 52 125t-58 108q-57 41 -143 41t-139 -44t-53 -124
q0 -164 188 -164zM1061 756q-96 0 -163 -62t-79 -157q0 -13 3 -17t18 -4h428q20 0 20 12v9q-24 219 -227 219z" />
    <glyph glyph-name="ccedilla" unicode="&#xe7;" horiz-adv-x="843" 
d="M416 -303q46 0 76 28q28 29 28 77t-35 75t-75 27t-57 -2t-21 4t0 24l14 72q4 12 -10 18q-125 53 -198 168t-72 261q0 199 132 333t332 133q121 0 218 -43q16 -6 16 -20v-168q0 -14 -5 -14t-14 4q-77 78 -209 78t-209 -85t-77 -219t76 -220t214 -85q138 0 214 86q2 2 9 2
t7 -14v-170q0 -14 -16 -20q-66 -33 -174 -45q-8 -2 -8 -8t6 -9q90 -57 90 -159t-65 -170t-162 -68t-152 39q-12 10 -10 24l16 88q4 23 22 11q53 -33 99 -33z" />
    <glyph glyph-name="egrave" unicode="&#xe8;" horiz-adv-x="991" 
d="M508 1036q-16 0 -37 21l-248 254q-16 16 -9 18t17 2h197q19 0 33 -20l196 -254q16 -20 -4 -21h-145zM503 754q-101 0 -168 -62t-79 -157q0 -13 3 -17t17 -4h439q16 0 19 3t1 18q-11 99 -71 159t-161 60zM829 217v-141q0 -16 -16 -29q-88 -68 -264 -67q-229 0 -352 131
t-123 333t119 336t311 135q192 0 304 -134q110 -134 110 -332v-58q0 -12 -4 -16t-17 -4h-608q-14 0 -19 -3q-4 -4 -4 -16q10 -98 85 -153t198 -56q67 0 147 25t113 61q20 20 20 -12z" />
    <glyph glyph-name="eacute" unicode="&#xe9;" horiz-adv-x="991" 
d="M608 1331h197q10 0 17 -2t-9 -18l-248 -254q-20 -20 -37 -21h-145q-20 0 -4 21l196 254q14 20 33 20zM503 754q-101 0 -168 -62t-79 -157q0 -13 3 -17t17 -4h439q16 0 19 3t1 18q-11 99 -71 159t-161 60zM829 217v-141q0 -16 -16 -29q-88 -68 -264 -67q-229 0 -352 131
t-123 333t119 336t311 135q192 0 304 -134q110 -134 110 -332v-58q0 -12 -4 -16t-17 -4h-608q-14 0 -19 -3q-4 -4 -4 -16q10 -98 85 -153t198 -56q67 0 147 25t113 61q20 20 20 -12z" />
    <glyph glyph-name="ecircumflex" unicode="&#xea;" horiz-adv-x="991" 
d="M422 1331h156q25 0 38 -20l222 -254q6 -9 6 -15t-13 -6h-126q-14 0 -35 21l-154 153q-4 4 -12 4t-12 -4l-150 -153q-20 -20 -35 -21h-131q-12 0 -12 6t6 15l213 254q18 20 39 20zM503 754q-101 0 -168 -62t-79 -157q0 -13 3 -17t17 -4h439q16 0 19 3t1 18q-11 99 -71 159
t-161 60zM829 217v-141q0 -16 -16 -29q-88 -68 -264 -67q-229 0 -352 131t-123 333t119 336t311 135q192 0 304 -134q110 -134 110 -332v-58q0 -12 -4 -16t-17 -4h-608q-14 0 -19 -3q-4 -4 -4 -16q10 -98 85 -153t198 -56q67 0 147 25t113 61q20 20 20 -12z" />
    <glyph glyph-name="edieresis" unicode="&#xeb;" horiz-adv-x="991" 
d="M293 1061q-49 0 -86 35t-37 87t37 89t86 37t86 -37t37 -86t-37 -87t-86 -38zM714 1061q-48 0 -85 35t-37 87t36 89t86 37t87 -38t37 -85t-38 -86t-86 -39zM503 754q-101 0 -168 -62t-79 -157q0 -13 3 -17t17 -4h439q16 0 19 3t1 18q-11 99 -71 159t-161 60zM829 217v-141
q0 -16 -16 -29q-88 -68 -264 -67q-229 0 -352 131t-123 333t119 336t311 135q192 0 304 -134q110 -134 110 -332v-58q0 -12 -4 -16t-17 -4h-608q-14 0 -19 -3q-4 -4 -4 -16q10 -98 85 -153t198 -56q67 0 147 25t113 61q20 20 20 -12z" />
    <glyph glyph-name="igrave" unicode="&#xec;" horiz-adv-x="458" 
d="M139 20v854q0 12 3 16t18 5h139q14 0 17 -4t3 -17v-854q0 -12 -3 -16t-17 -4h-139q-14 0 -18 4q-3 4 -3 16zM377 1040q0 -4 -15 -4h-118q-16 0 -37 21l-240 256q-12 12 -12 16t20 4h191q14 0 33 -20l168 -256q2 -4 5 -8t5 -7v-2z" />
    <glyph glyph-name="iacute" unicode="&#xed;" horiz-adv-x="458" 
d="M139 874q0 12 3 16t18 5h139q14 0 17 -4t3 -17v-854q0 -12 -3 -16t-17 -4h-139q-14 0 -18 4q-3 4 -3 16v854zM293 1333h190q20 0 21 -4q0 -4 -12 -16l-240 -256q-20 -20 -37 -21h-119q-14 0 -14 4v2q5 5 10 15l168 256q18 20 33 20z" />
    <glyph glyph-name="icircumflex" unicode="&#xee;" horiz-adv-x="458" 
d="M139 874q0 12 3 16t18 5h139q14 0 17 -4t3 -17v-854q0 -12 -3 -16t-17 -4h-139q-14 0 -18 4q-3 4 -3 16v854zM164 1333h123q25 0 39 -20l176 -256q6 -9 6 -15t-12 -6h-117q-14 0 -35 21l-102 143q-4 4 -12 4t-13 -4l-98 -143q-20 -20 -35 -21h-121q-12 0 -12 6t6 15
l168 256q18 20 39 20z" />
    <glyph glyph-name="idieresis" unicode="&#xef;" horiz-adv-x="458" 
d="M139 874q0 12 3 16t18 5h139q14 0 17 -4t3 -17v-854q0 -12 -3 -16t-17 -4h-139q-14 0 -18 4q-3 4 -3 16v854zM60 1073q-46 0 -83 35t-36 84q0 49 35 85q36 36 83 36t83 -37t36 -83t-36 -83t-82 -37zM398 1073q-48 0 -83 35t-34 84q0 49 34 85q35 36 83 36t84 -37t36 -83
t-36 -83t-84 -37z" />
    <glyph glyph-name="eth" unicode="&#xf0;" horiz-adv-x="1075" 
d="M997 449q0 -193 -136 -331t-329 -138q-194 0 -330 138t-136 332t128 328t326 133q96 0 174 -39q6 -4 6 4t-2 11q-76 143 -180 268q-12 16 -31 6l-192 -108q-16 -10 -27 8l-49 90q-10 16 6 29l162 90q12 6 12 11t-52 58t-124 105q-16 12 -2 26l76 76q12 12 27 2
q106 -80 200 -176q14 -14 33 -4l193 111q16 10 26 -9l58 -92q10 -16 -7 -28l-155 -88q-20 -13 -6 -27q324 -377 331 -776v-10zM532 752q-126 0 -204 -88t-78 -216t79 -216t205 -89q126 0 202 87q77 88 77 218t-78 217t-203 87z" />
    <glyph glyph-name="ntilde" unicode="&#xf1;" horiz-adv-x="1036" 
d="M213 1061q-14 0 -17 4t-3 16v29q0 84 51 142t132 58t129 -30t80 -60q33 -30 63 -30t50 19t21 53v22q0 12 3 16t17 5h90q13 -1 17 -5t4 -16v-31q0 -86 -48 -142t-120 -56q-134 0 -184 60t-105 61q-29 0 -49 -20t-20 -54v-21q0 -12 -3 -16t-18 -4h-90zM918 20q0 -12 -4 -16
t-17 -4h-139q-14 0 -18 4q-3 4 -3 16v508q0 223 -184 224q-106 0 -174 -71t-68 -192v-469q0 -12 -3 -16t-17 -4h-139q-14 0 -18 4q-3 4 -3 16v854q0 14 3 18t18 3h139q14 0 17 -4t3 -17v-81q0 -5 7 -5t10 3q68 65 125 95t143 29q322 0 322 -346v-549z" />
    <glyph glyph-name="ograve" unicode="&#xf2;" horiz-adv-x="1062" 
d="M494 1036q-16 0 -37 21l-248 254q-16 16 -9 18t17 2h197q16 0 32 -20l197 -254q16 -20 -4 -21h-145zM532 752q-126 0 -204 -88t-78 -216t79 -216t205 -89q126 0 202 87q77 88 77 218t-78 217t-203 87zM66 449q0 193 137 329t329 137q192 0 329 -137q136 -138 136 -330
t-136 -330t-329 -138q-194 0 -330 138t-136 331z" />
    <glyph glyph-name="oacute" unicode="&#xf3;" horiz-adv-x="1062" 
d="M676 1331h196q10 0 18 -2t-9 -18l-248 -254q-20 -20 -37 -21h-145q-20 0 -5 21l197 254q16 20 33 20zM532 752q-126 0 -204 -88t-78 -216t79 -216t205 -89q126 0 202 87q77 88 77 218t-78 217t-203 87zM66 449q0 193 137 329t329 137q192 0 329 -137q136 -138 136 -330
t-136 -330t-329 -138q-194 0 -330 138t-136 331z" />
    <glyph glyph-name="ocircumflex" unicode="&#xf4;" horiz-adv-x="1062" 
d="M449 1331h155q25 0 39 -20l221 -254q6 -9 6 -15t-12 -6h-127q-14 0 -35 21l-153 153q-5 4 -13 4t-12 -4l-149 -153q-20 -20 -35 -21h-131q-12 0 -13 6q0 6 7 15l213 254q18 20 39 20zM532 752q-126 0 -204 -88t-78 -216t79 -216t205 -89q126 0 202 87q77 88 77 218
t-78 217t-203 87zM66 449q0 193 137 329t329 137q192 0 329 -137q136 -138 136 -330t-136 -330t-329 -138q-194 0 -330 138t-136 331z" />
    <glyph glyph-name="otilde" unicode="&#xf5;" horiz-adv-x="1062" 
d="M225 1061q-14 0 -17 4t-3 16v29q0 84 51 142t132 58t129 -30t80 -60t63 -30t51 19t20 53v22q0 12 3 16t18 5h90q14 -1 17 -5t3 -16v-31q0 -86 -48 -142t-120 -56q-134 0 -184 60t-91 60q-83 2 -83 -73v-21q0 -12 -3 -16t-18 -4h-90zM532 752q-126 0 -204 -88t-78 -216
t79 -216t205 -89q126 0 202 87q77 88 77 218t-78 217t-203 87zM66 449q0 193 137 329t329 137q192 0 329 -137q136 -138 136 -330t-136 -330t-329 -138q-194 0 -330 138t-136 331z" />
    <glyph glyph-name="odieresis" unicode="&#xf6;" horiz-adv-x="1062" 
d="M322 1061q-49 0 -86 35t-37 87t37 89t86 37t86 -37q36 -37 36 -86t-36 -87t-86 -38zM742 1061q-48 0 -85 35t-37 87t36 89t86 37t87 -38t37 -85t-38 -86t-86 -39zM532 752q-126 0 -204 -88t-78 -216t79 -216t205 -89q126 0 202 87q77 88 77 218t-78 217t-203 87zM66 449
q0 193 137 329t329 137q192 0 329 -137q136 -138 136 -330t-136 -330t-329 -138q-194 0 -330 138t-136 331z" />
    <glyph glyph-name="divide" unicode="&#xf7;" 
d="M936 563q14 0 17 -4t3 -16v-111q0 -12 -3 -16t-17 -4h-840q-14 0 -17 4t-3 16v111q0 12 3 16t17 4h840zM514 711q-51 0 -89 37t-38 90t37 91t90 38t90 -38t37 -89t-38 -90t-89 -39zM514 0q-51 0 -89 37t-38 90t37 91t90 38t90 -38t37 -89t-38 -90t-89 -39z" />
    <glyph glyph-name="oslash" unicode="&#xf8;" horiz-adv-x="1062" 
d="M250 466q0 -110 41 -183l411 411q-70 58 -184 58t-190 -88q-78 -88 -78 -198zM813 449q0 90 -43 165l-414 -413q72 -57 188 -57t192 86q77 88 77 219zM66 464q0 178 137 314t329 137q158 0 287 -102l82 82q6 6 11 6t14 -6l51 -51q6 -6 6 -12t-6 -13l-82 -82
q102 -129 102 -305t-136 -314q-137 -138 -315 -138t-304 104l-84 -84q-6 -6 -10 -6t-15 6l-51 51q-6 6 -6 12t6 13l84 84q-100 126 -100 304z" />
    <glyph glyph-name="ugrave" unicode="&#xf9;" horiz-adv-x="966" 
d="M459 1036q-16 0 -37 21l-248 254q-16 16 -9 18t17 2h197q19 0 33 -20l196 -254q16 -20 -4 -21h-145zM483 143q85 1 139 55t54 156v520q0 12 3 16t17 5h140q14 0 17 -4t3 -17v-532q0 -158 -97 -260t-275 -102t-276 102q-97 102 -97 260v532q0 12 3 16t17 5h139q14 0 18 -4
t3 -17v-520q0 -102 53 -156t139 -55z" />
    <glyph glyph-name="uacute" unicode="&#xfa;" horiz-adv-x="966" 
d="M584 1331h196q10 0 18 -2t-10 -18l-247 -254q-20 -20 -37 -21h-146q-20 0 -4 21l197 254q14 20 33 20zM483 143q85 1 139 55t54 156v520q0 12 3 16t17 5h140q14 0 17 -4t3 -17v-532q0 -158 -97 -260t-275 -102t-276 102q-97 102 -97 260v532q0 12 3 16t17 5h139
q14 0 18 -4t3 -17v-520q0 -102 53 -156t139 -55z" />
    <glyph glyph-name="ucircumflex" unicode="&#xfb;" horiz-adv-x="966" 
d="M397 1331h156q25 0 39 -20l221 -254q6 -9 6 -15t-12 -6h-127q-14 0 -35 21l-153 153q-4 4 -12 4t-13 -4l-150 -153q-20 -20 -34 -21h-131q-12 0 -13 6q0 6 6 15l213 254q18 20 39 20zM483 143q85 1 139 55t54 156v520q0 12 3 16t17 5h140q14 0 17 -4t3 -17v-532
q0 -158 -97 -260t-275 -102t-276 102q-97 102 -97 260v532q0 12 3 16t17 5h139q14 0 18 -4t3 -17v-520q0 -102 53 -156t139 -55z" />
    <glyph glyph-name="udieresis" unicode="&#xfc;" horiz-adv-x="966" 
d="M270 1061q-49 0 -86 35t-37 87t37 89t86 37t86 -37t37 -86t-37 -87t-86 -38zM691 1061q-48 0 -85 35t-37 87t36 89t86 37t87 -38t37 -85t-38 -86t-86 -39zM483 143q85 1 139 55t54 156v520q0 12 3 16t17 5h140q14 0 17 -4t3 -17v-532q0 -158 -97 -260t-275 -102t-276 102
q-97 102 -97 260v532q0 12 3 16t17 5h139q14 0 18 -4t3 -17v-520q0 -102 53 -156t139 -55z" />
    <glyph glyph-name="yacute" unicode="&#xfd;" horiz-adv-x="927" 
d="M604 1331h197q10 0 17 -2t-9 -18l-248 -254q-20 -20 -37 -21h-145q-20 0 -4 21l196 254q14 20 33 20zM465 264q6 0 8 6l240 604q10 20 26 21h154q18 0 18 -8q-2 -4 -4 -13l-530 -1304q-10 -20 -27 -21h-151q-18 0 -19 9q2 4 4 12l181 446q2 2 2 10t-2 11l-345 837l-4 13
q0 8 19 8h158q16 0 26 -21l238 -604q2 -6 8 -6z" />
    <glyph glyph-name="thorn" unicode="&#xfe;" horiz-adv-x="1126" 
d="M311 793q0 -5 7 -5t10 3q120 125 298 125t306 -137t129 -331q0 -194 -128 -331q-127 -137 -307 -137t-298 124q-2 2 -10 2t-7 -4v-532q0 -12 -3 -16t-17 -5h-139q-14 1 -18 5t-3 16v1946q0 12 3 16t18 4h139q14 0 17 -4t3 -16v-723zM596 143q125 1 203 89t78 216t-79 216
t-203 88t-204 -88t-80 -216t80 -216t205 -89z" />
    <glyph glyph-name="ydieresis" unicode="&#xff;" horiz-adv-x="927" 
d="M260 1061q-49 0 -86 35t-37 87t37 89t86 37t86 -37t37 -86t-37 -87t-86 -38zM681 1061q-48 0 -85 35t-37 87t36 89t86 37t87 -38t37 -85t-38 -86t-86 -39zM465 264q6 0 8 6l240 604q10 20 26 21h154q18 0 18 -8q-2 -4 -4 -13l-530 -1304q-10 -20 -27 -21h-151
q-18 0 -19 9q2 4 4 12l181 446q2 2 2 10t-2 11l-345 837l-4 13q0 8 19 8h158q16 0 26 -21l238 -604q2 -6 8 -6z" />
    <glyph glyph-name="Amacron" unicode="&#x100;" horiz-adv-x="1150" 
d="M250 1729q0 14 4 17t16 3h611q14 0 17 -3t3 -17v-91q0 -14 -3 -17t-17 -3h-611q-14 0 -17 3t-3 17v91zM573 1464q8 0 11 -8l532 -1436q2 -2 2 -11t-16 -9h-178q-20 0 -27 20l-82 216q-6 20 -27 20h-438q-20 0 -26 -20l-76 -216q-6 -20 -27 -20h-172q-16 0 -16 9t2 11
l528 1436q2 8 10 8zM570 913q-8 0 -13 -6l-160 -458q6 -8 13 -9h321q14 0 14 6q-4 10 -4 15l-159 446q-4 6 -12 6z" />
    <glyph glyph-name="amacron" unicode="&#x101;" horiz-adv-x="954" 
d="M150 1229q0 14 4 17t16 3h610q14 0 18 -3t3 -17v-90q0 -13 -3 -17t-18 -4h-610q-14 0 -17 3t-3 18v90zM66 286q0 144 99 228t243 84t235 -72q2 -2 9 -2t7 15v47q0 178 -213 178q-131 0 -213 -66q-6 -6 -14 -6t-8 17v125q0 14 16 24q84 57 236 57q373 0 373 -327v-568
q0 -12 -3 -16t-18 -4h-129q-14 0 -17 4t-3 16v70q0 4 -8 4t-9 -2q-90 -112 -236 -112t-247 80q-100 82 -100 226zM655 306q0 66 -61 108q-60 42 -150 41q-90 0 -146 -45t-56 -118t54 -119t143 -46t153 57q63 56 63 122z" />
    <glyph glyph-name="Abreve" unicode="&#x102;" horiz-adv-x="1150" 
d="M575 1526q-135 0 -224 68t-87 216q0 12 3 16t18 5h106q20 0 21 -21q2 -82 47 -120t117 -37q72 0 116 38q45 38 47 119q0 20 21 21h106q14 0 18 -4t3 -17q2 -147 -87 -216q-90 -68 -225 -68zM573 1464q8 0 11 -8l532 -1436q2 -2 2 -11t-16 -9h-178q-20 0 -27 20l-82 216
q-6 20 -27 20h-438q-20 0 -26 -20l-76 -216q-6 -20 -27 -20h-172q-16 0 -16 9t2 11l528 1436q2 8 10 8zM570 913q-8 0 -13 -6l-160 -458q6 -8 13 -9h321q14 0 14 6q-4 10 -4 15l-159 446q-4 6 -12 6z" />
    <glyph glyph-name="abreve" unicode="&#x103;" horiz-adv-x="954" 
d="M516 1026q-135 0 -224 69t-87 216q0 12 3 16t17 4h107q20 0 20 -20q2 -82 47 -120t117 -38t117 38t47 120q0 20 20 20h107q14 0 17 -4t3 -16q2 -147 -87 -216t-224 -69zM66 286q0 144 99 228t243 84t235 -72q2 -2 9 -2t7 15v47q0 178 -213 178q-131 0 -213 -66
q-6 -6 -14 -6t-8 17v125q0 14 16 24q84 57 236 57q373 0 373 -327v-568q0 -12 -3 -16t-18 -4h-129q-14 0 -17 4t-3 16v70q0 4 -8 4t-9 -2q-90 -112 -236 -112t-247 80q-100 82 -100 226zM655 306q0 66 -61 108q-60 42 -150 41q-90 0 -146 -45t-56 -118t54 -119t143 -46
t153 57q63 56 63 122z" />
    <glyph glyph-name="Aogonek" unicode="&#x104;" horiz-adv-x="1150" 
d="M570 913q-8 0 -13 -6l-160 -458q6 -8 13 -9h321q14 0 14 6q-4 10 -4 15l-159 446q-4 6 -12 6zM801 -182q0 106 92 178q6 4 6 12t-2 12l-82 216q-6 20 -27 20h-438q-20 0 -26 -20l-76 -216q-6 -20 -27 -20h-172q-16 0 -16 9t2 11l528 1436q2 8 10 8t11 -8l532 -1436
q2 -2 2 -11t-16 -9q-62 0 -108 -48t-46 -114t37 -103q37 -38 113 -38q14 0 17 -3t3 -16v-88q0 -18 -19 -20t-48 -2q-109 0 -180 72q-70 72 -70 178z" />
    <glyph glyph-name="aogonek" unicode="&#x105;" horiz-adv-x="954" 
d="M655 306q0 66 -61 108q-60 42 -150 41q-90 0 -146 -45t-56 -118t54 -119t143 -46t153 57q63 56 63 122zM535 -195q-1 51 31 109t66 78t34 33v65q0 4 -8 4t-9 -2q-90 -112 -236 -112t-247 80q-100 82 -100 226t99 228t243 84t235 -72q2 -2 9 -2t7 15v47q0 178 -213 178
q-131 0 -213 -66q-6 -6 -14 -6t-8 17v125q0 14 16 24q84 57 236 57q373 0 373 -327v-559q0 -23 -19 -29q-135 -55 -135 -169t129 -114q14 0 17 -3t3 -15v-88q0 -19 -19 -21t-48 -2q-102 0 -166 60t-63 157z" />
    <glyph glyph-name="Cacute" unicode="&#x106;" horiz-adv-x="1273" 
d="M1051 1831q10 0 17 -2t-9 -19l-248 -254q-20 -20 -37 -20h-145q-20 0 -4 20l196 254q14 20 33 21h197zM831 -20q-333 0 -535 213t-202 524t202 524t535 213q164 0 328 -82q16 -10 17 -20v-219q0 -15 -8 -15t-11 4q-133 133 -326 133q-243 -1 -379 -159t-136 -379
t136 -380q138 -159 379 -159q193 0 326 133q4 4 11 4t8 -14v-219q0 -10 -17 -21q-164 -81 -328 -81z" />
    <glyph glyph-name="cacute" unicode="&#x107;" horiz-adv-x="843" 
d="M621 1331h196q18 0 18 -7q-1 -5 -10 -13l-247 -254q-20 -20 -37 -21h-146q-20 0 -4 21l197 254q14 20 33 20zM530 -20q-200 0 -332 135t-132 334t132 333t332 133q121 0 218 -43q16 -6 16 -20v-168q0 -14 -5 -14t-14 4q-77 78 -209 78t-209 -85t-77 -219t76 -220t214 -85
q138 0 214 86q2 2 9 2t7 -14v-170q0 -14 -16 -20q-98 -47 -224 -47z" />
    <glyph glyph-name="Ccircumflex" unicode="&#x108;" horiz-adv-x="1273" 
d="M838 1831q25 0 39 -21l221 -254q6 -10 6 -15t-12 -5h-127q-14 0 -35 20l-154 154q-4 4 -12 4t-12 -4l-150 -154q-20 -20 -35 -20h-131q-12 0 -12 6t6 14l213 254q18 20 39 21h156zM831 -20q-333 0 -535 213t-202 524t202 524t535 213q164 0 328 -82q16 -10 17 -20v-219
q0 -15 -8 -15t-11 4q-133 133 -326 133q-243 -1 -379 -159t-136 -379t136 -380q138 -159 379 -159q193 0 326 133q4 4 11 4t8 -14v-219q0 -10 -17 -21q-164 -81 -328 -81z" />
    <glyph glyph-name="ccircumflex" unicode="&#x109;" horiz-adv-x="843" 
d="M399 1331h156q25 0 39 -20l221 -254q6 -9 6 -15t-12 -6h-127q-14 0 -35 21l-153 153q-4 4 -12 4t-13 -4l-150 -153q-20 -20 -34 -21h-131q-12 0 -13 6q0 6 6 15l213 254q18 20 39 20zM530 -20q-200 0 -332 135t-132 334t132 333t332 133q121 0 218 -43q16 -6 16 -20v-168
q0 -14 -5 -14t-14 4q-77 78 -209 78t-209 -85t-77 -219t76 -220t214 -85q138 0 214 86q2 2 9 2t7 -14v-170q0 -14 -16 -20q-98 -47 -224 -47z" />
    <glyph glyph-name="Cdotaccent" unicode="&#x10a;" horiz-adv-x="1273" 
d="M803 1554q-51 0 -89 37t-38 90t37 91t90 38t90 -38t37 -88q0 -52 -38 -91t-89 -39zM831 -20q-333 0 -535 213t-202 524t202 524t535 213q164 0 328 -82q16 -10 17 -20v-219q0 -15 -8 -15t-11 4q-133 133 -326 133q-243 -1 -379 -159t-136 -379t136 -380
q138 -159 379 -159q193 0 326 133q4 4 11 4t8 -14v-219q0 -10 -17 -21q-164 -81 -328 -81z" />
    <glyph glyph-name="cdotaccent" unicode="&#x10b;" horiz-adv-x="843" 
d="M520 1057q-51 0 -89 37t-38 90t37 91t90 38t90 -38t37 -89t-38 -90t-89 -39zM530 -20q-200 0 -332 135t-132 334t132 333t332 133q121 0 218 -43q16 -6 16 -20v-168q0 -14 -5 -14t-14 4q-77 78 -209 78t-209 -85t-77 -219t76 -220t214 -85q138 0 214 86q2 2 9 2t7 -14
v-170q0 -14 -16 -20q-98 -47 -224 -47z" />
    <glyph glyph-name="Ccaron" unicode="&#x10c;" horiz-adv-x="1273" 
d="M846 1536h-156q-25 0 -39 20l-221 254q-6 8 -6 14t12 7h127q14 0 35 -21l154 -153q4 -4 12 -4t12 4l150 153q20 20 35 21h131q12 0 12 -6t-6 -15l-213 -254q-14 -20 -39 -20zM831 -20q-333 0 -535 213t-202 524t202 524t535 213q164 0 328 -82q16 -10 17 -20v-219
q0 -15 -8 -15t-11 4q-133 133 -326 133q-243 -1 -379 -159t-136 -379t136 -380q138 -159 379 -159q193 0 326 133q4 4 11 4t8 -14v-219q0 -10 -17 -21q-164 -81 -328 -81z" />
    <glyph glyph-name="ccaron" unicode="&#x10d;" horiz-adv-x="843" 
d="M408 1036q-25 0 -39 21l-222 254q-6 8 -6 14t13 6h127q14 0 34 -20l154 -154q4 -4 12 -4t13 4l149 154q20 20 35 20h131q12 0 12 -6t-6 -14l-213 -254q-14 -20 -39 -21h-155zM530 -20q-200 0 -332 135t-132 334t132 333t332 133q121 0 218 -43q16 -6 16 -20v-168
q0 -14 -5 -14t-14 4q-77 78 -209 78t-209 -85t-77 -219t76 -220t214 -85q138 0 214 86q2 2 9 2t7 -14v-170q0 -14 -16 -20q-98 -47 -224 -47z" />
    <glyph glyph-name="Dcaron" unicode="&#x10e;" horiz-adv-x="1288" 
d="M592 1536h-156q-25 0 -39 20l-221 254q-6 8 -6 14t12 7h127q14 0 35 -21l154 -153q4 -4 12 -4t12 4l150 153q20 20 35 21h131q12 0 12 -6t-6 -15l-213 -254q-14 -20 -39 -20zM971 720q0 320 -189 454q-102 74 -297 73h-114q-13 0 -17 -3t-4 -17v-1020q0 -13 3 -17t18 -4
h116q184 0 287 74q197 140 197 460zM504 1434q232 0 384 -94t229 -256t77 -378t-103 -394q-180 -312 -606 -312h-315q-14 0 -17 3t-3 17v1393q0 13 3 17t17 4h334z" />
    <glyph glyph-name="dcaron" unicode="&#x10f;" horiz-adv-x="1126" 
d="M1120 1536h140q20 0 18 -20l-92 -314q-8 -20 -27 -20h-78q-14 8 -14 20l31 314q2 20 22 20zM815 1516q0 12 3 16t18 4h139q14 0 17 -4t3 -16v-1496q0 -12 -3 -16t-17 -4h-139q-14 0 -18 4q-3 4 -3 16v82q0 4 -7 4t-9 -2q-125 -124 -301 -124t-304 137t-128 332t128 331
t306 135q178 0 299 -124q2 -3 9 -3t7 5v723zM535 143q125 1 203 89t77 216q0 128 -79 216q-78 88 -202 88t-204 -88t-80 -216t80 -216t205 -89z" />
    <glyph glyph-name="Dcroat" unicode="&#x110;" horiz-adv-x="1288" 
d="M971 720q0 320 -189 454q-102 74 -297 73h-114q-13 0 -17 -3t-4 -17v-508q0 -13 3 -17t18 -4h198q13 0 17 -3t4 -17v-131q0 -13 -3 -17t-18 -4h-198q-13 0 -17 -3t-4 -17v-299q0 -13 3 -17t18 -4h116q184 0 287 74q197 140 197 460zM504 1434q232 0 384 -94t229 -256
t77 -378t-103 -394q-180 -312 -606 -312h-315q-14 0 -17 3t-3 17v494q-2 12 -21 12h-86q-14 0 -17 3t-3 18v131q0 14 4 17t16 3h86q14 0 17 3t4 18v694q0 13 3 17t17 4h334z" />
    <glyph glyph-name="dcroat" unicode="&#x111;" horiz-adv-x="1126" 
d="M999 1245q0 -14 3 -17t18 -3h82q14 0 17 -4t3 -17v-98q0 -12 -3 -16t-17 -5h-82q-14 0 -18 -3t-3 -17v-1045q0 -12 -3 -16t-17 -4h-143q-14 0 -18 4q-3 4 -3 16v82q0 4 -7 4t-9 -2q-135 -125 -289 -124q-188 0 -316 137t-128 332t128 331t316 135q154 0 289 -124
q2 -3 9 -3t7 5v272q0 14 -3 17t-17 3h-183q-14 1 -17 5t-3 16v98q0 12 3 16t17 5h183q14 0 17 3t3 17v271q0 12 3 16t18 4h143q14 0 17 -4t3 -16v-271zM535 143q125 1 203 89t77 216q0 128 -79 216q-78 88 -202 88t-204 -88t-80 -216t80 -216t205 -89z" />
    <glyph glyph-name="Emacron" unicode="&#x112;" horiz-adv-x="1048" 
d="M240 1729q0 14 4 17t16 3h610q14 0 18 -3t3 -17v-91q0 -14 -3 -17t-18 -3h-610q-14 0 -17 3t-3 17v91zM150 1413q0 13 3 17t17 4h764q14 0 17 -3t3 -18v-147q0 -14 -3 -18t-17 -3h-563q-13 0 -17 -3t-4 -17v-506q0 -13 3 -17t18 -4h542q13 0 17 -3t4 -17v-146
q0 -14 -3 -17t-18 -3h-542q-13 0 -17 -3t-4 -17v-283q0 -13 3 -17t18 -4h573q14 0 18 -3t3 -17v-148q0 -14 -3 -17t-18 -3h-774q-14 0 -17 3t-3 17v1393z" />
    <glyph glyph-name="emacron" unicode="&#x113;" horiz-adv-x="991" 
d="M170 1229q0 14 4 17t16 3h611q14 0 17 -3t3 -17v-90q0 -13 -3 -17t-17 -4h-611q-14 0 -17 3t-3 18v90zM503 754q-101 0 -168 -62t-79 -157q0 -13 3 -17t17 -4h439q16 0 19 3t1 18q-11 99 -71 159t-161 60zM829 217v-141q0 -16 -16 -29q-88 -68 -264 -67q-229 0 -352 131
t-123 333t119 336t311 135q192 0 304 -134q110 -134 110 -332v-58q0 -12 -4 -16t-17 -4h-608q-14 0 -19 -3q-4 -4 -4 -16q10 -98 85 -153t198 -56q67 0 147 25t113 61q20 20 20 -12z" />
    <glyph glyph-name="Ebreve" unicode="&#x114;" horiz-adv-x="1048" 
d="M545 1526q-135 0 -224 68t-88 216q-1 12 3 16t18 5h106q20 0 21 -21q2 -82 47 -120t117 -37q72 0 117 38t47 119q0 20 20 21h107q14 0 17 -4t3 -17q2 -148 -87 -216t-224 -68zM150 1413q0 13 3 17t17 4h764q14 0 17 -3t3 -18v-147q0 -14 -3 -18t-17 -3h-563q-13 0 -17 -3
t-4 -17v-506q0 -13 3 -17t18 -4h542q13 0 17 -3t4 -17v-146q0 -14 -3 -17t-18 -3h-542q-13 0 -17 -3t-4 -17v-283q0 -13 3 -17t18 -4h573q14 0 18 -3t3 -17v-148q0 -14 -3 -17t-18 -3h-774q-14 0 -17 3t-3 17v1393z" />
    <glyph glyph-name="ebreve" unicode="&#x115;" horiz-adv-x="991" 
d="M496 1026q-135 0 -225 69q-89 69 -87 216q0 12 3 16t18 4h106q20 0 21 -20q2 -82 47 -120t117 -38t116 38t47 120q0 20 21 20h106q14 0 18 -4t3 -16q2 -147 -87 -216t-224 -69zM503 754q-101 0 -168 -62t-79 -157q0 -13 3 -17t17 -4h439q16 0 19 3t1 18q-11 99 -71 159
t-161 60zM829 217v-141q0 -16 -16 -29q-88 -68 -264 -67q-229 0 -352 131t-123 333t119 336t311 135q192 0 304 -134q110 -134 110 -332v-58q0 -12 -4 -16t-17 -4h-608q-14 0 -19 -3q-4 -4 -4 -16q10 -98 85 -153t198 -56q67 0 147 25t113 61q20 20 20 -12z" />
    <glyph glyph-name="Edotaccent" unicode="&#x116;" horiz-adv-x="1048" 
d="M561 1554q-51 0 -89 37t-38 90t37 91t90 38t90 -38t37 -88q0 -52 -38 -91t-89 -39zM150 1413q0 13 3 17t17 4h764q14 0 17 -3t3 -18v-147q0 -14 -3 -18t-17 -3h-563q-13 0 -17 -3t-4 -17v-506q0 -13 3 -17t18 -4h542q13 0 17 -3t4 -17v-146q0 -14 -3 -17t-18 -3h-542
q-13 0 -17 -3t-4 -17v-283q0 -13 3 -17t18 -4h573q14 0 18 -3t3 -17v-148q0 -14 -3 -17t-18 -3h-774q-14 0 -17 3t-3 17v1393z" />
    <glyph glyph-name="edotaccent" unicode="&#x117;" horiz-adv-x="991" 
d="M506 1057q-51 0 -89 37t-38 90t37 91t90 38t90 -38t37 -89t-38 -90t-89 -39zM503 754q-101 0 -168 -62t-79 -157q0 -13 3 -17t17 -4h439q16 0 19 3t1 18q-11 99 -71 159t-161 60zM829 217v-141q0 -16 -16 -29q-88 -68 -264 -67q-229 0 -352 131t-123 333t119 336t311 135
q192 0 304 -134q110 -134 110 -332v-58q0 -12 -4 -16t-17 -4h-608q-14 0 -19 -3q-4 -4 -4 -16q10 -98 85 -153t198 -56q67 0 147 25t113 61q20 20 20 -12z" />
    <glyph glyph-name="Eogonek" unicode="&#x118;" horiz-adv-x="1048" 
d="M897 -432q-111 0 -181 70t-69 160q0 91 51 173q8 17 8 23t-24 6h-512q-14 0 -17 3t-3 17v1393q0 13 3 17t17 4h764q14 0 17 -3t3 -18v-147q0 -14 -3 -18t-17 -3h-563q-13 0 -17 -3t-4 -17v-506q0 -13 3 -17t18 -4h542q13 0 17 -3t4 -17v-146q0 -14 -3 -17t-18 -3h-542
q-13 0 -17 -3t-4 -17v-283q0 -13 3 -17t18 -4h573q14 0 18 -3t3 -17v-148q0 -14 -3 -17t-18 -3q-66 0 -100 -39q-49 -51 -49 -119q0 -144 149 -145q14 0 18 -3t3 -16v-88q1 -18 -19 -20t-49 -2z" />
    <glyph glyph-name="eogonek" unicode="&#x119;" horiz-adv-x="991" 
d="M503 754q-101 0 -168 -62t-79 -157q0 -13 3 -17t17 -4h439q16 0 19 3t1 18q-11 99 -71 159t-161 60zM653 -412q-101 0 -165 60t-64 153q0 92 90 179q-213 10 -327 140q-113 130 -113 328t119 332t311 135q192 0 304 -134q110 -134 110 -332v-58q0 -12 -4 -16t-17 -4h-608
q-15 0 -19 -3t-4 -16q10 -98 85 -153t198 -56q67 0 147 25t113 61q20 20 20 -12v-141q0 -16 -16 -29q-45 -33 -99 -45t-71 -25q-72 -51 -72 -145q0 -115 129 -115q14 0 18 -3t3 -15v-88q1 -19 -19 -21t-49 -2z" />
    <glyph glyph-name="Ecaron" unicode="&#x11a;" horiz-adv-x="1048" 
d="M627 1536h-156q-25 0 -39 20l-221 254q-6 8 -6 14t12 7h127q14 0 35 -21l153 -153q4 -4 12 -4t13 4l150 153q20 20 34 21h131q12 0 13 -6q0 -6 -6 -15l-213 -254q-14 -20 -39 -20zM150 1413q0 13 3 17t17 4h764q14 0 17 -3t3 -18v-147q0 -14 -3 -18t-17 -3h-563
q-13 0 -17 -3t-4 -17v-506q0 -13 3 -17t18 -4h542q13 0 17 -3t4 -17v-146q0 -14 -3 -17t-18 -3h-542q-13 0 -17 -3t-4 -17v-283q0 -13 3 -17t18 -4h573q14 0 18 -3t3 -17v-148q0 -14 -3 -17t-18 -3h-774q-14 0 -17 3t-3 17v1393z" />
    <glyph glyph-name="ecaron" unicode="&#x11b;" horiz-adv-x="991" 
d="M422 1036q-25 0 -39 21l-221 254q-6 8 -6 14t12 6h127q14 0 35 -20l153 -154q5 -4 13 -4t12 4l149 154q20 20 35 20h131q12 0 13 -6q0 -6 -7 -14l-213 -254q-14 -20 -38 -21h-156zM503 754q-101 0 -168 -62t-79 -157q0 -13 3 -17t17 -4h439q16 0 19 3t1 18
q-11 99 -71 159t-161 60zM829 217v-141q0 -16 -16 -29q-88 -68 -264 -67q-229 0 -352 131t-123 333t119 336t311 135q192 0 304 -134q110 -134 110 -332v-58q0 -12 -4 -16t-17 -4h-608q-14 0 -19 -3q-4 -4 -4 -16q10 -98 85 -153t198 -56q67 0 147 25t113 61q20 20 20 -12z
" />
    <glyph glyph-name="Gcircumflex" unicode="&#x11c;" horiz-adv-x="1353" 
d="M846 1831q25 0 39 -21l221 -254q6 -10 6 -15t-12 -5h-127q-14 0 -35 20l-154 154q-4 4 -12 4t-12 -4l-150 -154q-20 -20 -35 -20h-131q-12 0 -12 6t6 14l213 254q18 20 39 21h156zM831 1255q-247 -1 -381 -155t-134 -384t136 -388q138 -158 388 -158q135 0 202 33
q10 4 11 14v346q0 13 -3 17t-18 4h-268q-14 0 -18 3q-3 3 -3 17v141q0 13 3 17t18 4h465q14 0 17 -3t3 -18v-641q0 -14 -12 -22q-125 -102 -397 -102q-338 0 -542 213t-204 524t202 524t535 213q188 0 334 -82q16 -10 17 -20v-219q0 -14 -8 -15q-6 0 -11 4
q-133 133 -332 133z" />
    <glyph glyph-name="gcircumflex" unicode="&#x11d;" horiz-adv-x="1122" 
d="M492 1331h155q25 0 39 -20l221 -254q6 -9 6 -15t-12 -6h-127q-14 0 -35 21l-153 153q-4 4 -12 4t-13 -4l-149 -153q-20 -20 -35 -21h-131q-12 0 -13 6q0 6 7 15l213 254q18 20 39 20zM227 -213q-1 20 5 20t16 -6q126 -84 280 -84t221 73t66 239v73q0 4 -7 4t-9 -2
q-119 -124 -298 -124t-307 137t-128 332t128 331t307 135q179 0 298 -124q2 -3 9 -3t7 5v81q0 12 3 16t18 5h139q14 0 17 -4t3 -17v-837q1 -236 -115 -360t-343 -123q-180 0 -291 57q-18 8 -19 24v152zM531 752q-125 0 -203 -88t-78 -216t78 -216t202 -89q124 0 205 88
q80 89 80 217t-80 216t-204 88z" />
    <glyph glyph-name="Gbreve" unicode="&#x11e;" horiz-adv-x="1353" 
d="M817 1530q-135 0 -224 68t-87 217q0 12 3 16t17 4h107q20 0 20 -20q2 -82 47 -120t117 -38t117 38t47 120q0 20 20 20h107q14 0 17 -4t3 -16q2 -147 -87 -216t-224 -69zM831 1255q-247 -1 -381 -155t-134 -384t136 -388q138 -158 388 -158q135 0 202 33q10 4 11 14v346
q0 13 -3 17t-18 4h-268q-14 0 -18 3q-3 3 -3 17v141q0 13 3 17t18 4h465q14 0 17 -3t3 -18v-641q0 -14 -12 -22q-125 -102 -397 -102q-338 0 -542 213t-204 524t202 524t535 213q188 0 334 -82q16 -10 17 -20v-219q0 -14 -8 -15q-6 0 -11 4q-133 133 -332 133z" />
    <glyph glyph-name="gbreve" unicode="&#x11f;" horiz-adv-x="1122" 
d="M565 1026q-135 0 -224 69t-87 216q0 12 3 16t17 4h107q20 0 20 -20q1 -82 47 -120t118 -38t116 38q45 38 47 120q0 20 21 20h106q14 0 17 -4t4 -16q3 -147 -87 -216t-225 -69zM227 -213q-1 20 5 20t16 -6q126 -84 280 -84t221 73t66 239v73q0 4 -7 4t-9 -2
q-119 -124 -298 -124t-307 137t-128 332t128 331t307 135q179 0 298 -124q2 -3 9 -3t7 5v81q0 12 3 16t18 5h139q14 0 17 -4t3 -17v-837q1 -236 -115 -360t-343 -123q-180 0 -291 57q-18 8 -19 24v152zM531 752q-125 0 -203 -88t-78 -216t78 -216t202 -89q124 0 205 88
q80 89 80 217t-80 216t-204 88z" />
    <glyph glyph-name="Gdotaccent" unicode="&#x120;" horiz-adv-x="1353" 
d="M803 1554q-51 0 -89 37t-38 90t37 91t90 38t90 -38t37 -88q0 -52 -38 -91t-89 -39zM831 1255q-247 -1 -381 -155t-134 -384t136 -388q138 -158 388 -158q135 0 202 33q10 4 11 14v346q0 13 -3 17t-18 4h-268q-14 0 -18 3q-3 3 -3 17v141q0 13 3 17t18 4h465q14 0 17 -3
t3 -18v-641q0 -14 -12 -22q-125 -102 -397 -102q-338 0 -542 213t-204 524t202 524t535 213q188 0 334 -82q16 -10 17 -20v-219q0 -14 -8 -15q-6 0 -11 4q-133 133 -332 133z" />
    <glyph glyph-name="gdotaccent" unicode="&#x121;" horiz-adv-x="1122" 
d="M549 1057q-51 0 -89 37t-38 90t37 91t90 38t90 -38t37 -89t-38 -90t-89 -39zM227 -213q-1 20 5 20t16 -6q126 -84 280 -84t221 73t66 239v73q0 4 -7 4t-9 -2q-119 -124 -298 -124t-307 137t-128 332t128 331t307 135q179 0 298 -124q2 -3 9 -3t7 5v81q0 12 3 16t18 5h139
q14 0 17 -4t3 -17v-837q1 -236 -115 -360t-343 -123q-180 0 -291 57q-18 8 -19 24v152zM531 752q-125 0 -203 -88t-78 -216t78 -216t202 -89q124 0 205 88q80 89 80 217t-80 216t-204 88z" />
    <glyph glyph-name="Gcommaaccent" unicode="&#x122;" horiz-adv-x="1353" 
d="M829 -135q20 0 19 -21l-92 -313q-8 -20 -27 -20h-78q-14 0 -14 16v4l31 313q2 20 22 21h139zM831 1255q-247 -1 -381 -155t-134 -384t136 -388q138 -158 388 -158q135 0 202 33q10 4 11 14v346q0 13 -3 17t-18 4h-268q-14 0 -18 3q-3 3 -3 17v141q0 13 3 17t18 4h465
q14 0 17 -3t3 -18v-641q0 -14 -12 -22q-125 -102 -397 -102q-338 0 -542 213t-204 524t202 524t535 213q188 0 334 -82q16 -10 17 -20v-219q0 -14 -8 -15q-6 0 -11 4q-133 133 -332 133z" />
    <glyph glyph-name="gcommaaccent" unicode="&#x123;" horiz-adv-x="1122" 
d="M483 1036q-20 0 -18 21l92 313q8 20 27 21h78q14 -10 14 -21l-31 -313q-2 -20 -22 -21h-140zM227 -213q-1 20 5 20t16 -6q126 -84 280 -84t221 73t66 239v73q0 4 -7 4t-9 -2q-119 -124 -298 -124t-307 137t-128 332t128 331t307 135q179 0 298 -124q2 -3 9 -3t7 5v81
q0 12 3 16t18 5h139q14 0 17 -4t3 -17v-837q1 -236 -115 -360t-343 -123q-180 0 -291 57q-18 8 -19 24v152zM531 752q-125 0 -203 -88t-78 -216t78 -216t202 -89q124 0 205 88q80 89 80 217t-80 216t-204 88z" />
    <glyph glyph-name="Hcircumflex" unicode="&#x124;" horiz-adv-x="1212" 
d="M680 1831q25 0 39 -21l221 -254q6 -8 6 -14t-12 -6h-127q-14 0 -35 20l-154 154q-4 4 -12 4t-12 -4l-150 -154q-20 -20 -34 -20h-131q-12 0 -13 6q0 6 6 14l213 254q18 20 39 21h156zM1063 20q0 -14 -3 -17t-18 -3h-159q-14 0 -18 3q-3 3 -3 17v472q0 14 -3 17t-17 3
h-471q-13 0 -17 -3t-4 -17v-472q0 -14 -3 -17t-17 -3h-160q-14 0 -17 3t-3 17v1393q0 13 3 17t17 4h160q14 0 17 -3t3 -18v-694q0 -13 3 -17t18 -4h471q14 0 17 3t3 18v694q0 13 3 17t18 4h159q14 0 18 -3t3 -18v-1393z" />
    <glyph glyph-name="hcircumflex" unicode="&#x125;" horiz-adv-x="1056" 
d="M606 1831q25 0 39 -21l221 -254q6 -8 6 -14t-12 -6h-127q-14 0 -35 20l-153 154q-5 4 -13 4t-12 -4l-149 -154q-20 -20 -35 -20h-131q-12 0 -12 6t6 14l213 254q18 20 39 21h155zM938 20q0 -12 -3 -16t-17 -4h-140q-14 0 -17 4t-3 16v508q0 223 -197 224q-109 0 -179 -71
t-71 -192v-469q0 -12 -3 -16t-17 -4h-139q-14 0 -18 4q-3 4 -3 16v1393q0 13 3 17t18 4h139q14 0 17 -4t3 -17v-620q0 -5 7 -5t10 3q68 65 125 95t143 29q176 0 259 -94t83 -252v-549z" />
    <glyph glyph-name="Hbar" unicode="&#x126;" horiz-adv-x="1212" 
d="M1063 20q0 -14 -3 -17t-18 -3h-159q-14 0 -18 3q-3 3 -3 17v472q0 14 -3 17t-17 3h-471q-13 0 -17 -3t-4 -17v-472q0 -14 -3 -17t-17 -3h-160q-14 0 -17 3t-3 17v932q0 14 -4 18t-17 3h-82q-14 0 -17 4t-3 18v113q0 14 4 17t16 3h82q14 0 17 4t4 17v264q0 13 3 17t17 4
h160q14 0 17 -3t3 -18v-264q0 -14 3 -17t18 -4h471q14 0 17 4t3 17v264q0 13 3 17t18 4h159q14 0 18 -3t3 -18v-264q0 -14 3 -17t17 -4h82q13 0 17 -3t4 -17v-113q0 -14 -3 -18t-18 -4h-82q-14 0 -17 -3t-3 -18v-932zM862 952q0 14 -3 18t-17 3h-471q-13 0 -17 -3t-4 -18
v-233q0 -13 3 -17t18 -4h471q14 0 17 3t3 18v233z" />
    <glyph glyph-name="hbar" unicode="&#x127;" horiz-adv-x="1056" 
d="M311 1245q0 -14 3 -17t18 -3h182q14 0 17 -4t4 -17v-98q1 -12 -3 -16t-18 -5h-182q-14 0 -18 -3t-3 -17v-272q0 -5 7 -5t10 3q68 65 125 95t143 29q176 0 259 -94t83 -252v-549q0 -12 -3 -16t-17 -4h-140q-14 0 -17 4t-3 16v508q0 223 -197 224q-109 0 -179 -71t-71 -192
v-469q0 -12 -3 -16t-17 -4h-139q-14 0 -18 4q-3 4 -3 16v1045q0 14 -3 17t-17 3h-76q-13 1 -17 5t-4 16v98q0 12 3 16t18 5h76q14 0 17 3t3 17v271q0 12 3 16t18 4h139q14 0 17 -4t3 -16v-271z" />
    <glyph glyph-name="Itilde" unicode="&#x128;" horiz-adv-x="495" 
d="M-59 1561q-14 0 -18 4q-3 4 -3 16v29q0 84 51 142t133 58t128 -30q48 -30 80 -61q32 -29 63 -29t51 19t20 52v23q0 12 4 16t17 4h90q14 0 17 -4t4 -16v-31q0 -86 -48 -142q-48 -57 -122 -57q-130 -1 -181 60q-52 61 -106 61q-29 0 -49 -19t-21 -54v-21q0 -12 -3 -16
t-17 -4h-90zM147 1413q-1 13 3 17t18 4h160q14 0 17 -3t3 -18v-1393q0 -14 -3 -17t-17 -3h-160q-14 0 -17 3t-4 17v1393z" />
    <glyph glyph-name="itilde" unicode="&#x129;" horiz-adv-x="458" 
d="M139 874q0 12 3 16t18 5h139q14 0 17 -4t3 -17v-854q0 -12 -3 -16t-17 -4h-139q-14 0 -18 4q-3 4 -3 16v854zM532 1284v-37q0 -86 -44 -138t-114 -52q-117 0 -160 55t-91 55q-74 0 -74 -65v-21q0 -12 -3 -16t-17 -4h-82q-14 0 -18 4q-3 4 -3 16v35q0 84 49 138t138 55
q51 1 87 -17t50 -38q38 -55 88 -56q72 0 72 64v22q0 12 3 16t17 5h82q14 -1 17 -5t3 -16z" />
    <glyph glyph-name="Imacron" unicode="&#x12a;" horiz-adv-x="495" 
d="M-76 1726q0 14 4 18t17 3h610q14 0 17 -3t3 -18v-90q0 -14 -3 -17t-17 -3h-610q-14 0 -18 3q-3 3 -3 17v90zM147 1413q-1 13 3 17t18 4h160q14 0 17 -3t3 -18v-1393q0 -14 -3 -17t-17 -3h-160q-14 0 -17 3t-4 17v1393z" />
    <glyph glyph-name="imacron" unicode="&#x12b;" horiz-adv-x="458" 
d="M139 874q0 12 3 16t18 5h139q14 0 17 -4t3 -17v-854q0 -12 -3 -16t-17 -4h-139q-14 0 -18 4q-3 4 -3 16v854zM-20 1229q0 14 4 17t16 3h459q14 0 17 -3t3 -17v-90q0 -13 -3 -17t-17 -4h-459q-14 0 -17 3t-3 18v90z" />
    <glyph glyph-name="Ibreve" unicode="&#x12c;" horiz-adv-x="495" 
d="M250 1526q-135 0 -224 68t-87 216q0 12 3 16t17 5h107q20 0 20 -21q2 -82 47 -120t117 -37q72 0 117 38t47 119q0 20 20 21h107q14 0 17 -4t3 -17q2 -148 -87 -216t-224 -68zM147 1413q-1 13 3 17t18 4h160q14 0 17 -3t3 -18v-1393q0 -14 -3 -17t-17 -3h-160q-14 0 -17 3
t-4 17v1393z" />
    <glyph glyph-name="ibreve" unicode="&#x12d;" horiz-adv-x="458" 
d="M139 874q0 12 3 16t18 5h139q14 0 17 -4t3 -17v-854q0 -12 -3 -16t-17 -4h-139q-14 0 -18 4q-3 4 -3 16v854zM231 1026q-131 0 -209 68t-77 217q0 12 3 16t17 4h98q20 0 21 -20q2 -158 147 -158t148 158q0 20 20 20h99q14 0 17 -4t3 -16q2 -149 -77 -217t-210 -68z" />
    <glyph glyph-name="Iogonek" unicode="&#x12e;" horiz-adv-x="495" 
d="M348 20q0 -16 -20 -23t-25 -9q-109 -63 -108 -176q1 -49 37 -83t90 -34q14 0 32 2t19 -6v-101q0 -23 -58 -22q-115 0 -187 70t-73 168q0 98 70 176q23 23 22 45v1386q-1 13 3 17t18 4h160q14 0 17 -3t3 -18v-1393z" />
    <glyph glyph-name="iogonek" unicode="&#x12f;" horiz-adv-x="458" 
d="M229 1083q-51 0 -89 37t-38 90q0 54 37 92t90 38t90 -38t37 -90t-38 -90q-38 -39 -89 -39zM252 -412q-102 0 -166 60t-63 159q0 98 104 185q12 10 12 28v854q0 12 3 16t18 5h139q14 0 17 -4t3 -17v-854q0 -12 -3 -16t-17 -4h-14q-16 0 -27 -10q-88 -63 -88 -158
q0 -115 129 -115q14 0 17 -3t3 -15v-88q0 -19 -19 -21t-48 -2z" />
    <glyph glyph-name="Idotaccent" unicode="&#x130;" horiz-adv-x="495" 
d="M248 1554q-51 0 -89 37t-38 90t37 91t90 38t90 -38t37 -88q0 -52 -38 -91t-89 -39zM147 1413q-1 13 3 17t18 4h160q14 0 17 -3t3 -18v-1393q0 -14 -3 -17t-17 -3h-160q-14 0 -17 3t-4 17v1393z" />
    <glyph glyph-name="dotlessi" unicode="&#x131;" horiz-adv-x="458" 
d="M139 874q0 12 3 16t18 5h139q14 0 17 -4t3 -17v-854q0 -12 -3 -16t-17 -4h-139q-14 0 -18 4q-3 4 -3 16v854z" />
    <glyph glyph-name="IJ" unicode="&#x132;" horiz-adv-x="1069" 
d="M721 1417q0 16 16 17h168q16 0 17 -17v-1143q0 -156 -62 -226t-196 -68q-132 0 -142 20q-2 4 -2 14v138q0 18 21 16q45 -10 91 -10t68 32t21 111v1116zM147 1413q-1 13 3 17t18 4h160q14 0 17 -3t3 -18v-1393q0 -14 -3 -17t-17 -3h-160q-14 0 -17 3t-4 17v1393z" />
    <glyph glyph-name="ij" unicode="&#x133;" horiz-adv-x="880" 
d="M229 1083q-51 0 -89 37t-38 90q0 54 37 92t90 38t90 -38t37 -90t-38 -90q-38 -39 -89 -39zM666 1083q-51 0 -89 37t-38 90t36 92q37 38 91 38t90 -38q37 -38 37 -90t-38 -90q-38 -39 -89 -39zM139 874q0 12 3 16t18 5h139q14 0 17 -4t3 -17v-854q0 -12 -3 -16t-17 -4
h-139q-14 0 -18 4q-3 4 -3 16v854zM754 -143q0 -158 -60 -233t-188 -75q-49 0 -64 2l-24 5q-10 4 -16 6t-5 18v121q0 18 25 14t47 -4q104 0 104 139v1024q-1 12 3 16t18 5h139q13 0 17 -4t4 -17v-1017z" />
    <glyph glyph-name="Jcircumflex" unicode="&#x134;" horiz-adv-x="606" 
d="M426 1831q25 0 39 -21l221 -254q6 -8 6 -14t-12 -6h-127q-14 0 -35 20l-153 154q-5 4 -13 4t-12 -4l-150 -154q-20 -20 -34 -20h-131q-12 0 -13 6q0 6 6 14l213 254q18 20 39 21h156zM258 1417q0 16 16 17h168q16 0 17 -17v-1143q-1 -156 -63 -226t-192 -68
q-130 0 -145 20q-2 4 -2 14v138q0 18 21 16q45 -10 91 -10t68 32t21 111v1116z" />
    <glyph glyph-name="jcircumflex" unicode="&#x135;" horiz-adv-x="446" 
d="M164 1333h123q25 0 39 -20l176 -256q6 -9 6 -15t-12 -6h-117q-14 0 -35 21l-102 143q-4 4 -12 4t-13 -4l-98 -143q-20 -20 -35 -21h-121q-12 0 -12 6t6 15l168 256q18 20 39 20zM319 -143q0 -158 -60 -233t-187 -75q-49 0 -64 2l-24 5q-10 4 -16 6t-5 18v121q0 18 25 14
t47 -4q104 0 104 139v1024q0 12 3 16t18 5h139q14 0 17 -4t3 -17v-1017z" />
    <glyph glyph-name="Kcommaaccent" unicode="&#x136;" horiz-adv-x="1150" 
d="M662 -135q20 0 18 -21l-92 -313q-8 -20 -27 -20h-78q-14 0 -14 16v4l31 313q2 20 22 21h140zM350 20q0 -14 -3 -17t-17 -3h-160q-14 0 -17 3t-3 17v1393q0 13 3 17t17 4h160q14 0 17 -3t3 -18v-571q0 -14 12 -15q12 0 19 11l450 575q18 20 33 21h213q27 0 8 -21
l-499 -633q-4 -4 -4 -10t4 -10l522 -740q2 -4 6 -9t4 -8t-18 -3h-213q-14 0 -33 20l-471 680q-6 8 -19 8t-14 -14v-674z" />
    <glyph glyph-name="kcommaaccent" unicode="&#x137;" horiz-adv-x="899" 
d="M537 -135q20 0 18 -21l-92 -313q-8 -20 -27 -20h-78q-14 0 -14 16v4l31 313q2 20 22 21h140zM311 563q1 -14 13 -14t18 10l262 315q18 20 33 21h184q16 0 17 -6q0 -4 -9 -15l-315 -372q-4 -4 -4 -10t4 -11l342 -461q2 -4 6 -9t4 -8t-18 -3h-184q-14 0 -33 20l-287 402
q-6 8 -19 8t-14 -14v-396q0 -12 -3 -16t-17 -4h-139q-14 0 -18 4q-3 4 -3 16v1496q0 12 3 16t18 4h139q14 0 17 -4t3 -16v-953z" />
    <glyph glyph-name="kgreenlandic" unicode="&#x138;" horiz-adv-x="919" 
d="M311 543q0 -14 13 -15q12 0 18 11l291 335q18 20 33 21h184q16 0 16 -5t-8 -16l-344 -393q-4 -4 -4 -10t4 -10l363 -441q2 -4 6 -9t4 -8t-19 -3h-184q-14 0 -33 20l-307 381q-6 9 -19 9t-14 -15v-375q0 -12 -3 -16t-17 -4h-139q-14 0 -18 4q-3 4 -3 16v854q0 12 3 16
t18 5h139q14 0 17 -4t3 -17v-331z" />
    <glyph glyph-name="Lacute" unicode="&#x139;" horiz-adv-x="925" 
d="M741 1831q10 0 17 -2t-8 -19l-248 -254q-20 -20 -37 -20h-146q-20 0 -4 20l197 254q14 20 33 21h196zM150 1413q0 13 3 17t17 4h156q14 0 17 -3t3 -18v-1204q0 -13 3 -17t18 -4h475q14 0 17 -3t3 -17v-148q0 -14 -3 -17t-17 -3h-672q-14 0 -17 3t-3 17v1393z" />
    <glyph glyph-name="lacute" unicode="&#x13a;" horiz-adv-x="458" 
d="M551 1831q10 0 17 -2t-9 -19l-248 -254q-20 -20 -37 -20h-145q-20 0 -4 20l197 254q14 20 32 21h197zM139 1413q0 13 3 17t18 4h139q14 0 17 -4t3 -17v-1393q0 -12 -3 -16t-17 -4h-139q-14 0 -18 4q-3 4 -3 16v1393z" />
    <glyph glyph-name="Lcommaaccent" unicode="&#x13b;" horiz-adv-x="925" 
d="M549 -135q20 0 18 -21l-92 -313q-8 -20 -26 -20h-78q-14 0 -15 16v4l31 313q2 20 23 21h139zM150 1413q0 13 3 17t17 4h156q14 0 17 -3t3 -18v-1204q0 -13 3 -17t18 -4h475q14 0 17 -3t3 -17v-148q0 -14 -3 -17t-17 -3h-672q-14 0 -17 3t-3 17v1393z" />
    <glyph glyph-name="lcommaaccent" unicode="&#x13c;" horiz-adv-x="458" 
d="M322 -135q20 0 18 -21l-92 -313q-8 -20 -27 -20h-78q-14 0 -14 16v4l31 313q2 20 22 21h140zM139 1516q0 12 3 16t18 4h139q14 0 17 -4t3 -16v-1496q0 -12 -3 -16t-17 -4h-139q-14 0 -18 4q-3 4 -3 16v1496z" />
    <glyph glyph-name="Lcaron" unicode="&#x13d;" horiz-adv-x="925" 
d="M588 1536h139q20 0 18 -20l-92 -314q-8 -20 -26 -20h-78q-14 10 -14 20l30 314q2 20 23 20zM176 1413q0 13 3 17t18 4h155q14 0 18 -3t3 -18v-1204q0 -13 3 -17t17 -4h475q14 0 18 -3t3 -17v-148q0 -14 -3 -17t-18 -3h-671q-14 0 -18 3q-3 3 -3 17v1393z" />
    <glyph glyph-name="lcaron" unicode="&#x13e;" horiz-adv-x="458" 
d="M444 1536h140q20 0 18 -20l-92 -314q-8 -20 -27 -20h-77q-14 10 -15 20l31 314q2 20 22 20zM139 1516q0 12 3 16t18 4h139q14 0 17 -4t3 -16v-1496q0 -12 -3 -16t-17 -4h-139q-14 0 -18 4q-3 4 -3 16v1496z" />
    <glyph glyph-name="Ldot" unicode="&#x13f;" horiz-adv-x="925" 
d="M150 1413q0 13 3 17t17 4h156q14 0 17 -3t3 -18v-1204q0 -13 3 -17t18 -4h475q14 0 17 -3t3 -17v-148q0 -14 -3 -17t-17 -3h-672q-14 0 -17 3t-3 17v1393zM684 662q-47 0 -80 32t-33 79q0 48 33 81t80 33t80 -32t33 -80q0 -49 -33 -81t-80 -32z" />
    <glyph glyph-name="ldot" unicode="&#x140;" horiz-adv-x="557" 
d="M139 1516q0 12 3 16t18 4h139q14 0 17 -4t3 -16v-1496q0 -12 -3 -16t-17 -4h-139q-14 0 -18 4q-3 4 -3 16v1496zM509 639q-44 0 -76 31q-32 32 -32 76t31 75t76 31t76 -31q30 -31 30 -75t-30 -75q-30 -32 -75 -32z" />
    <glyph glyph-name="Lslash" unicode="&#x141;" horiz-adv-x="925" 
d="M0 584q0 14 20 32l125 103v694q0 13 3 17t18 4h164q14 0 17 -3t3 -18v-559l156 123q8 6 14 6t6 -14v-140q0 -16 -20 -32l-156 -123v-465q0 -13 3 -17t18 -4h471q14 0 17 -3t3 -17v-148q0 -14 -3 -17t-17 -3h-676q-14 0 -18 3q-3 3 -3 17v519l-125 -103q-10 -8 -15 -8
t-5 16v140z" />
    <glyph glyph-name="lslash" unicode="&#x142;" horiz-adv-x="507" 
d="M164 1516q0 12 3 16t17 4h140q14 0 17 -4t3 -16v-682q0 -14 6 -15q6 0 8 2l113 88q8 6 14 6t7 -14v-131q0 -16 -21 -33l-106 -82q-20 -18 -21 -37v-598q0 -12 -3 -16t-17 -4h-140q-14 0 -17 4t-3 16v492q0 14 -6 14t-8 -2l-113 -86l-12 -4q-8 0 -9 12v132q1 16 21 32
l106 80q20 18 21 37v789z" />
    <glyph glyph-name="Nacute" unicode="&#x143;" horiz-adv-x="1208" 
d="M899 1831q10 0 17 -2t-9 -19l-248 -254q-20 -20 -36 -20h-146q-20 0 -4 20l197 254q14 20 32 21h197zM346 893q-16 0 -16 -12v-861q0 -14 -3 -17t-18 -3h-151q-14 0 -18 3q-3 3 -3 17v1430q0 14 6 14t15 -10l690 -907q6 -6 18 -6t13 12v860q0 13 3 17t17 4h152
q14 0 17 -3t3 -18v-1429q0 -14 -6 -15q-4 0 -14 11l-691 907q-6 6 -14 6z" />
    <glyph glyph-name="nacute" unicode="&#x144;" horiz-adv-x="1036" 
d="M645 1331h197q10 0 17 -2t-9 -18l-248 -254q-20 -20 -37 -21h-145q-20 0 -4 21l196 254q14 20 33 20zM918 20q0 -12 -4 -16t-17 -4h-139q-14 0 -18 4q-3 4 -3 16v508q0 223 -184 224q-106 0 -174 -71t-68 -192v-469q0 -12 -3 -16t-17 -4h-139q-14 0 -18 4q-3 4 -3 16v854
q0 14 3 18t18 3h139q14 0 17 -4t3 -17v-81q0 -5 7 -5t10 3q68 65 125 95t143 29q322 0 322 -346v-549z" />
    <glyph glyph-name="Ncommaaccent" unicode="&#x145;" horiz-adv-x="1208" 
d="M707 -135q20 0 18 -21l-92 -313q-8 -20 -27 -20h-78q-14 0 -14 16v4l31 313q2 20 22 21h140zM346 893q-16 0 -16 -12v-861q0 -14 -3 -17t-18 -3h-151q-14 0 -18 3q-3 3 -3 17v1430q0 14 6 14t15 -10l690 -907q6 -6 18 -6t13 12v860q0 13 3 17t17 4h152q14 0 17 -3t3 -18
v-1429q0 -14 -6 -15q-4 0 -14 11l-691 907q-6 6 -14 6z" />
    <glyph glyph-name="ncommaaccent" unicode="&#x146;" horiz-adv-x="1036" 
d="M604 -135q20 0 19 -21l-93 -313q-8 -20 -26 -20h-78q-14 0 -14 16v4l30 313q2 20 23 21h139zM918 20q0 -12 -4 -16t-17 -4h-139q-14 0 -18 4q-3 4 -3 16v508q0 223 -184 224q-106 0 -174 -71t-68 -192v-469q0 -12 -3 -16t-17 -4h-139q-14 0 -18 4q-3 4 -3 16v854
q0 14 3 18t18 3h139q14 0 17 -4t3 -17v-81q0 -5 7 -5t10 3q68 65 125 95t143 29q322 0 322 -346v-549z" />
    <glyph glyph-name="Ncaron" unicode="&#x147;" horiz-adv-x="1208" 
d="M700 1536h-155q-25 0 -39 20l-221 254q-6 8 -6 14t12 7h127q14 0 35 -21l153 -153q4 -4 12 -4t13 4l149 153q20 20 35 21h131q12 0 12 -6t-6 -15l-213 -254q-14 -20 -39 -20zM346 893q-16 0 -16 -12v-861q0 -14 -3 -17t-18 -3h-151q-14 0 -18 3q-3 3 -3 17v1430
q0 14 6 14t15 -10l690 -907q6 -6 18 -6t13 12v860q0 13 3 17t17 4h152q14 0 17 -3t3 -18v-1429q0 -14 -6 -15q-4 0 -14 11l-691 907q-6 6 -14 6z" />
    <glyph glyph-name="ncaron" unicode="&#x148;" horiz-adv-x="1036" 
d="M440 1036q-25 0 -39 21l-221 254q-6 8 -6 14t12 6h127q14 0 35 -20l154 -154q4 -4 12 -4t12 4l150 154q20 20 35 20h131q12 0 12 -6t-6 -14l-213 -254q-14 -20 -39 -21h-156zM918 20q0 -12 -4 -16t-17 -4h-139q-14 0 -18 4q-3 4 -3 16v508q0 223 -184 224
q-106 0 -174 -71t-68 -192v-469q0 -12 -3 -16t-17 -4h-139q-14 0 -18 4q-3 4 -3 16v854q0 14 3 18t18 3h139q14 0 17 -4t3 -17v-81q0 -5 7 -5t10 3q68 65 125 95t143 29q322 0 322 -346v-549z" />
    <glyph glyph-name="napostrophe" unicode="&#x149;" horiz-adv-x="1294" 
d="M305 1434q20 0 19 -21l-117 -401q-4 -10 -6 -16t-19 -5h-88q-16 0 -16 21l45 401q2 20 22 21h160zM1176 20q0 -12 -4 -16t-17 -4h-139q-14 0 -18 4q-3 4 -3 16v508q0 223 -184 224q-106 0 -174 -71t-68 -192v-469q0 -12 -3 -16t-17 -4h-139q-14 0 -18 4q-3 4 -3 16v854
q0 14 3 18t18 3h139q14 0 17 -4t3 -17v-81q-1 -5 7 -5t10 3q68 65 125 95t143 29q322 0 322 -346v-549z" />
    <glyph glyph-name="Eng" unicode="&#x14a;" horiz-adv-x="1208" 
d="M346 893q-16 0 -16 -12v-861q0 -14 -3 -17t-18 -3h-151q-14 0 -18 3q-3 3 -3 17v1430q0 14 6 14t15 -10l690 -907q6 -6 18 -6t13 12l-2 860q0 13 3 17t17 4h152q14 0 17 -3t3 -18v-1433q0 -141 -95 -209t-263 -68q-12 0 -17 3q-4 3 -4 18v153q0 13 4 17t17 4
q106 0 136 40t30 164v93q0 14 -23 41l-494 651q-6 6 -14 6z" />
    <glyph glyph-name="eng" unicode="&#x14b;" horiz-adv-x="1034" 
d="M735 528q0 223 -184 224q-106 0 -174 -71t-68 -192v-469q0 -12 -3 -16t-17 -4h-139q-14 0 -18 4q-3 4 -3 16v854q0 14 3 18t18 3h139q14 0 17 -4t3 -17v-81q0 -5 7 -5t10 3q68 65 125 95t143 29q322 0 321 -346v-698q0 -159 -58 -233t-185 -74q-87 0 -97 17q-2 5 -2 13
v121q0 18 21 17q4 -4 50 -4t69 24t22 113v663z" />
    <glyph glyph-name="Omacron" unicode="&#x14c;" horiz-adv-x="1622" 
d="M485 1729q0 14 4 17t17 3h610q14 0 18 -3t3 -17v-91q0 -14 -3 -17t-18 -3h-610q-14 0 -18 3q-3 3 -3 17v91zM315 717q-1 -221 141 -380t355 -159t354 159t142 380t-141 380t-355 159t-355 -160q-142 -158 -141 -379zM1528 717q0 -303 -209 -520t-508 -217t-508 217
t-209 520t209 520t508 217t508 -217t209 -520z" />
    <glyph glyph-name="omacron" unicode="&#x14d;" horiz-adv-x="1062" 
d="M207 1229q0 14 4 17t16 3h611q14 0 17 -3t3 -17v-90q0 -13 -3 -17t-17 -4h-611q-14 0 -17 3t-3 18v90zM532 752q-126 0 -204 -88t-78 -216t79 -216t205 -89q126 0 202 87q77 88 77 218t-78 217t-203 87zM66 449q0 193 137 329t329 137q192 0 329 -137q136 -138 136 -330
t-136 -330t-329 -138q-194 0 -330 138t-136 331z" />
    <glyph glyph-name="Obreve" unicode="&#x14e;" horiz-adv-x="1622" 
d="M801 1526q-135 0 -224 68t-88 216q-1 12 3 16t18 5h106q20 0 21 -21q2 -82 47 -120t117 -37q72 0 117 38t47 119q0 20 20 21h107q14 0 17 -4t3 -17q2 -148 -87 -216t-224 -68zM315 717q-1 -221 141 -380t355 -159t354 159t142 380t-141 380t-355 159t-355 -160
q-142 -158 -141 -379zM1528 717q0 -303 -209 -520t-508 -217t-508 217t-209 520t209 520t508 217t508 -217t209 -520z" />
    <glyph glyph-name="obreve" unicode="&#x14f;" horiz-adv-x="1062" 
d="M532 1026q-135 0 -224 69t-87 216q0 12 3 16t18 4h106q20 0 21 -20q2 -82 47 -120q44 -38 116 -38t117 38t47 120q0 20 21 20h106q13 0 17 -4t4 -16q2 -147 -88 -216t-224 -69zM532 752q-126 0 -204 -88t-78 -216t79 -216t205 -89q126 0 202 87q77 88 77 218t-78 217
t-203 87zM66 449q0 193 137 329t329 137q192 0 329 -137q136 -138 136 -330t-136 -330t-329 -138q-194 0 -330 138t-136 331z" />
    <glyph glyph-name="Ohungarumlaut" unicode="&#x150;" horiz-adv-x="1622" 
d="M1311 1831q20 0 20 -4t-12 -17l-240 -254q-20 -20 -37 -20h-135q-14 0 -14 4v2q6 6 10 14l197 254q18 20 33 21h178zM942 1831q20 0 21 -4q0 -4 -13 -17l-239 -254q-20 -20 -37 -20h-135q-14 0 -15 4v2q2 2 11 14l196 254q18 20 33 21h178zM315 717q-1 -221 141 -380
t355 -159t354 159t142 380t-141 380t-355 159t-355 -160q-142 -158 -141 -379zM1528 717q0 -303 -209 -520t-508 -217t-508 217t-209 520t209 520t508 217t508 -217t209 -520z" />
    <glyph glyph-name="ohungarumlaut" unicode="&#x151;" horiz-adv-x="1062" 
d="M860 1331h178q20 0 21 -4q0 -4 -12 -16l-240 -254q-20 -20 -37 -21h-135q-14 0 -14 4l2 2q0 2 3 6t5 9l196 254q18 20 33 20zM492 1331h178q20 0 20 -4t-12 -16l-240 -254q-20 -20 -37 -21h-135q-14 0 -14 4l2 2q0 2 3 6t5 9l197 254q18 20 33 20zM532 752
q-126 0 -204 -88t-78 -216t79 -216t205 -89q126 0 202 87q77 88 77 218t-78 217t-203 87zM66 449q0 193 137 329t329 137q192 0 329 -137q136 -138 136 -330t-136 -330t-329 -138q-194 0 -330 138t-136 331z" />
    <glyph glyph-name="OE" unicode="&#x152;" horiz-adv-x="1615" 
d="M754 184q14 0 17 3t3 18v1024q0 14 -3 17t-17 3q-209 1 -330 -153t-121 -379t121 -379t330 -154zM1501 1434q13 0 17 -3t4 -18v-143q0 -14 -3 -18t-18 -3h-506q-14 0 -17 -3t-3 -17v-512q0 -13 3 -17t17 -4h496q14 0 17 -3t3 -17v-144q0 -14 -3 -17t-17 -3h-496
q-14 0 -17 -3t-3 -17v-287q0 -13 3 -17t17 -4h516q13 0 17 -3t4 -17v-144q0 -14 -3 -17t-18 -3h-731q-298 0 -492 206t-194 511t188 511t484 206h735z" />
    <glyph glyph-name="oe" unicode="&#x153;" horiz-adv-x="1730" 
d="M1243 752q-102 0 -170 -60t-78 -153q0 -13 3 -17t18 -4h438q16 0 20 3q3 3 1 18q-12 97 -71 155t-161 58zM531 752q-125 0 -203 -88t-78 -216t79 -216t205 -89q126 0 202 87q77 86 77 218t-79 218t-203 86zM1569 217v-149q0 -8 -17 -21q-88 -68 -264 -67q-256 0 -389 180
q-145 -180 -353 -180t-344 138t-136 331t137 329t329 137q109 0 205 -48t160 -132q125 180 334 180t317 -132t109 -334v-62q0 -12 -3 -16t-18 -4h-608q-14 1 -18 -3t-4 -16q10 -96 85 -150t197 -55q68 0 148 25t112 61q21 21 21 -12z" />
    <glyph glyph-name="Racute" unicode="&#x154;" horiz-adv-x="1116" 
d="M768 1831q10 0 17 -2t-9 -19l-248 -254q-20 -20 -36 -20h-146q-20 0 -4 20l197 254q14 20 32 21h197zM346 20q0 -14 -3 -17t-17 -3h-154q-25 0 -25 20v1393q-1 13 3 17t18 4h326q233 0 359 -105t126 -317q0 -156 -91 -261t-255 -139q-8 -2 -8 -7t4 -9l444 -576q2 -4 6 -9
t4 -8t-18 -3h-205q-14 0 -33 20l-456 598q-10 12 -17 13q-8 0 -8 -19v-592zM512 766q258 0 258 246q0 119 -71 180t-195 61h-137q-13 0 -17 -3t-4 -17v-447q0 -14 3 -17t18 -3h145z" />
    <glyph glyph-name="racute" unicode="&#x155;" horiz-adv-x="653" 
d="M381 1331h197q10 0 17 -2t-9 -18l-248 -254q-20 -20 -37 -21h-145q-20 0 -4 21l196 254q14 20 33 20zM311 20q0 -12 -3 -16t-17 -4h-139q-14 0 -18 4q-3 4 -3 16v854q0 12 3 16t18 5h139q14 0 17 -4t3 -17v-108q0 -4 7 -4t10 2q32 59 108 105t160 46q14 0 17 -4t3 -16
v-147q0 -23 -10 -23l-55 4q-115 0 -177 -93t-63 -261v-355z" />
    <glyph glyph-name="Rcommaaccent" unicode="&#x156;" horiz-adv-x="1116" 
d="M649 -135q20 0 19 -21l-93 -313q-8 -20 -26 -20h-78q-14 0 -14 16v4l30 313q2 20 23 21h139zM346 20q0 -14 -3 -17t-17 -3h-154q-25 0 -25 20v1393q-1 13 3 17t18 4h326q233 0 359 -105t126 -317q0 -156 -91 -261t-255 -139q-8 -2 -8 -7t4 -9l444 -576q2 -4 6 -9t4 -8
t-18 -3h-205q-14 0 -33 20l-456 598q-10 12 -17 13q-8 0 -8 -19v-592zM512 766q258 0 258 246q0 119 -71 180t-195 61h-137q-13 0 -17 -3t-4 -17v-447q0 -14 3 -17t18 -3h145z" />
    <glyph glyph-name="rcommaaccent" unicode="&#x157;" horiz-adv-x="653" 
d="M315 -135q20 0 19 -21l-92 -313q-8 -20 -27 -20h-78q-14 0 -14 16v4l31 313q2 20 22 21h139zM311 20q0 -12 -3 -16t-17 -4h-139q-14 0 -18 4q-3 4 -3 16v854q0 12 3 16t18 5h139q14 0 17 -4t3 -17v-108q0 -4 7 -4t10 2q32 59 108 105t160 46q14 0 17 -4t3 -16v-147
q0 -23 -10 -23l-55 4q-115 0 -177 -93t-63 -261v-355z" />
    <glyph glyph-name="Rcaron" unicode="&#x158;" horiz-adv-x="1116" 
d="M584 1536h-156q-25 0 -39 20l-221 254q-6 8 -6 14t12 7h127q14 0 35 -21l153 -153q5 -4 13 -4t12 4l150 153q20 20 34 21h131q12 0 13 -6q0 -6 -6 -15l-213 -254q-14 -20 -39 -20zM346 20q0 -14 -3 -17t-17 -3h-154q-25 0 -25 20v1393q-1 13 3 17t18 4h326
q233 0 359 -105t126 -317q0 -156 -91 -261t-255 -139q-8 -2 -8 -7t4 -9l444 -576q2 -4 6 -9t4 -8t-18 -3h-205q-14 0 -33 20l-456 598q-10 12 -17 13q-8 0 -8 -19v-592zM512 766q258 0 258 246q0 119 -71 180t-195 61h-137q-13 0 -17 -3t-4 -17v-447q0 -14 3 -17t18 -3h145z
" />
    <glyph glyph-name="rcaron" unicode="&#x159;" horiz-adv-x="653" 
d="M258 1036q-25 0 -39 21l-221 254q-6 8 -6 14t12 6h127q14 0 35 -20l153 -154q5 -4 13 -4t12 4l150 154q20 20 34 20h131q12 0 13 -6q0 -6 -6 -14l-213 -254q-14 -20 -39 -21h-156zM311 20q0 -12 -3 -16t-17 -4h-139q-14 0 -18 4q-3 4 -3 16v854q0 12 3 16t18 5h139
q14 0 17 -4t3 -17v-108q0 -4 7 -4t10 2q32 59 108 105t160 46q14 0 17 -4t3 -16v-147q0 -23 -10 -23l-55 4q-115 0 -177 -93t-63 -261v-355z" />
    <glyph glyph-name="Sacute" unicode="&#x15a;" horiz-adv-x="1030" 
d="M829 1831q10 0 17 -2t-8 -19l-248 -254q-20 -20 -37 -20h-145q-20 0 -5 20l197 254q14 20 33 21h196zM516 -20q-129 0 -248 66t-180 173q-6 10 -6 15t10 16l113 112q10 10 15 10t13 -12q63 -104 133 -146t164 -42t153 57q58 57 58 141q0 146 -214 264q-89 50 -179 104
t-152 144t-63 203q0 157 110 263t283 106q238 0 365 -178q6 -10 6 -15t-10 -16l-101 -100q-10 -10 -15 -10t-13 12q-74 119 -228 119q-88 0 -136 -50t-48 -122q0 -124 158 -209q181 -98 295 -184q69 -50 113 -133t44 -187q0 -180 -117 -291q-118 -110 -323 -110z" />
    <glyph glyph-name="sacute" unicode="&#x15b;" horiz-adv-x="770" 
d="M428 1331h197q10 0 17 -2t-9 -18l-248 -254q-20 -20 -37 -21h-145q-20 0 -4 21l196 254q14 20 33 20zM393 764q-55 0 -88 -29t-33 -75q0 -80 151 -136q63 -22 125 -52t106 -87t44 -152t-78 -175q-79 -79 -235 -78q-203 0 -315 151q-4 8 -4 15t8 16l84 84q8 8 14 8t14 -10
q80 -111 203 -111q63 0 98 29t35 75q0 47 -43 77t-105 54t-124 54q-150 70 -150 242q0 98 78 175t209 76q186 0 275 -122q4 -7 4 -15t-9 -16l-79 -80q-8 -8 -14 -8t-15 10q-53 80 -156 80z" />
    <glyph glyph-name="Scircumflex" unicode="&#x15c;" horiz-adv-x="1030" 
d="M590 1831q25 0 39 -21l221 -254q6 -8 6 -14t-12 -6h-127q-14 0 -35 20l-154 154q-4 4 -12 4t-12 -4l-150 -154q-20 -20 -35 -20h-131q-12 0 -12 6t6 14l213 254q18 20 39 21h156zM516 -20q-129 0 -248 66t-180 173q-6 10 -6 15t10 16l113 112q10 10 15 10t13 -12
q63 -104 133 -146t164 -42t153 57q58 57 58 141q0 146 -214 264q-89 50 -179 104t-152 144t-63 203q0 157 110 263t283 106q238 0 365 -178q6 -10 6 -15t-10 -16l-101 -100q-10 -10 -15 -10t-13 12q-74 119 -228 119q-88 0 -136 -50t-48 -122q0 -124 158 -209
q181 -98 295 -184q69 -50 113 -133t44 -187q0 -180 -117 -291q-118 -110 -323 -110z" />
    <glyph glyph-name="scircumflex" unicode="&#x15d;" horiz-adv-x="770" 
d="M299 1331h156q25 0 39 -20l221 -254q6 -9 6 -15t-12 -6h-127q-14 0 -35 21l-154 153q-4 4 -12 4t-12 -4l-150 -153q-20 -20 -35 -21h-131q-12 0 -12 6t6 15l213 254q18 20 39 20zM393 764q-55 0 -88 -29t-33 -75q0 -80 151 -136q63 -22 125 -52t106 -87t44 -152t-78 -175
q-79 -79 -235 -78q-203 0 -315 151q-4 8 -4 15t8 16l84 84q8 8 14 8t14 -10q80 -111 203 -111q63 0 98 29t35 75q0 47 -43 77t-105 54t-124 54q-150 70 -150 242q0 98 78 175t209 76q186 0 275 -122q4 -7 4 -15t-9 -16l-79 -80q-8 -8 -14 -8t-15 10q-53 80 -156 80z" />
    <glyph glyph-name="Scedilla" unicode="&#x15e;" horiz-adv-x="1030" 
d="M82 234q0 5 10 16l113 112q10 10 15 10t13 -12q63 -104 133 -146t164 -42t153 57q58 57 58 141q0 146 -214 264q-89 50 -179 104t-152 144t-63 203q0 157 110 263t283 106q238 0 365 -178q6 -10 6 -15t-10 -16l-101 -100q-10 -10 -15 -10t-13 12q-74 119 -228 119
q-88 0 -136 -50t-48 -122q0 -124 158 -209q181 -98 295 -184q69 -50 113 -133t44 -187q0 -160 -92 -264t-256 -129q-12 0 -12 -10t6 -15q90 -57 90 -157t-64 -170q-64 -68 -162 -68q-97 0 -153 39q-12 10 -10 24l16 88q4 23 23 11q53 -33 99 -33t75 28q29 29 29 77t-35 75
t-75 27t-57 -2t-21 3q-3 5 -1 25l9 52q1 18 -15 24q-184 68 -262 213q-6 10 -6 15z" />
    <glyph glyph-name="scedilla" unicode="&#x15f;" horiz-adv-x="770" 
d="M335 -303q46 0 75 28q28 29 28 77t-35 75t-75 27t-57 -2t-20 3t-1 25l8 47q2 18 -14 25q-106 37 -174 129q-4 8 -4 15t8 16l84 84q10 10 14 10t14 -12q80 -111 203 -111q63 0 98 29t35 75q0 47 -43 77t-105 54t-124 54q-150 70 -150 242q0 98 78 175t209 76
q184 0 272 -122q10 -19 -4 -31l-77 -80q-10 -10 -16 -10t-13 12q-53 80 -156 80q-55 0 -88 -29t-33 -75q0 -80 151 -136q63 -22 125 -52t106 -87t44 -142t-51 -155t-153 -96q-12 -4 -13 -12q0 -8 6 -13q99 -61 99 -161t-65 -170q-65 -68 -162 -68t-152 39q-12 10 -10 24
l16 88q4 23 23 11q53 -33 99 -33z" />
    <glyph glyph-name="Scaron" unicode="&#x160;" horiz-adv-x="1030" 
d="M600 1536h-156q-25 0 -38 20l-222 256q-6 10 -6 16t12 5h127q14 0 35 -21l154 -153q4 -4 12 -4t12 4l150 153q20 20 35 21h131q12 0 12 -5t-6 -16l-213 -256q-14 -20 -39 -20zM82 234q0 5 10 16l113 112q10 10 15 10t13 -12q63 -104 133 -146t164 -42t153 57
q58 57 58 141q0 146 -214 264q-89 50 -179 104t-152 144t-63 203q0 157 110 263t283 106q238 0 365 -178q6 -10 6 -15t-10 -16l-101 -100q-10 -10 -15 -10t-13 12q-74 119 -228 119q-88 0 -136 -50t-48 -122q0 -124 158 -209q181 -98 295 -184q69 -50 113 -133t44 -187
q0 -180 -118 -291t-322 -110q-129 0 -248 65t-180 174q-6 10 -6 15z" />
    <glyph glyph-name="scaron" unicode="&#x161;" horiz-adv-x="770" 
d="M307 1036q-25 0 -39 21l-221 254q-6 8 -6 14t12 6h127q14 0 35 -20l154 -154q4 -4 12 -4t12 4l150 154q20 20 35 20h131q12 0 12 -6t-6 -14l-213 -254q-14 -20 -39 -21h-156zM393 764q-55 0 -88 -29t-33 -75q0 -80 151 -136q63 -22 125 -52t106 -87t44 -152t-78 -175
q-79 -79 -235 -78q-203 0 -315 151q-4 8 -4 15t8 16l84 84q8 8 14 8t14 -10q80 -111 203 -111q63 0 98 29t35 75q0 47 -43 77t-105 54t-124 54q-150 70 -150 242q0 98 78 175t209 76q186 0 275 -122q4 -7 4 -15t-9 -16l-79 -80q-8 -8 -14 -8t-15 10q-53 80 -156 80z" />
    <glyph glyph-name="Tcommaaccent" unicode="&#x162;" horiz-adv-x="946" 
d="M559 -135q20 0 19 -21l-93 -313q-8 -20 -26 -20h-78q-14 0 -14 16v4l30 313q2 20 23 21h139zM53 1413q0 13 3 17t18 4h798q14 0 18 -3t3 -18v-147q0 -14 -3 -18t-18 -3h-278q-14 0 -17 -3t-4 -17v-1205q0 -14 -3 -17t-17 -3h-160q-14 0 -17 3t-3 17v1205q0 14 -3 17
t-18 3h-278q-14 0 -18 3q-3 3 -3 18v147z" />
    <glyph glyph-name="tcommaaccent" unicode="&#x163;" horiz-adv-x="540" 
d="M354 -135q20 0 19 -21l-92 -313q-8 -20 -27 -20h-78q-14 0 -14 16v4l31 313q2 20 22 21h139zM350 1292v-377q0 -14 3 -17t18 -3h125q14 0 17 -4t3 -17v-118q0 -12 -3 -16t-17 -5h-125q-13 0 -17 -3t-4 -17v-695q0 -12 -3 -16t-17 -4h-137q-14 0 -18 4q-3 4 -3 16v695
q0 14 -3 17t-17 3h-82q-14 0 -18 4q-3 4 -3 17v118q0 12 3 16t18 5h82q14 0 17 3t3 17v273q0 20 21 33l133 82l14 6q10 0 10 -17z" />
    <glyph glyph-name="Tcaron" unicode="&#x164;" horiz-adv-x="946" 
d="M555 1536h-156q-25 0 -39 20l-221 254q-6 8 -6 14t12 7h127q14 0 35 -21l154 -153q4 -4 12 -4t12 4l150 153q20 20 35 21h131q12 0 12 -6t-6 -15l-213 -254q-14 -20 -39 -20zM53 1413q0 13 3 17t18 4h798q14 0 18 -3t3 -18v-147q0 -14 -3 -18t-18 -3h-278q-14 0 -17 -3
t-4 -17v-1205q0 -14 -3 -17t-17 -3h-160q-14 0 -17 3t-3 17v1205q0 14 -3 17t-18 3h-278q-14 0 -18 3q-3 3 -3 18v147z" />
    <glyph glyph-name="tcaron" unicode="&#x165;" horiz-adv-x="540" 
d="M459 1536h139q20 0 18 -20l-92 -314q-8 -20 -26 -20h-78q-14 10 -14 20l30 314q2 20 23 20zM350 1292v-377q0 -14 3 -17t18 -3h125q14 0 17 -4t3 -17v-118q0 -12 -3 -16t-17 -5h-125q-13 0 -17 -3t-4 -17v-695q0 -12 -3 -16t-17 -4h-137q-14 0 -18 4q-3 4 -3 16v695
q0 14 -3 17t-17 3h-82q-14 0 -18 4q-3 4 -3 17v118q0 12 3 16t18 5h82q14 0 17 3t3 17v273q0 20 21 33l133 82l14 6q10 0 10 -17z" />
    <glyph glyph-name="Tbar" unicode="&#x166;" horiz-adv-x="946" 
d="M135 874q0 14 4 18t17 3h215v330q0 14 -3 17t-18 3h-276q-14 0 -18 3q-3 3 -3 18v147q0 13 3 17t18 4h798q14 0 18 -3t3 -18v-147q0 -14 -3 -18t-18 -3h-276q-14 0 -17 -3t-4 -17v-330h216q14 0 17 -3t3 -18v-114q0 -14 -3 -18t-17 -3h-216v-719q0 -14 -3 -17t-17 -3
h-164q-14 0 -17 3t-3 17v719h-215q-14 0 -18 3q-3 3 -3 18v114z" />
    <glyph glyph-name="tbar" unicode="&#x167;" horiz-adv-x="540" 
d="M350 1292v-377q0 -14 3 -17t18 -3h125q14 0 17 -4t3 -17v-118q0 -12 -3 -16t-17 -5h-125q-13 0 -17 -3t-4 -17v-187q0 -14 3 -17t18 -3h96q14 0 17 -3t3 -18v-98q0 -14 -3 -17t-17 -3h-96q-13 0 -17 -3t-4 -18v-328q0 -12 -3 -16t-17 -4h-137q-14 0 -18 4q-3 4 -3 16v328
q0 14 -3 18t-17 3h-74q-14 0 -18 3q-3 3 -3 17v98q0 13 4 17t17 4h74q14 0 17 3t3 17v187q0 14 -3 17t-17 3h-82q-14 0 -18 4q-3 4 -3 17v118q0 12 3 16t18 5h82q14 0 17 3t3 17v271q0 16 21 35l133 82l14 6q10 0 10 -17z" />
    <glyph glyph-name="Utilde" unicode="&#x168;" horiz-adv-x="1265" 
d="M326 1561q-14 0 -18 4q-3 4 -3 16v29q0 84 51 142q50 58 132 58t130 -30t79 -61q32 -29 63 -29t51 19t20 52v23q-1 12 3 16t18 4h90q14 0 17 -4t4 -16v-31q-1 -86 -49 -142q-48 -57 -120 -57q-130 -1 -182 60t-106 61q-29 0 -49 -19t-21 -54v-21q0 -12 -3 -16t-17 -4h-90
zM915 1413q-1 13 3 17t18 4h162q14 0 17 -3t3 -18v-964q0 -227 -133 -349t-351 -120q-218 0 -352 122t-135 347v964q-1 13 3 17t18 4h162q14 0 17 -3t3 -18v-926q0 -169 73 -241t213 -72t210 72t69 241v926z" />
    <glyph glyph-name="utilde" unicode="&#x169;" horiz-adv-x="966" 
d="M176 1061q-14 0 -17 4t-3 16v29q0 84 51 142t132 58t129 -30t80 -60t62 -30t52 19q20 19 20 53v22q0 12 3 16t17 5h91q14 -1 17 -5t3 -16v-31q0 -86 -48 -142q-49 -56 -121 -56q-134 0 -183 60q-50 60 -105 61q-29 0 -49 -20t-20 -54v-21q0 -12 -3 -16t-18 -4h-90z
M483 143q85 1 139 55t54 156v520q0 12 3 16t17 5h140q14 0 17 -4t3 -17v-532q0 -158 -97 -260t-275 -102t-276 102q-97 102 -97 260v532q0 12 3 16t17 5h139q14 0 18 -4t3 -17v-520q0 -102 53 -156t139 -55z" />
    <glyph glyph-name="Umacron" unicode="&#x16a;" horiz-adv-x="1265" 
d="M307 1729q0 14 4 17t17 3h610q14 0 17 -3t3 -17v-91q0 -14 -3 -17t-17 -3h-610q-14 0 -18 3q-3 3 -3 17v91zM915 1413q-1 13 3 17t18 4h162q14 0 17 -3t3 -18v-964q0 -227 -133 -349t-351 -120q-218 0 -352 122t-135 347v964q-1 13 3 17t18 4h162q14 0 17 -3t3 -18v-926
q0 -169 73 -241t213 -72t210 72t69 241v926z" />
    <glyph glyph-name="umacron" unicode="&#x16b;" horiz-adv-x="966" 
d="M156 1229q0 14 4 17t16 3h610q14 0 18 -3t3 -17v-90q0 -13 -3 -17t-18 -4h-610q-14 0 -17 3t-3 18v90zM483 143q85 1 139 55t54 156v520q0 12 3 16t17 5h140q14 0 17 -4t3 -17v-532q0 -158 -97 -260t-275 -102t-276 102q-97 102 -97 260v532q0 12 3 16t17 5h139
q14 0 18 -4t3 -17v-520q0 -102 53 -156t139 -55z" />
    <glyph glyph-name="Ubreve" unicode="&#x16c;" horiz-adv-x="1265" 
d="M633 1526q-135 0 -224 68t-87 216q0 12 3 16t17 5h107q20 0 20 -21q2 -82 47 -120t117 -37q72 0 117 38t47 119q0 20 20 21h107q14 0 17 -4t3 -17q2 -148 -87 -216t-224 -68zM915 1413q-1 13 3 17t18 4h162q14 0 17 -3t3 -18v-964q0 -227 -133 -349t-351 -120
q-218 0 -352 122t-135 347v964q-1 13 3 17t18 4h162q14 0 17 -3t3 -18v-926q0 -169 73 -241t213 -72t210 72t69 241v926z" />
    <glyph glyph-name="ubreve" unicode="&#x16d;" horiz-adv-x="966" 
d="M481 1026q-135 0 -224 69t-87 216q0 12 3 16t17 4h107q20 0 20 -20q1 -82 47 -120t118 -38t116 38q45 38 47 120q0 20 21 20h106q14 0 18 -4t3 -16q3 -147 -87 -216t-225 -69zM483 143q85 1 139 55t54 156v520q0 12 3 16t17 5h140q14 0 17 -4t3 -17v-532q0 -158 -97 -260
t-275 -102t-276 102q-97 102 -97 260v532q0 12 3 16t17 5h139q14 0 18 -4t3 -17v-520q0 -102 53 -156t139 -55z" />
    <glyph glyph-name="Uring" unicode="&#x16e;" horiz-adv-x="1265" 
d="M633 1516q-78 0 -132 51q-55 51 -55 133t54 136t132 54q79 0 133 -55t54 -132t-54 -132t-132 -55zM632 1618q36 0 60 24t25 61q0 37 -24 61q-25 24 -61 24t-60 -25t-24 -61t24 -61q24 -23 60 -23zM915 1413q-1 13 3 17t18 4h162q14 0 17 -3t3 -18v-964q0 -227 -133 -349
t-351 -120q-218 0 -352 122t-135 347v964q-1 13 3 17t18 4h162q14 0 17 -3t3 -18v-926q0 -169 73 -241t213 -72t210 72t69 241v926z" />
    <glyph glyph-name="uring" unicode="&#x16f;" horiz-adv-x="966" 
d="M483 1018q-78 0 -132 51t-54 133t53 136t132 54t133 -54q55 -56 55 -133t-54 -132t-133 -55zM399 1204q-1 -36 23 -60t60 -24t61 25t25 61t-24 60t-61 24t-61 -24t-23 -62zM483 143q85 1 139 55t54 156v520q0 12 3 16t17 5h140q14 0 17 -4t3 -17v-532q0 -158 -97 -260
t-275 -102t-276 102q-97 102 -97 260v532q0 12 3 16t17 5h139q14 0 18 -4t3 -17v-520q0 -102 53 -156t139 -55z" />
    <glyph glyph-name="Uhungarumlaut" unicode="&#x170;" horiz-adv-x="1265" 
d="M1124 1831q20 0 21 -4q0 -4 -12 -17l-240 -254q-20 -20 -37 -20h-135q-14 0 -14 4l2 2q0 2 3 6t5 8l196 254q18 20 33 21h178zM756 1831q20 0 20 -4t-12 -17l-240 -254q-20 -20 -37 -20h-135q-14 0 -14 4l2 2q0 2 3 6t5 8l197 254q18 20 33 21h178zM915 1413q-1 13 3 17
t18 4h162q14 0 17 -3t3 -18v-964q0 -227 -133 -349t-351 -120q-218 0 -352 122t-135 347v964q-1 13 3 17t18 4h162q14 0 17 -3t3 -18v-926q0 -169 73 -241t213 -72t210 72t69 241v926z" />
    <glyph glyph-name="uhungarumlaut" unicode="&#x171;" horiz-adv-x="966" 
d="M772 1331h178q20 0 21 -4q0 -4 -13 -16l-239 -254q-20 -20 -37 -21h-135q-14 0 -15 4v2q7 7 11 15l196 254q18 20 33 20zM403 1331h179q20 0 20 -4t-12 -16l-240 -254q-20 -20 -37 -21h-135q-14 0 -14 4v2q5 5 10 15l197 254q18 20 32 20zM483 143q85 1 139 55t54 156
v520q0 12 3 16t17 5h140q14 0 17 -4t3 -17v-532q0 -158 -97 -260t-275 -102t-276 102q-97 102 -97 260v532q0 12 3 16t17 5h139q14 0 18 -4t3 -17v-520q0 -102 53 -156t139 -55z" />
    <glyph glyph-name="Uogonek" unicode="&#x172;" horiz-adv-x="1265" 
d="M635 -20q-219 0 -353 122t-135 347v964q-1 13 3 17t18 4h162q14 0 17 -3t3 -18v-926q0 -169 73 -241t213 -72t210 72t69 241v926q-1 13 3 17t18 4h162q14 0 17 -3t3 -18v-964q0 -264 -176 -383l-43 -31q-135 -90 -145 -203q0 -59 37 -97t112 -38q13 0 17 -3t4 -16v-88
q0 -18 -20 -20t-48 -2q-110 0 -180 70t-70 168t66 176q-14 -2 -37 -2z" />
    <glyph glyph-name="uogonek" unicode="&#x173;" horiz-adv-x="966" 
d="M657 -432q-111 0 -180 70t-69 159q0 90 45 166q4 8 4 13t-17 6q-160 12 -244 111t-85 249v532q0 12 3 16t17 5h139q14 0 18 -4t3 -17v-520q0 -102 53 -156t139 -54q85 0 139 54t54 156v520q0 12 3 16t17 5h140q14 0 17 -4t3 -17v-532q0 -190 -131 -291q-10 -8 -59 -40
t-80 -73q-31 -42 -31 -104t37 -99q37 -38 113 -38q14 0 17 -3t3 -16v-88q0 -18 -19 -20t-49 -2z" />
    <glyph glyph-name="Wcircumflex" unicode="&#x174;" horiz-adv-x="1722" 
d="M934 1831q25 0 39 -21l221 -254q6 -10 6 -15t-12 -5h-127q-14 0 -35 20l-154 154q-4 4 -12 4t-12 -4l-150 -154q-20 -20 -34 -20h-132q-12 0 -12 6t6 14l213 254q18 20 39 21h156zM856 893q-8 0 -10 -6l-307 -910q-3 -8 -11 -8t-10 8l-477 1436q-4 12 -4 16t12 5h193
q16 0 24 -21l258 -852q4 -6 10 -6t11 6l293 883q8 20 24 20t25 -20l295 -883q2 -6 10 -6t10 6l262 852q8 20 25 21h184q13 0 13 -4t-5 -17l-487 -1436q-2 -8 -10 -8t-10 8l-308 910q-2 6 -10 6z" />
    <glyph glyph-name="wcircumflex" unicode="&#x175;" horiz-adv-x="1327" 
d="M580 1331h155q25 0 39 -20l221 -254q6 -9 6 -15t-12 -6h-127q-14 0 -35 21l-153 153q-4 4 -12 4t-13 -4l-149 -153q-20 -20 -35 -21h-131q-12 0 -12 6t6 15l213 254q18 20 39 20zM35 895h151q16 0 27 -21l203 -514q2 -6 12 -6t12 6l207 545q8 20 17 21q8 0 16 -21
l209 -545q4 -6 12 -6t12 6l201 514q10 20 27 21h151q18 0 19 -8q-2 -4 -4 -13l-385 -892q-8 -18 -19 -19q-10 0 -20 19l-205 518q-2 6 -12 6t-13 -6l-209 -518q-6 -18 -20 -19q-10 0 -18 19l-386 892l-4 13q0 8 19 8z" />
    <glyph glyph-name="Ycircumflex" unicode="&#x176;" horiz-adv-x="1122" 
d="M635 1831q25 0 39 -21l221 -254q6 -8 6 -14t-12 -6h-127q-14 0 -35 20l-154 154q-4 4 -12 4t-12 -4l-150 -154q-20 -20 -34 -20h-132q-12 0 -12 6t6 14l213 254q18 20 39 21h156zM240 1434q18 0 26 -21l285 -465q2 -6 10 -6t10 6l287 465q12 20 27 21h200q12 0 13 -9
l-4 -12l-432 -690v-703q0 -14 -4 -17t-17 -3h-160q-14 0 -17 3t-3 17v703l-432 690l-4 12q0 8 12 9h203z" />
    <glyph glyph-name="ycircumflex" unicode="&#x177;" horiz-adv-x="927" 
d="M393 1331h156q25 0 39 -20l221 -254q6 -9 6 -15t-12 -6h-127q-14 0 -35 21l-154 153q-4 4 -12 4t-12 -4l-150 -153q-20 -20 -34 -21h-132q-12 0 -12 6t6 15l213 254q18 20 39 20zM465 264q6 0 8 6l240 604q10 20 26 21h154q18 0 18 -8q-2 -4 -4 -13l-530 -1304
q-10 -20 -27 -21h-151q-18 0 -19 9q2 4 4 12l181 446q2 2 2 10t-2 11l-345 837l-4 13q0 8 19 8h158q16 0 26 -21l238 -604q2 -6 8 -6z" />
    <glyph glyph-name="Ydieresis" unicode="&#x178;" horiz-adv-x="1122" 
d="M350 1520q-49 0 -86 34t-37 87q0 51 37 89t86 38t86 -38q37 -36 37 -85t-37 -87t-86 -38zM771 1520q-48 0 -85 34t-37 87q0 51 36 89t86 38t87 -38t37 -85t-38 -86t-86 -39zM240 1434q18 0 26 -21l285 -465q2 -6 10 -6t10 6l287 465q12 20 27 21h200q12 0 13 -9l-4 -12
l-432 -690v-703q0 -14 -4 -17t-17 -3h-160q-14 0 -17 3t-3 17v703l-432 690l-4 12q0 8 12 9h203z" />
    <glyph glyph-name="Zacute" unicode="&#x179;" horiz-adv-x="995" 
d="M754 1831q10 0 17 -2t-9 -19l-248 -254q-20 -20 -37 -20h-145q-20 0 -4 20l196 254q14 20 33 21h197zM879 186q14 0 17 -3t3 -17v-146q0 -14 -3 -17t-17 -3h-822q-14 0 -14 10l4 13l578 1194q6 12 6 21t-15 9h-499q-14 0 -18 3q-3 3 -3 18v145q0 13 3 17t18 4h811
q14 0 14 -9l-577 -1208q-4 -12 -5 -18q0 -12 13 -13h506z" />
    <glyph glyph-name="zacute" unicode="&#x17a;" horiz-adv-x="770" 
d="M449 1331h196q18 0 18 -7q-1 -5 -10 -13l-247 -254q-20 -20 -37 -21h-146q-20 0 -4 21l197 254q14 20 33 20zM432 726q0 9 -12 9h-326q-14 0 -17 3t-3 18v118q0 14 3 18t17 3h613q14 0 14 -8l-4 -13l-387 -679q-6 -11 -6 -21t12 -10h334q14 0 17 -3t3 -18v-123
q0 -14 -3 -17t-17 -3h-623q-14 0 -14 10l4 13l389 682q6 12 6 21z" />
    <glyph glyph-name="Zdotaccent" unicode="&#x17b;" horiz-adv-x="995" 
d="M487 1554q-51 0 -89 37t-38 90t37 91t90 38t91 -37q36 -37 36 -89t-38 -91t-89 -39zM879 186q14 0 17 -3t3 -17v-146q0 -14 -3 -17t-17 -3h-822q-14 0 -14 10l4 13l578 1194q6 12 6 21t-15 9h-499q-14 0 -18 3q-3 3 -3 18v145q0 13 3 17t18 4h811q14 0 14 -9l-577 -1208
q-4 -12 -5 -18q0 -12 13 -13h506z" />
    <glyph glyph-name="zdotaccent" unicode="&#x17c;" horiz-adv-x="770" 
d="M377 1057q-51 0 -89 37t-38 90t37 91t90 38t90 -38t37 -89t-38 -90t-89 -39zM432 726q0 9 -12 9h-326q-14 0 -17 3t-3 18v118q0 14 3 18t17 3h613q14 0 14 -8l-4 -13l-387 -679q-6 -11 -6 -21t12 -10h334q14 0 17 -3t3 -18v-123q0 -14 -3 -17t-17 -3h-623q-14 0 -14 10
l4 13l389 682q6 12 6 21z" />
    <glyph glyph-name="Zcaron" unicode="&#x17d;" horiz-adv-x="995" 
d="M580 1536h-156q-25 0 -39 20l-221 254q-6 8 -6 14t12 7h127q14 0 35 -21l153 -153q5 -4 13 -4t12 4l149 153q20 20 35 21h131q12 0 13 -6q0 -6 -7 -15l-213 -254q-14 -20 -38 -20zM879 186q14 0 17 -3t3 -17v-146q0 -14 -3 -17t-17 -3h-822q-14 0 -14 10l4 13l578 1194
q6 12 6 21t-15 9h-499q-14 0 -18 3q-3 3 -3 18v145q0 13 3 17t18 4h811q14 0 14 -9l-577 -1208q-4 -12 -5 -18q0 -12 13 -13h506z" />
    <glyph glyph-name="zcaron" unicode="&#x17e;" horiz-adv-x="770" 
d="M311 1036q-25 0 -39 21l-221 254q-6 8 -6 14t12 6h127q14 0 35 -20l154 -154q4 -4 12 -4t12 4l150 154q20 20 35 20h131q12 0 12 -6t-6 -14l-213 -254q-14 -20 -39 -21h-156zM432 726q0 9 -12 9h-326q-14 0 -17 3t-3 18v118q0 14 3 18t17 3h613q14 0 14 -8l-4 -13
l-387 -679q-6 -11 -6 -21t12 -10h334q14 0 17 -3t3 -18v-123q0 -14 -3 -17t-17 -3h-623q-14 0 -14 10l4 13l389 682q6 12 6 21z" />
    <glyph glyph-name="longs" unicode="&#x17f;" horiz-adv-x="458" 
d="M416 1405q-104 0 -105 -139v-1246q0 -12 -3 -16t-17 -4h-139q-14 0 -18 4q-3 4 -3 16v1229q0 319 250 320q113 0 115 -35v-121q0 -18 -13 -18q-40 10 -67 10z" />
    <glyph glyph-name="uni0180" unicode="&#x180;" horiz-adv-x="1126" 
d="M596 143q125 1 203 89t78 216t-79 216t-203 88t-204 -88t-80 -216t80 -216t205 -89zM131 1516q0 12 3 16t18 4h139q14 0 17 -4t3 -16v-281q0 -10 21 -10h182q14 0 17 -4t4 -17v-98q1 -12 -3 -16t-18 -5h-182q-20 0 -21 -12v-280q0 -5 7 -5t10 3q124 125 300 125t304 -137
t129 -331q0 -194 -128 -331q-127 -137 -307 -137t-298 124q-2 2 -10 2t-7 -4v-82q0 -12 -3 -16t-17 -4h-139q-14 0 -18 4q-3 4 -3 16v1045q0 14 -3 17t-17 3h-82q-13 1 -17 5t-4 16v98q0 12 3 16t18 5h82q18 0 20 10v281z" />
    <glyph glyph-name="uni018F" unicode="&#x18f;" horiz-adv-x="1525" 
d="M748 176q192 0 320 121t149 295q1 27 -5 33t-32 6h-832q-29 0 -36 -6t-3 -33q20 -182 134 -299q113 -117 305 -117zM713 1262q-240 0 -437 -185q-16 -16 -27 -16t-11 39v160q0 20 26 40q217 158 449 158q358 0 538 -205q181 -205 181 -525t-188 -534t-493 -214
q-304 0 -479 211q-174 212 -174 526v59q0 20 5 24t30 3h1030q27 0 35 6t8 29q-22 208 -160 316t-333 108z" />
    <glyph glyph-name="florin" unicode="&#x192;" horiz-adv-x="733" 
d="M201 635h-123q-14 0 -18 4q-3 4 -3 16l-4 99q0 12 3 16t18 4h137q23 0 25 21l53 340q49 319 295 319q59 0 98 -10q18 -4 16 -25l-18 -121q-4 -24 -26 -16t-54 8q-100 0 -123 -139l-57 -356q-2 -13 0 -17t16 -4h189q14 0 17 -4t3 -16l4 -99q0 -12 -3 -16t-17 -4h-203
q-16 0 -18 -14q-2 -1 -2 -3v-4l-97 -602q-49 -319 -293 -319q-104 0 -112 21q-2 5 2 14l16 120q4 23 27 16t53 -7q98 0 121 139l98 618q2 12 -2 16t-18 5z" />
    <glyph glyph-name="uni0195" unicode="&#x195;" horiz-adv-x="1572" 
d="M1110 143q172 0 172 211v520q0 12 3 16t18 5h139q14 0 17 -4t3 -17v-532q0 -162 -88 -262t-265 -100t-274 102t-98 260v186q0 111 -40 167q-41 57 -143 57t-172 -71t-71 -192v-469q0 -12 -3 -16t-17 -4h-139q-14 0 -18 4q-3 4 -3 16v1496q0 12 3 16t18 4h139q14 0 17 -4
t3 -16v-723q0 -5 7 -5t10 3q68 65 125 95t143 29q322 0 322 -346v-215q0 -102 53 -156t139 -55z" />
    <glyph glyph-name="uni01A6" unicode="&#x1a6;" horiz-adv-x="1060" 
d="M367 1163h127q233 -1 359 -105t126 -317q0 -156 -91 -261t-255 -138q-8 -2 -8 -7t4 -9l444 -576q2 -4 5 -8t3 -6l2 -2q0 -4 -18 -4h-205q-14 0 -33 20l-456 598q-9 12 -17 12t-8 -18v-322q0 -14 -3 -17t-17 -3h-154q-25 0 -25 20v1393q-1 13 3 17t18 4h158q14 0 17 -3
t3 -18v-229q0 -14 3 -18q4 -3 18 -3zM512 496q258 0 258 245q0 119 -71 181t-195 61h-137q-13 0 -17 -3t-4 -17v-447q0 -14 3 -17t18 -3h145z" />
    <glyph glyph-name="uni01CD" unicode="&#x1cd;" horiz-adv-x="1150" 
d="M657 1536h-155q-25 0 -39 20l-221 254q-6 8 -6 14t12 7h127q14 0 35 -21l153 -153q4 -4 12 -4t13 4l149 153q20 20 35 21h131q12 0 12 -6t-6 -15l-213 -254q-14 -20 -39 -20zM573 1464q8 0 11 -8l532 -1436q2 -2 2 -11t-16 -9h-178q-20 0 -27 20l-82 216q-6 20 -27 20
h-438q-20 0 -26 -20l-76 -216q-6 -20 -27 -20h-172q-16 0 -16 9t2 11l528 1436q2 8 10 8zM570 913q-8 0 -13 -6l-160 -458q6 -8 13 -9h321q14 0 14 6q-4 10 -4 15l-159 446q-4 6 -12 6z" />
    <glyph glyph-name="uni01CE" unicode="&#x1ce;" horiz-adv-x="950" 
d="M401 1036q-25 0 -39 21l-221 254q-6 8 -6 14t12 6h127q14 0 35 -20l154 -154q4 -4 12 -4t12 4l150 154q20 20 35 20h131q12 0 12 -6t-6 -14l-213 -254q-14 -20 -39 -21h-156zM61 286q-1 144 99 228t244 84t235 -72q2 -2 9 -2t7 15v47q0 178 -213 178q-131 0 -213 -66
q-6 -6 -14 -6t-8 17v125q0 14 16 24q84 57 236 57q373 0 372 -327v-568q0 -12 -3 -16t-17 -4h-129q-14 0 -17 4t-3 16v70q0 4 -8 4t-9 -2q-90 -112 -236 -112t-247 81t-101 225zM651 306q0 66 -61 108q-60 42 -150 41q-90 0 -146 -45t-56 -118t54 -119t143 -46t153 57
q63 56 63 122z" />
    <glyph glyph-name="uni01DE" unicode="&#x1de;" horiz-adv-x="1150" 
d="M250 2028q0 14 4 17t16 3h611q14 0 17 -3t3 -17v-91q0 -14 -3 -17t-17 -3h-611q-14 0 -17 3t-3 17v91zM365 1559q-49 1 -86 35t-37 86t37 89t86 37t86 -37t37 -86t-37 -87q-37 -37 -86 -37zM909 1683q0 -47 -38 -85t-86 -39q-48 1 -85 35q-36 34 -36 86t35 89
q36 37 86 37t87 -38t37 -85zM573 1464q8 0 11 -8l532 -1436q2 -2 2 -11t-16 -9h-178q-20 0 -27 20l-82 216q-6 20 -27 20h-438q-20 0 -26 -20l-76 -216q-6 -20 -27 -20h-172q-16 0 -16 9t2 11l528 1436q2 8 10 8zM570 913q-8 0 -13 -6l-160 -458q6 -8 13 -9h321q14 0 14 6
q-4 10 -4 15l-159 446q-4 6 -12 6z" />
    <glyph glyph-name="uni01DF" unicode="&#x1df;" horiz-adv-x="950" 
d="M156 1516q0 14 4 17t16 3h610q14 0 18 -3t3 -17v-91q0 -14 -3 -17t-18 -3h-610q-14 0 -17 3t-3 17v91zM268 1036q-49 0 -86 35t-37 87t37 89t86 37t86 -37t37 -86t-37 -87t-86 -38zM689 1036q-48 0 -85 35t-37 87t36 89t86 37t87 -38t37 -85t-38 -86t-86 -39zM61 286
q-1 144 99 228t244 84t235 -72q2 -2 9 -2t7 15v47q0 178 -213 178q-131 0 -213 -66q-6 -6 -14 -6t-8 17v125q0 14 16 24q84 57 236 57q373 0 372 -327v-568q0 -12 -3 -16t-17 -4h-129q-14 0 -17 4t-3 16v70q0 4 -8 4t-9 -2q-90 -112 -236 -112t-247 81t-101 225zM651 306
q0 66 -61 108q-60 42 -150 41q-90 0 -146 -45t-56 -118t54 -119t143 -46t153 57q63 56 63 122z" />
    <glyph glyph-name="uni01E0" unicode="&#x1e0;" horiz-adv-x="1150" 
d="M250 2028q0 14 4 17t16 3h611q14 0 17 -3t3 -17v-91q0 -14 -3 -17t-17 -3h-611q-14 0 -17 3t-3 17v91zM575 1554q-51 0 -89 37t-37 90q0 53 36 92q37 37 90 37t91 -37q36 -37 36 -89t-38 -91t-89 -39zM573 1464q8 0 11 -8l532 -1436q2 -2 2 -11t-16 -9h-178q-20 0 -27 20
l-82 216q-6 20 -27 20h-438q-20 0 -26 -20l-76 -216q-6 -20 -27 -20h-172q-16 0 -16 9t2 11l528 1436q2 8 10 8zM570 913q-8 0 -13 -6l-160 -458q6 -8 13 -9h321q14 0 14 6q-4 10 -4 15l-159 446q-4 6 -12 6z" />
    <glyph glyph-name="uni01E1" unicode="&#x1e1;" horiz-adv-x="950" 
d="M492 1036q-51 0 -90 37q-38 37 -37 90q0 53 36 91q37 38 91 38t90 -38t36 -89t-38 -90t-88 -39zM164 1516q0 14 4 17t16 3h611q14 0 17 -3t3 -17v-91q0 -14 -3 -17t-17 -3h-611q-14 0 -17 3t-3 17v91zM61 286q-1 144 99 228t244 84t235 -72q2 -2 9 -2t7 15v47
q0 178 -213 178q-131 0 -213 -66q-6 -6 -14 -6t-8 17v125q0 14 16 24q84 57 236 57q373 0 372 -327v-568q0 -12 -3 -16t-17 -4h-129q-14 0 -17 4t-3 16v70q0 4 -8 4t-9 -2q-90 -112 -236 -112t-247 81t-101 225zM651 306q0 66 -61 108q-60 42 -150 41q-90 0 -146 -45
t-56 -118t54 -119t143 -46t153 57q63 56 63 122z" />
    <glyph glyph-name="uni01E2" unicode="&#x1e2;" horiz-adv-x="1564" 
d="M725 1726q0 14 4 18t16 3h611q14 0 17 -3t3 -18v-90q0 -14 -3 -17t-17 -3h-611q-14 0 -17 3t-3 17v90zM702 440q14 0 18 3q3 3 3 18v690q0 8 -11 8t-14 -6l-297 -692l-4 -12q0 -8 19 -9h286zM743 0q-14 0 -17 3t-3 17v216q0 14 -3 17t-18 3h-368q-20 0 -27 -20l-94 -216
q-6 -20 -27 -20h-168q-16 0 -16 9t2 11l621 1393q8 20 28 21h789q14 0 17 -3t3 -18v-147q0 -14 -3 -18t-17 -3h-502q-14 0 -17 -3t-3 -17v-506q0 -13 3 -17t17 -4h492q14 0 17 -3t3 -17v-146q0 -14 -3 -17t-17 -3h-492q-14 0 -17 -3t-3 -17v-283q0 -13 3 -17t17 -4h512
q14 0 17 -3t4 -17v-148q1 -14 -3 -17t-18 -3h-709z" />
    <glyph glyph-name="uni01E3" unicode="&#x1e3;" horiz-adv-x="1544" 
d="M461 1229q0 14 4 17t16 3h611q14 0 17 -3t3 -17v-90q0 -13 -3 -17t-17 -4h-611q-14 0 -17 3t-3 18v90zM377 -20q-150 0 -233 87t-83 219q-1 132 91 224t240 92t235 -70q2 -2 9 -2t7 17v39q0 178 -215 178q-121 0 -211 -66l-12 -4q-10 0 -10 15v125q0 14 16 24
q85 57 225 57t212 -52t97 -115q9 -9 17 0q124 168 316 168t292 -132q100 -131 100 -335v-60q0 -12 -3 -16t-17 -4h-598q-14 0 -18 -3t-5 -16q10 -98 83 -152q72 -54 168 -54t172 23q76 24 110 62q20 20 20 -12v-141q0 -16 -16 -29q-88 -68 -260 -67q-240 0 -371 165
q0 5 -7 5t-9 -3q-131 -167 -342 -167zM434 131q100 0 153 58q52 58 52 125t-58 108q-57 41 -143 41t-139 -44t-53 -124q0 -164 188 -164zM1061 756q-96 0 -163 -62t-79 -157q0 -13 3 -17t18 -4h428q20 0 20 12v9q-24 219 -227 219z" />
    <glyph glyph-name="Gcaron" unicode="&#x1e6;" horiz-adv-x="1353" 
d="M823 1536h-155q-25 0 -39 20l-221 254q-6 8 -7 15q0 6 13 6h127q14 0 34 -21l154 -153q4 -4 12 -4t13 4l149 153q20 20 35 21h131q12 0 12 -6t-6 -15l-213 -254q-14 -20 -39 -20zM831 1255q-247 -1 -381 -155t-134 -384t136 -388q138 -158 388 -158q135 0 202 33
q10 4 11 14v346q0 13 -3 17t-18 4h-268q-14 0 -18 3q-3 3 -3 17v141q0 13 3 17t18 4h465q14 0 17 -3t3 -18v-641q0 -14 -12 -22q-125 -102 -397 -102q-338 0 -542 213t-204 524t202 524t535 213q188 0 334 -82q16 -10 17 -20v-219q0 -14 -8 -15q-6 0 -11 4
q-133 133 -332 133z" />
    <glyph glyph-name="gcaron" unicode="&#x1e7;" horiz-adv-x="1122" 
d="M485 1036q-25 0 -39 21l-221 254q-6 8 -6 14t12 6h127q14 0 35 -20l154 -154q4 -4 12 -4t12 4l150 154q20 20 35 20h131q12 0 12 -6t-6 -14l-213 -254q-14 -20 -39 -21h-156zM227 -213q-1 20 5 20t16 -6q126 -84 280 -84t221 73t66 239v73q0 4 -7 4t-9 -2
q-119 -124 -298 -124t-307 137t-128 332t128 331t307 135q179 0 298 -124q2 -3 9 -3t7 5v81q0 12 3 16t18 5h139q14 0 17 -4t3 -17v-837q1 -236 -115 -360t-343 -123q-180 0 -291 57q-18 8 -19 24v152zM531 752q-125 0 -203 -88t-78 -216t78 -216t202 -89q124 0 205 88
q80 89 80 217t-80 216t-204 88z" />
    <glyph glyph-name="uni01E8" unicode="&#x1e8;" horiz-adv-x="1150" 
d="M637 1536h-156q-25 0 -39 20l-221 254q-6 8 -6 14t12 7h127q14 0 35 -21l154 -153q4 -4 12 -4t12 4l150 153q20 20 35 21h131q12 0 12 -6t-6 -15l-213 -254q-14 -20 -39 -20zM350 20q0 -14 -3 -17t-17 -3h-160q-14 0 -17 3t-3 17v1393q0 13 3 17t17 4h160q14 0 17 -3
t3 -18v-571q0 -14 12 -15q12 0 19 11l450 575q18 20 33 21h213q27 0 8 -21l-499 -633q-4 -4 -4 -10t4 -10l522 -740q2 -4 6 -9t4 -8t-18 -3h-213q-14 0 -33 20l-471 680q-6 8 -19 8t-14 -14v-674z" />
    <glyph glyph-name="uni01E9" unicode="&#x1e9;" horiz-adv-x="899" 
d="M537 1536h-156q-25 0 -39 20l-221 254q-6 8 -6 14t12 7h127q14 0 35 -21l153 -153q4 -4 12 -4t13 4l149 153q20 20 35 21h131q12 0 13 -6q0 -6 -7 -15l-213 -254q-14 -20 -38 -20zM311 563q1 -14 13 -14t18 10l262 315q18 20 33 21h184q16 0 17 -6q0 -4 -9 -15l-315 -372
q-4 -4 -4 -10t4 -11l342 -461q2 -4 6 -9t4 -8t-18 -3h-184q-14 0 -33 20l-287 402q-6 8 -19 8t-14 -14v-396q0 -12 -3 -16t-17 -4h-139q-14 0 -18 4q-3 4 -3 16v1393q0 13 3 17t18 4h139q14 0 17 -4t3 -17v-850z" />
    <glyph glyph-name="uni01EA" unicode="&#x1ea;" horiz-adv-x="1622" 
d="M760 -182q0 -42 31 -72q31 -29 75 -29t82 17l13 4q8 0 8 -14v-95q0 -16 -15 -22q-47 -18 -102 -19q-102 0 -171 62t-69 166t70 161q6 7 6 11t-8 6q-252 47 -419 251q-167 203 -167 489t209 503t508 217t508 -217t209 -520q0 -256 -153 -456t-390 -259q-16 -4 -16 -18v-72
q0 -14 -8 -14q-65 20 -103 20t-68 -29t-30 -71zM315 717q-1 -221 141 -380t355 -159t354 159t142 380t-141 380t-355 159t-355 -160q-142 -158 -141 -379z" />
    <glyph glyph-name="oogonek" unicode="&#x1eb;" horiz-adv-x="1062" 
d="M532 752q-126 0 -204 -88t-78 -216t79 -216t205 -89q126 0 202 87q77 88 77 218t-78 217t-203 87zM66 449q0 193 137 329t329 137q192 0 329 -137q136 -137 136 -329q0 -150 -86 -271t-221 -170q-16 -4 -16 -18v-74q0 -16 -8 -16t-30 9t-66 9t-74 -29t-31 -71
q0 -42 31 -72q30 -29 74 -29q44 -1 66 9t30 10t8 -17v-90q0 -14 -15 -22q-45 -18 -102 -19q-102 0 -171 62t-69 168q0 104 86 166q6 4 7 8q-1 6 -9 8q-147 49 -241 171t-94 278z" />
    <glyph glyph-name="uni01F6" unicode="&#x1f6;" horiz-adv-x="1718" 
d="M1225 164q84 0 133 57t49 162v491q0 12 3 16t17 5h160q13 0 17 -4t4 -17v-524q0 -158 -102 -264t-281 -106q-178 0 -281 106q-102 106 -102 264v150q-2 12 -21 12h-450q-13 0 -17 -3t-4 -17v-472q0 -14 -3 -17t-17 -3h-160q-14 0 -17 3t-3 17v1393q0 13 3 17t17 4h160
q14 0 17 -3t3 -18v-694q0 -13 3 -17t18 -4h450q14 0 18 3q3 3 3 18v694q0 13 3 17t17 4h160q14 0 17 -3t3 -18v-1030q0 -103 50 -161t133 -58z" />
    <glyph glyph-name="Oslashacute" unicode="&#x1fe;" horiz-adv-x="1622" 
d="M1122 1136q0 4 -6 9q-127 111 -305 110q-213 -1 -354 -159t-142 -379q0 -156 78 -295q4 -6 8 -6t11 6l704 704q6 6 6 10zM1221 1018q-4 0 -11 -6l-704 -705q-6 -6 -6 -9t6 -9q127 -111 305 -111q213 0 354 159t142 380q0 162 -78 295q-4 6 -8 6zM94 717q0 303 209 520
t508 217q258 0 461 -172l139 139q6 6 12 6t13 -6l80 -80q6 -6 6 -12t-6 -12l-144 -143q156 -199 156 -457q0 -303 -209 -520t-491 -217t-478 172l-139 -140q-6 -6 -12 -6t-13 6l-80 80q-6 6 -6 12t6 13l142 141q-154 207 -154 459zM1126 1831q10 0 17 -2t-8 -19l-248 -254
q-20 -20 -37 -20h-145q-20 0 -5 20l197 254q16 20 33 21h196z" />
    <glyph glyph-name="oslashacute" unicode="&#x1ff;" horiz-adv-x="1062" 
d="M659 1331h197q10 0 17 -2t-9 -18l-248 -254q-20 -20 -36 -21h-146q-20 0 -4 21l197 254q16 20 32 20zM250 466q0 -110 41 -183l411 411q-70 58 -184 58t-190 -88q-78 -88 -78 -198zM813 449q0 90 -43 165l-414 -413q72 -57 188 -57t192 86q77 88 77 219zM66 464
q0 178 137 314t329 137q158 0 287 -102l82 82q6 6 11 6t14 -6l51 -51q6 -6 6 -12t-6 -13l-82 -82q102 -129 102 -305t-136 -314q-137 -138 -315 -138t-304 104l-84 -84q-6 -6 -10 -6t-15 6l-51 51q-6 6 -6 12t6 13l84 84q-100 126 -100 304z" />
    <glyph glyph-name="Scommaaccent" unicode="&#x218;" horiz-adv-x="1030" 
d="M614 -135q20 0 19 -21l-92 -313q-8 -20 -27 -20h-78q-14 0 -14 16v4l31 313q2 20 22 21h139zM516 -20q-129 0 -248 66t-180 173q-6 10 -6 15t10 16l113 112q10 10 15 10t13 -12q63 -104 133 -146t164 -42t153 57q58 57 58 141q0 146 -214 264q-89 50 -179 104t-152 144
t-63 203q0 157 110 263t283 106q238 0 365 -178q6 -10 6 -15t-10 -16l-101 -100q-10 -10 -15 -10t-13 12q-74 119 -228 119q-88 0 -136 -50t-48 -122q0 -124 158 -209q181 -98 295 -184q69 -50 113 -133t44 -187q0 -180 -117 -291q-118 -110 -323 -110z" />
    <glyph glyph-name="scommaaccent" unicode="&#x219;" horiz-adv-x="770" 
d="M401 -135q20 0 19 -21l-92 -313q-8 -20 -27 -20h-78q-14 0 -14 16v4l31 313q2 20 22 21h139zM393 764q-55 0 -88 -29t-33 -75q0 -80 151 -136q63 -22 125 -52t106 -87t44 -152t-78 -175q-79 -79 -235 -78q-203 0 -315 151q-4 8 -4 15t8 16l84 84q8 8 14 8t14 -10
q80 -111 203 -111q63 0 98 29t35 75q0 47 -43 77t-105 54t-124 54q-150 70 -150 242q0 98 78 175t209 76q186 0 275 -122q4 -7 4 -15t-9 -16l-79 -80q-8 -8 -14 -8t-15 10q-53 80 -156 80z" />
    <glyph glyph-name="uni021A" unicode="&#x21a;" horiz-adv-x="946" 
d="M563 -135q20 0 19 -21l-93 -313q-8 -20 -26 -20h-78q-14 0 -14 16v4l30 313q2 20 23 21h139zM53 1413q0 13 3 17t18 4h798q14 0 18 -3t3 -18v-147q0 -14 -3 -18t-18 -3h-278q-14 0 -17 -3t-4 -17v-1205q0 -14 -3 -17t-17 -3h-160q-14 0 -17 3t-3 17v1205q0 14 -3 17
t-18 3h-278q-14 0 -18 3q-3 3 -3 18v147z" />
    <glyph glyph-name="uni021B" unicode="&#x21b;" horiz-adv-x="540" 
d="M354 -135q20 0 19 -21l-92 -313q-8 -20 -27 -20h-78q-14 0 -14 16v4l31 313q2 20 22 21h139zM350 1292v-377q0 -14 3 -17t18 -3h125q14 0 17 -4t3 -17v-118q0 -12 -3 -16t-17 -5h-125q-13 0 -17 -3t-4 -17v-695q0 -12 -3 -16t-17 -4h-137q-14 0 -18 4q-3 4 -3 16v695
q0 14 -3 17t-17 3h-82q-14 0 -18 4q-3 4 -3 17v118q0 12 3 16t18 5h82q14 0 17 3t3 17v273q0 20 21 33l133 82l14 6q10 0 10 -17z" />
    <glyph glyph-name="uni022A" unicode="&#x22a;" horiz-adv-x="1622" 
d="M485 2028q0 14 4 17t17 3h610q14 0 18 -3t3 -17v-91q0 -14 -3 -17t-18 -3h-610q-14 0 -18 3q-3 3 -3 17v91zM600 1559q-49 1 -86 35t-37 86t37 89t86 37t86 -37t37 -86t-37 -87t-86 -37zM1145 1683q0 -47 -38 -85t-86 -39q-48 1 -85 35t-37 86t36 89t86 37t87 -38t37 -85
zM315 717q-1 -221 141 -380t355 -159t354 159t142 380t-141 380t-355 159t-355 -160q-142 -158 -141 -379zM1528 717q0 -303 -209 -520t-508 -217t-508 217t-209 520t209 520t508 217t508 -217t209 -520z" />
    <glyph glyph-name="uni022B" unicode="&#x22b;" horiz-adv-x="1062" 
d="M207 1516q0 14 4 17t16 3h611q14 0 17 -3t3 -17v-91q0 -14 -3 -17t-17 -3h-611q-14 0 -17 3t-3 17v91zM322 1036q-49 0 -86 35t-37 87t37 89t86 37t86 -37q36 -37 36 -86t-36 -87t-86 -38zM742 1036q-48 0 -85 35t-37 87t36 89t86 37t87 -38t37 -85t-38 -86t-86 -39z
M532 752q-126 0 -204 -88t-78 -216t79 -216t205 -89q126 0 202 87q77 88 77 218t-78 217t-203 87zM66 449q0 193 137 329t329 137q192 0 329 -137q136 -138 136 -330t-136 -330t-329 -138q-194 0 -330 138t-136 331z" />
    <glyph glyph-name="uni022C" unicode="&#x22c;" horiz-adv-x="1622" 
d="M485 2028q0 14 4 17t17 3h610q14 0 18 -3t3 -17v-91q0 -14 -3 -17t-18 -3h-610q-14 0 -18 3q-3 3 -3 17v91zM504 1561q-14 0 -18 4q-3 4 -3 16v29q-1 84 51 142t133 58t129 -30t80 -61q32 -29 62 -29t51 19q20 19 21 52v23q0 12 3 16t17 4h90q14 0 18 -4t3 -16v-31
q0 -86 -48 -142q-48 -57 -121 -57q-130 -1 -182 60t-106 61q-29 0 -49 -19t-21 -54v-21q0 -12 -3 -16t-17 -4h-90zM315 717q-1 -221 141 -380t355 -159t354 159t142 380t-141 380t-355 159t-355 -160q-142 -158 -141 -379zM1528 717q0 -303 -209 -520t-508 -217t-508 217
t-209 520t209 520t508 217t508 -217t209 -520z" />
    <glyph glyph-name="uni022D" unicode="&#x22d;" horiz-adv-x="1062" 
d="M207 1516q0 14 4 17t16 3h611q14 0 17 -3t3 -17v-91q0 -14 -3 -17t-17 -3h-611q-14 0 -17 3t-3 17v91zM225 1036q-14 0 -17 4t-3 17v28q0 85 51 143t132 58t129 -31t80 -61t63 -29q31 -1 51 19t20 53v23q0 12 3 16t18 4h90q14 0 17 -4t3 -16v-31q0 -87 -48 -143t-120 -56
q-133 0 -184 60q-50 60 -104 61q-30 0 -50 -19t-20 -55v-20q0 -13 -3 -17t-18 -4h-90zM532 752q-126 0 -204 -88t-78 -216t79 -216t205 -89q126 0 202 87q77 88 77 218t-78 217t-203 87zM66 449q0 193 137 329t329 137q192 0 329 -137q136 -138 136 -330t-136 -330
t-329 -138q-194 0 -330 138t-136 331z" />
    <glyph glyph-name="uni022E" unicode="&#x22e;" horiz-adv-x="1622" 
d="M811 1554q-51 0 -89 37t-38 90t37 91t90 38t90 -38t37 -88q0 -52 -38 -91t-89 -39zM315 717q-1 -221 141 -380t355 -159t354 159t142 380t-141 380t-355 159t-355 -160q-142 -158 -141 -379zM1528 717q0 -303 -209 -520t-508 -217t-508 217t-209 520t209 520t508 217
t508 -217t209 -520z" />
    <glyph glyph-name="uni022F" unicode="&#x22f;" horiz-adv-x="1062" 
d="M532 1057q-51 0 -89 37t-37 90q0 53 36 91q37 38 90 38q52 0 90 -38t38 -89t-39 -90q-38 -39 -89 -39zM532 752q-126 0 -204 -88t-78 -216t79 -216t205 -89q126 0 202 87q77 88 77 218t-78 217t-203 87zM66 449q0 193 137 329t329 137q192 0 329 -137q136 -138 136 -330
t-136 -330t-329 -138q-194 0 -330 138t-136 331z" />
    <glyph glyph-name="uni0230" unicode="&#x230;" horiz-adv-x="1622" 
d="M485 1942q0 14 4 17t17 3h610q14 0 18 -3t3 -17v-91q0 -14 -3 -17t-18 -3h-610q-14 0 -18 3q-3 3 -3 17v91zM811 1516q-51 0 -89 36t-38 90t37 92t90 38t90 -38t37 -89t-38 -90t-89 -39zM315 717q-1 -221 141 -380t355 -159t354 159t142 380t-141 380t-355 159t-355 -160
q-142 -158 -141 -379zM1528 717q0 -303 -209 -520t-508 -217t-508 217t-209 520t209 520t508 217t508 -217t209 -520z" />
    <glyph glyph-name="uni0231" unicode="&#x231;" horiz-adv-x="1062" 
d="M532 1036q-51 0 -89 37t-37 90q0 53 36 91q37 38 90 38q52 0 90 -38t38 -89t-39 -90q-38 -39 -89 -39zM207 1516q0 14 4 17t16 3h611q14 0 17 -3t3 -17v-91q0 -14 -3 -17t-17 -3h-611q-14 0 -17 3t-3 17v91zM532 752q-126 0 -204 -88t-78 -216t79 -216t205 -89
q126 0 202 87q77 88 77 218t-78 217t-203 87zM66 449q0 193 137 329t329 137q192 0 329 -137q136 -138 136 -330t-136 -330t-329 -138q-194 0 -330 138t-136 331z" />
    <glyph glyph-name="uni0232" unicode="&#x232;" horiz-adv-x="1122" 
d="M236 1729q0 14 4 17t16 3h610q14 0 18 -3t3 -17v-91q0 -14 -3 -17t-18 -3h-610q-14 0 -17 3t-3 17v91zM240 1434q18 0 26 -21l285 -465q2 -6 10 -6t10 6l287 465q12 20 27 21h200q12 0 13 -9l-4 -12l-432 -690v-703q0 -14 -4 -17t-17 -3h-160q-14 0 -17 3t-3 17v703
l-432 690l-4 12q0 8 12 9h203z" />
    <glyph glyph-name="uni0233" unicode="&#x233;" horiz-adv-x="927" 
d="M137 1229q0 14 4 17t17 3h610q14 0 17 -3t3 -17v-90q0 -13 -3 -17t-17 -4h-610q-14 0 -18 3q-3 3 -3 18v90zM465 264q6 0 8 6l240 604q10 20 26 21h154q18 0 18 -8q-2 -4 -4 -13l-530 -1304q-10 -20 -27 -21h-151q-18 0 -19 9q2 4 4 12l181 446q2 2 2 10t-2 11l-345 837
l-4 13q0 8 19 8h158q16 0 26 -21l238 -604q2 -6 8 -6z" />
    <glyph glyph-name="uni0243" unicode="&#x243;" horiz-adv-x="1079" 
d="M346 856q0 -14 3 -17t18 -3h135q96 0 155 55t59 155t-58 153q-58 54 -156 54h-135q-13 0 -17 -3t-4 -17v-377zM561 180q104 0 163 67q58 67 58 174t-62 171t-169 63h-184q-13 0 -17 -3t-4 -17v-125q0 -10 21 -10h198q13 0 17 -3t4 -18v-119q0 -14 -3 -17t-18 -3h-198
q-20 0 -21 -12v-127q0 -13 3 -17t18 -4h194zM150 520v893q0 13 3 17t17 4h332q200 0 310 -100t110 -279q0 -178 -152 -267q-8 -6 -8 -13t8 -9q96 -39 163 -126t66 -228q0 -188 -128 -300t-339 -112h-362q-14 0 -17 3t-3 17v308q-2 12 -21 12h-86q-14 0 -17 3t-3 17v119
q0 13 4 17t16 4h86q13 0 17 3t4 17z" />
    <glyph glyph-name="uni0259" unicode="&#x259;" horiz-adv-x="991" 
d="M489 141q101 1 167 63t79 156q0 14 -3 18t-17 3h-439q-16 0 -19 -3t-1 -18q12 -98 72 -158t161 -61zM162 678v149q0 8 16 21q88 68 264 67q228 0 352 -131t124 -333q0 -203 -119 -337t-311 -134t-304 134q-111 134 -110 332v58q0 12 3 16t17 4h608q14 0 19 3q4 4 4 16
q-10 98 -85 153t-198 56q-68 0 -148 -25t-112 -61q-20 -20 -20 12z" />
    <glyph glyph-name="uni0280" unicode="&#x280;" horiz-adv-x="882" 
d="M311 20q0 -14 -3 -17t-17 -3h-135q-25 0 -25 20v875q0 14 3 17t18 3h280q401 0 402 -290q0 -103 -76 -179t-195 -92q-8 0 -8 -6t4 -10l281 -318q18 -20 -9 -20h-188q-14 0 -33 20l-274 320q-10 12 -18 12t-7 -18v-314zM455 473q193 0 192 152q0 81 -51 111t-160 30h-104
q-14 0 -18 -3t-3 -18v-251q0 -14 3 -18t18 -3h123z" />
    <glyph glyph-name="circumflex" unicode="&#x2c6;" 
d="M430 1331h156q25 0 39 -20l221 -254q6 -9 6 -15t-12 -6h-127q-14 0 -35 21l-154 153q-4 4 -12 4t-12 -4l-150 -153q-20 -20 -35 -21h-131q-12 0 -12 6t6 15l213 254q18 20 39 20z" />
    <glyph glyph-name="caron" unicode="&#x2c7;" 
d="M438 1036q-25 0 -39 21l-221 254q-6 8 -6 14t12 6h127q14 0 35 -20l154 -154q4 -4 12 -4t12 4l150 154q20 20 35 20h131q12 0 12 -6t-6 -14l-213 -254q-14 -20 -39 -21h-156z" />
    <glyph glyph-name="breve" unicode="&#x2d8;" 
d="M512 1026q-135 0 -224 69t-87 216q0 12 3 16t17 4h107q20 0 20 -20q2 -82 47 -120t117 -38t117 38t47 120q0 20 20 20h107q14 0 17 -4t3 -16q2 -147 -87 -216t-224 -69z" />
    <glyph glyph-name="dotaccent" unicode="&#x2d9;" 
d="M512 1057q-51 0 -89 37t-38 90t37 91t90 38t90 -38t37 -89t-38 -90t-89 -39z" />
    <glyph glyph-name="ring" unicode="&#x2da;" 
d="M512 1018q-78 0 -132 51t-54 133t53 136t132 54t133 -54q54 -56 54 -133t-54 -132t-132 -55zM428 1204q0 -36 24 -60t59 -24q37 0 61 25t24 61t-24 60t-60 24t-60 -24t-24 -62z" />
    <glyph glyph-name="ogonek" unicode="&#x2db;" 
d="M520 -412q-102 0 -166 60t-63 140q0 80 52 148t122 105l119 -21q-68 -26 -107 -78t-39 -110q0 -115 129 -115q13 0 17 -3t4 -15v-88q0 -19 -20 -21t-48 -2z" />
    <glyph glyph-name="tilde" unicode="&#x2dc;" 
d="M203 1061q-14 0 -18 4q-3 4 -3 16v29q0 84 51 142t133 58t129 -30t79 -60t63 -30t51 19t21 53v22q0 12 3 16t17 5h90q13 -1 17 -5t4 -16v-31q0 -86 -48 -142t-121 -56q-132 0 -182 60q-51 60 -93 60q-81 2 -83 -73v-21q0 -12 -3 -16t-17 -4h-90z" />
    <glyph glyph-name="hungarumlaut" unicode="&#x2dd;" 
d="M778 1331h178q20 0 21 -4q0 -4 -12 -16l-240 -254q-20 -20 -37 -21h-135q-14 0 -14 4l2 2q0 2 3 6t5 9l196 254q18 20 33 20zM410 1331h178q20 0 20 -4t-12 -16l-240 -254q-20 -20 -37 -21h-135q-14 0 -14 4l2 2q0 2 3 6t5 9l197 254q18 20 33 20z" />
    <glyph glyph-name="gravecomb" unicode="&#x300;" horiz-adv-x="2" 
d="M-543 1036q-16 0 -37 21l-247 254q-17 17 -10 18q7 2 18 2h196q17 0 33 -20l197 -254q16 -20 -4 -21h-146z" />
    <glyph glyph-name="acutecomb" unicode="&#x301;" horiz-adv-x="2" 
d="M-401 1331h196q10 0 18 -2t-10 -18l-247 -254q-20 -20 -37 -21h-146q-20 0 -4 21l197 254q16 20 33 20z" />
    <glyph glyph-name="uni0302" unicode="&#x302;" horiz-adv-x="2" 
d="M-594 1331h156q25 0 39 -20l221 -254q6 -9 6 -15t-12 -6h-127q-14 0 -35 21l-154 153q-4 4 -12 4t-12 -4l-150 -153q-20 -20 -35 -21h-131q-12 0 -12 6t6 15l213 254q18 20 39 20z" />
    <glyph glyph-name="tildecomb" unicode="&#x303;" horiz-adv-x="2" 
d="M-821 1061q-14 0 -18 4q-3 4 -3 16v29q0 84 51 142t133 58t129 -30t79 -60t63 -30t51 19t21 53v22q0 12 3 16t17 5h90q13 -1 17 -5t4 -16v-31q0 -86 -48 -142t-121 -56q-132 0 -182 60q-51 60 -93 60q-81 2 -83 -73v-21q0 -12 -3 -16t-17 -4h-90z" />
    <glyph glyph-name="uni0304" unicode="&#x304;" horiz-adv-x="2" 
d="M-838 1229q0 14 4 17t17 3h610q13 0 17 -3t4 -17v-90q0 -13 -3 -17t-18 -4h-610q-14 0 -18 3q-3 3 -3 18v90z" />
    <glyph glyph-name="uni0306" unicode="&#x306;" horiz-adv-x="2" 
d="M-512 1026q-135 0 -224 69t-87 216q0 12 3 16t17 4h107q20 0 20 -20q2 -82 47 -120t117 -38t117 38t47 120q0 20 20 20h107q14 0 17 -4t3 -16q2 -147 -87 -216t-224 -69z" />
    <glyph glyph-name="uni0307" unicode="&#x307;" horiz-adv-x="2" 
d="M-511 1057q-52 0 -90 37t-38 90t37 90t90 37t90 -37t37 -89t-37 -90t-89 -38z" />
    <glyph glyph-name="uni0308" unicode="&#x308;" horiz-adv-x="2" 
d="M-723 1061q-49 0 -86 35t-37 87t37 89t86 37t86 -37t37 -86t-37 -87t-86 -38zM-302 1061q-48 0 -85 35t-37 87t36 89t86 37t87 -38t37 -85t-38 -86t-86 -39z" />
    <glyph glyph-name="uni030A" unicode="&#x30a;" horiz-adv-x="2" 
d="M-512 1018q-78 0 -132 51t-54 133t53 136t132 54t133 -54q54 -56 54 -133t-54 -132t-132 -55zM-596 1204q0 -36 24 -60t59 -24q37 0 61 25t24 61t-24 60t-60 24t-60 -24t-24 -62z" />
    <glyph glyph-name="uni030B" unicode="&#x30b;" horiz-adv-x="2" 
d="M-246 1331h178q20 0 21 -4q0 -4 -12 -16l-240 -254q-20 -20 -37 -21h-135q-14 0 -14 4l2 2q0 2 3 6t5 9l196 254q18 20 33 20zM-614 1331h178q20 0 20 -4t-12 -16l-240 -254q-20 -20 -37 -21h-135q-14 0 -14 4l2 2q0 2 3 6t5 9l197 254q18 20 33 20z" />
    <glyph glyph-name="uni030C" unicode="&#x30c;" horiz-adv-x="2" 
d="M-586 1036q-25 0 -39 21l-221 254q-6 8 -6 14t12 6h127q14 0 35 -20l154 -154q4 -4 12 -4t12 4l150 154q20 20 35 20h131q12 0 12 -6t-6 -14l-213 -254q-14 -20 -39 -21h-156z" />
    <glyph glyph-name="uni0312" unicode="&#x312;" horiz-adv-x="2" 
d="M-455 1018h-139q-20 0 -18 20l92 314q8 20 26 20h78q14 -10 15 -20l-31 -314q-2 -20 -23 -20z" />
    <glyph glyph-name="uni0313" unicode="&#x313;" horiz-adv-x="2" 
d="M-559 1372h139q20 0 19 -20l-93 -314q-8 -20 -26 -20h-78q-14 0 -14 16v4l30 314q2 20 23 20z" />
    <glyph glyph-name="dotbelowcomb" unicode="&#x323;" horiz-adv-x="2" 
d="M-550 -430q-52 0 -90 37t-38 90t37 90t90 37t90 -37t37 -89t-37 -90t-89 -38z" />
    <glyph glyph-name="uni0326" unicode="&#x326;" horiz-adv-x="2" 
d="M-461 -135q20 0 19 -21l-93 -313q-8 -20 -26 -20h-78q-14 0 -14 16v4l30 313q2 20 23 21h139z" />
    <glyph glyph-name="uni0327" unicode="&#x327;" horiz-adv-x="2" 
d="M-317 -196q0 -99 -65 -168q-65 -68 -162 -68t-152 39q-12 10 -11 24l17 88q4 23 22 11q54 -33 100 -33t74 28q28 29 29 77q0 48 -36 75t-75 27t-56 -2t-21 4t0 24l16 88h57q102 0 183 -57q80 -58 80 -157z" />
    <glyph glyph-name="uni0328" unicode="&#x328;" horiz-adv-x="2" 
d="M-504 -412q-102 0 -166 60t-63 140q0 80 52 148t122 105l119 -21q-68 -26 -107 -78t-39 -110q0 -115 129 -115q13 0 17 -3t4 -15v-88q0 -19 -20 -21t-48 -2z" />
    <glyph glyph-name="pi" unicode="&#x3c0;" horiz-adv-x="1089" 
d="M719 0q-14 0 -18 4q-3 4 -3 16v691q0 14 -3 17t-17 3h-266q-14 0 -18 -3t-3 -17v-691q0 -12 -3 -16t-17 -4h-140q-14 0 -17 4t-3 16v691q0 14 -3 17t-18 3h-106q-14 0 -17 4t-4 17v122q-1 12 3 16t18 5h922q14 0 17 -4t3 -17v-122q0 -12 -3 -16t-17 -5h-107q-14 0 -17 -3
t-3 -17v-691q0 -12 -3 -16t-18 -4h-139z" />
    <glyph glyph-name="uni1E0C" unicode="&#x1e0c;" horiz-adv-x="1288" 
d="M575 -430q-51 0 -89 37t-37 90q0 53 36 91q37 38 90 38t91 -38t36 -89q0 -51 -38 -90t-89 -39zM971 720q0 320 -189 454q-102 74 -297 73h-114q-13 0 -17 -3t-4 -17v-1020q0 -13 3 -17t18 -4h116q184 0 287 74q197 140 197 460zM504 1434q232 0 384 -94t229 -256t77 -378
t-103 -394q-180 -312 -606 -312h-315q-14 0 -17 3t-3 17v1393q0 13 3 17t17 4h334z" />
    <glyph glyph-name="uni1E0D" unicode="&#x1e0d;" horiz-adv-x="1126" 
d="M553 -430q-51 0 -89 37t-38 90t37 91t90 38t90 -38t37 -89t-38 -90t-89 -39zM815 1516q0 12 3 16t18 4h139q14 0 17 -4t3 -16v-1496q0 -12 -3 -16t-17 -4h-139q-14 0 -18 4q-3 4 -3 16v82q0 4 -7 4t-9 -2q-125 -124 -301 -124t-304 137t-128 332t128 331t306 135
q178 0 299 -124q2 -3 9 -3t7 5v723zM535 143q125 1 203 89t77 216q0 128 -79 216q-78 88 -202 88t-204 -88t-80 -216t80 -216t205 -89z" />
    <glyph glyph-name="uni1E10" unicode="&#x1e10;" horiz-adv-x="1288" 
d="M557 -135q20 0 18 -21l-92 -313q-8 -20 -26 -20h-78q-14 0 -14 16v4l30 313q2 20 23 21h139zM971 720q0 320 -189 454q-102 74 -297 73h-114q-13 0 -17 -3t-4 -17v-1020q0 -13 3 -17t18 -4h116q184 0 287 74q197 140 197 460zM504 1434q232 0 384 -94t229 -256t77 -378
t-103 -394q-180 -312 -606 -312h-315q-14 0 -17 3t-3 17v1393q0 13 3 17t17 4h334z" />
    <glyph glyph-name="uni1E11" unicode="&#x1e11;" horiz-adv-x="1126" 
d="M621 -135q20 0 18 -21l-92 -313q-8 -20 -27 -20h-78q-14 0 -14 16v4l31 313q2 20 22 21h140zM815 1516q0 12 3 16t18 4h139q14 0 17 -4t3 -16v-1496q0 -12 -3 -16t-17 -4h-139q-14 0 -18 4q-3 4 -3 16v82q0 4 -7 4t-9 -2q-125 -124 -301 -124t-304 137t-128 332t128 331
t306 135q178 0 299 -124q2 -3 9 -3t7 5v723zM535 143q125 1 203 89t77 216q0 128 -79 216q-78 88 -202 88t-204 -88t-80 -216t80 -216t205 -89z" />
    <glyph glyph-name="uni1E16" unicode="&#x1e16;" horiz-adv-x="1048" 
d="M240 1671q0 13 4 17t16 4h610q14 0 18 -3t3 -18v-90q0 -14 -3 -17t-18 -3h-610q-14 0 -17 3t-3 17v90zM150 1413q0 13 3 17t17 4h764q14 0 17 -3t3 -18v-147q0 -14 -3 -18t-17 -3h-563q-13 0 -17 -3t-4 -17v-506q0 -13 3 -17t18 -4h542q13 0 17 -3t4 -17v-146
q0 -14 -3 -17t-18 -3h-542q-13 0 -17 -3t-4 -17v-283q0 -13 3 -17t18 -4h573q14 0 18 -3t3 -17v-148q0 -14 -3 -17t-18 -3h-774q-14 0 -17 3t-3 17v1393zM598 2048h197q10 0 17 -2t-9 -18l-207 -213q-20 -20 -37 -21h-145q-20 0 -4 21l155 213q16 20 33 20z" />
    <glyph glyph-name="uni1E17" unicode="&#x1e17;" horiz-adv-x="991" 
d="M610 1536h197q10 0 17 -2t-9 -18l-248 -254q-20 -20 -37 -21h-145q-20 0 -4 21l197 254q16 20 32 20zM170 1120q0 14 4 18t16 3h611q14 0 17 -3t3 -18v-90q0 -14 -3 -17t-17 -3h-611q-14 0 -17 3t-3 17v90zM503 754q-101 0 -168 -62t-79 -157q0 -13 3 -17t17 -4h439
q16 0 19 3t1 18q-11 99 -71 159t-161 60zM829 217v-141q0 -16 -16 -29q-88 -68 -264 -67q-229 0 -352 131t-123 333t119 336t311 135q192 0 304 -134q110 -134 110 -332v-58q0 -12 -4 -16t-17 -4h-608q-14 0 -19 -3q-4 -4 -4 -16q10 -98 85 -153t198 -56q67 0 147 25t113 61
q20 20 20 -12z" />
    <glyph glyph-name="uni1E24" unicode="&#x1e24;" horiz-adv-x="1212" 
d="M606 -430q-51 0 -89 37t-38 90t37 91t90 38t90 -38t37 -89t-38 -90t-89 -39zM1063 20q0 -14 -3 -17t-18 -3h-159q-14 0 -18 3q-3 3 -3 17v472q0 14 -3 17t-17 3h-471q-13 0 -17 -3t-4 -17v-472q0 -14 -3 -17t-17 -3h-160q-14 0 -17 3t-3 17v1393q0 13 3 17t17 4h160
q14 0 17 -3t3 -18v-694q0 -13 3 -17t18 -4h471q14 0 17 3t3 18v694q0 13 3 17t18 4h159q14 0 18 -3t3 -18v-1393z" />
    <glyph glyph-name="uni1E25" unicode="&#x1e25;" horiz-adv-x="1056" 
d="M530 -430q-51 0 -89 37t-38 90t37 91t90 38q52 0 90 -38t38 -89t-39 -90q-38 -39 -89 -39zM938 20q0 -12 -3 -16t-17 -4h-140q-14 0 -17 4t-3 16v508q0 223 -197 224q-109 0 -179 -71t-71 -192v-469q0 -12 -3 -16t-17 -4h-139q-14 0 -18 4q-3 4 -3 16v1496q0 12 3 16
t18 4h139q14 0 17 -4t3 -16v-723q0 -5 7 -5t10 3q116 125 280 125t247 -95q83 -94 83 -252v-549z" />
    <glyph glyph-name="uni1E36" unicode="&#x1e36;" horiz-adv-x="925" 
d="M496 -430q-51 0 -89 37t-38 90t37 91t90 38t90 -38t37 -89t-38 -90t-89 -39zM150 1413q0 13 3 17t17 4h156q14 0 17 -3t3 -18v-1204q0 -13 3 -17t18 -4h475q14 0 17 -3t3 -17v-148q0 -14 -3 -17t-17 -3h-672q-14 0 -17 3t-3 17v1393z" />
    <glyph glyph-name="uni1E37" unicode="&#x1e37;" horiz-adv-x="458" 
d="M233 -430q-51 0 -89 37t-38 90t37 91t90 38t91 -38t36 -89q0 -51 -38 -90t-89 -39zM139 1516q0 12 3 16t18 4h139q14 0 17 -4t3 -16v-1496q0 -12 -3 -16t-17 -4h-139q-14 0 -18 4q-3 4 -3 16v1496z" />
    <glyph glyph-name="uni1E38" unicode="&#x1e38;" horiz-adv-x="925" 
d="M127 1729q0 14 4 17t16 3h611q14 0 17 -3t3 -17v-91q0 -14 -3 -17t-17 -3h-611q-14 0 -17 3t-3 17v91zM496 -430q-51 0 -89 37t-38 90t37 91t90 38t90 -38t37 -89t-38 -90t-89 -39zM150 1413q0 13 3 17t17 4h156q14 0 17 -3t3 -18v-1204q0 -13 3 -17t18 -4h475
q14 0 17 -3t3 -17v-148q0 -14 -3 -17t-17 -3h-672q-14 0 -17 3t-3 17v1393z" />
    <glyph glyph-name="uni1E39" unicode="&#x1e39;" horiz-adv-x="458" 
d="M-92 1794q0 14 4 17t16 4h611q14 1 17 -3t3 -18v-90q0 -14 -3 -17t-17 -4h-611q-14 -1 -17 3t-3 18v90zM233 -430q-51 0 -89 37t-38 90t37 91t90 38t91 -38t36 -89q0 -51 -38 -90t-89 -39zM139 1516q0 12 3 16t18 4h139q14 0 17 -4t3 -16v-1496q0 -12 -3 -16t-17 -4h-139
q-14 0 -18 4q-3 4 -3 16v1496z" />
    <glyph glyph-name="uni1E42" unicode="&#x1e42;" horiz-adv-x="1589" 
d="M795 -430q-51 0 -89 37t-38 90t37 91t90 38t90 -38t37 -89t-38 -90t-89 -39zM838 242q-6 0 -17 10l-389 549q-6 6 -18 6t-13 -12v-775q0 -14 -3 -17t-17 -3h-158q-14 0 -17 3t-3 17v1430q0 14 6 14t14 -10l602 -881q7 -8 13 -8t12 8l602 881q8 10 14 10t7 -14v-1430
q1 -14 -3 -17t-18 -3h-158q-14 0 -17 3t-3 17v775q0 12 -12 12t-19 -6l-389 -549q-10 -10 -16 -10z" />
    <glyph glyph-name="uni1E43" unicode="&#x1e43;" horiz-adv-x="1593" 
d="M797 -430q-51 0 -89 37t-38 90t37 91t90 38t90 -38t37 -89t-38 -90t-89 -39zM856 754q4 0 8 4q131 158 287 157q324 0 324 -346v-549q1 -12 -3 -16t-18 -4h-139q-14 0 -18 4q-3 4 -3 16v508q0 113 -39 168q-39 56 -139 56t-162 -70t-61 -193v-469q0 -12 -3 -16t-18 -4
h-139q-14 0 -17 4t-3 16v508q0 113 -39 168q-39 56 -139 56q-99 0 -161 -70t-63 -193v-469q0 -12 -3 -16t-17 -4h-139q-14 0 -18 4q-3 4 -3 16v854q0 12 3 16t18 5h139q14 0 17 -4t3 -17v-81q0 -5 7 -5t10 3q100 125 245 124q212 1 275 -157q4 -4 8 -4z" />
    <glyph glyph-name="uni1E44" unicode="&#x1e44;" horiz-adv-x="1208" 
d="M604 1554q-51 0 -89 37t-38 90t37 91t90 38t90 -38t37 -88q0 -52 -38 -91t-89 -39zM346 893q-16 0 -16 -12v-861q0 -14 -3 -17t-18 -3h-151q-14 0 -18 3q-3 3 -3 17v1430q0 14 6 14t15 -10l690 -907q6 -6 18 -6t13 12v860q0 13 3 17t17 4h152q14 0 17 -3t3 -18v-1429
q0 -14 -6 -15q-4 0 -14 11l-691 907q-6 6 -14 6z" />
    <glyph glyph-name="uni1E45" unicode="&#x1e45;" horiz-adv-x="1034" 
d="M516 1057q-51 0 -89 37t-38 90t37 91t90 38t90 -38t37 -89t-38 -90t-89 -39zM915 20q0 -12 -3 -16t-17 -4h-139q-14 0 -18 4q-3 4 -3 16v508q0 223 -184 224q-106 0 -174 -71t-68 -192v-469q0 -12 -3 -16t-17 -4h-139q-14 0 -18 4q-3 4 -3 16v854q0 14 3 18t18 3h139
q14 0 17 -4t3 -17v-81q0 -5 7 -5t10 3q68 65 125 95t143 29q322 0 321 -346v-549z" />
    <glyph glyph-name="uni1E46" unicode="&#x1e46;" horiz-adv-x="1208" 
d="M621 -430q-51 0 -90 37q-38 37 -37 90q0 53 36 91t90 38t91 -38t37 -89t-38 -90t-89 -39zM346 893q-16 0 -16 -12v-861q0 -14 -3 -17t-18 -3h-151q-14 0 -18 3q-3 3 -3 17v1430q0 14 6 14t15 -10l690 -907q6 -6 18 -6t13 12v860q0 13 3 17t17 4h152q14 0 17 -3t3 -18
v-1429q0 -14 -6 -15q-4 0 -14 11l-691 907q-6 6 -14 6z" />
    <glyph glyph-name="uni1E47" unicode="&#x1e47;" horiz-adv-x="1036" 
d="M512 -430q-51 0 -89 37t-38 90t37 91t90 38t90 -38t37 -89t-38 -90t-89 -39zM918 20q0 -12 -4 -16t-17 -4h-139q-14 0 -18 4q-3 4 -3 16v508q0 223 -184 224q-106 0 -174 -71t-68 -192v-469q0 -12 -3 -16t-17 -4h-139q-14 0 -18 4q-3 4 -3 16v854q0 14 3 18t18 3h139
q14 0 17 -4t3 -17v-81q0 -5 7 -5t10 3q68 65 125 95t143 29q322 0 322 -346v-549z" />
    <glyph glyph-name="uni1E52" unicode="&#x1e52;" horiz-adv-x="1622" 
d="M485 1671q0 13 4 17t17 4h610q14 0 18 -3t3 -18v-90q0 -14 -3 -17t-18 -3h-610q-14 0 -18 3q-3 3 -3 17v90zM315 717q-1 -221 141 -380t355 -159t354 159t142 380t-141 380t-355 159t-355 -160q-142 -158 -141 -379zM1528 717q0 -303 -209 -520t-508 -217t-508 217
t-209 520t209 520t508 217t508 -217t209 -520zM885 2048h196q10 0 18 -2t-9 -18l-207 -213q-20 -20 -37 -21h-146q-20 0 -4 21l156 213q16 20 33 20z" />
    <glyph glyph-name="uni1E53" unicode="&#x1e53;" horiz-adv-x="1062" 
d="M635 1536h196q10 0 18 -2t-9 -18l-248 -254q-20 -20 -37 -21h-145q-20 0 -4 21l196 254q16 20 33 20zM207 1120q0 14 4 18t16 3h611q14 0 17 -3t3 -18v-90q0 -14 -3 -17t-17 -3h-611q-14 0 -17 3t-3 17v90zM532 752q-126 0 -204 -88t-78 -216t79 -216t205 -89
q126 0 202 87q77 88 77 218t-78 217t-203 87zM66 449q0 193 137 329t329 137q192 0 329 -137q136 -138 136 -330t-136 -330t-329 -138q-194 0 -330 138t-136 331z" />
    <glyph glyph-name="uni1E5A" unicode="&#x1e5a;" horiz-adv-x="1116" 
d="M537 -430q-51 0 -90 37q-38 37 -37 90q0 53 36 91t90 38t91 -38t37 -89t-38 -90t-89 -39zM346 20q0 -14 -3 -17t-17 -3h-154q-25 0 -25 20v1393q-1 13 3 17t18 4h326q233 0 359 -105t126 -317q0 -156 -91 -261t-255 -139q-8 -2 -8 -7t4 -9l444 -576q2 -4 6 -9t4 -8
t-18 -3h-205q-14 0 -33 20l-456 598q-10 12 -17 13q-8 0 -8 -19v-592zM512 766q258 0 258 246q0 119 -71 180t-195 61h-137q-13 0 -17 -3t-4 -17v-447q0 -14 3 -17t18 -3h145z" />
    <glyph glyph-name="uni1E5B" unicode="&#x1e5b;" horiz-adv-x="653" 
d="M229 -430q-51 0 -89 37t-38 90t37 91t90 38t90 -38t37 -89t-38 -90t-89 -39zM311 20q0 -12 -3 -16t-17 -4h-139q-14 0 -18 4q-3 4 -3 16v854q0 12 3 16t18 5h139q14 0 17 -4t3 -17v-108q0 -4 7 -4t10 2q32 59 108 105t160 46q14 0 17 -4t3 -16v-147q0 -23 -10 -23l-55 4
q-115 0 -177 -93t-63 -261v-355z" />
    <glyph glyph-name="uni1E5C" unicode="&#x1e5c;" horiz-adv-x="1116" 
d="M168 1729q0 14 4 17t16 3h611q14 0 17 -3t3 -17v-91q0 -14 -3 -17t-17 -3h-611q-14 0 -17 3t-3 17v91zM537 -430q-51 0 -90 37q-38 37 -37 90q0 53 36 91t90 38t91 -38t37 -89t-38 -90t-89 -39zM346 20q0 -14 -3 -17t-17 -3h-154q-25 0 -25 20v1393q-1 13 3 17t18 4h326
q233 0 359 -105t126 -317q0 -156 -91 -261t-255 -139q-8 -2 -8 -7t4 -9l444 -576q2 -4 6 -9t4 -8t-18 -3h-205q-14 0 -33 20l-456 598q-10 12 -17 13q-8 0 -8 -19v-592zM512 766q258 0 258 246q0 119 -71 180t-195 61h-137q-13 0 -17 -3t-4 -17v-447q0 -14 3 -17t18 -3h145z
" />
    <glyph glyph-name="uni1E5D" unicode="&#x1e5d;" horiz-adv-x="653" 
d="M47 1229q0 14 4 17t17 3h610q14 0 17 -3t3 -17v-90q0 -13 -3 -17t-17 -4h-610q-14 0 -18 3q-3 3 -3 18v90zM229 -430q-51 0 -89 37t-38 90t37 91t90 38t90 -38t37 -89t-38 -90t-89 -39zM311 20q0 -12 -3 -16t-17 -4h-139q-14 0 -18 4q-3 4 -3 16v854q0 12 3 16t18 5h139
q14 0 17 -4t3 -17v-108q0 -4 7 -4t10 2q32 59 108 105t160 46q14 0 17 -4t3 -16v-147q0 -23 -10 -23l-55 4q-115 0 -177 -93t-63 -261v-355z" />
    <glyph glyph-name="uni1E6C" unicode="&#x1e6c;" horiz-adv-x="946" 
d="M473 -430q-51 0 -89 37t-38 90t37 91t90 38t90 -38t37 -89t-38 -90t-89 -39zM53 1413q0 13 3 17t18 4h798q14 0 18 -3t3 -18v-147q0 -14 -3 -18t-18 -3h-278q-14 0 -17 -3t-4 -17v-1205q0 -14 -3 -17t-17 -3h-160q-14 0 -17 3t-3 17v1205q0 14 -3 17t-18 3h-278
q-14 0 -18 3q-3 3 -3 18v147z" />
    <glyph glyph-name="uni1E6D" unicode="&#x1e6d;" horiz-adv-x="540" 
d="M266 -430q-51 0 -89 37t-38 90t37 91t90 38t90 -38t37 -89t-38 -90t-89 -39zM350 1292v-377q0 -14 3 -17t18 -3h125q14 0 17 -4t3 -17v-118q0 -12 -3 -16t-17 -5h-125q-13 0 -17 -3t-4 -17v-695q0 -12 -3 -16t-17 -4h-137q-14 0 -18 4q-3 4 -3 16v695q0 14 -3 17t-17 3
h-82q-14 0 -18 4q-3 4 -3 17v118q0 12 3 16t18 5h82q14 0 17 3t3 17v273q0 20 21 33l133 82l14 6q10 0 10 -17z" />
    <glyph glyph-name="Wgrave" unicode="&#x1e80;" horiz-adv-x="1722" 
d="M969 1536h-146q-16 0 -37 20l-247 254q-17 17 -10 19t18 2h196q19 -1 33 -21l197 -254q16 -20 -4 -20zM856 893q-8 0 -10 -6l-307 -910q-3 -8 -11 -8t-10 8l-477 1436q-4 12 -4 16t12 5h193q16 0 24 -21l258 -852q4 -6 10 -6t11 6l293 883q8 20 24 20t25 -20l295 -883
q2 -6 10 -6t10 6l262 852q8 20 25 21h184q13 0 13 -4t-5 -17l-487 -1436q-2 -8 -10 -8t-10 8l-308 910q-2 6 -10 6z" />
    <glyph glyph-name="wgrave" unicode="&#x1e81;" horiz-adv-x="1327" 
d="M635 1036q-16 0 -37 21l-248 254q-16 16 -9 18t17 2h197q19 0 33 -20l196 -254q16 -20 -4 -21h-145zM35 895h151q16 0 27 -21l203 -514q2 -6 12 -6t12 6l207 545q8 20 17 21q8 0 16 -21l209 -545q4 -6 12 -6t12 6l201 514q10 20 27 21h151q18 0 19 -8q-2 -4 -4 -13
l-385 -892q-8 -18 -19 -19q-10 0 -20 19l-205 518q-2 6 -12 6t-13 -6l-209 -518q-6 -18 -20 -19q-10 0 -18 19l-386 892l-4 13q0 8 19 8z" />
    <glyph glyph-name="Wacute" unicode="&#x1e82;" horiz-adv-x="1722" 
d="M1182 1831q10 0 17 -2t-9 -19l-248 -254q-20 -20 -37 -20h-145q-20 0 -4 20l196 254q14 20 33 21h197zM856 893q-8 0 -10 -6l-307 -910q-3 -8 -11 -8t-10 8l-477 1436q-4 12 -4 16t12 5h193q16 0 24 -21l258 -852q4 -6 10 -6t11 6l293 883q8 20 24 20t25 -20l295 -883
q2 -6 10 -6t10 6l262 852q8 20 25 21h184q13 0 13 -4t-5 -17l-487 -1436q-2 -8 -10 -8t-10 8l-308 910q-2 6 -10 6z" />
    <glyph glyph-name="wacute" unicode="&#x1e83;" horiz-adv-x="1327" 
d="M774 1331h197q10 0 17 -2t-9 -18l-248 -254q-20 -20 -37 -21h-145q-20 0 -4 21l196 254q16 20 33 20zM35 895h151q16 0 27 -21l203 -514q2 -6 12 -6t12 6l207 545q8 20 17 21q8 0 16 -21l209 -545q4 -6 12 -6t12 6l201 514q10 20 27 21h151q18 0 19 -8q-2 -4 -4 -13
l-385 -892q-8 -18 -19 -19q-10 0 -20 19l-205 518q-2 6 -12 6t-13 -6l-209 -518q-6 -18 -20 -19q-10 0 -18 19l-386 892l-4 13q0 8 19 8z" />
    <glyph glyph-name="Wdieresis" unicode="&#x1e84;" horiz-adv-x="1722" 
d="M649 1559q-49 1 -86 35t-37 86t37 89t86 37t86 -37t37 -86t-37 -87t-86 -37zM1194 1683q0 -47 -38 -85t-86 -39q-48 1 -85 35t-37 86t36 89t86 37t87 -38t37 -85zM856 893q-8 0 -10 -6l-307 -910q-3 -8 -11 -8t-10 8l-477 1436q-4 12 -4 16t12 5h193q16 0 24 -21
l258 -852q4 -6 10 -6t11 6l293 883q8 20 24 20t25 -20l295 -883q2 -6 10 -6t10 6l262 852q8 20 25 21h184q13 0 13 -4t-5 -17l-487 -1436q-2 -8 -10 -8t-10 8l-308 910q-2 6 -10 6z" />
    <glyph glyph-name="wdieresis" unicode="&#x1e85;" horiz-adv-x="1327" 
d="M453 1061q-49 0 -86 35t-37 87t37 89t86 37t86 -37t37 -86t-38 -87q-36 -38 -85 -38zM873 1061q-48 0 -85 35q-36 35 -36 87t35 89q36 37 86 37q49 0 87 -38t38 -85t-39 -86q-38 -39 -86 -39zM35 895h151q16 0 27 -21l203 -514q2 -6 12 -6t12 6l207 545q8 20 17 21
q8 0 16 -21l209 -545q4 -6 12 -6t12 6l201 514q10 20 27 21h151q18 0 19 -8q-2 -4 -4 -13l-385 -892q-8 -18 -19 -19q-10 0 -20 19l-205 518q-2 6 -12 6t-13 -6l-209 -518q-6 -18 -20 -19q-10 0 -18 19l-386 892l-4 13q0 8 19 8z" />
    <glyph glyph-name="uni1E9E" unicode="&#x1e9e;" horiz-adv-x="1259" 
d="M635 1274q-291 0 -291 -322v-932q0 -14 -3 -17t-17 -3h-160q-14 0 -18 3q-3 3 -3 17v965q1 225 137 347t355 122q151 0 269 -50t181 -132v-6l-229 -385q-6 -11 -6 -17t8 -8q128 -14 232 -116t104 -300t-133 -329t-402 -131h-79q-14 0 -18 3q-3 3 -3 17v139q0 13 3 17
t18 4h88q150 0 230 76t79 208q0 272 -326 273h-69q-8 0 -8 8t6 16l254 465l4 13q0 6 -11 12q-78 43 -192 43z" />
    <glyph glyph-name="Ygrave" unicode="&#x1ef2;" horiz-adv-x="1122" 
d="M731 1536h-145q-16 0 -37 20l-248 254q-17 17 -10 19q8 2 18 2h197q17 -1 33 -21l196 -254q16 -20 -4 -20zM240 1434q18 0 26 -21l285 -465q2 -6 10 -6t10 6l287 465q12 20 27 21h200q12 0 13 -9l-4 -12l-432 -690v-703q0 -14 -4 -17t-17 -3h-160q-14 0 -17 3t-3 17v703
l-432 690l-4 12q0 8 12 9h203z" />
    <glyph glyph-name="ygrave" unicode="&#x1ef3;" horiz-adv-x="927" 
d="M438 1036q-16 0 -37 21l-247 254q-17 17 -10 18q7 2 18 2h196q19 0 33 -20l197 -254q16 -20 -4 -21h-146zM465 264q6 0 8 6l240 604q10 20 26 21h154q18 0 18 -8q-2 -4 -4 -13l-530 -1304q-10 -20 -27 -21h-151q-18 0 -19 9q2 4 4 12l181 446q2 2 2 10t-2 11l-345 837
l-4 13q0 8 19 8h158q16 0 26 -21l238 -604q2 -6 8 -6z" />
    <glyph glyph-name="uni2002" unicode="&#x2002;" horiz-adv-x="909" 
 />
    <glyph glyph-name="uni2003" unicode="&#x2003;" horiz-adv-x="1818" 
 />
    <glyph glyph-name="uni2004" unicode="&#x2004;" horiz-adv-x="606" 
 />
    <glyph glyph-name="uni2005" unicode="&#x2005;" horiz-adv-x="454" 
 />
    <glyph glyph-name="uni2006" unicode="&#x2006;" horiz-adv-x="256" 
 />
    <glyph glyph-name="uni2008" unicode="&#x2008;" horiz-adv-x="512" 
 />
    <glyph glyph-name="uni2009" unicode="&#x2009;" horiz-adv-x="303" 
 />
    <glyph glyph-name="uni200A" unicode="&#x200a;" horiz-adv-x="151" 
 />
    <glyph glyph-name="uni200B" unicode="&#x200b;" horiz-adv-x="0" 
 />
    <glyph glyph-name="uni2010" unicode="&#x2010;" horiz-adv-x="638" 
d="M115 614q0 14 4 18t16 3h369q14 0 17 -3t3 -18v-122q0 -14 -3 -18t-17 -3h-369q-14 0 -17 3t-3 18v122z" />
    <glyph glyph-name="uni2011" unicode="&#x2011;" horiz-adv-x="638" 
d="M115 614q0 14 4 18t16 3h369q14 0 17 -3t3 -18v-122q0 -14 -3 -18t-17 -3h-369q-14 0 -17 3t-3 18v122z" />
    <glyph glyph-name="figuredash" unicode="&#x2012;" 
d="M57 610q0 14 4 18t17 3h868q14 0 18 -3t3 -18v-106q0 -14 -3 -18t-18 -3h-868q-14 0 -18 3q-3 3 -3 18v106z" />
    <glyph glyph-name="endash" unicode="&#x2013;" horiz-adv-x="999" 
d="M45 610q0 14 4 18t17 3h868q14 0 17 -3t3 -18v-106q0 -14 -3 -18t-17 -3h-868q-14 0 -18 3q-3 3 -3 18v106z" />
    <glyph glyph-name="emdash" unicode="&#x2014;" horiz-adv-x="1667" 
d="M152 610q0 14 4 18t16 3h1323q14 0 17 -3t4 -18v-106q0 -14 -4 -18t-17 -3h-1323q-14 0 -17 3t-3 18v106z" />
    <glyph glyph-name="uni2016" unicode="&#x2016;" horiz-adv-x="802" 
d="M508 1516q0 12 3 16t17 4h115q14 0 17 -4t4 -16v-2008q0 -12 -4 -16t-17 -4h-115q-14 0 -17 4t-3 16v2008zM139 1516q0 12 3 16t18 4h114q14 0 18 -4t3 -16v-2008q0 -12 -3 -16t-18 -4h-114q-14 0 -18 4q-3 4 -3 16v2008z" />
    <glyph glyph-name="quoteleft" unicode="&#x2018;" horiz-adv-x="409" 
d="M100 991q-20 0 -18 21l117 401q4 9 6 15t18 6h88q16 0 17 -21l-45 -401q-2 -20 -23 -21h-160z" />
    <glyph glyph-name="quoteright" unicode="&#x2019;" horiz-adv-x="409" 
d="M307 1434q20 0 19 -21l-117 -401q-4 -10 -6 -16t-19 -5h-88q-16 0 -16 21l45 401q2 20 22 21h160z" />
    <glyph glyph-name="quotesinglbase" unicode="&#x201a;" horiz-adv-x="409" 
d="M307 199q20 0 19 -21l-117 -401q-4 -9 -6 -15t-19 -6h-88q-16 0 -16 21l45 401q2 20 22 21h160z" />
    <glyph glyph-name="quotedblleft" unicode="&#x201c;" horiz-adv-x="716" 
d="M408 991q-20 0 -19 21l117 401q4 9 6 15t18 6h88q16 0 17 -21l-45 -401q-2 -20 -23 -21h-159zM100 991q-20 0 -18 21l117 401q4 9 6 15t18 6h88q16 0 17 -21l-45 -401q-2 -20 -23 -21h-160z" />
    <glyph glyph-name="quotedblright" unicode="&#x201d;" horiz-adv-x="716" 
d="M307 1434q20 0 19 -21l-117 -401q-4 -10 -6 -16t-19 -5h-88q-16 0 -16 21l45 401q2 20 22 21h160zM614 1434q20 0 19 -21l-117 -401q-4 -10 -6 -16t-18 -5h-89q-16 0 -16 21l45 401q2 20 23 21h159z" />
    <glyph glyph-name="quotedblbase" unicode="&#x201e;" horiz-adv-x="716" 
d="M309 199q20 0 19 -21l-117 -401q-4 -9 -6 -15t-19 -6h-88q-16 0 -16 21l45 401q2 20 23 21h159zM616 199q20 0 19 -21l-117 -401q-4 -10 -6 -16t-18 -5h-88q-16 0 -17 21l45 401q2 20 23 21h159z" />
    <glyph glyph-name="dagger" unicode="&#x2020;" horiz-adv-x="864" 
d="M797 1106v-109q0 -12 -3 -16t-18 -4l-264 20q-14 0 -17 -3t-3 -17l28 -213v-150l-45 -512q0 -12 -3 -16t-17 -4h-45q-14 0 -18 4q-3 4 -3 16l-45 512v150l29 213q0 14 -3 17t-18 3l-264 -20q-14 0 -17 4t-3 16v109q0 12 3 16t17 4l264 -20q14 0 18 3q3 3 3 17l-29 308
q0 12 3 16t18 4h135q14 0 17 -4t3 -16l-28 -308q0 -14 3 -17t17 -3l264 20q14 0 18 -4t3 -16z" />
    <glyph glyph-name="daggerdbl" unicode="&#x2021;" horiz-adv-x="864" 
d="M68 997v109q0 12 3 16t17 4l260 -20q14 0 18 3q3 3 3 17l-25 308q0 12 3 16t18 4h135q14 0 17 -4t3 -16l-24 -308q0 -14 3 -17t17 -3l260 20q14 0 18 -4t3 -16v-109q0 -12 -3 -16t-18 -4l-260 20q-14 0 -17 -3t-3 -17l24 -193v-41l-24 -192q0 -14 3 -17t17 -4l260 21
q14 0 18 -4t3 -17v-108q0 -12 -3 -16t-18 -5l-260 21q-14 0 -17 -3t-3 -18l24 -307q0 -12 -3 -16t-17 -4h-135q-14 0 -18 4q-3 4 -3 16l25 307q0 13 -3 17t-18 4l-260 -21q-14 1 -17 5t-3 16v108q0 12 3 16t17 5l260 -21q14 0 18 4t3 17l-25 192v41l25 193q0 14 -3 17t-18 3
l-260 -20q-14 0 -17 4t-3 16z" />
    <glyph glyph-name="bullet" unicode="&#x2022;" horiz-adv-x="1099" 
d="M248 652q0 126 88 215t215 89t214 -89t87 -215t-87 -215t-214 -89t-215 89t-88 215z" />
    <glyph glyph-name="ellipsis" unicode="&#x2026;" horiz-adv-x="1398" 
d="M1150 -25q-52 0 -90 37t-38 90q0 52 37 90t90 38t90 -38q37 -36 37 -88t-37 -91q-37 -38 -89 -38zM699 -25q-52 0 -90 37t-38 90q0 52 37 90t90 38t90 -38q37 -36 37 -88t-37 -91q-37 -38 -89 -38zM251 -25q-52 0 -90 37t-38 90q0 52 37 90t90 38t90 -38q37 -36 37 -88
t-37 -91q-37 -38 -89 -38z" />
    <glyph glyph-name="perthousand" unicode="&#x2030;" horiz-adv-x="2619" 
d="M440 51l811 1405q8 16 27 6l88 -51q16 -10 8 -29l-811 -1405q-8 -16 -26 -6l-88 52q-17 10 -9 28zM1815 334q0 144 97 246t256 102t256 -101t97 -247t-97 -246q-97 -102 -256 -102t-256 102t-97 246zM2367 334q0 90 -54 149t-145 59q-92 0 -146 -58q-54 -60 -54 -150
t54 -150t146 -59q92 -1 145 59q54 60 54 150zM983 334q0 144 97 246t256 102t256 -101q98 -101 98 -247t-98 -246q-98 -102 -256 -102q-159 0 -256 102t-97 246zM1536 334q0 90 -54 149t-146 59t-145 -58q-54 -60 -54 -150t54 -150t145 -59q91 0 146 59q54 60 54 150z
M98 1100q0 144 98 246t256 102q159 0 256 -101t97 -247t-97 -246q-97 -102 -256 -102q-158 0 -256 102t-98 246zM651 1100q0 90 -54 149t-145 59q-92 0 -146 -58q-54 -60 -54 -150t54 -150t146 -59q92 -1 145 59q54 60 54 150z" />
    <glyph glyph-name="minute" unicode="&#x2032;" horiz-adv-x="460" 
d="M172 991h-92q-16 0 -10 21l116 401q6 20 29 21h164q23 0 12 -21l-188 -401q-11 -21 -31 -21z" />
    <glyph glyph-name="second" unicode="&#x2033;" horiz-adv-x="804" 
d="M516 991h-92q-16 0 -10 21l116 401q6 20 29 21h164q23 0 12 -21l-188 -401q-11 -21 -31 -21zM172 991h-92q-16 0 -10 21l116 401q6 20 29 21h164q23 0 12 -21l-188 -401q-11 -21 -31 -21z" />
    <glyph glyph-name="guilsinglleft" unicode="&#x2039;" horiz-adv-x="614" 
d="M374 891q8 0 15 -6l113 -66q12 -6 12 -14l-4 -12l-199 -326q-6 -11 -6 -21t6 -22l199 -322q6 -8 6 -13t-14 -13l-113 -66q-8 -6 -15 -6t-14 12l-247 422l-4 13l4 12l247 416q6 12 14 12z" />
    <glyph glyph-name="guilsinglright" unicode="&#x203a;" horiz-adv-x="614" 
d="M241 4q-7 0 -16 6l-112 66q-14 8 -15 14q0 4 6 12l199 322q6 12 6 22t-6 21l-199 326l-4 12q0 8 13 14l112 66q7 6 15 6t14 -12l248 -416l4 -12l-4 -13l-248 -422q-6 -12 -13 -12z" />
    <glyph glyph-name="asterism" unicode="&#x2042;" horiz-adv-x="1597" 
d="M748 934q-14 0 -18 4q-3 4 -3 16l18 144l-6 4l-121 -82q-16 -12 -28 8l-43 74q-4 6 -4 15t10 13l137 60v8l-137 62q-16 8 -6 28l43 74q10 20 26 8l123 -86l6 2l-18 148q0 12 3 16t18 4h98q14 0 17 -4t3 -16l-18 -146l6 -4l123 86q16 10 27 -8l43 -74q12 -18 -7 -28
l-135 -64v-6l135 -60q17 -7 14 -15q-1 -3 -7 -13l-43 -74q-12 -20 -29 -8l-119 82l-6 -4l16 -144q0 -12 -3 -16t-17 -4h-98zM1186 176q-14 0 -18 4q-3 4 -3 17l19 143l-6 4l-121 -82q-16 -12 -29 8l-43 74q-4 6 -4 15t10 14l137 59v8l-137 62q-16 8 -6 28l43 74q10 20 27 8
l123 -86l6 2l-19 148q0 12 3 16t18 4h98q14 0 18 -4t3 -16l-19 -146l6 -4l123 86q16 10 27 -8l43 -74q12 -18 -6 -28l-136 -64v-6l136 -59q15 -6 13 -16q-1 -3 -7 -13l-43 -74q-12 -20 -29 -8l-119 82l-6 -4l17 -143q0 -13 -3 -17t-18 -4h-98zM311 176q-14 0 -17 4t-3 17
l18 143l-6 4l-121 -82q-16 -12 -28 8l-43 74q-13 20 6 29l137 59v8l-137 62q-16 8 -6 28l43 74q10 20 26 8l123 -86l6 2l-18 148q0 12 3 16t17 4h99q14 0 17 -4t3 -16l-18 -146l6 -4l123 86q16 10 26 -8l43 -74q12 -18 -6 -28l-135 -64v-6l135 -59q15 -6 13 -16
q-1 -3 -7 -13l-43 -74q-12 -20 -28 -8l-119 82l-6 -4l16 -143q0 -13 -3 -17t-17 -4h-99z" />
    <glyph glyph-name="fraction" unicode="&#x2044;" horiz-adv-x="1363" 
d="M215 51l811 1405q8 16 27 6l88 -51q16 -10 8 -29l-811 -1405q-8 -16 -27 -6l-88 52q-16 10 -8 28z" />
    <glyph glyph-name="zero.superior" unicode="&#x2070;" horiz-adv-x="681" 
d="M463 1294q0 240 -122 240t-122 -241t121 -240q123 1 123 241zM616 1292q0 -190 -72 -293q-73 -102 -203 -102t-203 103q-72 102 -72 292t72 294q73 104 203 104q131 0 203 -104t72 -294z" />
    <glyph glyph-name="four.superior" unicode="&#x2074;" horiz-adv-x="681" 
d="M426 1343q0 11 -4 11t-8 -6l-138 -179q-8 -10 -8 -15t13 -5h125q14 0 17 3t3 17v174zM31 1024q-29 0 -15 18l535 660q6 6 12 6t6 -8v-533q0 -14 3 -17t18 -3h61q13 0 17 -3t4 -18v-82q0 -14 -3 -17t-18 -3h-61q-14 0 -18 -3t-3 -17v-72q0 -14 -3 -18t-17 -3h-103
q-14 0 -17 3t-3 18v72q0 14 -3 17t-17 3h-375z" />
    <glyph glyph-name="five.superior" unicode="&#x2075;" horiz-adv-x="681" 
d="M588 1157q0 -104 -75 -182t-201 -78t-214 88q-4 4 -4 8t6 11l93 79q0 4 6 4l6 -6q12 -18 43 -35q32 -18 76 -18t79 35t35 91t-42 89t-118 33t-131 -33q-8 -4 -13 -4t-5 8l31 416q2 12 16 12h367q12 0 12 -12v-107q0 -12 -12 -12h-252q-12 0 -15 -12l-10 -123q0 -8 2 -10
t11 -2l57 2q116 0 184 -69t68 -173z" />
    <glyph glyph-name="six.superior" unicode="&#x2076;" horiz-adv-x="681" 
d="M219 1155q0 -53 35 -90t89 -37t89 37t35 90t-35 90t-90 37t-89 -37t-34 -90zM371 1399q106 0 175 -70q68 -71 68 -177t-76 -180t-196 -75q-121 0 -198 75q-76 75 -76 177t56 176q28 37 44 59t68 80q51 59 83 99l87 102q8 10 22 10h152l4 -2q0 -2 -4 -6l-215 -258
q-2 -2 -3 -8q0 -2 9 -2z" />
    <glyph glyph-name="seven.superior" unicode="&#x2077;" horiz-adv-x="681" 
d="M264 911h-141q-8 0 -8 5t2 8l280 598v6l2 2q0 10 -8 10h-303q-12 0 -12 10v113q0 12 12 12h510q6 0 6 -5t-2 -7l-321 -741q-7 -11 -17 -11z" />
    <glyph glyph-name="eight.superior" unicode="&#x2078;" horiz-adv-x="681" 
d="M106 1486q0 90 64 146q64 58 170 58t171 -58t65 -145q0 -88 -80 -150q-8 -8 0 -12q114 -72 114 -181t-72 -178t-198 -69q-125 0 -198 69t-73 179t115 180q8 6 0 12q-78 59 -78 149zM252 1479q0 -39 24 -65t65 -26q40 0 66 26q25 26 25 65t-26 65t-65 27q-41 -1 -65 -27
t-24 -65zM223 1147q0 -47 34 -81t83 -34t82 34t33 81t-32 82t-83 35t-84 -35t-33 -82z" />
    <glyph glyph-name="nine.superior" unicode="&#x2079;" horiz-adv-x="681" 
d="M465 1432q0 53 -35 90t-89 37t-89 -37t-35 -90q0 -52 35 -90t90 -38t89 38q34 37 34 90zM319 1180q0 4 -8 4q-106 0 -175 72q-68 72 -68 178q0 108 76 182t196 74q121 0 198 -75q76 -75 76 -168t-20 -130t-30 -52t-35 -47q-26 -32 -41 -52t-55 -65q-40 -46 -64 -77
l-84 -102q-8 -10 -23 -11h-151l-5 2q1 3 5 7l206 254q2 2 2 6z" />
    <glyph glyph-name="uni207A" unicode="&#x207a;" horiz-adv-x="681" 
d="M406 1364q0 -14 3 -17t17 -4h207q14 0 17 -4t3 -16v-84q0 -12 -3 -16t-17 -4h-207q-14 1 -17 -3t-3 -18v-219q0 -12 -4 -16t-17 -5h-90q-14 0 -17 4t-4 17v219q0 14 -3 17t-17 4h-207q-14 0 -17 4t-3 16v84q0 12 3 16t17 4h207q14 -1 17 3t3 18v219q0 12 4 16t17 5h90
q14 0 17 -4t4 -17v-219z" />
    <glyph glyph-name="uni207B" unicode="&#x207b;" horiz-adv-x="681" 
d="M47 1343h586q14 0 17 -4t3 -16v-84q0 -12 -3 -16t-17 -4h-586q-14 0 -17 4t-3 16v84q0 12 3 16t17 4z" />
    <glyph glyph-name="uni207C" unicode="&#x207c;" horiz-adv-x="681" 
d="M47 1487h586q14 0 17 -4t3 -17v-84q0 -12 -3 -16t-17 -4h-586q-14 0 -17 4t-3 16v84q0 12 3 16t17 5zM47 1200h586q14 0 17 -4t3 -16v-84q0 -12 -3 -16t-17 -5h-586q-14 0 -17 4t-3 17v84q0 12 3 16t17 4z" />
    <glyph glyph-name="uni207D" unicode="&#x207d;" horiz-adv-x="681" 
d="M207 1278q0 305 160 584q2 14 10 14t10 -2l76 -37q10 -4 10 -11t-2 -9q-143 -262 -143 -543t143 -539q2 -2 2 -9t-10 -11l-76 -35q-2 -2 -10 -2t-10 14q-160 281 -160 586z" />
    <glyph glyph-name="uni207E" unicode="&#x207e;" horiz-adv-x="681" 
d="M303 678q-8 0 -10 2l-76 35q-10 4 -10 11t2 9q143 258 143 539t-143 543q-2 2 -2 9t10 11l76 37q2 2 10 2t10 -14q160 -279 160 -584t-160 -586q-2 -14 -10 -14z" />
    <glyph glyph-name="zero.inferior" unicode="&#x2080;" horiz-adv-x="681" 
d="M463 64q0 240 -122 241q-122 0 -122 -241t121 -240q123 0 123 240zM616 63q0 -190 -72 -292q-72 -103 -203 -103q-130 0 -203 104q-72 104 -72 292q0 189 72 293q73 103 203 103q131 0 203 -103q72 -104 72 -294z" />
    <glyph glyph-name="one.inferior" unicode="&#x2081;" horiz-adv-x="681" 
d="M182 213q-6 0 -6 16v105q0 20 21 28l284 99q17 2 19 1t2 -18v-743q0 -12 -2 -15t-17 -3h-123q-12 0 -15 3t-3 15v539q0 16 -3 20t-17 0l-125 -43q-9 -4 -15 -4z" />
    <glyph glyph-name="two.inferior" unicode="&#x2082;" horiz-adv-x="681" 
d="M76 199q0 119 68 191t198 71q129 0 198 -71q68 -72 68 -198t-178 -311l-45 -45q-6 -6 -6 -11t10 -5h186q13 0 17 -3t4 -18v-96q0 -14 -3 -17t-18 -3h-495q-8 0 -8 6t2 12l237 256q70 78 105 130t35 103q0 127 -115 127q-51 -1 -80 -31t-29 -87q0 -13 -3 -17t-17 -4h-111
q-14 0 -17 4t-3 17z" />
    <glyph glyph-name="three.inferior" unicode="&#x2083;" horiz-adv-x="681" 
d="M203 221h-99q-14 0 -17 3t-3 18q4 100 73 159t179 59t178 -60q68 -62 68 -144t-68 -133q-8 -8 -8 -12t8 -11q104 -72 104 -186t-74 -180t-203 -66q-128 0 -203 67t-75 175q-1 14 3 17t18 3h104q14 0 18 -3t3 -17q0 -45 38 -76t89 -31q125 0 125 103q0 47 -32 75t-93 27
h-68q-14 0 -17 3t-3 18v92q0 14 3 17t17 3h54q109 0 108 86q0 47 -28 75t-74 28q-95 0 -105 -88q0 -14 -3 -18t-17 -3z" />
    <glyph glyph-name="four.inferior" unicode="&#x2084;" horiz-adv-x="681" 
d="M426 115q0 10 -4 10t-8 -6l-138 -178q-8 -9 -8 -15t13 -6h125q14 0 17 3t3 18v174zM31 -205q-31 0 -15 19l535 659q6 6 12 6t6 -8v-532q0 -13 3 -17t18 -4h61q13 0 17 -3t4 -17v-82q0 -14 -3 -18t-18 -3h-61q-14 0 -18 -3t-3 -17v-72q0 -14 -3 -17t-17 -3h-103
q-14 0 -17 3t-3 17v72q0 14 -3 17t-17 3h-375z" />
    <glyph glyph-name="five.inferior" unicode="&#x2085;" horiz-adv-x="681" 
d="M588 -72q0 -104 -75 -182t-201 -78t-214 88q-4 4 -4 8t6 11l93 80q0 4 6 4l6 -6q12 -17 43 -35q32 -18 76 -18t79 34q35 35 35 91t-42 89t-118 33t-131 -33q-8 -4 -13 -4t-5 8l31 416q2 12 16 12h367q12 0 12 -12v-106q0 -12 -12 -13h-252q-12 0 -15 -12l-10 -123
q0 -8 2 -10t11 -2l57 2q116 0 184 -69t68 -173z" />
    <glyph glyph-name="six.inferior" unicode="&#x2086;" horiz-adv-x="681" 
d="M219 -74q0 -53 35 -90t89 -37t89 37t35 90t-35 90t-90 37t-89 -37t-34 -90zM371 170q106 0 175 -70q68 -70 68 -176t-76 -182q-76 -74 -196 -74q-121 0 -198 75q-76 75 -76 177t56 176q28 37 44 59t68 81q51 59 83 98l87 102q8 10 22 10h152l4 -2q0 -2 -4 -6l-215 -258
q-2 -2 -3 -8q0 -2 9 -2z" />
    <glyph glyph-name="seven.inferior" unicode="&#x2087;" horiz-adv-x="681" 
d="M264 -317h-141q-8 0 -8 5t2 7l280 598v6l2 2q0 10 -8 10h-303q-12 0 -12 11v112q0 12 12 12h510q6 0 6 -5t-2 -7l-321 -741q-7 -10 -17 -10z" />
    <glyph glyph-name="eight.inferior" unicode="&#x2088;" horiz-adv-x="681" 
d="M106 257q0 89 64 146t170 57t171 -56q65 -58 65 -146t-80 -149q-8 -8 0 -13q114 -72 114 -181t-72 -178t-198 -69q-125 0 -198 69t-73 179t115 180q8 6 0 13q-78 59 -78 148zM252 250q0 -39 24 -65q24 -25 65 -25q40 0 66 26q25 26 25 64q0 40 -26 66t-65 26
q-41 0 -65 -26t-24 -66zM223 -82q0 -47 34 -81t83 -34t82 34t33 81t-32 82t-83 35t-84 -35t-33 -82z" />
    <glyph glyph-name="nine.inferior" unicode="&#x2089;" horiz-adv-x="681" 
d="M465 203q0 53 -35 90t-89 37t-89 -37t-35 -90t35 -90t90 -37t89 37t34 90zM319 -49q0 4 -8 4q-106 0 -175 72q-68 73 -68 179t76 180t196 75q121 0 198 -75q76 -75 76 -168t-20 -130t-30 -52t-35 -47q-26 -32 -41 -51q-15 -20 -55 -66t-64 -77l-84 -102q-8 -10 -23 -10
h-151l-5 2q1 2 5 6l206 254q2 2 2 6z" />
    <glyph glyph-name="uni208A" unicode="&#x208a;" horiz-adv-x="681" 
d="M406 135q0 -14 3 -17t17 -3h207q14 0 17 -4t3 -17v-84q0 -12 -3 -16t-17 -4h-207q-14 0 -17 -3t-3 -18v-219q0 -12 -4 -16t-17 -4h-90q-14 0 -17 4t-4 16v219q0 13 -3 17t-17 4h-207q-14 0 -17 4t-3 16v84q0 12 3 16t17 5h207q14 0 17 3t3 17v219q0 12 4 16t17 5h90
q14 0 17 -4t4 -17v-219z" />
    <glyph glyph-name="uni208B" unicode="&#x208b;" horiz-adv-x="681" 
d="M47 115h586q14 0 17 -4t3 -17v-84q0 -12 -3 -16t-17 -4h-586q-14 0 -17 4t-3 16v84q0 12 3 16t17 5z" />
    <glyph glyph-name="uni208C" unicode="&#x208c;" horiz-adv-x="681" 
d="M47 258h586q14 0 17 -4t3 -16v-84q0 -12 -3 -16t-17 -5h-586q-14 0 -17 4t-3 17v84q0 12 3 16t17 4zM47 -29h586q14 0 17 -4t3 -16v-84q0 -13 -3 -17t-17 -4h-586q-14 0 -17 4t-3 17v84q0 12 3 16t17 4z" />
    <glyph glyph-name="uni208D" unicode="&#x208d;" horiz-adv-x="681" 
d="M207 49q0 305 160 584q2 14 10 14t10 -2l76 -37q10 -4 10 -11t-2 -9q-143 -262 -143 -543t143 -539q2 -2 2 -9t-10 -11l-76 -35q-2 -2 -10 -2t-10 14q-160 281 -160 586z" />
    <glyph glyph-name="uni208E" unicode="&#x208e;" horiz-adv-x="681" 
d="M303 -551q-8 0 -10 2l-76 35q-10 4 -10 11t2 9q143 258 143 539t-143 543q-2 2 -2 9t10 11l76 37q2 2 10 2t10 -14q160 -279 160 -584t-160 -586q-2 -14 -10 -14z" />
    <glyph glyph-name="uni2090" unicode="&#x2090;" horiz-adv-x="749" 
d="M205 -27q0 -78 50 -129t124 -51t125 51t51 129t-51 129q-51 52 -125 52t-124 -52t-50 -129zM590 264h92q14 0 17 -4t3 -18v-539q0 -12 -3 -16t-17 -4h-92q-14 0 -18 4q-3 4 -3 16v53q0 4 -9 4t-11 -2q-63 -90 -195 -90t-213 85q-82 85 -82 220t82 221t213 85
q131 0 195 -91q2 -2 11 -2t9 4v54q0 12 3 16q4 4 18 4z" />
    <glyph glyph-name="uni2091" unicode="&#x2091;" horiz-adv-x="749" 
d="M292 -180q54 -31 130 -31t152 33q26 10 31 10t5 -20v-91q0 -20 -16 -24q-94 -29 -191 -29q-157 0 -241 83t-84 220t83 223t221 85q138 0 214 -84t76 -220v-36q0 -13 -3 -17t-18 -4h-403q-14 0 -18 -3t-5 -15q13 -49 67 -80zM217 39q0 -14 3 -17t18 -4h266q23 0 20 27
q-4 55 -46 84t-104 29t-110 -34t-47 -85z" />
    <glyph glyph-name="uni2092" unicode="&#x2092;" horiz-adv-x="749" 
d="M375 -332q-141 0 -232 85q-90 85 -90 220t90 221q91 86 231 85q140 0 231 -86q91 -87 91 -221t-90 -219t-231 -85zM375 152q-78 0 -126 -48t-48 -130q0 -81 48 -131t126 -50t126 50t48 131q0 82 -48 130t-126 48z" />
    <glyph glyph-name="uni2093" unicode="&#x2093;" horiz-adv-x="749" 
d="M203 -317h-123q-18 0 -19 6q0 4 7 14l192 274q4 5 4 9t-4 8l-192 250q-8 10 -9 16q0 4 19 4h129q18 0 33 -20l118 -164q4 -4 8 -4t9 4l110 164q12 20 29 20h131q18 0 19 -4q0 -8 -5 -16l-188 -250q-4 -4 -4 -8t4 -9l211 -274l8 -14q0 -6 -18 -6h-133q-18 0 -33 20
l-131 184q-4 4 -8 4t-9 -4l-122 -184q-18 -20 -33 -20z" />
    <glyph glyph-name="uni2094" unicode="&#x2094;" horiz-adv-x="749" 
d="M358 158q-68 0 -111 -12q-44 -12 -71 -21q-27 -10 -32 -10t-5 20v86q0 18 17 25q88 33 223 33q135 -1 214 -89t79 -233t-82 -217t-221 -72t-215 86t-76 203v33q0 14 3 17t17 3h400q17 0 19 4q3 4 3 15q0 59 -47 94t-115 35zM526 -106q0 14 -3 17t-17 3h-260
q-23 0 -19 -36t44 -64t103 -29q64 0 108 30t44 79z" />
    <glyph glyph-name="Euro" unicode="&#x20ac;" horiz-adv-x="1153" 
d="M426 655q0 -14 3 -17t17 -3h336q14 0 18 -4t3 -17v-98q0 -12 -3 -16t-18 -4h-325q-20 0 -21 -15q4 -153 93 -241t231 -88q180 0 307 127q4 4 11 4t7 -15v-186q0 -10 -16 -21q-88 -43 -151 -62t-158 -19q-225 0 -366 142q-140 142 -156 370q-4 4 -17 4h-119q-14 0 -17 4
t-3 16v98q0 12 3 16t17 5h103q14 0 17 3t3 17v103q0 14 -3 17t-17 3h-103q-14 0 -17 4t-3 17v98q0 12 3 16t17 5h113q23 0 23 16q14 232 153 376t369 144q145 0 309 -82q16 -10 16 -20v-187q0 -14 -7 -14t-11 4q-127 127 -293 127t-251 -96t-89 -258q0 -10 21 -10h327
q14 0 18 -4t3 -17v-98q0 -13 -3 -17t-18 -4h-336q-14 0 -17 -3t-3 -17v-103z" />
    <glyph glyph-name="trademark" unicode="&#x2122;" horiz-adv-x="1708" 
d="M1268 899q-6 0 -17 10l-178 178q-6 7 -18 7t-13 -13v-385q0 -14 -3 -17t-17 -3h-109q-14 0 -17 3t-3 17v746q0 14 7 14t18 -10l337 -338q7 -8 13 -8t12 8l338 338q10 10 17 10t7 -14v-746q0 -14 -3 -17t-17 -3h-109q-14 0 -17 3t-3 17v385q0 13 -12 13t-19 -7l-178 -178
q-10 -10 -16 -10zM66 1413q0 13 3 17t17 4h614q14 0 18 -3t3 -18v-98q0 -13 -3 -17t-18 -4h-211q-14 0 -17 -3t-3 -17v-578q0 -14 -3 -17t-17 -3h-111q-14 0 -17 3t-4 17v578q0 14 -3 17t-17 3h-211q-14 0 -17 3t-3 18v98z" />
    <glyph glyph-name="onethird" unicode="&#x2153;" horiz-adv-x="1464" 
d="M946 555h-98q-14 0 -18 3q-3 3 -3 17q4 99 73 159q70 60 180 60t178 -60q68 -62 67 -144q0 -82 -68 -133q-8 -9 -8 -13t8 -10q105 -72 105 -186t-75 -180t-203 -66t-202 67t-75 175q0 14 3 17t17 3h105q14 0 17 -3t3 -17q0 -45 38 -76t89 -31q125 0 125 103q0 46 -32 74
t-93 28h-67q-14 0 -18 3q-3 3 -3 17v93q0 14 3 17t18 3h53q109 0 109 86q0 47 -28 75t-75 28q-94 -1 -104 -89q0 -14 -3 -17t-18 -3zM88 1217q-6 0 -6 16v104q0 20 20 29l285 98q17 2 19 1t2 -17v-743q0 -11 -2 -15t-17 -4h-123q-12 0 -15 3t-3 16v538q0 17 -3 21t-18 0
l-125 -43q-8 -4 -14 -4zM186 51l811 1405q8 16 27 6l88 -51q16 -10 8 -29l-811 -1405q-8 -16 -26 -6l-88 52q-17 10 -9 28z" />
    <glyph glyph-name="twothirds" unicode="&#x2154;" horiz-adv-x="1622" 
d="M344 51l811 1405q8 16 27 6l88 -51q16 -10 8 -29l-811 -1405q-8 -16 -27 -6l-88 52q-16 10 -8 28zM106 1202q0 119 69 191q69 71 198 71t197 -70t69 -198q0 -127 -178 -311l-45 -45q-6 -6 -6 -12t10 -5h186q14 0 18 -3t3 -17v-96q0 -13 -3 -17t-18 -4h-495q-19 0 -2 23
l233 252q70 78 104 130q35 52 35 103q0 127 -114 127q-51 0 -80 -31t-29 -88q0 -14 -3 -17t-17 -3h-111q-13 0 -17 3t-4 17zM1104 555h-98q-14 0 -18 3q-3 3 -3 17q4 99 73 159q70 60 180 60t178 -60q68 -62 67 -144q0 -82 -68 -133q-8 -9 -8 -13t8 -10q105 -72 105 -186
t-75 -180t-203 -66t-203 67t-74 175q0 14 3 17t17 3h105q14 0 17 -3t3 -17q0 -45 38 -76t89 -31q125 0 125 103q0 46 -32 74t-93 28h-68q-14 0 -17 3t-3 17v93q0 14 3 17t17 3h54q109 0 108 86q0 47 -27 75q-28 28 -75 28q-95 -1 -105 -89q0 -14 -3 -17t-17 -3z" />
    <glyph glyph-name="uni2155" unicode="&#x2155;" horiz-adv-x="1386" 
d="M88 1217q-6 0 -6 16v104q0 20 20 29l285 98q17 2 19 1t2 -17v-743q0 -11 -2 -15t-17 -4h-123q-12 0 -15 3t-3 16v538q0 17 -3 21t-18 0l-125 -43q-8 -4 -14 -4zM186 51l811 1405q8 16 27 6l88 -51q16 -10 8 -29l-811 -1405q-8 -16 -26 -6l-88 52q-17 10 -9 28zM1135 259
q0 56 -42 89t-119 33t-130 -33q-8 -4 -14 -4t-5 8l31 416q2 12 16 12h367q12 0 12 -12v-106q0 -12 -12 -13h-252q-12 0 -14 -12l-10 -123q0 -8 2 -10t10 -2l57 2q116 0 184 -69t68 -173t-75 -182t-201 -78t-213 88q-4 4 -4 8t6 11l92 79q0 4 6 5q50 -58 110 -59t95 34t35 91
z" />
    <glyph glyph-name="uni2156" unicode="&#x2156;" horiz-adv-x="1544" 
d="M1292 259q0 56 -42 89t-118 33t-131 -33q-8 -4 -13 -4t-5 8l31 416q2 12 16 12h367q12 0 12 -12v-106q0 -12 -12 -13h-252q-12 0 -15 -12l-10 -123q0 -8 2 -10t11 -2l57 2q116 0 184 -69t68 -173t-75 -182t-201 -78t-214 88q-4 4 -4 8t6 11l93 79q0 4 6 5q50 -58 109 -59
q60 -1 95 34t35 91zM106 1202q0 119 69 191q69 71 198 71t197 -70t69 -198q0 -127 -178 -311l-45 -45q-6 -6 -6 -12t10 -5h186q14 0 18 -3t3 -17v-96q0 -13 -3 -17t-18 -4h-495q-19 0 -2 23l233 252q70 78 104 130q35 52 35 103q0 127 -114 127q-51 0 -80 -31t-29 -88
q0 -14 -3 -17t-17 -3h-111q-13 0 -17 3t-4 17zM324 51l811 1405q8 16 26 6l88 -51q16 -10 8 -29l-811 -1405q-8 -16 -26 -6l-88 52q-16 10 -8 28z" />
    <glyph glyph-name="uni2157" unicode="&#x2157;" horiz-adv-x="1568" 
d="M242 1225h-99q-14 0 -17 3t-3 17q4 99 73 159q70 60 180 60t178 -61t67 -143q0 -82 -68 -134q-8 -8 -8 -12t8 -10q104 -72 104 -186q-1 -114 -75 -180t-202 -66t-203 66t-75 175q0 13 3 17t18 4h104q13 0 17 -3t4 -18q0 -45 38 -75t89 -31q125 0 125 102q0 47 -32 75
t-93 28h-68q-14 0 -17 3t-3 17v92q0 14 3 18t17 3h53q109 0 109 86q0 47 -28 75t-74 27q-95 0 -105 -88q0 -14 -3 -17t-17 -3zM348 51l811 1405q8 16 27 6l88 -51q16 -10 8 -29l-811 -1405q-8 -16 -27 -6l-88 52q-16 10 -8 28zM1317 259q0 56 -42 89t-119 33t-130 -33
q-8 -4 -13 -4t-5 8l30 416q2 12 17 12h366q12 0 13 -12v-106q0 -12 -13 -13h-252q-12 0 -14 -12l-10 -123q0 -8 2 -10t10 -2l57 2q115 0 184 -69q68 -69 68 -173t-74 -182t-201 -78q-126 0 -214 88q-4 4 -4 8t6 11l92 79q0 4 6 5q50 -58 110 -59t95 34t35 91z" />
    <glyph glyph-name="uni2158" unicode="&#x2158;" horiz-adv-x="1525" 
d="M1274 259q0 56 -42 89t-119 33t-130 -33q-8 -4 -13 -4t-5 8l30 416q2 12 17 12h366q12 0 13 -12v-106q0 -12 -13 -13h-252q-12 0 -14 -12l-10 -123q0 -8 2 -10t10 -2l57 2q115 0 184 -69t69 -173t-76 -182q-74 -78 -200 -78t-214 88q-4 4 -4 8t6 11l92 79q0 4 6 5
q50 -58 110 -59t95 34t35 91zM305 51l811 1405q8 16 27 6l88 -51q16 -10 8 -29l-811 -1405q-8 -16 -27 -6l-88 52q-16 10 -8 28zM395 1118q0 10 -5 10t-7 -6l-137 -178q-8 -10 -8 -15t12 -5h125q14 0 17 3t3 17v174zM0 799q-29 0 -14 18l534 660q6 6 12 6t7 -8v-533
q0 -14 3 -17t17 -3h62q14 0 17 -3t3 -18v-82q0 -14 -3 -17t-17 -3h-62q-14 0 -17 -3t-3 -18v-71q0 -13 -3 -17t-18 -4h-102q-14 0 -18 3q-3 3 -3 18v71q0 14 -3 18t-17 3h-375z" />
    <glyph glyph-name="uni2159" unicode="&#x2159;" horiz-adv-x="1411" 
d="M129 1217q-6 0 -6 16v104q0 20 20 29l285 98q16 2 18 1t3 -17v-743q-1 -11 -3 -15t-16 -4h-123q-12 0 -15 3t-3 16v538q0 17 -3 21t-18 0l-125 -43q-8 -4 -14 -4zM227 51l811 1405q8 16 27 6l88 -51q16 -10 8 -29l-811 -1405q-8 -16 -26 -6l-88 52q-17 10 -9 28zM913 260
q0 -53 35 -90t89 -37t89 37t35 90t-35 90t-90 37t-89 -37t-34 -90zM1057 508q0 -4 8 -4q106 0 175 -70t69 -176t-76 -182q-76 -74 -197 -74q-122 0 -198 75t-76 177t56 176q28 36 44 58t68 81q51 59 84 99l86 102q8 10 22 10h152l4 -2q0 -2 -4 -6l-215 -258q-2 -2 -2 -6z
" />
    <glyph glyph-name="uni215A" unicode="&#x215a;" horiz-adv-x="1468" 
d="M971 260q0 -53 35 -90t89 -37t89 37t35 90t-35 90t-90 37t-89 -37t-34 -90zM1114 508q0 -4 8 -4q106 0 175 -70t69 -176t-76 -182q-76 -74 -196 -74t-198 75q-77 75 -77 176t57 177q28 36 44 58t67 81t84 99l86 102q8 10 23 10h151l4 -2q0 -2 -4 -6l-215 -258
q-2 -2 -2 -6zM285 51l811 1405q8 16 26 6l88 -51q16 -10 9 -29l-811 -1405q-8 -16 -27 -6l-88 52q-16 10 -8 28zM596 932q0 -104 -75 -182t-201 -78t-214 88q-4 4 -4 8t7 10l92 80q0 4 6 4l6 -6q12 -18 43 -36t76 -17q45 0 80 35q34 35 34 91t-42 89t-118 33t-130 -33
q-8 -4 -14 -4t-5 8l31 416q2 12 16 12h367q12 0 12 -12v-107q0 -12 -12 -12h-252q-12 0 -14 -12l-11 -123q0 -8 2 -10q4 -4 68 0q116 0 184 -69t68 -173z" />
    <glyph glyph-name="oneeighth" unicode="&#x215b;" horiz-adv-x="1454" 
d="M88 1217q-6 0 -6 16v104q0 20 20 29l285 98q17 2 19 1t2 -17v-743q0 -11 -2 -15t-17 -4h-123q-12 0 -15 3t-3 16v538q0 17 -3 21t-18 0l-125 -43q-8 -4 -14 -4zM186 51l811 1405q8 16 27 6l88 -51q16 -10 8 -29l-811 -1405q-8 -16 -26 -6l-88 52q-17 10 -9 28zM848 590
q0 90 63 147t169 57t172 -56q65 -58 65 -146t-80 -150q-8 -8 0 -12q115 -72 115 -181t-73 -178t-198 -69t-197 69t-73 179q0 110 115 180q8 6 0 12q-78 58 -78 148zM1174 584q0 40 -26 66t-66 26t-64 -26t-25 -66q0 -39 25 -65q24 -25 64 -25t66 26t26 64zM1081 369
q-51 0 -83 -35t-33 -82t33 -81t83 -34t82 34t33 81t-32 82t-83 35z" />
    <glyph glyph-name="threeeighths" unicode="&#x215c;" horiz-adv-x="1615" 
d="M242 1225h-99q-14 0 -17 3t-3 17q4 99 73 159q70 60 180 60t178 -61t67 -143q0 -82 -68 -134q-8 -8 -8 -12t8 -10q104 -72 104 -186q-1 -114 -75 -180t-202 -66t-203 66t-75 175q0 13 3 17t18 4h104q13 0 17 -3t4 -18q0 -45 38 -75t89 -31q125 0 125 102q0 47 -32 75
t-93 28h-68q-14 0 -17 3t-3 17v92q0 14 3 18t17 3h53q109 0 109 86q0 47 -28 75t-74 27q-95 0 -105 -88q0 -14 -3 -17t-17 -3zM348 51l811 1405q8 16 27 6l88 -51q16 -10 8 -29l-811 -1405q-8 -16 -27 -6l-88 52q-16 10 -8 28zM1479 592q0 -88 -80 -150q-8 -8 0 -12
q115 -72 115 -181t-74 -178q-72 -69 -197 -69t-197 69t-74 179q0 110 115 180q8 6 0 12q-77 58 -77 148t63 147t169 57t172 -56q65 -58 65 -146zM1244 676q-40 0 -64 -26t-25 -66q0 -39 25 -65q24 -25 64 -25t66 26t26 64q0 40 -26 66t-66 26zM1126 252q0 -47 34 -81t83 -34
t82 34t33 81t-32 82t-83 35t-84 -35t-33 -82z" />
    <glyph glyph-name="fiveeighths" unicode="&#x215d;" horiz-adv-x="1552" 
d="M596 932q0 -104 -75 -182t-201 -78t-214 88q-4 4 -4 8t7 10l92 80q0 4 6 4l6 -6q12 -18 43 -36t76 -17q45 0 80 35q34 35 34 91t-42 89t-118 33t-130 -33q-8 -4 -14 -4t-5 8l31 416q2 12 16 12h367q12 0 12 -12v-107q0 -12 -12 -12h-252q-12 0 -14 -12l-11 -123
q0 -8 2 -10q4 -4 68 0q116 0 184 -69t68 -173zM946 590q0 90 64 147t170 57t171 -56q65 -58 65 -146t-81 -150q-8 -8 0 -12q115 -72 115 -181t-73 -178t-197 -69t-198 69q-73 69 -73 179t115 180q8 6 0 12q-78 58 -78 148zM1092 584q0 -39 24 -65q24 -25 65 -25q39 0 65 26
t26 64q0 40 -26 66t-66 26t-64 -26t-24 -66zM1063 252q0 -47 34 -81t83 -34t82 34q32 34 32 81t-31 82q-32 35 -83 35t-84 -35t-33 -82zM285 51l811 1405q8 16 26 6l88 -51q16 -10 9 -29l-811 -1405q-8 -16 -27 -6l-88 52q-16 10 -8 28z" />
    <glyph glyph-name="seveneighths" unicode="&#x215e;" horiz-adv-x="1433" 
d="M827 590q-1 90 63 147t170 57t172 -56q64 -58 64 -146t-79 -150q-8 -8 0 -12q115 -72 115 -181t-74 -178t-198 -69t-197 69t-73 179t115 180q8 6 0 12q-78 58 -78 148zM973 584q1 -39 25 -65q24 -25 64 -25t66 26t25 64q0 40 -26 66q-25 26 -65 26t-64 -26t-25 -66z
M944 252q0 -47 34 -81t83 -34t82 34t33 81t-32 82t-83 35t-84 -35t-33 -82zM166 51l811 1405q8 16 27 6l88 -51q16 -10 8 -29l-811 -1405q-8 -16 -27 -6l-88 52q-16 10 -8 28zM270 686h-141q-8 0 -8 5t2 7l280 598q0 2 3 7v2q0 10 -9 10h-303q-12 0 -12 10v113q0 12 12 12
h510q6 0 6 -5t-2 -7l-321 -742q-5 -10 -17 -10z" />
    <glyph glyph-name="uni215F" unicode="&#x215f;" horiz-adv-x="1449" 
d="M88 1217q-6 0 -6 16v104q0 20 20 29l285 98q17 2 19 1t2 -17v-743q0 -11 -2 -15t-17 -4h-123q-12 0 -15 3t-3 16v538q0 17 -3 21t-18 0l-125 -43q-8 -4 -14 -4zM186 51l811 1405q8 16 27 6l88 -51q16 -10 8 -29l-811 -1405q-8 -16 -26 -6l-88 52q-17 10 -9 28z" />
    <glyph glyph-name="arrowleft" unicode="&#x2190;" horiz-adv-x="1167" 
d="M127 518q0 4 10 14l789 492q16 12 22 12t6 -12v-1012q0 -12 -6 -12q-10 4 -22 12l-789 492q-10 10 -10 14z" />
    <glyph glyph-name="arrowup" unicode="&#x2191;" horiz-adv-x="1167" 
d="M584 932q4 0 14 -10l492 -789q12 -14 12 -21t-12 -8h-1012q-12 0 -12 7q4 10 12 22l491 789q11 10 15 10z" />
    <glyph glyph-name="arrowright" unicode="&#x2192;" horiz-adv-x="1167" 
d="M209 12v1012q0 12 7 12t22 -12l788 -492q10 -10 10 -14t-10 -14l-788 -492l-23 -12q-6 0 -6 12z" />
    <glyph glyph-name="arrowdown" unicode="&#x2193;" horiz-adv-x="1167" 
d="M66 924q0 8 12 8h1012q12 0 12 -6q-4 -11 -12 -23l-492 -788q-10 -11 -14 -11t-15 11l-491 788q-12 13 -12 21z" />
    <glyph glyph-name="minus" unicode="&#x2212;" 
d="M932 561q14 0 17 -4t3 -16v-111q0 -12 -3 -16t-17 -4h-840q-14 0 -17 4t-3 16v111q0 12 3 16t17 4h840z" />
    <glyph glyph-name="filledbox" unicode="&#x25a0;" horiz-adv-x="1658" 
d="M168 0q-14 0 -17 3t-4 17v1393q-1 13 3 17t18 4h1323q14 0 17 -3t3 -18v-1393q0 -14 -3 -17t-17 -3h-1323z" />
    <glyph glyph-name="H22073" unicode="&#x25a1;" horiz-adv-x="1658" 
d="M264 94h1131q10 0 13 3t3 14v1212q0 10 -3 13t-13 3h-1131q-10 0 -13 -3t-3 -13v-1212q0 -17 16 -17zM168 0q-14 0 -17 3t-4 17v1393q-1 13 3 17t18 4h1323q14 0 17 -3t3 -18v-1393q0 -14 -3 -17t-17 -3h-1323z" />
    <glyph glyph-name="uni25FB" unicode="&#x25fb;" horiz-adv-x="1167" 
d="M920 784q0 17 -17 17h-639q-10 0 -13 -3t-3 -14v-673q0 -17 16 -17h639q10 0 13 3t4 14v673zM168 0q-14 0 -17 3t-4 17v854q-1 14 3 18t18 3h831q13 0 17 -3t4 -18v-854q0 -14 -3 -17t-18 -3h-831z" />
    <glyph glyph-name="uni25FC" unicode="&#x25fc;" horiz-adv-x="1167" 
d="M168 0q-14 0 -17 3t-4 17v854q-1 14 3 18t18 3h831q13 0 17 -3t4 -18v-854q0 -14 -3 -17t-18 -3h-831z" />
    <glyph glyph-name="uni261C" unicode="&#x261c;" horiz-adv-x="2510" 
d="M1927 812q-1 32 19 48t75 21l301 28q40 0 56 -18t22 -74q66 -616 66 -648t-20 -47t-74 -22l-301 -28q-41 0 -57 18q-15 19 -21 74q-66 616 -66 648zM893 109q-53 1 -88 33t-35 73q0 70 53 92l-2 8h-35q-53 0 -88 31t-34 72v41q0 76 55 94l-2 8h-35q-53 0 -84 30t-31 73
v41q0 66 72 94l-2 8h-469q-53 0 -88 31t-35 71v25q0 45 35 74t88 28h864q238 0 455 -77t334 -150q18 -13 18 -31l33 -516q0 -18 -14 -24q-183 -64 -342 -97q-158 -33 -246 -32h-377z" />
    <glyph glyph-name="uni261E" unicode="&#x261e;" horiz-adv-x="2510" 
d="M518 164q-6 -56 -21 -74t-57 -18l-301 28q-55 6 -74 22t-19 47q0 32 65 648q6 55 21 73t56 19l301 -28q55 -5 75 -21t20 -48t-66 -648zM1479 1036h864q53 0 88 -28t35 -74v-25q0 -41 -35 -71t-88 -31h-469l-2 -8q72 -29 72 -94v-41q0 -43 -31 -73t-84 -30h-35l-2 -8
q55 -18 55 -94v-41q0 -41 -35 -72t-88 -31h-34l-2 -8q53 -23 53 -92q0 -41 -35 -74t-88 -32h-377q-88 0 -257 35t-331 94q-14 6 -14 24l33 516q0 18 18 31q117 75 334 151t455 76z" />
    <glyph glyph-name="commaaccent" unicode="&#xe02c;" 
d="M563 -135q20 0 19 -21l-93 -313q-8 -20 -26 -20h-78q-14 0 -14 16v4l30 313q2 20 23 21h139z" />
    </font>
</defs>
</svg>
