<?xml version="1.0" standalone="no"?>
<!DOCTYPE svg PUBLIC "-//W3C//DTD SVG 1.1//EN" "http://www.w3.org/Graphics/SVG/1.1/DTD/svg11.dtd" >
<svg xmlns="http://www.w3.org/2000/svg">
<metadata>
Created by FontPrep 20130207 at Sun Aug  3 20:30:33 2014
 By Lucas Dino Nolte
(c) 2000, 2001 Adobe Systems Incorporated. All Rights Reserved.
</metadata>
<defs>
<font id="0956a2a00d489b0636498748d7bd9cc3" horiz-adv-x='1024' >
  <font-face 
    font-family="ACaslonPro-Italic"
    font-weight="400"
    font-style="italic"
    font-stretch="normal"
    units-per-em="2048"
    panose-1="2 5 5 2 5 5 11 9 10 3"
    ascent="1505"
    descent="-543"
    x-height="852"
    cap-height="1378"
    bbox="-461 -1434 3074.62 2052"
    underline-thickness="102"
    underline-position="-102"
    slope="-22"
    unicode-range="U+0020-FB06"
  />
<missing-glyph 
d="M102 1239v-1044l349 522zM164 102h696l-348 523zM573 717l349 -522v1044zM512 809l348 522h-696zM0 0v1434h1024v-1434h-1024z" />
    <glyph glyph-name="T_h" unicode="Th" horiz-adv-x="1966" 
d="M371 70q88 0 129 44t80 167l327 1026h-53q-238 0 -369 -41q-57 -47 -118 -121t-91 -121q-8 -12 -26 -6l-27 12q-12 6 0 30t80 172t73 164t12 15q7 0 16 -3q104 -35 321 -36h731q105 0 176 20q72 20 82 19q25 0 25 -53q0 -14 -19 -62l-321 -753l10 -8q101 143 197 230
t209 87q69 0 105 -49t36 -123q0 -213 -141 -475q-66 -123 -146 -197t-162 -74q-43 0 -73 27t-31 63t21 68t52 31t49 -19t23 -43q4 -41 35 -41t74 74t78 164q82 213 82 371q0 115 -62 114q-49 0 -127 -60q-78 -61 -126 -115t-108 -128t-118 -217l-86 -209q-4 -14 -29 -14h-88
q-8 0 -12 4t-2 6l469 1161q27 66 -4 84q-33 23 -177 37t-225 15h-43l-338 -1061q-33 -98 -15 -137t103 -39h80q18 0 15 -21l-9 -39q-4 -16 -26 -16l-307 6l-279 -6q-18 0 -16 20l6 39q4 16 22 17h56z" />
    <glyph glyph-name="T_h.caron" unicode="&#x164;h" horiz-adv-x="1966" 
d="M1063 1663l244 127q10 4 14 -4l14 -23q4 -4 -4 -12l-284 -246q-16 -12 -27 4l-146 246q-6 10 5 17l20 18q8 6 23 -4zM371 70q88 0 129 44t80 167l327 1026h-53q-238 0 -369 -41q-57 -47 -118 -121t-91 -121q-8 -12 -26 -6l-27 12q-12 6 0 30t80 172t73 164t12 15
q7 0 16 -3q104 -35 321 -36h731q105 0 176 20q72 20 82 19q25 0 25 -53q0 -14 -19 -62l-321 -753l10 -8q101 143 197 230t209 87q69 0 105 -49t36 -123q0 -213 -141 -475q-66 -123 -146 -197t-162 -74q-43 0 -73 27t-31 63t21 68t52 31t49 -19t23 -43q4 -41 35 -41t74 74
t78 164q82 213 82 371q0 115 -62 114q-49 0 -127 -60q-78 -61 -126 -115t-108 -128t-118 -217l-86 -209q-4 -14 -29 -14h-88q-8 0 -12 4t-2 6l469 1161q27 66 -4 84q-33 23 -177 37t-225 15h-43l-338 -1061q-33 -98 -15 -137t103 -39h80q18 0 15 -21l-9 -39q-4 -16 -26 -16
l-307 6l-279 -6q-18 0 -16 20l6 39q4 16 22 17h56z" />
    <glyph glyph-name="T_h.caronswash" unicode="&#xe056;h" horiz-adv-x="1955" 
d="M1038 1663l244 127q10 4 14 -4l15 -23q4 -4 -4 -12l-285 -246q-16 -12 -27 4l-145 246q-6 10 4 17l20 18q8 6 23 -4zM346 70q88 0 129 44t80 162l322 994q-90 22 -289 22t-296 -79t-97 -197q0 -61 20 -94q14 -18 27 -7q26 29 64 29t67 -29t29 -67t-30 -68
q-28 -28 -83 -28t-110 55q-54 55 -54 186q0 76 42 164t140 152q145 94 426 94q151 0 419 -35t380 -35t113 60q-1 25 -19 49t-18 50q0 28 17 48t54 21q70 0 70 -105q0 -66 -39 -160l-321 -753l10 -8q100 143 196 230t209 87q68 0 105 -49t37 -123q0 -213 -142 -475
q-66 -123 -146 -197t-161 -74q-43 0 -74 27t-31 63t22 68t52 31t48 -19q19 -18 24 -43q4 -41 35 -41t74 74t77 164q82 213 82 371q0 115 -61 114q-49 0 -127 -60q-78 -61 -126 -115t-108 -128t-118 -217l-86 -209q-4 -14 -29 -14h-88q-8 0 -12 4t-2 6l469 1161q21 49 28 70
q-53 -16 -110 -16q-56 0 -204 11t-196 19l-319 -1009q-33 -98 -15 -137t103 -39h80q18 0 14 -21l-8 -39q-4 -16 -27 -16l-307 6l-278 -6q-18 0 -17 20l6 39q4 16 23 17h55z" />
    <glyph glyph-name="T_h.commaaccent" unicode="&#x162;h" horiz-adv-x="1966" 
d="M422 -522q-16 0 -19 14q-2 16 19 25q41 10 84 48t42 83t-42 87q-41 43 -41 71t19 50q20 22 60 22t72 -52t34 -110q0 -58 -30 -109t-72 -78t-76 -39t-50 -12zM371 70q88 0 129 44t80 167l327 1026h-53q-238 0 -369 -41q-57 -47 -118 -121t-91 -121q-8 -12 -26 -6l-27 12
q-12 6 0 30t80 172t73 164t12 15q7 0 16 -3q104 -35 321 -36h731q105 0 176 20q72 20 82 19q25 0 25 -53q0 -14 -19 -62l-321 -753l10 -8q101 143 197 230t209 87q69 0 105 -49t36 -123q0 -213 -141 -475q-66 -123 -146 -197t-162 -74q-43 0 -73 27t-31 63t21 68t52 31
t49 -19t23 -43q4 -41 35 -41t74 74t78 164q82 213 82 371q0 115 -62 114q-49 0 -127 -60q-78 -61 -126 -115t-108 -128t-118 -217l-86 -209q-4 -14 -29 -14h-88q-8 0 -12 4t-2 6l469 1161q27 66 -4 84q-33 23 -177 37t-225 15h-43l-338 -1061q-33 -98 -15 -137t103 -39h80
q18 0 15 -21l-9 -39q-4 -16 -26 -16l-307 6l-279 -6q-18 0 -16 20l6 39q4 16 22 17h56z" />
    <glyph glyph-name="T_h.commaaccentswash" unicode="&#xe057;h" horiz-adv-x="1955" 
d="M377 -522q-16 0 -19 14q-2 16 19 25q41 10 84 48t42 83t-42 87q-41 43 -41 71t19 50t59 22t73 -52t34 -110t-30 -109t-73 -78t-75 -39q-34 -12 -50 -12zM346 70q88 0 129 44t80 162l322 994q-90 22 -289 22t-296 -79t-97 -197q0 -61 20 -94q14 -18 27 -7q26 29 64 29
t67 -29t29 -67t-30 -68q-28 -28 -83 -28t-110 55q-54 55 -54 186q0 76 42 164t140 152q145 94 426 94q151 0 419 -35t380 -35t113 60q-1 25 -19 49t-18 50q0 28 17 48t54 21q70 0 70 -105q0 -66 -39 -160l-321 -753l10 -8q100 143 196 230t209 87q68 0 105 -49t37 -123
q0 -213 -142 -475q-66 -123 -146 -197t-161 -74q-43 0 -74 27t-31 63t22 68t52 31t48 -19q19 -18 24 -43q4 -41 35 -41t74 74t77 164q82 213 82 371q0 115 -61 114q-49 0 -127 -60q-78 -61 -126 -115t-108 -128t-118 -217l-86 -209q-4 -14 -29 -14h-88q-8 0 -12 4t-2 6
l469 1161q21 49 28 70q-53 -16 -110 -16q-56 0 -204 11t-196 19l-319 -1009q-33 -98 -15 -137t103 -39h80q18 0 14 -21l-8 -39q-4 -16 -27 -16l-307 6l-278 -6q-18 0 -17 20l6 39q4 16 23 17h55z" />
    <glyph glyph-name="T_h.swash" unicode="&#xe04f;h" horiz-adv-x="1955" 
d="M346 70q88 0 129 44t80 162l322 994q-90 22 -289 22t-296 -79t-97 -197q0 -61 20 -94q14 -18 27 -7q26 29 64 29t67 -29t29 -67t-30 -68q-28 -28 -83 -28t-110 55q-54 55 -54 186q0 76 42 164t140 152q145 94 426 94q151 0 419 -35t380 -35t113 60q-1 25 -19 49t-18 50
q0 28 17 48t54 21q70 0 70 -105q0 -66 -39 -160l-321 -753l10 -8q100 143 196 230t209 87q68 0 105 -49t37 -123q0 -213 -142 -475q-66 -123 -146 -197t-161 -74q-43 0 -74 27t-31 63t22 68t52 31t48 -19q19 -18 24 -43q4 -41 35 -41t74 74t77 164q82 213 82 371
q0 115 -61 114q-49 0 -127 -60q-78 -61 -126 -115t-108 -128t-118 -217l-86 -209q-4 -14 -29 -14h-88q-8 0 -12 4t-2 6l469 1161q21 49 28 70q-53 -16 -110 -16q-56 0 -204 11t-196 19l-319 -1009q-33 -98 -15 -137t103 -39h80q18 0 14 -21l-8 -39q-4 -16 -27 -16l-307 6
l-278 -6q-18 0 -17 20l6 39q4 16 23 17h55z" />
    <glyph glyph-name="f_f_j" unicode="ffj" horiz-adv-x="1497" 
d="M641 -276q39 0 61 -27t27 -55q6 -43 66 -43q176 0 376 602l134 397q4 10 7 19t7 18t4 20q-4 66 -72 66h-274q-14 -45 -96 -318q-141 -471 -252 -679h12zM840 721h-383q-166 -590 -298 -896q-77 -179 -120 -226l4 -5q55 -10 84 -71q12 -29 44 -47t58 -19q182 0 307 287
q65 150 117 338q51 188 113 392t74 247zM1032 1184q-49 6 -76 65t-139 60q-80 0 -145 -64q-90 -84 -195 -448h383q84 250 172 387zM756 -471q-162 0 -195 78q-150 -215 -358 -215q-78 0 -131 19q-52 19 -68 35t-45 50q-25 -28 -93 -66t-136 -38t-111 36t-43 79t25 69t65 25
q40 0 64 -30t30 -64t35 -33q156 0 320 551l207 696h-179q-16 0 -14 18l8 37q6 20 25 21h180q59 178 108 277q48 99 128 179q129 129 337 129q70 0 127 -28t76 -60q39 39 119 74t175 35q94 0 148 -39t54 -83t-25 -69t-57 -24q-80 0 -90 82q-6 59 -105 59q-133 0 -218 -185
q-60 -130 -120 -347h365q109 20 115 20q20 0 20 -15q-1 -16 -21 -102t-67 -213l-158 -417q-30 -86 -140 -274q-65 -110 -161 -188t-196 -79z" />
    <glyph glyph-name="f_j" unicode="fj" horiz-adv-x="1034" 
d="M750 723h-277q-29 -68 -93 -254q-64 -187 -86 -243q-21 -56 -78 -216t-107 -268h4q39 0 61 -27t27 -55q4 -28 35 -43q31 -16 55 -16q178 0 379 602l133 397q4 10 7 20t5 13q6 12 6 24q-3 66 -71 66zM-299 -608q-72 0 -115 40t-43 81t24 65t58 27q31 -2 53 -26t27 -50
q4 -59 71 -59t124 88q56 88 97 199q40 112 125 377q84 265 208 587h-166q-14 0 -12 14l12 41q6 20 18 21h172q53 127 83 193t88 157q58 92 122 147q121 109 286 109t218 -105q10 -20 10 -48q-1 -28 -23 -53q-22 -26 -62 -26t-60 27q-20 28 -20 66t-13 51q-27 27 -97 27
t-141 -64q-125 -109 -247 -481h366q39 0 74 10t41 10q20 0 20 -19t-8 -48t-29 -106t-51 -157l-157 -417q-23 -77 -142 -274q-66 -110 -162 -188t-182 -79q-88 -1 -145 25t-82 59l-2 2q-143 -223 -338 -223z" />
    <glyph glyph-name="ff" unicode="ff" horiz-adv-x="1087" 
d="M477 797h385q88 262 180 397q-45 4 -79 46q-33 42 -57 55t-68 14q-100 0 -166 -64q-89 -79 -195 -448zM253 -543q85 0 155 69q70 68 132 218q64 150 114 330t105 362q54 182 83 285h-385q-4 -10 -37 -133t-109 -355q-77 -231 -153 -409t-119 -225l4 -5q59 -8 92 -72
t118 -65zM1583 1281q-1 -44 -25 -69t-57 -24q-80 0 -90 82q-2 20 -22 40q-21 20 -67 19q-46 0 -90 -32q-44 -31 -73 -71t-61 -117t-55 -159q-24 -82 -46 -153h193q18 0 12 -25l-10 -37q-2 -14 -23 -14h-192q-16 -49 -95 -321t-168 -500t-205 -368t-282 -140q-76 0 -134 18
t-82 36t-52 50q-25 -28 -93 -66t-136 -38t-111 36t-43 79t25 69t65 25q40 0 64 -30t30 -64t37 -33q156 0 320 551l205 696h-183q-12 0 -10 18l8 37q7 21 25 21h180q59 178 108 277q48 99 128 179q129 129 329 129q158 0 219 -88q113 109 273 109q82 0 133 -39t51 -83z" />
    <glyph glyph-name="fi" unicode="fi" horiz-adv-x="1034" 
d="M164 721q-14 0 -12 14l12 41q4 20 18 21h172q53 127 83 193t88 157q58 92 122 147q121 109 286 109t218 -105q10 -20 10 -48q-1 -28 -23 -53q-22 -26 -62 -26t-60 27q-20 28 -20 66t-13 51q-27 27 -97 27t-141 -64q-125 -109 -247 -481h366q39 0 80 11t47 11q20 0 -2 -59
l-223 -559q-37 -92 6 -92q20 -1 94 73t97 107q4 10 18 -2l27 -23q23 -17 -156 -175q-124 -109 -198 -109t-74 43q0 27 75 215l162 417q14 39 -3 53t-62 13h-277q-29 -68 -93 -254q-64 -185 -88 -247q-23 -62 -54 -150t-72 -196t-81 -180q-95 -167 -169 -224
q-104 -80 -217 -78q-72 0 -115 40t-43 81t24 65t58 27q31 -2 53 -26t27 -50q4 -59 71 -59t124 88q56 88 97 199q40 112 125 377q84 265 208 587h-166z" />
    <glyph glyph-name="fl" unicode="fl" horiz-adv-x="1038" 
d="M1040 1233q0 39 -35 70q-36 31 -126 31q-89 0 -149 -50q-60 -49 -108 -146t-137 -339h394l141 348q20 47 20 86zM-295 -608q-72 0 -113 38t-41 74t25 63q25 28 57 27q59 0 82 -65q23 -55 58 -55q63 0 121 67q102 118 239 582q33 109 45 147l144 453h-172q-18 0 -13 16
l17 43q8 16 20 17h174q63 176 117 277q53 101 151 200q122 127 306 127t282 -41q25 -12 25 -29q0 -9 -39 -95q-39 -87 -64 -146l-346 -854q-20 -47 -20 -72t21 -25t92 68t79 81t23 3l20 -17q10 -8 4 -22q-7 -14 -73 -79t-161 -131t-145 -64q-50 0 -49 34q0 41 47 146
l230 563h-383l-154 -475q-113 -354 -185 -496t-157 -231q-127 -129 -264 -129z" />
    <glyph glyph-name="ffi" unicode="ffi" horiz-adv-x="1538" 
d="M477 797h383q84 250 172 387q-49 6 -76 65t-139 60q-80 0 -145 -64q-89 -79 -195 -448zM840 721h-383q-166 -590 -298 -896q-77 -179 -120 -226l4 -5q55 -10 84 -71q12 -29 44 -47t58 -19q182 0 307 287q65 150 117 338q51 188 113 392t74 247zM162 797h180
q59 178 108 277q48 99 128 179q129 129 337 129q70 0 127 -28t76 -60q39 39 119 74t175 35q94 0 148 -39t54 -83t-25 -69t-57 -24q-80 0 -90 82q-6 59 -105 59q-133 0 -218 -185q-60 -130 -120 -347h369q39 0 80 11t47 11q20 0 -2 -59l-223 -559q-37 -92 6 -92q20 -1 94 73
t96 107q4 10 19 -2l26 -23q23 -17 -155 -175q-125 -110 -209 -109q-59 0 -60 43q0 27 76 215l162 417q14 39 -3 53t-67 13h-280q-14 -47 -91 -309t-169 -502q-92 -238 -212 -378t-300 -140q-78 0 -131 19q-52 19 -68 35t-45 50q-25 -28 -93 -66t-136 -38t-111 36t-43 79
t25 69t65 25q40 0 64 -30t30 -64t35 -33q158 0 320 551l207 696h-179q-16 0 -14 18l8 37q7 21 25 21z" />
    <glyph glyph-name="ffl" unicode="ffl" horiz-adv-x="1552" 
d="M997 797h400l141 352q46 109 -15 158q-37 29 -137 29t-162 -57q-62 -55 -113 -159t-114 -323zM477 797h383q92 299 176 383q-47 8 -77 68t-142 61q-80 0 -145 -64q-89 -79 -195 -448zM840 721h-383q-125 -427 -173 -573t-126 -324q-76 -178 -119 -225l4 -5q57 -8 84 -71
q14 -29 40 -47t52 -19q88 0 156 60q165 145 311 660t154 544zM905 1382q76 0 133 -30t80 -72q132 123 310 123t288 -39q27 -8 27 -31q0 -8 -39 -94t-64 -149l-346 -854q-20 -47 -20 -72t21 -25t93 68q70 68 78 81t23 3l20 -17q10 -8 4 -22q-14 -31 -158 -153t-220 -122
q-45 0 -45 35q0 41 47 146l229 563h-389q-176 -594 -265 -823q-89 -230 -212 -368t-312 -138q-72 0 -122 18t-68 36t-39 50q-25 -28 -93 -66t-136 -38t-111 36t-43 79t25 69t65 25q40 0 64 -30t30 -64t35 -33q158 0 320 551l207 696h-183q-16 0 -10 20l8 35q6 20 25 21h180
q59 178 108 277q48 99 128 179q129 129 327 129z" />
    <glyph glyph-name=".notdef" 
d="M102 1239v-1044l349 522zM164 102h696l-348 523zM573 717l349 -522v1044zM512 809l348 522h-696zM0 0v1434h1024v-1434h-1024z" />
    <glyph glyph-name=".null" horiz-adv-x="0" 
 />
    <glyph glyph-name="nonmarkingreturn" horiz-adv-x="681" 
 />
    <glyph glyph-name="space" unicode=" " horiz-adv-x="471" 
 />
    <glyph glyph-name="exclam" unicode="!" horiz-adv-x="552" 
d="M270 375q-33 0 -15 46q17 46 104 456q87 409 90 417q25 109 102 109q41 0 65 -28q24 -29 25 -61t-17 -74t-97 -244t-157 -400t-84 -209q-6 -12 -16 -12zM174 -20q-39 0 -72 28q-32 28 -32 75q0 48 30 81q31 33 75 33t72 -34q27 -34 27 -76t-30 -75q-31 -32 -70 -32z" />
    <glyph glyph-name="quotedbl" unicode="&#x22;" horiz-adv-x="479" 
d="M567 942l-51 16q6 23 38 188t44 197q20 59 92 60q25 -1 43 -19t19 -41t-88 -200q-89 -176 -97 -201zM322 942l-52 16q6 23 38 188t44 197q20 59 92 60q25 -1 43 -19q19 -18 19 -38t-41 -105q-41 -86 -88 -180t-55 -119z" />
    <glyph glyph-name="numbersign" unicode="#" 
d="M238 -31h-84q-14 0 -7 27l142 410h-193q-16 0 -10 16l25 72q6 14 22 14h186l103 299h-195q-16 0 -22 3t-4 11l24 76q2 12 23 12h198l136 394q6 18 20 18h82q14 0 4 -29l-131 -383h199l131 385q10 27 24 27h78q14 0 6 -27l-131 -385h191q20 0 16 -12l-24 -76
q-4 -14 -29 -14h-182l-103 -299h209q12 0 16 -4t3 -12l-25 -78q-2 -8 -27 -8h-204l-142 -414q-6 -23 -20 -23h-84q-10 0 -4 21l143 416h-201l-139 -406q-10 -31 -20 -31zM627 508l102 299h-201l-102 -299h201z" />
    <glyph glyph-name="dollar" unicode="$" 
d="M680 489l-88 -362q68 17 110 71t44 136q0 82 -66 155zM543 827l86 359q-68 -14 -107 -68q-38 -54 -38 -136q0 -83 59 -155zM672 707l108 458q-37 23 -90 25l-100 -412q74 -67 82 -71zM549 621l-119 -484q41 -20 96 -20l105 426q-8 8 -34 32t-48 46zM356 959q0 89 78 183
t209 107l41 160q4 16 16 14l37 -6q10 -6 4 -24l-36 -144q43 -2 92 -20l41 170q4 14 18 12l33 -6q12 -2 6 -25l-43 -178q14 -6 40 -21q25 -16 34 -16q25 0 37 56q2 10 12 10h18q10 0 6 -19l-51 -317q-2 -12 -10 -12h-29q-10 0 -10 18q4 133 -65 221l-111 -458
q141 -132 141 -276t-83 -229t-206 -100l-47 -194q-6 -25 -20 -19l-33 11q-12 2 -6 28l43 172q-59 4 -98 15l-54 -213q-4 -12 -16 -11l-35 9q-12 4 -6 24l53 215q-39 18 -81 58q-43 40 -54 41q-33 0 -67 -74q-6 -10 -15 -8l-16 8q-10 4 -4 18l129 365q6 18 16 14l23 -6
q14 -6 8 -25q-51 -209 80 -313l125 498q-72 72 -108 135t-36 152z" />
    <glyph glyph-name="percent" unicode="%" horiz-adv-x="1433" 
d="M1024 41q82 0 157 102q75 103 113 233t39 210q0 80 -29 112q-30 33 -73 33q-74 0 -147 -97q-74 -97 -114 -222t-40 -207t30 -123t64 -41zM1032 -14q-104 0 -160 66q-55 68 -55 186t54 246q55 128 155 218t206 90t160 -60q54 -62 54 -163q0 -211 -125 -397t-289 -186z
M336 13q0 9 8 24l836 1276q6 8 12 8t14 -4l45 -29q16 -4 2 -24l-839 -1280q-14 -24 -33 -9l-39 27q-6 2 -6 11zM371 514q-104 0 -160 67q-55 67 -55 185t54 247q54 128 154 218t208 90q106 0 159 -61t53 -162q0 -212 -124 -398t-289 -186zM362 569q82 1 157 103t114 232
t39 210t-30 113t-73 33q-75 0 -147 -98t-113 -222q-41 -125 -41 -207t30 -123t64 -41z" />
    <glyph glyph-name="ampersand" unicode="&#x26;" horiz-adv-x="1744" 
d="M1786 1147q0 55 -37 99t-80 44q-33 0 -22 -45q4 -27 -18 -57q-23 -30 -67 -29q-44 0 -66 24t-21 50q0 61 47 94t108 33q100 0 168 -66t68 -149q0 -268 -334 -311q-35 -4 -41 -16t12 -40q74 -113 74 -266q-1 -252 -193 -404t-466 -153q-164 0 -293 36t-206 90t-127 127
q-87 127 -87 283t77 266t160 146q-76 103 -76 233t86 218q85 88 222 88q86 0 142 -44t56 -110t-36 -105q-36 -38 -60 -38q-12 0 -3 49t-30 88t-109 39t-127 -67q-56 -67 -56 -164t51 -166q32 10 68 10t72 -14t36 -43t-18 -59t-41 -30t-63 14t-62 36q-22 20 -52 2
q-53 -35 -86 -110t-32 -167q0 -195 162 -325t430 -129q270 0 426 137t155 301q0 127 -87 223q-86 96 -204 96t-163 -66q-44 -67 -44 -116t19 -100t47 -54q18 0 18 28t23 56q22 28 66 29q44 0 70 -29q26 -30 26 -70t-32 -73t-100 -33t-139 68t-71 184t82 203q82 88 231 88
l219 -14q328 0 328 180z" />
    <glyph glyph-name="quotesingle" unicode="'" horiz-adv-x="294" 
d="M516 1346q0 -20 -41 -105q-41 -86 -88 -180t-55 -119l-51 16q6 23 37 188q32 165 44 197q20 59 93 60q25 -1 43 -19t18 -38z" />
    <glyph glyph-name="parenleft" unicode="(" horiz-adv-x="704" 
d="M176 141q0 389 186 737t512 590q20 14 34 -8t14 -30q-2 -8 -19 -23q-270 -221 -438 -574t-168 -743q0 -287 43 -477q4 -17 -27 -29t-39 6q-35 74 -66 239q-32 165 -32 312z" />
    <glyph glyph-name="parenright" unicode=")" horiz-adv-x="704" 
d="M645 911q0 -389 -186 -736t-512 -591q-21 -14 -35 8t-12 31q2 8 18 23q270 221 438 574t168 743q0 287 -43 477q-4 18 27 29t39 -7q35 -74 67 -239t31 -312z" />
    <glyph glyph-name="asterisk" unicode="*" horiz-adv-x="614" 
d="M532 1403q53 0 54 -39q0 -55 -99 -260l2 -4q12 8 108 91t128 83q31 0 45 -20t14 -42q0 -43 -77 -65t-218 -53v-7q9 -1 113 -31t115 -36q35 -16 35 -38t-26 -50t-45 -27q-19 0 -29 2t-18 9q-9 7 -24 16t-64 72q-50 63 -59 73l-4 -4q1 -10 9 -112t6 -121q-10 -68 -74 -68
q-51 0 -51 42t98 259l-4 4q-8 -6 -83 -75t-110 -87t-51 -18t-34 12q-17 12 -17 47t51 62q16 8 126 39t118 30v5q-10 2 -101 26t-102 29q-53 20 -53 49q-1 28 21 52t42 24q47 0 111 -73q22 -24 88 -99l2 4l-4 53q-17 148 -12 178q4 29 23 49t50 19z" />
    <glyph glyph-name="plus" unicode="+" 
d="M606 82h-121v354h-338v111h338v354h121v-354h336v-111h-336v-354z" />
    <glyph glyph-name="comma" unicode="," horiz-adv-x="512" 
d="M20 -260q-16 0 -20 20t20 27q51 14 108 63q56 49 56 109t-57 117q-49 39 -49 81q0 41 24 69t66 28q63 0 105 -68t42 -134q-1 -66 -27 -122q-26 -57 -64 -91q-38 -35 -99 -67q-60 -32 -105 -32z" />
    <glyph glyph-name="hyphen" unicode="-" horiz-adv-x="856" 
d="M129 459v76q0 20 16 20h662q18 0 18 -16v-70q0 -25 -18 -25h-662q-16 1 -16 15z" />
    <glyph glyph-name="period" unicode="." horiz-adv-x="512" 
d="M194 -20q-48 0 -79 32t-31 73q0 42 28 77t82 35t85 -38q59 -79 -5 -145q-32 -34 -80 -34z" />
    <glyph glyph-name="slash" unicode="/" horiz-adv-x="675" 
d="M-102 33l983 1353q12 18 28 13l60 -27q14 -6 0 -29l-985 -1355q-16 -25 -31 -17l-62 35q-7 7 7 27z" />
    <glyph glyph-name="zero" unicode="0" 
d="M942 1006q0 232 -183 231q-89 0 -185 -99q-96 -100 -164 -244t-111 -302t-43 -282t47 -192t117 -67q106 -1 206 103q181 186 275 570q41 166 41 282zM435 -31q-159 0 -243 112q-84 113 -83 309q0 196 90 412q91 216 249 368t316 151q158 0 240 -103q80 -103 80 -300
t-91 -423t-245 -376t-313 -150z" />
    <glyph glyph-name="one" unicode="1" 
d="M233 70q61 0 97 18q34 18 62 82t102 297l116 379q61 195 62 203q0 39 -33 38q-16 0 -127 -45l-111 -47q-18 -10 -28 6l-17 33q-6 14 15 25l460 241q47 20 62 21q23 0 22 -21q0 -16 -44 -132t-134 -398l-112 -358q-41 -127 -69 -213t-9 -108q18 -22 90 -21h111
q16 0 12 -21l-8 -43q-2 -12 -19 -12l-332 6l-303 -6q-14 0 -10 14l12 47q2 14 25 15h108z" />
    <glyph glyph-name="two" unicode="2" 
d="M2 -6q-16 0 -16 19t30 43t149 116q121 92 185 144t170 148q311 283 314 492q0 70 -26 130t-70 86t-88 26t-68 -5q-97 -21 -169 -117q-27 -34 -37 -50t-22 -36t-20 -34t-17 -10l-32 17q-8 6 0 28q43 113 159 221t258 109q142 0 222 -86t80 -209t-85 -277
q-45 -79 -209 -243q-114 -111 -293 -237t-186 -130v-4h367q58 0 108 26q50 25 74 53t60 77q10 18 20 14l31 -14q5 -8 -17 -41q-22 -34 -74 -142t-57 -126q-11 -20 -29 -20t-34 24q-12 14 -96 14h-465l-68 -2q-41 -4 -49 -4z" />
    <glyph glyph-name="three" unicode="3" 
d="M330 -31q-143 0 -229 70q-85 70 -85 158q0 27 20 55t59 27q39 0 57 -39t13 -80t45 -84t126 -43q156 0 266 119t111 288q0 86 -44 157t-112 95q-23 8 -30 14t-7 20q0 13 6 17t31 9q88 16 187 99t100 200q0 29 -10 61t-54 65t-120 33t-149 -62t-103 -116q-12 -23 -29 -12
l-25 16q-8 10 6 37q152 248 394 248q115 0 178 -65t63 -134q1 -118 -71 -202t-195 -160q152 -90 152 -294t-176 -350t-375 -147z" />
    <glyph glyph-name="four" unicode="4" 
d="M248 489h397l215 539q16 41 -4 37q-8 0 -18 -10l-594 -529q-16 -12 -15 -24q3 -13 19 -13zM59 381q-32 -1 -32 33q0 16 47 57l934 823q31 27 57 27q39 0 12 -72l-289 -760h213q18 0 15 -22l-31 -61q-12 -25 -33 -25h-207l-131 -340q-8 -27 -17 -34t-32 -7h-92
q-20 0 -2 49l131 332h-543z" />
    <glyph glyph-name="five" unicode="5" 
d="M314 -31q-110 0 -183 24q-72 24 -72 70q0 59 63 59q34 0 81 -35q47 -36 125 -36q168 0 280 112t111 243q0 186 -164 272q-29 16 -87 30t-104 13q-46 0 -58 10t-1 37l193 504q6 18 30 18h373q35 0 62 12t37 25q10 12 34 45q10 12 33 -4t12 -31l-116 -176q-12 -16 -64 -16
h-362l-113 -289l6 -4q35 0 115 -15t137 -44q193 -98 192 -314q0 -78 -38 -165q-90 -202 -296 -294q-116 -52 -226 -51z" />
    <glyph glyph-name="six" unicode="6" 
d="M484 39q85 0 161 86t110 189q33 104 33 190t-49 146t-121 60t-132 -27q-60 -28 -93 -73q-92 -123 -100 -331q-2 -55 9 -105t54 -92q43 -43 128 -43zM461 -31q-152 -1 -231 97q-78 98 -78 256t75 325q134 297 440 518q130 94 210 125t94 31q25 0 24 -27q0 -16 -20 -26
q-193 -96 -317 -226t-230 -323l4 -4q117 76 245 76t202 -81t73 -202q0 -211 -149 -375t-342 -164z" />
    <glyph glyph-name="seven" unicode="7" 
d="M551 1290h534q33 0 9 -41q-8 -12 -96 -160t-103 -176q-406 -769 -423 -807q-62 -136 -120 -137q-66 0 -65 66q0 31 43 98q252 379 323 504q293 510 297 516h-395q-108 0 -161 -51q-34 -33 -61 -70q-26 -37 -36 -51q-9 -14 -31 1t-14 32l164 325q10 19 14 21t21 -2
q16 -6 14 -30q-3 -24 15 -31t71 -7z" />
    <glyph glyph-name="eight" unicode="8" 
d="M936 1055q0 67 -50 133t-150 66t-176 -64q-75 -63 -75 -174q0 -136 168 -314q137 72 210 152t73 201zM440 25q125 0 193 87q67 87 67 182t-57 177q-20 31 -33 45l-36 42q-24 28 -29 36q-20 -10 -101 -57t-100 -77q-20 -30 -51 -76t-31 -144q0 -99 58 -157t120 -58z
M434 -31q-92 0 -159 31t-97 79q-56 90 -55 151q0 61 12 102t42 78q31 36 53 62q49 55 210 138q53 27 60 31q-6 8 -36 45q-47 58 -88 123q-40 65 -40 139q0 135 123 254t317 119q133 0 213 -72t80 -160q0 -168 -144 -289q-109 -90 -220 -147q33 -33 77 -101t59 -108
q15 -41 15 -86q0 -156 -121 -272t-301 -117z" />
    <glyph glyph-name="nine" unicode="9" 
d="M711 1251q-77 0 -141 -52t-100 -131q-73 -160 -75 -300q0 -84 42 -147q43 -63 113 -63t130 30q60 31 98 80q109 147 109 365t-176 218zM180 -31q-28 -1 -28 31q0 16 14 23q221 102 347 227t228 301l-4 4q-49 -41 -96 -57t-127 -16t-138 34q-58 35 -86 88q-52 98 -52 182
q0 197 138 366t345 169q155 0 231 -92t76 -258t-75 -334q-140 -315 -452 -523q-155 -103 -321 -145z" />
    <glyph glyph-name="colon" unicode=":" horiz-adv-x="512" 
d="M508 739q0 -37 -33 -71t-81 -33q-48 0 -79 32q-31 31 -31 73t28 77t83 35t84 -38t29 -75zM281 84q0 -36 -33 -70t-81 -34t-79 32t-31 73q0 42 28 77t83 35t84 -38t29 -75z" />
    <glyph glyph-name="semicolon" unicode=";" horiz-adv-x="512" 
d="M473 739q0 -37 -33 -71t-81 -33q-49 0 -79 32q-30 31 -30 73t28 77t82 35t84 -38q29 -38 29 -75zM26 -260q-16 0 -20 20t21 27q51 14 107 63t56 114t-59 112q-47 47 -47 85q0 37 25 65t65 28q64 0 106 -68t42 -134t-27 -122q-27 -57 -65 -91q-38 -35 -98 -67
q-61 -32 -106 -32z" />
    <glyph glyph-name="less" unicode="&#x3c;" 
d="M809 82l-637 379v65l637 375v-135l-453 -262v-10l453 -273v-139z" />
    <glyph glyph-name="equal" unicode="=" 
d="M147 399h795v-110h-795v110zM147 709h795v-111h-795v111z" />
    <glyph glyph-name="greater" unicode="&#x3e;" 
d="M256 901l637 -379v-65l-637 -375v135l453 262v10l-453 273v139z" />
    <glyph glyph-name="question" unicode="?" horiz-adv-x="878" 
d="M471 85q-1 -37 -29 -71t-69 -34t-75 28t-34 70q0 43 27 76q27 32 74 32t77 -32t29 -69zM649 1403q90 0 155 -31q66 -31 94 -78q52 -87 52 -153q0 -67 -15 -121t-50 -99q-35 -44 -63 -74t-97 -73t-149 -83q-78 -40 -110 -57q-99 -54 -123 -98q-13 -26 -13 -66t41 -68
t97 -28t102 26t67 51q8 8 18 -5l15 -16q8 -8 4 -16q-102 -117 -219 -117q-82 0 -142 54q-59 54 -59 157t80 171t199 140q120 72 151 93q31 22 77 64t63 86q49 128 -36 215q-53 54 -151 54t-169 -54t-71 -132q1 -43 21 -68t43 -25t31 19q-13 51 19 88t75 37t62 -22t20 -48
q0 -63 -52 -103t-114 -40q-64 0 -115 38t-51 127t86 172t227 83z" />
    <glyph glyph-name="at" unicode="@" horiz-adv-x="1433" 
d="M721 -31q-281 0 -443 151t-161 392q0 168 76 333q154 333 477 483q160 75 319 75q250 0 383 -138q133 -139 133 -363q1 -224 -153 -393t-398 -169q-28 0 -50 19t-21 44q0 66 67 232l-8 4q-76 -106 -191 -203q-116 -96 -214 -96q-41 0 -70 30t-29 83q0 125 90 275t222 255
q132 104 226 104q95 0 132 -67l25 37q10 14 18 14h74q20 0 7 -23t-74 -170t-64 -155q-82 -190 -82 -268q0 -39 57 -39q98 0 208 133q109 133 109 350t-109 325q-110 108 -305 108q-196 0 -362 -120q-166 -119 -258 -301t-92 -370q0 -231 138 -365t366 -132q228 1 354 81
l27 -49q-49 -41 -171 -74t-253 -33zM573 489q0 -61 48 -61q77 0 207 138q216 230 216 362q0 44 -22 74t-57 30q-115 0 -253 -204t-139 -339z" />
    <glyph glyph-name="A" unicode="A" horiz-adv-x="1267" 
d="M655 688h334l158 541q6 20 -13 24t-32 -10zM692 70q68 0 106 30t66 138l103 378h-365l-287 -360q-84 -109 -84 -137q0 -49 72 -49h74q20 0 14 -21l-8 -39q-4 -16 -21 -16l-268 6l-229 -6q-8 0 -15 4q-6 4 -4 10l11 45q2 16 14 17h31q123 0 248 149l948 1133q12 18 66 21
t100 16t55 14q27 0 20 -21l-301 -1136q-20 -86 -20 -115t22 -45t54 -16h55q18 0 16 -21l-6 -37q-4 -18 -24 -18l-246 6l-240 -6q-25 0 -20 20l8 39q4 16 16 17h39z" />
    <glyph glyph-name="B" unicode="B" horiz-adv-x="1267" 
d="M700 733q176 0 291 85t117 251q0 100 -88 172t-232 72q-26 0 -59 -4l-151 -568q47 -8 122 -8zM584 59q192 1 290 97t99 235q0 78 -38 135q-95 142 -347 146h-29l-125 -471q-14 -53 -10 -76t33 -41q45 -25 127 -25zM131 70q55 0 85 31t46 94l260 972q12 45 13 74
q0 55 -113 55h-53q-20 0 -17 19l8 43q2 14 27 14l455 6q206 0 326 -72t120 -206q0 -174 -122 -270t-285 -125q-23 -4 -4 -13q127 -41 203 -125t75 -214q0 -131 -124 -245t-427 -114l-276 6l-285 -6q-22 0 -18 16l8 43q4 16 18 17h80z" />
    <glyph glyph-name="C" unicode="C" horiz-adv-x="1363" 
d="M1106 16q0 39 -33 39q-25 0 -76 -23q-51 -22 -139 -42t-158 -21q-209 0 -350 134t-141 354q0 178 79 368t218 342q100 111 231 173q292 138 533 -25q56 -56 102 -58q37 0 53 64q6 18 19 12l26 -6q18 -2 13 -20l-109 -424q-6 -16 -22 -13l-29 4q-14 2 -12 21
q35 162 -47 298t-250 136q-121 0 -212 -59t-189 -203q-99 -143 -147 -315t-48 -316q0 -197 100 -290t213 -93q360 0 510 363q10 20 21 16l34 -10q13 -5 11 -19l-146 -438q-6 -14 -18 -10l-37 10q-10 4 -5 26t5 25z" />
    <glyph glyph-name="D" unicode="D" horiz-adv-x="1591" 
d="M430 131q0 -61 145 -61q387 0 586 170q100 84 175 242t75 327q0 205 -131 340q-90 92 -212 126t-231 34q-108 0 -128 -6l-265 -1086q-14 -66 -14 -86zM25 -6q-20 0 -17 16l12 45q4 14 21 15h61q63 0 107 33q42 34 65 128l236 963q27 102 -104 102h-93q-14 0 -19 3t-1 14
l12 45q4 14 44 14t159 6l221 6q518 0 719 -198q154 -156 154 -371q0 -141 -40 -262t-105 -202q-115 -143 -234 -212q-258 -145 -670 -145l-299 6q-148 0 -188 -3t-41 -3z" />
    <glyph glyph-name="E" unicode="E" horiz-adv-x="1370" 
d="M438 1303h-65q-18 0 -13 22l11 39q4 14 24 14l78 -2q86 -4 205 -4h131q188 0 356 4l158 2q23 0 30 -7t13 -32l66 -280q2 -10 -13 -19l-22 -8q-12 -4 -21 6l-192 248q-10 16 -33 17h-373l-176 -539h197q73 0 107 7t72 46t64 119q4 12 15 10l30 -6q14 -4 13 -16l-111 -408
q-2 -14 -14 -12l-33 4q-10 2 -8 16q10 117 -40 146t-189 28h-123l-199 -628h530q98 0 164 86l164 206q10 14 25 5l20 -13q12 -10 6 -28l-104 -297q-8 -23 -16 -29t-29 -6l-228 4l-413 2h-238l-192 -2l-62 -4q-23 0 -16 16l6 43q6 16 16 17h76q111 -1 148 114l311 973
q25 78 -12 112t-101 34z" />
    <glyph glyph-name="F" unicode="F" horiz-adv-x="1269" 
d="M33 -6q-16 0 -15 16l9 43q4 16 20 17h59q103 0 142 125l321 1030q25 78 -57 78h-70q-20 0 -14 18l12 41q4 16 25 16l225 -6q560 0 640 14q81 14 85 13q19 0 21 -34t19 -163t21 -149t-10 -25l-30 -12q-12 -6 -17 10q-6 23 -72 140t-90 122q-27 14 -487 15l-172 -549l305 4
q49 0 81 12t56 51t58 148q4 14 24 10l33 -6q12 -4 8 -19l-121 -514q-6 -16 -20 -10l-35 4q-14 2 -12 19q23 113 7 165t-99 56l-308 12l-139 -465q-24 -94 -12 -123t70 -28h57q10 0 15 -4t3 -13l-14 -47q-2 -12 -25 -12l-249 6q-163 0 -203 -3t-45 -3z" />
    <glyph glyph-name="G" unicode="G" horiz-adv-x="1452" 
d="M1427 496h-32q-76 0 -92 -74l-72 -316q-10 -33 -37 -45q-223 -92 -397 -92q-264 0 -426 164t-162 405q0 240 118 440q119 200 311 312t402 113q210 0 338 -103q33 -25 56 -24q35 0 53 65q4 12 20 9l25 -7q14 -4 12 -16l-117 -412q-4 -14 -24 -12l-27 4q-18 4 -12 21
q37 145 -50 275t-267 130q-274 0 -457 -243q-182 -244 -182 -586q0 -227 112 -344t266 -117t256 86q20 18 37 70l41 198q12 57 -7 77t-75 22h-75q-20 0 -15 20l8 39q2 16 23 16l238 -6q84 0 151 4l66 2q20 0 18 -20l-6 -39q-2 -16 -19 -16z" />
    <glyph glyph-name="H" unicode="H" horiz-adv-x="1605" 
d="M983 70q63 0 99 36t69 142l135 416h-747l-148 -459q-25 -86 -11 -111t73 -24h71q20 0 17 -17l-9 -41q-4 -18 -22 -18l-260 6q-138 0 -183 -3t-49 -3q-20 0 -14 24l8 35q6 16 19 17h49q49 0 81 36t58 119l320 981q14 45 -8 71t-64 26h-74q-18 0 -12 20l10 39q6 16 21 16
l258 -6l245 6q23 0 19 -16l-14 -45q-2 -14 -19 -14h-53q-61 0 -88 -23t-47 -86l-148 -457h744l151 477q12 43 -7 66t-58 23h-49q-18 0 -15 20l10 43q2 12 21 12l231 -6l222 6q25 0 20 -14l-12 -45q-6 -16 -19 -16h-59q-43 0 -67 -24t-44 -85l-317 -981q-23 -59 -11 -101
t60 -42h74q23 0 16 -21l-10 -41q-2 -14 -25 -14l-250 6l-251 -6q-18 0 -17 24l4 31q4 20 19 21h57z" />
    <glyph glyph-name="I" unicode="I" horiz-adv-x="735" 
d="M98 70q84 0 114 29q29 30 54 122l256 946q37 135 -73 136h-95q-12 0 -16 3t-2 13l10 47q2 12 27 12l276 -6l285 6q30 0 22 -20l-10 -39q-4 -16 -22 -16h-39q-94 0 -129 -27t-62 -119l-256 -948q-20 -74 4 -107t105 -32h71q16 0 13 -21l-6 -39q-2 -16 -25 -16l-297 6
l-303 -6q-20 0 -16 16l8 39q4 20 18 21h88z" />
    <glyph glyph-name="J" unicode="J" horiz-adv-x="706" 
d="M918 1303h-54q-52 0 -88 -34t-65 -134l-265 -926q-88 -305 -194 -447q-133 -172 -322 -172q-102 0 -149 46t-47 92t26 76q26 32 66 32q42 0 66 -28t24 -59q0 -32 -10 -47t-2 -28q14 -14 69 -14q135 0 240 360l334 1156q23 51 7 89t-83 38h-68q-22 0 -18 16l10 43
q2 16 21 16l260 -6l252 6q20 0 18 -20l-8 -41q-2 -14 -20 -14z" />
    <glyph glyph-name="K" unicode="K" horiz-adv-x="1400" 
d="M907 70q35 0 56 18q20 18 6 39q-2 2 -150 228t-176 262q-29 36 -78 36l-145 -448q-20 -68 -1 -102t70 -33h52q16 0 14 -21l-8 -39q-4 -16 -27 -16l-252 6q-148 0 -188 -3t-41 -3q-20 0 -16 22l8 37q4 16 22 17h58q92 0 131 123l315 978q45 132 -68 132h-51q-25 0 -18 20
l14 43q4 12 25 12l229 -6l250 6q16 0 12 -20l-6 -39q-2 -16 -24 -16h-50q-98 0 -133 -109l-153 -483q68 0 98 10q30 11 58 35q26 24 122 108t195 174t137 129t60 67t14 50t-49 21h-25q-20 0 -16 20l8 37q6 16 22 16l226 -6l198 6q12 0 18 -5t5 -13l-8 -37q-6 -20 -21 -20
h-63q-75 1 -149 -57t-340 -296t-290 -264q12 -23 171 -252t194 -272q80 -92 147 -92h60q23 0 18 -21l-8 -35q-6 -20 -27 -20l-209 6q-72 0 -163 -4l-95 -2q-20 0 -18 22l4 33q2 20 19 21h30z" />
    <glyph glyph-name="L" unicode="L" horiz-adv-x="1280" 
d="M80 70q70 0 104 28t64 123l295 955q23 68 5 98t-93 29h-76q-20 0 -17 16l15 47q2 12 24 12l283 -6l291 6q20 0 16 -16l-10 -43q-6 -16 -25 -16h-92q-59 0 -90 -28t-57 -114l-320 -1032q-18 -59 52 -59h81q373 0 420 7t75 33t91 120q62 94 70 110q8 18 24 10l21 -8
q16 -6 10 -24t-42 -149q-36 -132 -42 -166t-24 -34q-7 1 -53 13t-76 12l-480 6l-506 -6q-18 0 -16 20l8 39q4 16 19 17h51z" />
    <glyph glyph-name="M" unicode="M" horiz-adv-x="1921" 
d="M51 70q76 0 108 33q31 34 58 108l336 967q14 39 14 67q0 57 -106 58h-74q-27 0 -25 20l9 35q6 20 22 20l41 -2l361 -4q23 0 29 -9t12 -38l98 -989q8 -76 51 -17l723 1020q23 33 53 33l320 6q22 0 18 -16l-8 -43q-2 -16 -20 -16h-62q-35 0 -59 -36t-45 -116l-265 -954
q-16 -63 1 -95t61 -32h63q18 0 15 -17l-8 -43q-2 -16 -25 -16l-238 6q-163 0 -213 -3t-53 -3q-20 0 -18 20l4 35q4 20 22 21h54q73 0 111 36t59 109l274 989q6 23 -8 26t-25 -13l-839 -1186q-15 -23 -33 -30t-33 4q-14 11 -16 40l-117 1153q-4 38 -22 29q-7 -4 -11 -19
l-336 -993q-49 -145 45 -145h72q16 0 14 -21l-6 -39q-4 -16 -24 -16l-211 6l-199 -6q-16 0 -12 16l8 43q2 16 14 17h41z" />
    <glyph glyph-name="N" unicode="N" horiz-adv-x="1527" 
d="M-14 -6q-20 0 -17 22l6 37q4 16 19 17h55q74 0 114 46t79 165l282 901q18 55 -4 88q-23 33 -114 33h-78q-23 0 -17 24l8 31q6 20 23 20l352 -6q21 0 27 -12t10 -24t6 -17l441 -983q14 -31 24 -14l27 61l268 801q41 119 -65 119h-72q-25 0 -23 22l6 37q4 16 21 16l233 -6
l177 6q25 0 18 -26l-6 -33q-2 -16 -19 -16h-51q-40 0 -64 -22t-48 -91l-398 -1137q-21 -68 -56 -48q-15 9 -28 36l-487 1087q-14 27 -23 20q-10 -7 -14 -22l-262 -866q-57 -190 70 -190h79q23 0 19 -21l-6 -39q-6 -16 -25 -16l-258 6q-137 0 -181 -3t-48 -3z" />
    <glyph glyph-name="O" unicode="O" horiz-adv-x="1452" 
d="M690 49q162 0 306 131t227 332q82 202 82 392t-88 300t-247 109q-159 1 -298 -139t-223 -346t-84 -389t98 -287t227 -103zM737 -31q-223 0 -356 140q-172 174 -172 481q0 207 99 395t266 303t352 115q233 0 386 -171q152 -171 152 -458t-188 -537q-90 -120 -232 -194
t-307 -74z" />
    <glyph glyph-name="P" unicode="P" horiz-adv-x="1208" 
d="M731 635q211 0 320 118t108 267q0 86 -34 147t-89 91q-97 53 -194 54t-111 -3l-174 -641q47 -33 174 -33zM111 70q77 0 109 42t52 121l244 926q39 137 -65 137h-97q-14 0 -10 21l10 39q4 16 29 16l428 6q158 0 247 -19t159 -77q71 -58 97 -116q26 -60 25 -162
q0 -174 -150 -305q-151 -130 -439 -130q-133 0 -207 25l-101 -375q-39 -150 66 -149h78q20 0 16 -21l-6 -39q-2 -16 -25 -16l-272 6q-84 0 -164 -4l-78 -2q-18 0 -16 20l4 35q4 20 23 21h43z" />
    <glyph glyph-name="Q" unicode="Q" horiz-adv-x="1515" 
d="M741 51q154 0 297 132t230 340q86 207 86 401t-91 300t-243 105q-113 0 -216 -61q-103 -60 -175 -158q-148 -200 -207 -438q-27 -108 -27 -210t29 -187t68 -125t93 -66q55 -25 87 -29t69 -4zM1001 1403q229 -1 377 -149t150 -425q0 -151 -65 -319t-159 -280
q-163 -194 -386 -244q-356 -88 -484 -154l4 -10q135 12 189 12q264 0 407 -190q61 -86 121 -86q37 0 57 22t20 38q0 17 -11 46q-17 29 -17 64q0 36 25 60t61 24t56 -28q18 -28 18 -52q0 -112 -89 -178t-198 -66t-193 89t-176 132q-93 43 -262 43q-84 0 -108 -24
q-45 -45 -80 -45q-49 0 -49 69q0 53 156 126t282 106v8q-188 36 -304 188t-116 400q0 190 92 366t191 260q59 51 94 77q111 82 207 101t190 19z" />
    <glyph glyph-name="R" unicode="R" horiz-adv-x="1421" 
d="M578 731h132q112 0 244 51q94 39 155 119q60 80 60 173t-78 166q-79 73 -247 73q-59 0 -84 -2zM98 70q94 0 127 102l326 1022q38 104 -59 102h-80q-20 0 -17 17l11 43q2 16 26 16l459 6q463 0 463 -293q0 -151 -137 -263t-324 -134v-4q47 -16 102 -123q176 -351 203 -395
q60 -97 166 -96h51q18 0 15 -21l-7 -39q-4 -16 -20 -16l-47 2q-45 4 -105 4l-151 -6q-12 0 -30 21t-136 277t-133 283t-35 42q-20 14 -30 22t-31 13t-29 8q-17 6 -62 6h-57l-145 -449q-25 -88 -9 -118t84 -29h84q18 0 15 -17l-6 -47q-2 -12 -25 -12l-287 6q-72 0 -149 -4
l-76 -2q-16 0 -12 16l8 43q2 16 20 17h39z" />
    <glyph glyph-name="S" unicode="S" horiz-adv-x="1032" 
d="M552 49q108 0 177 70q70 70 70 163t-35 142q-65 91 -156 182q-184 200 -213 310q-14 56 -14 126q0 127 94 244t254 117q109 0 242 -92q16 -11 31 -11t30 72q2 8 21 6l26 -2q16 -2 15 -14l-74 -389q-4 -12 -16 -12l-29 2q-20 4 -19 18q13 79 -28 201q-20 59 -72 100
t-135 41q-82 0 -138 -68q-57 -68 -57 -158t33 -138t43 -61t55 -57q45 -43 53 -51l17 -18q63 -63 98 -104t72 -125t37 -178q0 -191 -111 -293t-260 -103q-87 0 -157 41t-144 115q-27 27 -46 -1t-44 -81q-6 -12 -20 -6l-27 10q-12 5 -8 21l151 446q4 10 23 8l20 -6
q18 -8 15 -22q-50 -207 34 -326t192 -119z" />
    <glyph glyph-name="T" unicode="T" horiz-adv-x="1359" 
d="M371 70q88 0 129 44t80 167l327 1026h-53q-238 0 -369 -41q-57 -47 -118 -121t-91 -121q-8 -12 -26 -6l-27 12q-12 6 0 30t80 172t73 164t15 15q2 0 33 -9q103 -30 301 -30h612q123 0 167 12t58 17q14 4 18 7q5 3 7 3q14 -1 11 -27t-12 -186t-5 -213q0 -14 -16 -16
l-27 -2q-14 -2 -18 3t-9 23q-7 55 -31 143t-44 128q-39 16 -148 29t-166 14h-43l-338 -1061q-33 -98 -15 -137t103 -39h80q18 0 15 -21l-9 -39q-4 -16 -26 -16l-307 6l-279 -6q-18 0 -16 20l6 39q4 16 22 17h56z" />
    <glyph glyph-name="U" unicode="U" horiz-adv-x="1497" 
d="M1720 1303h-43q-79 -1 -118 -95l-201 -637q-92 -297 -240 -449t-372 -153t-355 95t-131 280q0 106 43 256l174 576q43 127 -57 127h-74q-16 0 -14 16l10 43q2 16 27 16l243 -6l256 6q20 0 19 -20l-8 -39q-4 -16 -21 -16h-65q-31 -1 -51 -7t-42 -32q-23 -26 -38 -78
l-168 -547q-60 -217 -60 -298t39 -143q60 -95 188 -123t221 8q94 35 154 91q126 116 217 414l181 590q39 125 -76 125h-78q-23 0 -18 16l6 39q6 20 26 20l250 -6l187 6q20 0 18 -20l-6 -39q-4 -16 -23 -16z" />
    <glyph glyph-name="V" unicode="V" horiz-adv-x="1253" 
d="M842 1303h-66q-55 0 -83 -21t-36 -70l-135 -868q-4 -25 2 -34q13 -19 47 26l627 833q57 75 35 115q-10 18 -39 19h-64q-27 0 -20 24l8 35q2 16 27 16l221 -6l197 6q14 0 19 -6t3 -14l-8 -35q-6 -20 -18 -20h-62q-86 0 -213 -162l-889 -1147q-27 -35 -59 -35q-41 0 -31 72
l168 1159q18 113 -90 113h-64q-12 0 -19 3t-5 11l12 41q14 18 23 20l262 -6l258 6q14 0 19 -4t3 -12l-8 -43q-2 -16 -22 -16z" />
    <glyph glyph-name="W" unicode="W" horiz-adv-x="1789" 
d="M817 1303h-45q-52 1 -74 -23t-34 -92l-162 -885q-4 -20 7 -18t23 14q37 37 564 774q68 98 67 170q0 23 -17 41t-46 19h-35q-10 0 -14 3t-2 9l10 47q2 16 24 16l58 -2q57 -4 119 -4l192 6q25 0 18 -20l-10 -39q-6 -16 -22 -16h-45q-33 0 -48 -23t-24 -80l-109 -901
q-2 -17 4 -23t17 5q31 27 143 207q347 553 404 704q39 111 -41 111h-33q-14 0 -12 16l8 39q2 20 22 20l172 -6l195 6q23 0 18 -20l-8 -39q-2 -16 -16 -16h-35q-74 0 -119 -60q-12 -18 -183 -301t-196 -319q-53 -89 -209 -315t-209 -288t-73 -61q-39 0 -33 61l98 918
q2 20 -6 24t-15 -4q-178 -242 -418 -570t-288 -379q-47 -50 -77 -50t-15 90l182 1145q10 57 -3 83t-62 26h-49q-23 0 -21 20l8 39q4 16 25 16l209 -6l229 6q23 0 21 -20l-8 -39q-4 -16 -21 -16z" />
    <glyph glyph-name="X" unicode="X" horiz-adv-x="1415" 
d="M866 1303h-39q-45 0 -56 -34t7 -73l131 -385q61 55 218 214t175 190t6 59q-13 28 -55 29h-30q-18 0 -17 16l6 39q2 20 25 20l209 -6q66 0 127 4l63 2q25 0 21 -16l-6 -43q-2 -16 -19 -16h-35q-55 0 -161 -78q-10 -8 -161 -155t-341 -329l203 -565q16 -47 56 -77t85 -29
h47q16 0 16 -21l-2 -35q-2 -20 -22 -20l-213 6l-238 -6q-29 0 -22 24l6 35q4 16 18 17h37q43 0 56 24q12 25 0 67t-164 474q-2 -4 -201 -204t-239 -249q-41 -49 -33 -81t49 -31h39q14 0 10 -21l-4 -35q-4 -20 -25 -20l-229 6l-211 -6q-21 0 -19 16l9 39q6 20 20 21h45
q69 0 120 39q17 12 51 42q35 29 53 43t254 236t284 270l-166 476q-24 66 -50 96t-79 31h-53q-18 0 -16 20l6 35q2 20 26 20l215 -6q76 0 148 4l71 2q23 0 19 -20l-6 -39q-4 -16 -19 -16z" />
    <glyph glyph-name="Y" unicode="Y" horiz-adv-x="1105" 
d="M1386 1303h-38q-49 0 -83 -23q-33 -23 -101 -110t-252 -350t-205 -295q-20 -32 -37 -109l-52 -232q-16 -74 4 -94t76 -20h62q18 0 14 -17l-6 -43q-4 -16 -23 -16l-77 2q-80 4 -163 4t-140 -1t-87 -3t-36 -2q-18 0 -17 16l8 43q0 16 19 17h59q65 0 93 28t40 80l68 303
q10 49 -10 111l-221 633q-27 78 -125 78h-47q-16 0 -15 16l8 43q2 16 21 16l215 -6l252 6q22 0 18 -16l-4 -43q-2 -16 -18 -16h-54q-100 0 -65 -99l190 -569q10 -35 31 -8q66 90 214 307t166 266q37 103 -79 103h-41q-18 0 -14 20l4 39q2 16 25 16l225 -6l201 6q24 0 20 -16
l-6 -39q-2 -20 -17 -20z" />
    <glyph glyph-name="Z" unicode="Z" horiz-adv-x="1386" 
d="M797 0h-647q-16 0 -23 9q-10 15 6 36l1079 1253q-496 0 -594 -10q-160 -16 -225 -155q-8 -14 -18 -11l-29 11q-10 4 -8 16l78 233q6 20 20 21q14 0 30 -9q16 -10 131 -16q116 -6 169 -6h664q24 0 26 -17t-10 -28l-1071 -1251q530 0 682 28q80 14 127 56t98 125q8 12 21 6
l28 -15q12 -4 6 -20l-96 -268q-8 -25 -57 -4q-59 16 -387 16z" />
    <glyph glyph-name="bracketleft" unicode="[" horiz-adv-x="663" 
d="M457 -403h-416q-20 0 -10 28l499 1835q6 20 33 21h400q8 0 13 -4t3 -11l-14 -51q-2 -10 -29 -10h-262q-20 0 -29 -31l-461 -1681q-4 -20 13 -21h288q16 0 15 -14l-13 -47q-1 -14 -30 -14z" />
    <glyph glyph-name="backslash" unicode="\" horiz-adv-x="655" 
d="M598 -4l-70 -21q-10 -3 -13 5t-5 20l-277 1356q-4 20 13 24l69 19q14 2 19 -10l274 -1369q6 -20 -10 -24z" />
    <glyph glyph-name="bracketright" unicode="]" horiz-adv-x="663" 
d="M344 1481h416q20 0 10 -29l-500 -1835q-4 -20 -32 -20h-400q-8 0 -13 4t-3 10l14 51q2 10 21 10h270q20 0 29 31l460 1681q4 20 -12 21h-289q-16 0 -14 14l12 47q2 15 31 15z" />
    <glyph glyph-name="asciicircum" unicode="^" 
d="M98 532l432 871h66l434 -871h-133l-336 672h-10l-326 -672h-127z" />
    <glyph glyph-name="underscore" unicode="_" 
d="M0 -256v102h1024v-102h-1024z" />
    <glyph glyph-name="grave" unicode="`" horiz-adv-x="481" 
d="M314 1266q38 0 77 -49l172 -228q8 -8 0 -16l-14 -17q-8 -10 -19 0l-245 187q-39 33 -24 78t53 45z" />
    <glyph glyph-name="a" unicode="a" horiz-adv-x="931" 
d="M274 88q68 0 214 164t190 255t45 159q0 121 -96 120q-88 0 -187 -116q-98 -117 -159 -264t-62 -246q0 -72 55 -72zM860 852h72q14 0 6 -18q-28 -55 -140 -356t-112 -351q0 -25 23 -25q16 0 71 52t72 73q12 12 16 4l19 -20q25 -25 -129 -146q-109 -85 -185 -85
q-43 0 -43 36t99 310l-11 4q-78 -121 -208 -236t-230 -114q-41 0 -76 34t-34 97q0 145 93 321t232 298t251 122t155 -70l39 56q10 14 20 14z" />
    <glyph glyph-name="b" unicode="b" horiz-adv-x="913" 
d="M219 133q0 -51 23 -67t65 -17q82 0 190 96q107 95 187 243t80 276q0 88 -70 88q-57 0 -155 -82t-167 -178t-111 -202t-42 -157zM483 1313h-59q-25 0 -18 20l12 33q6 16 20 16h260q31 0 15 -36l-330 -744l12 -4q83 102 187 178t184 76q145 0 145 -156q1 -102 -65 -241
t-203 -277q-203 -199 -434 -198q-61 0 -99 38t-38 92t30 123q305 709 424 994q14 35 15 55q-1 31 -58 31z" />
    <glyph glyph-name="c" unicode="c" horiz-adv-x="618" 
d="M254 -20q-74 0 -120 47t-46 163t66 277t176 273t223 112q63 0 90 -38t27 -75t-28 -63t-62 -25q-34 0 -48 45q-6 18 -23 36t-40 18q-80 0 -150 -142q-39 -82 -63 -192t-25 -166q0 -170 82 -170q51 0 101 37t70 62t28 20l23 -21q12 -8 2 -22q-33 -48 -121 -112t-162 -64z
" />
    <glyph glyph-name="d" unicode="d" horiz-adv-x="964" 
d="M285 84q59 0 155 90t170 191q133 180 133 286q0 135 -108 135q-90 0 -190 -120q-99 -121 -159 -271t-61 -245q1 -30 19 -48t41 -18zM915 1313h-63q-20 0 -16 14l12 43q4 12 24 12h252q20 0 26 -12t-12 -52t-204 -542t-211 -590t10 -88q23 0 75 44t69 63q14 10 22 -2
l21 -21q26 -16 -101 -109q-129 -93 -191 -93t-63 47q0 63 90 297l-16 4q-84 -133 -209 -241t-223 -107q-55 0 -93 36t-38 99q0 123 79 285t203 286q172 166 322 166q72 0 129 -68l158 449q15 29 1 55t-53 25z" />
    <glyph glyph-name="e" unicode="e" horiz-adv-x="714" 
d="M547 762q-86 0 -172 -116t-103 -193q76 -5 208 63t132 168q0 34 -16 56t-49 22zM284 -20q-101 0 -148 49q-46 49 -46 163t74 262t188 261q55 55 131 96q75 41 137 41t93 -34t30 -75q0 -77 -52 -149t-138 -117q-143 -72 -297 -84q-27 -63 -27 -188q0 -61 35 -95
q34 -34 88 -34t117 44t100 101q8 12 19 2l22 -18q14 -8 2 -19q-55 -78 -141 -142t-187 -64z" />
    <glyph glyph-name="f" unicode="f" horiz-adv-x="571" 
d="M139 721q-16 0 -10 20l8 35q6 20 25 21h178q115 328 240 467q49 57 130 98t168 41t138 -39t51 -83t-25 -69t-57 -24q-80 0 -90 82q-3 20 -23 40t-62 19q-90 0 -146 -78q-67 -89 -96 -171q-28 -81 -54 -166t-35 -117h199q18 0 12 -25l-10 -37q-2 -14 -23 -14h-194
q-14 -47 -91 -309t-169 -500q-92 -236 -209 -378t-270 -142q-61 0 -105 36q-43 36 -43 79t25 69t65 25q40 0 64 -30t30 -64t35 -33q158 0 320 551l207 696h-183z" />
    <glyph glyph-name="g" unicode="g" horiz-adv-x="884" 
d="M35 -326q0 -98 102 -158t216 -60t186 40q72 41 71 123q0 41 -27 81q-28 40 -52 59t-238 157q-258 -105 -258 -242zM403 268q70 0 123 70q101 133 101 326q0 137 -92 137q-86 0 -157 -134q-71 -135 -71 -267t96 -132zM288 -608q-138 0 -266 80t-128 187t140 191
q94 56 206 105q-78 57 -78 119q0 30 37 62t137 89q-56 13 -108 75t-52 177t102 245t261 130q117 0 174 -96q25 24 75 50t96 26q48 0 68 -28q40 -52 5 -95q-15 -21 -53 -21t-64 31q-14 14 -34 14t-38 -9q-20 -9 -27 -19q17 -41 17 -109t-22 -137q-22 -70 -92 -145t-179 -93
q-53 -8 -75 -18t-58 -40q-36 -29 -35 -57q0 -28 29 -49t123 -81q93 -60 149 -97q152 -98 152 -221q0 -45 -39 -108q-102 -158 -423 -158z" />
    <glyph glyph-name="h" unicode="h" horiz-adv-x="956" 
d="M152 0h-89q-8 0 -12 4t-2 6l469 1161q27 66 27 101q0 41 -68 41h-63q-25 0 -19 18l11 35q6 16 22 16h277q25 0 24 -24q0 -14 -18 -62l-322 -753l10 -8q101 143 197 230t209 87q69 0 105 -49t36 -123q0 -213 -141 -475q-66 -123 -146 -197t-161 -74q-43 0 -74 27t-31 63
t22 68q21 32 51 31t49 -19t24 -43q5 -41 35 -41t73 74t78 164q82 213 82 371q0 115 -62 114q-49 0 -127 -60q-78 -61 -126 -115t-107 -128q-60 -74 -119 -217l-86 -209q-3 -14 -28 -14z" />
    <glyph glyph-name="i" unicode="i" horiz-adv-x="587" 
d="M517 1126q-56 0 -81 34q-24 34 -24 71t30 67t78 29q49 0 78 -30q29 -29 29 -65t-27 -71t-83 -35zM481 852q49 0 49 -59q0 -33 -69 -220l-119 -311q-37 -98 -37 -131t23 -39q29 6 91 64t73 80q8 10 22 -5l16 -14q10 -14 5 -24q-58 -81 -165 -147q-106 -66 -182 -66
q-34 4 -34 52t120 369l60 160q37 100 37 124t-29 24q-27 0 -129 -107q-27 -30 -37 -40t-20 1l-17 19q-12 10 -3 23q8 13 60 67t139 118t146 62z" />
    <glyph glyph-name="j" unicode="j" horiz-adv-x="555" 
d="M560 1126q-44 0 -76 28t-32 69t32 75t84 35q52 0 78 -33q26 -32 26 -72t-34 -71t-78 -31zM-182 -471q-80 0 -126 38t-46 77q0 40 24 68t63 28t61 -27t26 -55q8 -59 53 -59t89 43q89 87 211 448q29 86 38 111l137 397q18 49 19 80q0 31 -23 31t-74 -40t-82 -71
q-8 -8 -16 0l-20 23q-8 8 -2 16q50 57 160 136t196 79q23 0 33 -12t10 -27q0 -60 -98 -326l-158 -417q-7 -27 -17 -50q-10 -24 -40 -98t-69 -132q-38 -58 -88 -123t-115 -101q-66 -36 -146 -37z" />
    <glyph glyph-name="k" unicode="k" horiz-adv-x="888" 
d="M139 0h-88q-20 0 -10 23l483 1200q37 90 -73 90h-56q-16 0 -10 20l12 33q10 16 25 16h272q29 0 17 -34l-295 -711l10 -4q60 79 158 149t190 70q41 0 74 -28t33 -98t-79 -152q-134 -141 -300 -203v-9l133 -215q51 -84 98 -84t101 54q10 14 18 2l20 -23q8 -8 -21 -39
q-29 -30 -73 -54q-44 -23 -100 -23t-92 24t-74 96l-113 215q-16 31 -102 23l-127 -324q-4 -14 -31 -14zM362 500l-47 -113q139 -16 286 93q146 110 147 210q0 25 -16 43q-43 47 -142 -14q-98 -61 -155 -124q-57 -64 -73 -95z" />
    <glyph glyph-name="l" unicode="l" horiz-adv-x="520" 
d="M475 1313h-59q-20 0 -13 18l13 37q4 14 20 14h254q29 0 19 -30l-426 -1084q-53 -137 -37 -155q4 -4 20 -4q16 -1 67 39q53 40 69 58t26 9l23 -25q8 -10 -2 -20q-17 -31 -133 -111t-199 -79q-45 0 -45 59q-1 33 75 221l359 924q51 129 -31 129z" />
    <glyph glyph-name="m" unicode="m" horiz-adv-x="1497" 
d="M207 0h-78q-20 0 -12 20l155 371q117 281 118 311t-18 29q-19 0 -87 -60t-86 -85q-10 -12 -25 2l-18 18q-10 10 -2 19q36 43 80 86t120 92t135 49q21 0 35 -16t14 -40t-30 -103q-31 -79 -70 -169t-45 -104l10 -2q61 96 128 181t169 169t183 84q45 0 67 -28t23 -60
q0 -80 -117 -354l10 -2q211 318 343 402q67 42 120 42t80 -31t27 -79t-101 -291l-7 -21q-3 -8 -8 -19t-50 -123t-45 -138q1 -26 23 -27q22 0 80 58t81 89q8 16 25 0l16 -16q10 -10 4 -22t-62 -71q-56 -57 -144 -119t-148 -62q-37 0 -37 48t139 390q8 18 26 63t45 111t27 111
t-46 45t-168 -130t-224 -280q-6 -11 -35 -53q-30 -41 -49 -92l-69 -181q-4 -12 -29 -12h-82q-26 0 -18 16l139 340q119 293 119 339t-41 46q-49 1 -167 -119t-202 -236t-115 -191l-73 -183q-8 -12 -33 -12z" />
    <glyph glyph-name="n" unicode="n" horiz-adv-x="1062" 
d="M227 0h-80q-16 0 -21 4t-1 14l145 379q106 273 106 309t-30 35q-49 0 -172 -137q-10 -10 -20 2l-19 19q-10 10 -4 20q29 35 68 73t117 86t128 48q82 0 82 -61q0 -47 -51 -173q-51 -125 -53 -133l8 -4q70 113 209 242t258 129q47 0 75 -23t28 -49t-3 -40q-2 -14 -3 -27
q-1 -11 -7 -31t-12 -44t-15 -47q-10 -23 -21 -51t-16 -40t-19 -46t-68 -169q-56 -135 -56 -162t22 -27t74 38q50 38 76 67q12 10 23 -4l14 -17q10 -10 2 -22q-33 -43 -136 -111t-191 -67q-49 0 -50 40q0 29 120 331t120 341q0 47 -55 47q-55 1 -177 -111t-192 -222
t-123 -256l-51 -138q-6 -12 -29 -12z" />
    <glyph glyph-name="o" unicode="o" horiz-adv-x="813" 
d="M287 78q98 0 201 115q102 115 162 245t62 192t-27 95t-87 33t-136 -62t-151 -182q-119 -188 -118 -332q0 -47 27 -76q28 -28 67 -28zM317 -20q-86 0 -148 74q-63 74 -63 199q0 124 59 262q58 137 169 237t225 100q113 0 173 -67t60 -181t-54 -255t-168 -255t-253 -114z
" />
    <glyph glyph-name="p" unicode="p" horiz-adv-x="944" 
d="M602 768q-22 0 -65 -6l-252 -701q199 31 351 162t150 309q0 112 -55 174t-129 62zM565 846q37 6 82 6q137 0 210 -81t73 -191q0 -244 -244 -426q-72 -54 -188 -98t-238 -56l-145 -406q-27 -82 -14 -110t79 -29h58q8 0 12 -6t2 -10l-14 -41q-8 -12 -25 -12l-215 6
q-134 0 -173 -3q-40 -3 -47 -3q-16 0 -14 12l13 41q4 16 14 16h47q57 0 89 36t67 130l401 1104q-69 -17 -141 -75t-113 -109q-8 -12 -18 -2l-23 20q-10 10 -2 19q142 169 326 239l65 191q8 20 27 28l127 45q4 2 12 2q9 0 9 -9t-5 -15z" />
    <glyph glyph-name="q" unicode="q" horiz-adv-x="929" 
d="M326 33q92 0 177 84q85 85 136 195t82 207t31 142t-32 79t-79 34q-80 0 -173 -93t-166 -251t-73 -268q0 -59 26 -94t71 -35zM168 -545h51q57 0 89 22t57 85l204 526h-8q-117 -109 -256 -108q-201 0 -201 235q0 124 72 276q72 153 183 257q112 104 251 104q92 0 181 -74
q14 -10 28 0l105 68q18 12 34 12q23 0 9 -37l-469 -1261q-39 -104 34 -105h58q18 0 14 -16l-12 -37q-6 -16 -23 -16l-200 6l-211 -6q-20 0 -17 16l9 37q6 16 18 16z" />
    <glyph glyph-name="r" unicode="r" horiz-adv-x="729" 
d="M219 0h-82q-27 0 -18 18l114 332q101 310 101 350t-31 40t-83 -46q-52 -45 -83 -82q-6 -10 -16 0l-21 21q-6 6 0 16q47 71 130 137t176 66q57 0 57 -72q2 -37 -74 -291l10 -4q55 117 157 242t177 125q45 0 71 -26t26 -66t-26 -67q-24 -27 -54 -27t-54 22q-23 22 -51 23
q-63 0 -252 -312q-43 -70 -80 -178l-67 -207q-4 -14 -27 -14z" />
    <glyph glyph-name="s" unicode="s" horiz-adv-x="602" 
d="M228 -20q-100 0 -151 32q-52 32 -52 82q0 24 19 46t50 22q61 0 84 -66q10 -31 24 -44t55 -13q40 0 75 36t35 95q1 59 -41 136t-46 89t-17 39q-44 91 -44 176q0 84 77 163t181 79q55 0 101 -26t45 -78q1 -26 -19 -46t-45 -20q-49 0 -70 49q0 3 -6 19t-14 27t-37 11
q-28 0 -62 -38t-34 -82q0 -42 14 -80t36 -77q22 -38 23 -41q1 -4 13 -24q65 -111 65 -218t-79 -178q-80 -70 -180 -70z" />
    <glyph glyph-name="t" unicode="t" horiz-adv-x="643" 
d="M223 721q-18 0 -12 16l16 45q6 14 23 15h147l107 237q12 23 33 31q49 15 83 31t39 16q23 0 3 -41l-136 -274h209q16 0 8 -23l-18 -43q-4 -10 -18 -10h-209l-199 -461q-47 -110 -47 -138t33 -28t105 53t87 71q14 18 25 7l22 -24q8 -8 2 -19q-40 -49 -156 -126t-218 -76
q-66 0 -66 49q0 41 23 96l258 596h-144z" />
    <glyph glyph-name="u" unicode="u" horiz-adv-x="991" 
d="M889 831h84q25 0 18 -18l-157 -426q-86 -231 -86 -257t16 -34q20 0 82 52t74 70t22 5l21 -20q8 -9 -1 -21q-8 -12 -56 -55t-133 -95t-148 -52q-39 0 -39 47q0 8 131 350l-12 6q-83 -119 -207 -247q-70 -72 -149 -114t-130 -42q-94 0 -96 83q1 40 23 95t36 89t41 95t42 96
t59 139q45 104 45 131q0 28 -29 28t-85 -46q-56 -45 -79 -72q-8 -8 -18 0l-19 19q-10 6 2 18q33 43 132 120t184 77q29 0 44 -23t15 -51q0 -66 -121 -329t-121 -322q0 -35 35 -35q72 0 193 126q224 234 286 403l72 196q4 14 29 14z" />
    <glyph glyph-name="v" unicode="v" horiz-adv-x="1073" 
d="M1004 852q79 0 79 -130q1 -64 -35 -196q-80 -299 -290 -458q-116 -88 -218 -88t-161 53t-59 169t89 278q89 161 199 292l-14 6q-30 -25 -92 -40t-99 -15h-106q-49 0 -80 -30t-33 -77q2 -34 46 -60t44 -56t-19 -51t-55 -21t-66 29t-30 85t33 126t94 124q19 15 69 32
q50 18 130 18t138 3t80 5t36 2t21 -9q8 -9 -5 -30q-101 -123 -171 -282q-70 -160 -70 -254q0 -93 42 -141t103 -48q129 0 242 162t112 321q0 69 -24 123t-23 68q0 90 93 90z" />
    <glyph glyph-name="w" unicode="w" horiz-adv-x="1509" 
d="M438 715h-162q-30 1 -52 -19t-22 -52t41 -60q42 -28 42 -59q0 -70 -78 -70q-33 1 -65 31t-31 89q0 82 90 185q23 28 67 50t88 21h150l188 13q20 2 26 -10t-9 -31q-66 -72 -154 -248t-88 -303q0 -70 35 -110t88 -40q147 0 239 144q64 106 99 386q10 89 18 128q20 66 92 65
q51 0 52 -49q0 -36 -77 -237t-77 -267t53 -116t127 -50q113 0 200 116t87 313q0 29 -9 71t-22 53q-111 111 -41 170q27 23 64 23q102 0 102 -211q0 -119 -36 -250t-91 -205t-84 -104q-30 -31 -94 -67q-64 -35 -142 -35t-136 62q-56 62 -64 126q-47 -60 -140 -124
q-92 -64 -180 -64t-144 55t-57 161t91 269q92 164 180 270l-14 15q-70 -35 -150 -35z" />
    <glyph glyph-name="x" unicode="x" horiz-adv-x="964" 
d="M342 705q-51 0 -129 -154q-6 -12 -20 -6l-29 14q-29 7 92 179q80 114 143 114q33 0 53 -23t42 -90l69 -235q31 39 101 132t112 136q80 80 142 80q27 0 43 -18t16 -46q0 -113 -55 -241q-6 -14 -21 -8l-24 8q-16 6 -15 16q53 160 -4 160q-45 0 -185 -179q-26 -32 -85 -106
l96 -274q20 -55 53 -55t78 55t55 84q2 8 19 2l24 -12q12 -6 7 -21q-129 -238 -250 -237q-68 0 -95 88l-86 276q-187 -248 -251 -306t-105 -58q-76 0 -76 71q0 35 16 107q15 72 29 110q4 12 17 8l31 -8q12 -2 8 -16q-45 -144 16 -148q53 1 293 306l-88 258q-12 37 -37 37z
" />
    <glyph glyph-name="y" unicode="y" horiz-adv-x="837" 
d="M336 852q46 0 68 -48t34 -183q31 -356 39 -607l8 2q47 76 118 220t97 232q26 86 25 148q0 62 -10 89q-23 51 -23 77t20 48t61 22q42 0 64 -31t21 -71q0 -135 -137 -435q-78 -172 -219 -395t-264 -342q-180 -186 -312 -186q-55 0 -85 28q-29 28 -29 67t26 61q59 52 131 -9
q29 -25 59 -25t89 44q154 115 225 276q20 49 18 97t-27 355t-39 368q-13 62 -36 63q-26 -1 -64 -61t-55 -105q-6 -10 -18 -6l-29 12q-9 5 1 27q42 87 60 112q17 24 33 48q72 108 150 108z" />
    <glyph glyph-name="z" unicode="z" horiz-adv-x="976" 
d="M923 899q38 0 40 -49q0 -80 -127 -160l-478 -473l7 -10q76 0 213 -90q19 -15 46 -32q28 -17 44 -27q95 -60 146 -14q22 19 22 46q0 28 -18 60t-18 61t21 49q20 20 47 21q84 0 84 -101q0 -80 -66 -150t-172 -71q-106 0 -270 78q-6 1 -61 33t-93 32t-54 -16t-29 -57
q-20 -59 -88 -60q-19 1 -31 13t-12 32q0 54 54 106t110 83l428 426l-9 8q-108 -8 -223 91q-71 61 -113 62q-41 0 -56 -12t-15 -28t28 -34t28 -52q0 -36 -20 -58q-19 -22 -51 -20q-32 0 -60 26q-27 26 -27 79t50 107t141 54t158 -31q25 -10 107 -50t136 -40t77 74
q12 35 39 65t65 29z" />
    <glyph glyph-name="braceleft" unicode="{" horiz-adv-x="663" 
d="M188 584q0 28 32 28t69 15q113 47 123 151q6 55 7 165q1 109 11 193t76 163q152 182 418 182q35 0 34 -29q0 -37 -22 -37q-166 0 -270 -91q-82 -71 -101 -198q-6 -47 -13 -145t-15 -143q-20 -142 -150 -218q-55 -32 -55 -53q0 -11 26 -33q66 -56 66 -131q0 -76 -62 -235
q-10 -20 -20 -50t-28 -79t-17 -134q0 -85 54 -151q75 -92 204 -92q14 0 14 -33t-14 -32q-155 0 -279 86q-116 80 -116 243q0 86 78 254q4 10 17 40t18 42t23 54t17 102q-1 58 -27 92t-71 41q-27 4 -27 33z" />
    <glyph glyph-name="bar" unicode="|" horiz-adv-x="512" 
d="M391 -532h-86q-12 0 -12 20v2054q0 18 12 19h82q14 0 14 -25v-2048q0 -20 -10 -20z" />
    <glyph glyph-name="braceright" unicode="}" horiz-adv-x="663" 
d="M643 494q0 -29 -32 -29t-68 -14q-113 -47 -123 -152q-6 -55 -7 -165t-11 -194t-76 -162q-150 -181 -418 -181q-35 0 -35 28q1 37 23 37q165 0 258 81q94 81 112 208q6 47 14 145q7 98 15 144q19 138 149 218q56 32 56 50q0 12 -27 35q-66 57 -66 132q1 75 62 234
q4 8 30 79q31 85 36 173q-1 96 -55 162q-76 92 -204 92q-14 0 -14 33t14 33q99 1 164 -25q64 -26 115 -61t84 -97t33 -147q0 -86 -78 -254q-20 -50 -30 -72q-46 -95 -46 -159t27 -99t63 -39t35 -34z" />
    <glyph glyph-name="asciitilde" unicode="~" 
d="M829 633h109q0 -131 -59 -209t-135 -78t-179 68l-80 55q-70 45 -135 45q-34 0 -64 -40t-30 -124h-109q-1 131 59 209t144 78t164 -49l86 -58q8 -4 28 -18t45 -28q24 -14 62 -15q37 0 66 40q28 40 28 124z" />
    <glyph glyph-name="uni00A0" unicode="&#xa0;" horiz-adv-x="471" 
 />
    <glyph glyph-name="exclamdown" unicode="&#xa1;" horiz-adv-x="552" 
d="M18 -608q-42 0 -66 28t-24 60t18 74t172 439q155 397 163 411q8 15 21 16t16 -14q3 -16 -7 -42t-56 -238t-89 -415t-45 -211q-25 -108 -103 -108zM395 635q-39 0 -71 28q-32 27 -33 75q0 48 31 81q30 33 74 33t72 -34t28 -76t-31 -74q-31 -33 -70 -33z" />
    <glyph glyph-name="cent" unicode="&#xa2;" 
d="M229 457q0 162 132 352t317 260l57 238q4 14 19 12l47 -10q14 -2 8 -21l-49 -196q32 6 76 6t84 -23t38 -63q0 -40 -26 -60q-27 -20 -56 -20t-49 24q-31 31 -92 33l-166 -670q92 10 193 76q16 10 31 -4l8 -14q16 -20 -8 -37q-2 0 -32 -20q-106 -72 -214 -89l-62 -245
q-4 -16 -18 -15l-43 13q-10 3 -6 26l53 215q-111 3 -177 59t-65 173zM375 492q0 -78 33 -120t88 -50l161 661q-152 -37 -242 -297q-40 -115 -40 -194z" />
    <glyph glyph-name="sterling" unicode="&#xa3;" 
d="M707 514q23 0 18 -12l-10 -49q-2 -14 -25 -15h-319q-70 -121 -117 -174l2 -4q135 16 220 -16t177 -135q61 -68 152 -68q31 0 57 20t35 43q10 23 5 30t-43 7q-39 1 -67 21t-28 46t22 54t76 27q53 0 96 -37t43 -97t-66 -123q-67 -62 -217 -62t-265 139q-90 109 -230 100
q-100 -209 -194 -209q-18 0 -31 10q-12 10 -12 23q0 49 61 119t123 98q16 18 48 86t42 102h-147q-23 0 -19 15l8 49q4 12 21 12h162q74 221 166 457q59 152 171 251t252 99q100 0 160 -48t62 -86q0 -38 -25 -60t-55 -23q-74 0 -111 76q0 18 -23 46t-77 27q-53 0 -105 -73
q-51 -74 -96 -212q-46 -138 -110 -280t-84 -174h297z" />
    <glyph glyph-name="currency" unicode="&#xa4;" 
d="M582 383q108 0 176 73q68 74 68 192t-66 192t-178 74t-171 -80q-61 -78 -61 -187t62 -187t170 -77zM575 299q-126 0 -210 74l-187 -187q-14 -14 -22 -4l-45 47q-8 12 4 25l188 184q-70 86 -70 215t84 213l-200 191q-10 8 2 20l39 41q10 12 20 2l205 -192q78 70 209 70
t205 -64l198 184q9 12 19 2l39 -41q12 -10 0 -22l-193 -183q35 -33 59 -94t25 -118q-6 -137 -82 -232l191 -178q12 -12 4 -23l-43 -49q-10 -8 -19 0l-202 185q-92 -66 -218 -66z" />
    <glyph glyph-name="yen" unicode="&#xa5;" 
d="M1247 1227h-37q-78 1 -132 -81q-24 -36 -208 -291t-186 -259h274q21 0 17 -12l-8 -41q-2 -12 -27 -13h-299l-31 -129h326q14 0 12 -14l-8 -41q-2 -10 -29 -10h-321l-33 -162q-14 -68 3 -90t63 -21h61q18 0 14 -16l-6 -37q-4 -16 -20 -16l-209 6q-142 0 -184 -3t-46 -3
q-18 0 -16 16l6 37q4 16 19 16h45q63 0 90 27t39 78l35 168h-291q-12 0 -10 10l6 41q0 14 18 14h293l27 129h-297q-11 0 -15 4t-2 11l4 39q2 12 21 12h268l-176 557q-23 74 -115 74h-45q-14 0 -12 12l8 41q2 16 19 16l182 -6l235 6q23 0 19 -16l-4 -41q-2 -12 -19 -12h-49
q-92 0 -65 -94l147 -502q4 -19 15 -21t19 12t160 239q151 224 166 269q14 45 -1 70t-72 25h-39q-14 2 -15 18l5 37q2 16 22 16l203 -6l188 6q13 0 17 -4t2 -12l-4 -37q-2 -16 -17 -16z" />
    <glyph glyph-name="brokenbar" unicode="&#xa6;" horiz-adv-x="512" 
d="M383 666h-78q-12 0 -12 20v678q0 18 12 18h82q14 0 14 -24v-672q0 -20 -18 -20zM311 358h78q12 0 12 -20v-676q0 -20 -18 -20h-78q-12 0 -12 20v676q0 20 18 20z" />
    <glyph glyph-name="section" unicode="&#xa7;" 
d="M322 737q0 -92 73 -180q15 -17 69 -77q66 -74 127 -159q60 -84 64 -178q166 111 166 267q0 125 -106 249q-15 17 -61 65t-72 80q-27 32 -54 86q-26 54 -28 107q-178 -92 -178 -260zM956 498q0 -119 -82 -236t-223 -188q-25 -96 -63 -160t-117 -119q-115 -82 -295 -82
q-70 0 -119 28q-49 27 -49 65t22 62t68 24t80 -52q36 -51 106 -51t154 69t84 176t-44 178t-162 196t-117 266q0 98 84 212t217 169q32 145 144 246t292 102q76 0 122 -29q46 -30 46 -68t-24 -61t-66 -22t-58 20q-16 20 -30 45q-26 47 -92 47q-66 1 -134 -73t-68 -159
t38 -147q37 -62 153 -178q133 -128 133 -280z" />
    <glyph glyph-name="dieresis" unicode="&#xa8;" horiz-adv-x="583" 
d="M696 1126q-38 0 -66 20t-28 59q0 38 23 64q23 25 65 25t66 -24t24 -61q0 -39 -24 -61t-60 -22zM418 1126q-37 0 -66 20q-28 20 -28 59q0 38 22 64q23 25 65 25q43 0 67 -24t24 -61q0 -39 -24 -61t-60 -22z" />
    <glyph glyph-name="copyright" unicode="&#xa9;" horiz-adv-x="1597" 
d="M1495 686q0 162 -59 292q-103 227 -350 317q-101 38 -199 38q-256 0 -432 -182t-176 -465q1 -135 39 -248t102 -184q188 -215 490 -215q104 0 209 41q105 40 173 106q203 196 203 500zM894 1403q304 0 504 -200t200 -512t-198 -517q-196 -205 -514 -205t-514 205
t-196 511t207 512t511 206zM912 258q-208 0 -330 118t-121 306q0 188 125 319q117 117 305 117q109 0 225 -63q18 -10 25 0l8 32q3 7 25 7t24 -19l29 -221q2 -12 -4 -14l-23 -6q-10 -4 -16 4q-105 221 -297 221q-137 -1 -212 -105t-75 -233q6 -176 109 -279
q98 -104 225 -104q182 0 299 154q2 2 31 -17q8 -8 -2 -20q-142 -197 -350 -197z" />
    <glyph glyph-name="ordfeminine" unicode="&#xaa;" horiz-adv-x="663" 
d="M600 983q0 61 -65 61q-99 0 -199 -137t-100 -222t51 -85t147 97t131 172t35 114zM698 1092h66q14 0 5 -18t-53 -128t-57 -140t-39 -105t-26 -80q0 -42 63 10q35 29 47 43t19 8l20 -20q8 -8 0 -17q-20 -31 -96 -81t-127 -50t-51 31t59 180l-8 4q-41 -67 -133 -141
t-166 -74q-109 0 -109 136t147 295q146 159 294 159q82 0 102 -55l19 30q8 13 24 13z" />
    <glyph glyph-name="guillemotleft" unicode="&#xab;" horiz-adv-x="737" 
d="M381 434q0 4 10 15l318 296q12 12 22 3l23 -23q8 -8 8 -13t-12 -18l-215 -250l155 -251q2 -4 6 -9t4 -9q0 -5 -8 -13l-24 -23q-4 -4 -10 -4t-13 8l-256 279q-8 8 -8 12zM115 434q0 4 10 15l317 296q13 13 23 3l22 -23q9 -8 9 -13t-13 -18l-215 -250l156 -251q2 -4 6 -9
t4 -9q0 -5 -8 -13l-25 -23q-4 -4 -10 -4t-12 8l-256 279q-8 8 -8 12z" />
    <glyph glyph-name="logicalnot" unicode="&#xac;" 
d="M147 598v111h795v-459h-119v348h-676z" />
    <glyph glyph-name="uni00AD" unicode="&#xad;" horiz-adv-x="856" 
d="M129 459v76q0 20 16 20h662q18 0 18 -16v-70q0 -25 -18 -25h-662q-16 1 -16 15z" />
    <glyph glyph-name="registered" unicode="&#xae;" horiz-adv-x="1105" 
d="M692 1339q-162 0 -270 -102q-108 -101 -109 -285q0 -184 119 -281t260 -98q190 0 285 116q94 116 94 267q0 100 -37 178q-63 134 -217 185q-64 20 -125 20zM229 955q0 191 132 319t335 129q203 0 331 -124t128 -320q0 -197 -125 -323t-338 -126t-338 127t-125 318z
M657 967q78 0 108 40q30 41 30 83t-42 70t-77 28t-60 -4v-215q8 -2 41 -2zM465 713v22q0 4 4 4h18q20 0 30 7q9 7 9 34v187l2 71q0 94 -2 115q0 35 -41 35h-14q-4 0 -4 6v25q0 6 4 6l98 -4l131 4q102 0 146 -38t45 -96q0 -57 -42 -95t-93 -46v-4q17 -3 56 -59l58 -87t44 -45
q22 -15 61 -16q8 0 8 -10v-18q0 -4 -6 -4l-62 2l-79 -2q-14 6 -33 38q-29 35 -55 86t-50 77t-50 26t-32 -2v-35q0 -117 2 -129q0 -29 25 -29h33q4 0 4 -6v-20q0 -6 -4 -6l-107 2l-98 -2q-6 0 -6 6z" />
    <glyph glyph-name="macron" unicode="&#xaf;" horiz-adv-x="522" 
d="M223 1057v61q0 12 21 12h368q20 0 21 -14v-59q0 -14 -19 -15h-374q-17 1 -17 15z" />
    <glyph glyph-name="degree" unicode="&#xb0;" horiz-adv-x="512" 
d="M559 1216q0 54 -34 88t-84 33q-50 1 -84 -33q-33 -34 -33 -87t34 -91q35 -36 83 -36t83 36t35 90zM444 1403q92 0 148 -53t57 -131q0 -77 -59 -135q-60 -58 -152 -58t-148 53t-56 133t58 135q60 56 152 56z" />
    <glyph glyph-name="plusminus" unicode="&#xb1;" 
d="M147 133h795v-110h-795v110zM606 301h-121v293h-338v111h338v282h121v-282h336v-111h-336v-293z" />
    <glyph glyph-name="twosuperior" unicode="&#xb2;" horiz-adv-x="665" 
d="M262 883h230q80 0 133 86q10 12 20 8q32 -19 19 -25q-20 -28 -52 -94t-34 -77t-14 -11t-21 11q-8 11 -80 12h-334q-25 0 -25 15q0 16 18 30t104 80q285 222 344 335q32 59 32 111t-28 94q-28 41 -85 41q-82 0 -157 -127q-12 -20 -23 -16l-22 12q-10 6 -6 18q25 68 93 134
q69 66 166 66t146 -51q49 -49 49 -123q0 -180 -237 -364q-104 -81 -232 -161l-4 -2v-2z" />
    <glyph glyph-name="threesuperior" unicode="&#xb3;" horiz-adv-x="665" 
d="M338 778q-86 0 -137 42t-51 95q0 19 14 37t39 19q61 0 51 -78q-4 -16 25 -38t63 -21q88 0 152 65q63 66 63 165t-94 136q-20 8 -21 23q0 16 21 20q57 11 115 59t57 117q0 31 -23 59t-84 28t-125 -89q-18 -29 -30 -18l-21 16q-4 6 2 21q88 150 238 149q82 0 124 -38
t42 -81q0 -125 -178 -217q108 -57 108 -177t-110 -207t-240 -87z" />
    <glyph glyph-name="acute" unicode="&#xb4;" horiz-adv-x="460" 
d="M533 1235q33 0 49 -25q16 -24 7 -58t-50 -52l-310 -146q-12 -6 -16 2l-14 21q-4 4 8 16l258 211q35 31 68 31z" />
    <glyph glyph-name="mu" unicode="&#xb5;" 
d="M348 807q0 45 88 45q33 0 51 -23q32 -41 2 -117q-16 -44 -56 -132t-104 -249q-65 -161 -65 -200t35 -39q72 0 193 126q210 219 288 398q49 121 49 191q0 45 84 45q59 0 60 -61q1 -30 -59 -177q-167 -412 -166 -479q0 -16 12 -27q12 -12 30 -12t59 46q42 46 64 81
q8 12 19 0l20 -20q8 -8 0 -19q-154 -205 -293 -204q-63 0 -63 65q0 43 111 332l-13 6q-288 -413 -524 -399l-45 -123q-34 -99 -84 -223q-12 -35 -56 -60q-44 -24 -83 -24t-44 22q-4 22 32 58q66 67 133 241t94 239t79 197q52 131 102 253t50 243z" />
    <glyph glyph-name="mu" unicode="&#x3bc;" 
d="M348 807q0 45 88 45q33 0 51 -23q32 -41 2 -117q-16 -44 -56 -132t-104 -249q-65 -161 -65 -200t35 -39q72 0 193 126q210 219 288 398q49 121 49 191q0 45 84 45q59 0 60 -61q1 -30 -59 -177q-167 -412 -166 -479q0 -16 12 -27q12 -12 30 -12t59 46q42 46 64 81
q8 12 19 0l20 -20q8 -8 0 -19q-154 -205 -293 -204q-63 0 -63 65q0 43 111 332l-13 6q-288 -413 -524 -399l-45 -123q-34 -99 -84 -223q-12 -35 -56 -60q-44 -24 -83 -24t-44 22q-4 22 32 58q66 67 133 241t94 239t79 197q52 131 102 253t50 243z" />
    <glyph glyph-name="paragraph" unicode="&#xb6;" 
d="M510 -287h-55q-10 0 -2 33l176 674q-162 0 -295 61t-165 222q-17 83 19 196q33 113 128 203q96 90 230 145q247 101 529 137q149 18 175 18t24 -13l-8 -35q-4 -14 -21 -17q-61 -6 -112 -14l-416 -1593q-2 -16 -19 -17h-49q-16 0 -8 25l410 1577q-76 -13 -121 -25
l-400 -1548q-8 -29 -20 -29z" />
    <glyph glyph-name="periodcentered" unicode="&#xb7;" horiz-adv-x="512" 
d="M347 594q-48 0 -79 32q-30 32 -30 74t28 76t82 35q55 0 84 -38q29 -39 29 -75t-33 -70t-81 -34z" />
    <glyph glyph-name="cedilla" unicode="&#xb8;" horiz-adv-x="440" 
d="M131 -253q0 -75 -98 -126t-164 -51q-39 0 -39 35t37 35q57 0 104 30t47 66q0 57 -77 86l127 178h75l-96 -137q84 -41 84 -116z" />
    <glyph glyph-name="onesuperior" unicode="&#xb9;" horiz-adv-x="665" 
d="M164 840h65q37 0 60 10t37 41t49 137l86 270q37 111 37 119q0 17 -18 17t-83 -27l-65 -27q-8 -4 -15 9l-12 24q-2 8 8 14l291 144q31 14 47 14t17 -14q0 -16 -6 -33q-63 -164 -111 -311l-57 -183q-39 -126 -45 -152t3 -39t40 -13h55q14 0 10 -11l-6 -32q-4 -10 -14 -11
l-195 7q-118 -1 -196 -7q-6 0 -3 11l7 32q4 11 14 11z" />
    <glyph glyph-name="ordmasculine" unicode="&#xba;" horiz-adv-x="663" 
d="M352 578q70 0 165 139t91 235q2 39 -19 62q-22 23 -69 22q-90 0 -170 -128t-80 -249q0 -35 20 -58t62 -23zM351 514q-83 0 -136 43t-53 136q0 213 160 341q86 70 183 70t148 -49t51 -113q1 -132 -81 -269q-41 -69 -115 -114t-157 -45z" />
    <glyph glyph-name="guillemotright" unicode="&#xbb;" horiz-adv-x="737" 
d="M369 135q-4 0 -11 6l-22 23q-8 8 -8 13t12 18l215 249l-156 252q-2 4 -6 8t-4 10t8 13l25 23q10 10 22 -5l256 -278q8 -8 8 -12t-10 -15l-317 -297q-8 -8 -12 -8zM442 455q0 -4 -10 -15l-317 -297q-9 -8 -13 -8t-10 6l-22 23q-8 8 -8 13t12 18l215 249l-156 252
q-2 4 -6 8t-4 10t8 13l25 23q10 10 22 -5l256 -278q8 -8 8 -12z" />
    <glyph glyph-name="onequarter" unicode="&#xbc;" horiz-adv-x="1433" 
d="M102 575h66q38 1 60 11t36 41t49 137l86 270q37 111 37 123t-17 12t-83 -26l-66 -27q-8 -4 -14 8l-12 25q-2 8 8 14l291 144q31 14 47 14t16 -15q0 -16 -34 -106t-83 -237l-57 -183q-37 -114 -44 -146t2 -45t40 -14h55q14 0 11 -10l-7 -33q-4 -10 -14 -10l-194 6l-193 -6
q-10 0 -6 10l6 33q4 10 14 10zM313 13q0 9 9 24l835 1276q6 8 12 8t15 -4l45 -29q8 -2 8 -8t-6 -16l-840 -1280q-14 -24 -33 -9l-39 27q-6 2 -6 11zM913 293h224l118 282q10 23 5 27q-6 4 -27 -14l-307 -264q-33 -31 -13 -31zM1122 0h-86q-14 0 -2 29l78 184h-313
q-31 0 -31 31q0 12 29 39l567 493q16 16 38 16t32 -14q8 -14 2 -28l-181 -457h129q14 0 5 -19l-19 -43q-10 -18 -20 -18h-121l-76 -188q-11 -25 -31 -25z" />
    <glyph glyph-name="onehalf" unicode="&#xbd;" horiz-adv-x="1433" 
d="M102 575h66q38 1 60 11t36 41t49 137l86 270q37 111 37 123t-17 12t-83 -26l-66 -27q-8 -4 -14 8l-12 25q-2 8 8 14l291 144q31 14 47 14t16 -15q0 -16 -34 -106t-83 -237l-57 -183q-37 -114 -44 -146t2 -45t40 -14h55q14 0 11 -10l-7 -33q-4 -10 -14 -10l-194 6l-193 -6
q-10 0 -6 10l6 33q4 10 14 10zM969 90h229q80 0 133 86q10 12 21 8q29 -18 18 -24q-20 -28 -51 -94t-34 -77t-15 -11t-20 10q-8 12 -81 12h-333q-25 0 -25 15t18 29q17 14 103 81q284 219 345 336q32 59 32 111t-28 94t-85 41q-82 0 -158 -127q-12 -20 -22 -17l-23 12
q-10 6 -6 19q25 68 93 134t166 65q96 -1 146 -51t50 -124q0 -211 -355 -450q-97 -65 -118 -76v-2zM313 13q0 9 9 24l835 1276q6 8 12 8t15 -4l45 -29q8 -2 8 -8t-6 -16l-840 -1280q-14 -24 -33 -9l-39 27q-6 2 -6 11z" />
    <glyph glyph-name="threequarters" unicode="&#xbe;" horiz-adv-x="1433" 
d="M276 514q-86 0 -137 42t-51 95q0 19 14 37t39 19q61 0 52 -78q-3 -16 25 -38t63 -22q88 0 151 66q64 66 64 165t-95 136q-20 8 -20 23t20 20q57 12 115 59q57 47 57 117q-1 31 -23 59t-84 27q-62 0 -124 -88q-18 -27 -31 -18l-20 16q-4 6 2 20q88 150 237 150
q82 0 124 -38t42 -81q0 -125 -178 -217q109 -57 109 -177t-110 -207t-241 -87zM334 13q0 9 8 24l836 1276q6 8 12 8t14 -4l45 -29q8 -2 8 -8t-6 -16l-839 -1280q-14 -24 -33 -9l-39 27q-6 2 -6 11zM924 293h223l119 282q10 23 4 27t-27 -14l-307 -264q-32 -31 -12 -31z
M1133 0h-86q-14 0 -3 29l78 184h-313q-31 0 -31 31q0 12 29 39l567 493q16 16 38 16t32 -14q8 -14 2 -28l-180 -457h129q12 0 4 -19l-19 -43q-8 -18 -20 -18h-121l-76 -188q-10 -25 -30 -25z" />
    <glyph glyph-name="questiondown" unicode="&#xbf;" horiz-adv-x="878" 
d="M717 750q0 -38 -29 -72t-70 -33q-40 0 -74 28q-34 29 -34 71t27 75t73 33t77 -32q30 -32 30 -70zM537 508q82 0 141 -55t59 -161t-81 -176t-186 -132q-104 -62 -149 -92q-45 -31 -91 -73t-63 -86q-17 -45 -17 -103t53 -112t151 -54t169 54t71 132q0 44 -20 68t-44 24
q-23 0 -30 -18q2 -6 2 -34t-27 -60t-70 -32t-62 24q-19 22 -19 46q0 64 51 104t115 40t114 -38q51 -38 51 -127t-86 -172t-227 -83q-90 0 -155 30t-93 78q-52 87 -53 154q0 68 15 122t50 98t63 74q52 56 236 149t208 120q47 51 48 102t-40 81t-97 30t-103 -26
q-46 -26 -67 -50q-8 -8 -18 4l-14 17q-8 8 -5 16q103 117 220 117z" />
    <glyph glyph-name="Agrave" unicode="&#xc0;" horiz-adv-x="1267" 
d="M977 1798q41 0 86 -45l240 -227q10 -7 4 -17l-15 -20q-4 -4 -14 0l-320 166q-58 33 -40 88t59 55zM655 688h334l158 541q6 20 -13 24t-32 -10zM692 70q68 0 106 30t66 138l103 378h-365l-287 -360q-84 -109 -84 -137q0 -49 72 -49h74q20 0 14 -21l-8 -39q-4 -16 -21 -16
l-268 6l-229 -6q-8 0 -15 4q-6 4 -4 10l11 45q2 16 14 17h31q123 0 248 149l948 1133q12 18 66 21t100 16t55 14q27 0 20 -21l-301 -1136q-20 -86 -20 -115t22 -45t54 -16h55q18 0 16 -21l-6 -37q-4 -18 -24 -18l-246 6l-240 -6q-25 0 -20 20l8 39q4 16 16 17h39z" />
    <glyph glyph-name="Aacute" unicode="&#xc1;" horiz-adv-x="1267" 
d="M1525 1786q34 0 52 -31t10 -67t-45 -52l-356 -145q-13 -6 -17 2l-12 20q-4 10 6 21l293 227q35 25 69 25zM655 688h334l158 541q6 20 -13 24t-32 -10zM692 70q68 0 106 30t66 138l103 378h-365l-287 -360q-84 -109 -84 -137q0 -49 72 -49h74q20 0 14 -21l-8 -39
q-4 -16 -21 -16l-268 6l-229 -6q-8 0 -15 4q-6 4 -4 10l11 45q2 16 14 17h31q123 0 248 149l948 1133q12 18 66 21t100 16t55 14q27 0 20 -21l-301 -1136q-20 -86 -20 -115t22 -45t54 -16h55q18 0 16 -21l-6 -37q-4 -18 -24 -18l-246 6l-240 -6q-25 0 -20 20l8 39
q4 16 16 17h39z" />
    <glyph glyph-name="Acircumflex" unicode="&#xc2;" horiz-adv-x="1267" 
d="M1253 1622l-243 -127q-10 -4 -15 4l-14 23q-4 4 4 12l285 246q16 12 26 -4l146 -246q6 -10 -4 -17l-21 -18q-8 -6 -22 4zM655 688h334l158 541q6 20 -13 24t-32 -10zM692 70q68 0 106 30t66 138l103 378h-365l-287 -360q-84 -109 -84 -137q0 -49 72 -49h74q20 0 14 -21
l-8 -39q-4 -16 -21 -16l-268 6l-229 -6q-8 0 -15 4q-6 4 -4 10l11 45q2 16 14 17h31q123 0 248 149l948 1133q12 18 66 21t100 16t55 14q27 0 20 -21l-301 -1136q-20 -86 -20 -115t22 -45t54 -16h55q18 0 16 -21l-6 -37q-4 -18 -24 -18l-246 6l-240 -6q-25 0 -20 20l8 39
q4 16 16 17h39z" />
    <glyph glyph-name="Atilde" unicode="&#xc3;" horiz-adv-x="1267" 
d="M1129 1724q44 0 121 -16t147 -16t106 65q8 14 17 8l30 -16q10 -4 -6 -35q-76 -135 -168 -135q-59 0 -130 16t-138 17q-26 0 -56 -24t-48 -52q-9 -12 -17 -6l-26 16q-6 6 0 21q27 65 75 111t93 46zM655 688h334l158 541q6 20 -13 24t-32 -10zM692 70q68 0 106 30t66 138
l103 378h-365l-287 -360q-84 -109 -84 -137q0 -49 72 -49h74q20 0 14 -21l-8 -39q-4 -16 -21 -16l-268 6l-229 -6q-8 0 -15 4q-6 4 -4 10l11 45q2 16 14 17h31q123 0 248 149l948 1133q12 18 66 21t100 16t55 14q27 0 20 -21l-301 -1136q-20 -86 -20 -115t22 -45t54 -16h55
q18 0 16 -21l-6 -37q-4 -18 -24 -18l-246 6l-240 -6q-25 0 -20 20l8 39q4 16 16 17h39z" />
    <glyph glyph-name="Adieresis" unicode="&#xc4;" horiz-adv-x="1267" 
d="M1419 1532q-102 0 -102 96q0 31 23 59q24 27 71 27t74 -24t27 -67q0 -42 -27 -67q-27 -24 -66 -24zM1055 1532q-102 0 -103 96q0 31 24 59q24 27 71 27t73 -24t27 -67q-1 -43 -27 -67t-65 -24zM655 688h334l158 541q6 20 -13 24t-32 -10zM692 70q68 0 106 30t66 138
l103 378h-365l-287 -360q-84 -109 -84 -137q0 -49 72 -49h74q20 0 14 -21l-8 -39q-4 -16 -21 -16l-268 6l-229 -6q-8 0 -15 4q-6 4 -4 10l11 45q2 16 14 17h31q123 0 248 149l948 1133q12 18 66 21t100 16t55 14q27 0 20 -21l-301 -1136q-20 -86 -20 -115t22 -45t54 -16h55
q18 0 16 -21l-6 -37q-4 -18 -24 -18l-246 6l-240 -6q-25 0 -20 20l8 39q4 16 16 17h39z" />
    <glyph glyph-name="Aring" unicode="&#xc5;" horiz-adv-x="1267" 
d="M1350 1649q0 53 -35 79t-73 25q-38 0 -68 -30q-30 -31 -31 -79q1 -48 31 -75t72 -27t73 27t31 80zM1252 1804q86 0 146 -41t60 -115t-64 -116t-153 -41q-88 0 -147 39q-60 38 -60 110t66 118t152 46zM655 688h334l158 541q6 20 -13 24t-32 -10zM692 70q68 0 106 30
t66 138l103 378h-365l-287 -360q-84 -109 -84 -137q0 -49 72 -49h74q20 0 14 -21l-8 -39q-4 -16 -21 -16l-268 6l-229 -6q-8 0 -15 4q-6 4 -4 10l11 45q2 16 14 17h31q123 0 248 149l948 1133q12 18 72 18t100 12t49 11q27 0 18 -31l-299 -1116q-20 -86 -20 -115t22 -45
t54 -16h55q18 0 16 -21l-6 -37q-4 -18 -24 -18l-246 6l-240 -6q-25 0 -20 20l8 39q4 16 16 17h39z" />
    <glyph glyph-name="AE" unicode="&#xc6;" horiz-adv-x="1878" 
d="M1327 705q72 0 107 7q34 7 72 45t65 117q4 12 14 11l31 -6q14 -4 12 -17l-110 -407q-2 -14 -15 -13l-33 4q-10 2 -8 17q10 117 -40 147t-189 29h-139l-183 -569h510q57 0 88 16t76 70l164 206q10 14 25 5l20 -13q12 -10 6 -28l-104 -297q-8 -23 -16 -29t-29 -6l-252 4
l-438 2h-168l-189 -2l-61 -4q-25 0 -21 22l6 37q2 16 17 17h76q111 0 147 114l145 455h-376l-326 -381q-94 -111 -94 -139q0 -49 73 -49h68q14 0 12 -21l-6 -39q-4 -16 -22 -16l-269 6l-229 -6q-18 0 -16 20l8 39q2 16 16 17h37q129 0 264 149l942 1047q12 10 10 23
q-3 13 -22 14h-133q-20 0 -12 16l18 49q4 10 23 10l96 -2q86 -4 139 -4h205q211 0 371 4l141 2q23 0 30 -7t13 -32l65 -280q2 -10 -12 -19l-22 -8q-12 -4 -21 6l-192 248q-14 16 -35 17h-350l-195 -598h215zM596 705h336l168 524q8 23 -2 25t-25 -11z" />
    <glyph glyph-name="Ccedilla" unicode="&#xc7;" horiz-adv-x="1335" 
d="M1061 20q0 34 -38 35q-20 0 -71 -23t-165 -48t-201 -9l-68 -104q100 -37 100 -120t-93 -144t-189 -62q-39 0 -39 32t25 32q83 6 127 42q45 36 45 71q0 64 -99 94l121 174q-158 39 -255 163t-97 303t79 369t218 342q100 111 231 173q292 138 533 -25q56 -56 102 -58
q37 0 53 64q6 18 19 12l26 -6q18 -2 13 -20l-109 -424q-6 -16 -22 -13l-29 4q-14 2 -12 21q35 162 -47 298t-250 136q-121 0 -212 -59t-189 -203q-98 -143 -147 -315q-48 -172 -48 -316q0 -197 100 -290t213 -93q360 0 510 363q10 20 21 16l34 -10q13 -5 11 -19l-146 -438
q-6 -14 -18 -10l-37 10q-10 5 -5 23t5 32z" />
    <glyph glyph-name="Egrave" unicode="&#xc8;" horiz-adv-x="1370" 
d="M762 1798q42 0 86 -45l239 -227q11 -7 5 -17l-15 -20q-4 -4 -14 0l-320 166q-59 33 -41 88t60 55zM438 1303h-65q-18 0 -13 22l11 39q4 14 24 14l78 -2q86 -4 205 -4h131q188 0 356 4l158 2q23 0 30 -7t13 -32l66 -280q2 -10 -13 -19l-22 -8q-12 -4 -21 6l-192 248
q-10 16 -33 17h-373l-176 -539h197q73 0 107 7t72 46t64 119q4 12 15 10l30 -6q14 -4 13 -16l-111 -408q-2 -14 -14 -12l-33 4q-10 2 -8 16q10 117 -40 146t-189 28h-123l-199 -628h530q98 0 164 86l164 206q10 14 25 5l20 -13q12 -10 6 -28l-104 -297q-8 -23 -16 -29
t-29 -6l-228 4l-413 2h-238l-192 -2l-62 -4q-23 0 -16 16l6 43q6 16 16 17h76q111 -1 148 114l311 973q25 78 -12 112t-101 34z" />
    <glyph glyph-name="Eacute" unicode="&#xc9;" horiz-adv-x="1370" 
d="M1288 1786q34 0 53 -31t11 -67t-45 -52l-357 -145q-12 -6 -16 2l-12 20q-4 10 6 21l293 227q33 25 67 25zM438 1303h-65q-18 0 -13 22l11 39q4 14 24 14l78 -2q86 -4 205 -4h131q188 0 356 4l158 2q23 0 30 -7t13 -32l66 -280q2 -10 -13 -19l-22 -8q-12 -4 -21 6
l-192 248q-10 16 -33 17h-373l-176 -539h197q73 0 107 7t72 46t64 119q4 12 15 10l30 -6q14 -4 13 -16l-111 -408q-2 -14 -14 -12l-33 4q-10 2 -8 16q10 117 -40 146t-189 28h-123l-199 -628h530q98 0 164 86l164 206q10 14 25 5l20 -13q12 -10 6 -28l-104 -297
q-8 -23 -16 -29t-29 -6l-228 4l-413 2h-238l-192 -2l-62 -4q-23 0 -16 16l6 43q6 16 16 17h76q111 -1 148 114l311 973q25 78 -12 112t-101 34z" />
    <glyph glyph-name="Ecircumflex" unicode="&#xca;" horiz-adv-x="1370" 
d="M997 1622l-243 -127q-10 -4 -15 4l-14 23q-4 4 4 12l285 246q16 12 26 -4l146 -246q6 -10 -4 -17l-21 -18q-8 -6 -22 4zM438 1303h-65q-18 0 -13 22l11 39q4 14 24 14l78 -2q86 -4 205 -4h131q188 0 356 4l158 2q23 0 30 -7t13 -32l66 -280q2 -10 -13 -19l-22 -8
q-12 -4 -21 6l-192 248q-10 16 -33 17h-373l-176 -539h197q73 0 107 7t72 46t64 119q4 12 15 10l30 -6q14 -4 13 -16l-111 -408q-2 -14 -14 -12l-33 4q-10 2 -8 16q10 117 -40 146t-189 28h-123l-199 -628h530q98 0 164 86l164 206q10 14 25 5l20 -13q12 -10 6 -28
l-104 -297q-8 -23 -16 -29t-29 -6l-228 4l-413 2h-238l-192 -2l-62 -4q-23 0 -16 16l6 43q6 16 16 17h76q111 -1 148 114l311 973q25 78 -12 112t-101 34z" />
    <glyph glyph-name="Edieresis" unicode="&#xcb;" horiz-adv-x="1370" 
d="M1163 1532q-102 0 -102 96q0 31 23 59q24 27 71 27t74 -24t27 -67q0 -42 -27 -67q-27 -24 -66 -24zM799 1532q-102 0 -103 96q0 31 24 59q24 27 71 27t73 -24t27 -67q-1 -43 -27 -67t-65 -24zM438 1303h-65q-18 0 -13 22l11 39q4 14 24 14l78 -2q86 -4 205 -4h131
q188 0 356 4l158 2q23 0 30 -7t13 -32l66 -280q2 -10 -13 -19l-22 -8q-12 -4 -21 6l-192 248q-10 16 -33 17h-373l-176 -539h197q73 0 107 7t72 46t64 119q4 12 15 10l30 -6q14 -4 13 -16l-111 -408q-2 -14 -14 -12l-33 4q-10 2 -8 16q10 117 -40 146t-189 28h-123
l-199 -628h530q98 0 164 86l164 206q10 14 25 5l20 -13q12 -10 6 -28l-104 -297q-8 -23 -16 -29t-29 -6l-228 4l-413 2h-238l-192 -2l-62 -4q-23 0 -16 16l6 43q6 16 16 17h76q111 -1 148 114l311 973q25 78 -12 112t-101 34z" />
    <glyph glyph-name="Igrave" unicode="&#xcc;" horiz-adv-x="735" 
d="M444 1798q42 0 86 -45l240 -227q10 -7 4 -17l-14 -20q-4 -4 -15 0l-319 166q-59 33 -41 88q17 55 59 55zM98 70q84 0 114 29q29 30 54 122l256 946q37 135 -73 136h-95q-12 0 -16 3t-2 13l10 47q2 12 27 12l276 -6l285 6q30 0 22 -20l-10 -39q-4 -16 -22 -16h-39
q-94 0 -129 -27t-62 -119l-256 -948q-20 -74 4 -107t105 -32h71q16 0 13 -21l-6 -39q-2 -16 -25 -16l-297 6l-303 -6q-20 0 -16 16l8 39q4 20 18 21h88z" />
    <glyph glyph-name="Iacute" unicode="&#xcd;" horiz-adv-x="735" 
d="M1012 1786q35 0 53 -31t10 -67t-45 -52l-356 -145q-13 -6 -17 2l-12 20q-4 10 6 21l293 227q33 25 68 25zM98 70q84 0 114 29q29 30 54 122l256 946q37 135 -73 136h-95q-12 0 -16 3t-2 13l10 47q2 12 27 12l276 -6l285 6q30 0 22 -20l-10 -39q-4 -16 -22 -16h-39
q-94 0 -129 -27t-62 -119l-256 -948q-20 -74 4 -107t105 -32h71q16 0 13 -21l-6 -39q-2 -16 -25 -16l-297 6l-303 -6q-20 0 -16 16l8 39q4 20 18 21h88z" />
    <glyph glyph-name="Icircumflex" unicode="&#xce;" horiz-adv-x="735" 
d="M721 1622l-244 -127q-10 -4 -14 4l-14 23q-4 4 4 12l284 246q16 12 27 -4l145 -246q6 -10 -4 -17l-20 -18q-8 -6 -23 4zM98 70q84 0 114 29q29 30 54 122l256 946q37 135 -73 136h-95q-12 0 -16 3t-2 13l10 47q2 12 27 12l276 -6l285 6q30 0 22 -20l-10 -39
q-4 -16 -22 -16h-39q-94 0 -129 -27t-62 -119l-256 -948q-20 -74 4 -107t105 -32h71q16 0 13 -21l-6 -39q-2 -16 -25 -16l-297 6l-303 -6q-20 0 -16 16l8 39q4 20 18 21h88z" />
    <glyph glyph-name="Idieresis" unicode="&#xcf;" horiz-adv-x="735" 
d="M887 1532q-102 0 -103 96q0 31 24 59q24 27 71 27t73 -24t27 -67q-1 -43 -27 -67t-65 -24zM522 1532q-102 0 -102 96q0 31 23 59q24 27 71 27t74 -24q26 -24 26 -67q0 -42 -26 -67q-27 -24 -66 -24zM98 70q84 0 114 29q29 30 54 122l256 946q37 135 -73 136h-95
q-12 0 -16 3t-2 13l10 47q2 12 27 12l276 -6l285 6q30 0 22 -20l-10 -39q-4 -16 -22 -16h-39q-94 0 -129 -27t-62 -119l-256 -948q-20 -74 4 -107t105 -32h71q16 0 13 -21l-6 -39q-2 -16 -25 -16l-297 6l-303 -6q-20 0 -16 16l8 39q4 20 18 21h88z" />
    <glyph glyph-name="Eth" unicode="&#xd0;" horiz-adv-x="1591" 
d="M25 -6q-20 0 -17 16l12 45q4 14 21 15h61q63 0 107 33q42 34 65 128l107 441h-221q-29 0 -23 18l17 45q2 12 26 13h221l109 446q27 102 -104 102h-93q-14 0 -19 3t-1 14l12 45q4 14 44 14t159 6l221 6q518 0 719 -198q154 -156 154 -371q0 -141 -40 -262t-105 -202
q-115 -143 -234 -212q-258 -145 -670 -145l-299 6q-148 0 -188 -3t-41 -3zM430 131q0 -61 145 -61q387 0 586 170q100 84 175 242t75 327q0 205 -131 340q-90 92 -212 126t-231 34q-108 0 -128 -6l-134 -555h293q31 0 21 -23l-15 -37q-6 -16 -36 -16h-283l-111 -455
q-14 -66 -14 -86z" />
    <glyph glyph-name="Ntilde" unicode="&#xd1;" horiz-adv-x="1527" 
d="M1004 1724q44 0 122 -16q76 -16 146 -16t106 65q6 14 17 8l30 -16q10 -4 -6 -35q-76 -135 -168 -135q-59 0 -130 16t-138 17q-25 0 -55 -24t-49 -52q-9 -12 -17 -6l-26 16q-4 6 0 21q28 65 76 111t92 46zM-14 -6q-20 0 -17 22l6 37q4 16 19 17h55q74 0 114 46t79 165
l282 901q18 55 -4 88q-23 33 -114 33h-78q-23 0 -17 24l8 31q6 20 23 20l352 -6q21 0 27 -12t10 -24t6 -17l441 -983q14 -31 24 -14l27 61l268 801q41 119 -65 119h-72q-25 0 -23 22l6 37q4 16 21 16l233 -6l177 6q25 0 18 -26l-6 -33q-2 -16 -19 -16h-51q-40 0 -64 -22
t-48 -91l-398 -1137q-21 -68 -56 -48q-15 9 -28 36l-487 1087q-14 27 -23 20q-10 -7 -14 -22l-262 -866q-57 -190 70 -190h79q23 0 19 -21l-6 -39q-6 -16 -25 -16l-258 6q-137 0 -181 -3t-48 -3z" />
    <glyph glyph-name="Ograve" unicode="&#xd2;" horiz-adv-x="1452" 
d="M742 1798q42 0 85 -45l240 -227q10 -7 4 -17l-14 -20q-4 -4 -15 0l-319 166q-59 33 -41 88t60 55zM690 49q162 0 306 131t227 332q82 202 82 392t-88 300t-247 109q-159 1 -298 -139t-223 -346t-84 -389t98 -287t227 -103zM737 -31q-223 0 -356 140q-172 174 -172 481
q0 207 99 395t266 303t352 115q233 0 386 -171q152 -171 152 -458t-188 -537q-90 -120 -232 -194t-307 -74z" />
    <glyph glyph-name="Oacute" unicode="&#xd3;" horiz-adv-x="1452" 
d="M1309 1786q35 0 53 -31t10 -67t-45 -52l-356 -145q-13 -6 -17 2l-12 20q-4 10 6 21l293 227q33 25 68 25zM690 49q162 0 306 131t227 332q82 202 82 392t-88 300t-247 109q-159 1 -298 -139t-223 -346t-84 -389t98 -287t227 -103zM737 -31q-223 0 -356 140
q-172 174 -172 481q0 207 99 395t266 303t352 115q233 0 386 -171q152 -171 152 -458t-188 -537q-90 -120 -232 -194t-307 -74z" />
    <glyph glyph-name="Ocircumflex" unicode="&#xd4;" horiz-adv-x="1452" 
d="M977 1622l-244 -127q-10 -4 -14 4l-14 23q-4 4 4 12l284 246q16 12 27 -4l145 -246q6 -10 -4 -17l-20 -18q-8 -6 -23 4zM690 49q162 0 306 131t227 332q82 202 82 392t-88 300t-247 109q-159 1 -298 -139t-223 -346t-84 -389t98 -287t227 -103zM737 -31q-223 0 -356 140
q-172 174 -172 481q0 207 99 395t266 303t352 115q233 0 386 -171q152 -171 152 -458t-188 -537q-90 -120 -232 -194t-307 -74z" />
    <glyph glyph-name="Otilde" unicode="&#xd5;" horiz-adv-x="1452" 
d="M873 1724q44 0 121 -16t147 -16t106 65q6 14 17 8l30 -16q10 -4 -6 -35q-76 -135 -168 -135q-59 0 -130 16t-138 17q-26 0 -56 -24t-48 -52q-9 -12 -17 -6l-26 16q-4 6 0 21q27 65 75 111t93 46zM690 49q162 0 306 131t227 332q82 202 82 392t-88 300t-247 109
q-159 1 -298 -139t-223 -346t-84 -389t98 -287t227 -103zM737 -31q-223 0 -356 140q-172 174 -172 481q0 207 99 395t266 303t352 115q233 0 386 -171q152 -171 152 -458t-188 -537q-90 -120 -232 -194t-307 -74z" />
    <glyph glyph-name="Odieresis" unicode="&#xd6;" horiz-adv-x="1452" 
d="M1163 1532q-102 0 -102 96q0 31 23 59q24 27 71 27t74 -24t27 -67q0 -42 -27 -67q-27 -24 -66 -24zM799 1532q-102 0 -103 96q0 31 24 59q24 27 71 27t73 -24t27 -67q-1 -43 -27 -67t-65 -24zM690 49q162 0 306 131t227 332q82 202 82 392t-88 300t-247 109
q-159 1 -298 -139t-223 -346t-84 -389t98 -287t227 -103zM737 -31q-223 0 -356 140q-172 174 -172 481q0 207 99 395t266 303t352 115q233 0 386 -171q152 -171 152 -458t-188 -537q-90 -120 -232 -194t-307 -74z" />
    <glyph glyph-name="multiply" unicode="&#xd7;" 
d="M918 176l-84 -86l-297 299l-297 -299l-72 86l293 289l-291 287l82 84l293 -295l293 295l77 -76l-294 -291z" />
    <glyph glyph-name="Oslash" unicode="&#xd8;" horiz-adv-x="1452" 
d="M209 590q0 207 99 395t266 303q168 115 354 115t319 -109l80 99q8 12 21 6l47 -35q14 -8 -9 -33l-77 -96q155 -168 155 -458t-188 -540q-90 -120 -232 -194t-307 -74q-217 0 -350 133l-96 -118q-12 -16 -23 -7l-43 39q-8 8 -2 19l109 133q-123 158 -123 422zM960 1313
q-150 1 -288 -139q-139 -140 -223 -346t-84 -371q-1 -115 36 -203l791 973q-82 86 -232 86zM695 49q157 0 301 131t227 332q82 201 82 410q-1 143 -60 235l-799 -981q92 -127 249 -127z" />
    <glyph glyph-name="Ugrave" unicode="&#xd9;" horiz-adv-x="1497" 
d="M826 1798q42 0 85 -45l240 -227q10 -7 4 -17l-14 -20q-4 -4 -15 0l-319 166q-59 33 -41 88t60 55zM1720 1303h-43q-79 -1 -118 -95l-201 -637q-92 -297 -240 -449t-372 -153t-355 95t-131 280q0 106 43 256l174 576q43 127 -57 127h-74q-16 0 -14 16l10 43q2 16 27 16
l243 -6l256 6q20 0 19 -20l-8 -39q-4 -16 -21 -16h-65q-31 -1 -51 -7t-42 -32q-23 -26 -38 -78l-168 -547q-60 -217 -60 -298t39 -143q60 -95 188 -123t221 8q94 35 154 91q126 116 217 414l181 590q39 125 -76 125h-78q-23 0 -18 16l6 39q6 20 26 20l250 -6l187 6
q20 0 18 -20l-6 -39q-4 -16 -23 -16z" />
    <glyph glyph-name="Uacute" unicode="&#xda;" horiz-adv-x="1497" 
d="M1435 1786q34 0 52 -31t10 -67t-45 -52l-356 -145q-13 -6 -17 2l-12 20q-4 10 6 21l293 227q35 25 69 25zM1720 1303h-43q-79 -1 -118 -95l-201 -637q-92 -297 -240 -449t-372 -153t-355 95t-131 280q0 106 43 256l174 576q43 127 -57 127h-74q-16 0 -14 16l10 43
q2 16 27 16l243 -6l256 6q20 0 19 -20l-8 -39q-4 -16 -21 -16h-65q-31 -1 -51 -7t-42 -32q-23 -26 -38 -78l-168 -547q-60 -217 -60 -298t39 -143q60 -95 188 -123t221 8q94 35 154 91q126 116 217 414l181 590q39 125 -76 125h-78q-23 0 -18 16l6 39q6 20 26 20l250 -6
l187 6q20 0 18 -20l-6 -39q-4 -16 -23 -16z" />
    <glyph glyph-name="Ucircumflex" unicode="&#xdb;" horiz-adv-x="1497" 
d="M1184 1622l-244 -127q-10 -4 -14 4l-15 23q-4 4 4 12l285 246q16 12 27 -4l145 -246q6 -10 -4 -17l-20 -18q-8 -6 -23 4zM1720 1303h-43q-79 -1 -118 -95l-201 -637q-92 -297 -240 -449t-372 -153t-355 95t-131 280q0 106 43 256l174 576q43 127 -57 127h-74
q-16 0 -14 16l10 43q2 16 27 16l243 -6l256 6q20 0 19 -20l-8 -39q-4 -16 -21 -16h-65q-31 -1 -51 -7t-42 -32q-23 -26 -38 -78l-168 -547q-60 -217 -60 -298t39 -143q60 -95 188 -123t221 8q94 35 154 91q126 116 217 414l181 590q39 125 -76 125h-78q-23 0 -18 16l6 39
q6 20 26 20l250 -6l187 6q20 0 18 -20l-6 -39q-4 -16 -23 -16z" />
    <glyph glyph-name="Udieresis" unicode="&#xdc;" horiz-adv-x="1497" 
d="M1350 1532q-102 0 -103 96q0 31 24 59q24 27 71 27q48 0 74 -24t26 -67t-26 -67t-66 -24zM985 1532q-102 0 -102 96q0 31 23 59q24 27 71 27t74 -24t27 -67q0 -42 -27 -67q-27 -24 -66 -24zM1720 1303h-43q-79 -1 -118 -95l-201 -637q-92 -297 -240 -449t-372 -153
t-355 95t-131 280q0 106 43 256l174 576q43 127 -57 127h-74q-16 0 -14 16l10 43q2 16 27 16l243 -6l256 6q20 0 19 -20l-8 -39q-4 -16 -21 -16h-65q-31 -1 -51 -7t-42 -32q-23 -26 -38 -78l-168 -547q-60 -217 -60 -298t39 -143q60 -95 188 -123t221 8q94 35 154 91
q126 116 217 414l181 590q39 125 -76 125h-78q-23 0 -18 16l6 39q6 20 26 20l250 -6l187 6q20 0 18 -20l-6 -39q-4 -16 -23 -16z" />
    <glyph glyph-name="Yacute" unicode="&#xdd;" horiz-adv-x="1105" 
d="M1158 1786q34 0 52 -31t10 -67t-44 -52l-357 -145q-12 -6 -16 2l-12 20q-4 10 6 21l293 227q34 25 68 25zM1386 1303h-38q-49 0 -83 -23q-33 -23 -101 -110t-252 -350t-205 -295q-20 -32 -37 -109l-52 -232q-16 -74 4 -94t76 -20h62q18 0 14 -17l-6 -43q-4 -16 -23 -16
l-77 2q-80 4 -163 4t-140 -1t-87 -3t-36 -2q-18 0 -17 16l8 43q0 16 19 17h59q65 0 93 28t40 80l68 303q10 49 -10 111l-221 633q-27 78 -125 78h-47q-16 0 -15 16l8 43q2 16 21 16l215 -6l252 6q22 0 18 -16l-4 -43q-2 -16 -18 -16h-54q-100 0 -65 -99l190 -569
q10 -35 31 -8q66 90 214 307t166 266q37 103 -79 103h-41q-18 0 -14 20l4 39q2 16 25 16l225 -6l201 6q24 0 20 -16l-6 -39q-2 -20 -17 -20z" />
    <glyph glyph-name="Thorn" unicode="&#xde;" horiz-adv-x="1257" 
d="M659 369q211 -1 320 117t109 279t-123 227q-97 53 -194 53q-98 1 -116 -3l-176 -655q57 -18 180 -18zM111 70q77 0 109 42t52 121l244 926q41 143 -65 144h-95q-16 0 -12 20l12 41q4 14 23 14l260 -6q84 0 164 4l78 2q20 0 25 -4t3 -16l-6 -35q-2 -20 -22 -20h-62
q-92 0 -129 -127l-18 -62q16 -2 120 -2t194 -19q89 -19 159 -77q71 -58 97 -116q26 -60 26 -163q0 -174 -151 -304t-439 -130q-141 0 -215 14l-25 -98q-35 -150 70 -149h78q20 0 16 -21l-6 -39q-6 -16 -25 -16l-272 6l-238 -6q-23 0 -20 20l4 35q2 20 23 21h43z" />
    <glyph glyph-name="germandbls" unicode="&#xdf;" horiz-adv-x="937" 
d="M846 1403q88 0 146 -46t58 -130q1 -155 -186 -328q-4 -4 -30 -28q-81 -76 -95 -121q-14 -44 -14 -91q-1 -47 21 -90t36 -69t16 -29q2 -5 13 -25q63 -107 64 -216q2 -109 -78 -180q-79 -70 -179 -70t-152 32t-52 82q0 24 19 46t50 22q61 0 84 -66q11 -31 25 -44t54 -13
t75 36t35 95t-42 136t-44 89q-4 12 -18 38q-46 92 -46 163t32 132q32 62 121 146q30 29 32 31q115 115 114 283q0 59 -36 100t-81 41q-82 0 -130 -41q-47 -41 -70 -88q-56 -118 -80 -197q-24 -81 -44 -145t-32 -108q-14 -44 -90 -304q-76 -261 -166 -509
q-201 -545 -506 -545q-49 0 -90 37t-41 79t25 68q26 26 60 25q34 0 58 -26t29 -54q10 -47 47 -47q66 0 132 93t120 253q52 160 144 490t147 487q117 336 248 471t297 135z" />
    <glyph glyph-name="agrave" unicode="&#xe0;" horiz-adv-x="931" 
d="M498 1266q38 0 77 -49l173 -228q8 -8 0 -16l-15 -17q-8 -10 -18 0l-246 187q-39 33 -24 78t53 45zM274 88q68 0 214 164t190 255t45 159q0 121 -96 120q-88 0 -187 -116q-98 -117 -159 -264t-62 -246q0 -72 55 -72zM860 852h72q14 0 6 -18q-28 -55 -140 -356t-112 -351
q0 -25 23 -25q16 0 71 52t72 73q12 12 16 4l19 -20q25 -25 -129 -146q-109 -85 -185 -85q-43 0 -43 36t99 310l-11 4q-78 -121 -208 -236t-230 -114q-41 0 -76 34t-34 97q0 145 93 321t232 298t251 122t155 -70l39 56q10 14 20 14z" />
    <glyph glyph-name="aacute" unicode="&#xe1;" horiz-adv-x="931" 
d="M972 1235q34 0 50 -25q16 -24 7 -58t-50 -52l-309 -146q-13 -6 -17 2l-14 21q-4 4 8 16l258 211q33 31 67 31zM274 88q68 0 214 164t190 255t45 159q0 121 -96 120q-88 0 -187 -116q-98 -117 -159 -264t-62 -246q0 -72 55 -72zM860 852h72q14 0 6 -18q-28 -55 -140 -356
t-112 -351q0 -25 23 -25q16 0 71 52t72 73q12 12 16 4l19 -20q25 -25 -129 -146q-109 -85 -185 -85q-43 0 -43 36t99 310l-11 4q-78 -121 -208 -236t-230 -114q-41 0 -76 34t-34 97q0 145 93 321t232 298t251 122t155 -70l39 56q10 14 20 14z" />
    <glyph glyph-name="acircumflex" unicode="&#xe2;" horiz-adv-x="931" 
d="M829 967l-108 135l-205 -133q-10 -4 -14 2l-13 18q-4 4 7 15l256 262q14 10 20 -9l92 -266q6 -10 -2 -16q-27 -14 -33 -8zM274 88q68 0 214 164t190 255t45 159q0 121 -96 120q-88 0 -187 -116q-98 -117 -159 -264t-62 -246q0 -72 55 -72zM860 852h72q14 0 6 -18
q-28 -55 -140 -356t-112 -351q0 -25 23 -25q16 0 71 52t72 73q12 12 16 4l19 -20q25 -25 -129 -146q-109 -85 -185 -85q-43 0 -43 36t99 310l-11 4q-78 -121 -208 -236t-230 -114q-41 0 -76 34t-34 97q0 145 93 321t232 298t251 122t155 -70l39 56q10 14 20 14z" />
    <glyph glyph-name="atilde" unicode="&#xe3;" horiz-adv-x="931" 
d="M610 1161q42 0 98 -16q56 -17 108 -17t89 66q8 14 17 8l30 -16q10 -6 -12 -45t-68 -76q-45 -37 -84 -37t-99 16t-91 17q-30 0 -62 -24t-51 -54q-8 -10 -14 -6l-27 16q-6 6 2 21q25 59 73 103t91 44zM274 88q68 0 214 164t190 255t45 159q0 121 -96 120q-88 0 -187 -116
q-98 -117 -159 -264t-62 -246q0 -72 55 -72zM860 852h72q14 0 6 -18q-28 -55 -140 -356t-112 -351q0 -25 23 -25q16 0 71 52t72 73q12 12 16 4l19 -20q25 -25 -129 -146q-109 -85 -185 -85q-43 0 -43 36t99 310l-11 4q-78 -121 -208 -236t-230 -114q-41 0 -76 34t-34 97
q0 145 93 321t232 298t251 122t155 -70l39 56q10 14 20 14z" />
    <glyph glyph-name="adieresis" unicode="&#xe4;" horiz-adv-x="931" 
d="M864 1126q-38 0 -66 20t-28 59q0 38 23 64q23 25 65 25t66 -24t24 -61q0 -39 -24 -61t-60 -22zM586 1126q-37 0 -66 20q-28 20 -28 59q0 38 22 64q23 25 65 25q43 0 67 -24t24 -61q0 -39 -24 -61t-60 -22zM274 88q68 0 214 164t190 255t45 159q0 121 -96 120
q-88 0 -187 -116q-98 -117 -159 -264t-62 -246q0 -72 55 -72zM860 852h72q14 0 6 -18q-28 -55 -140 -356t-112 -351q0 -25 23 -25q16 0 71 52t72 73q12 12 16 4l19 -20q25 -25 -129 -146q-109 -85 -185 -85q-43 0 -43 36t99 310l-11 4q-78 -121 -208 -236t-230 -114
q-41 0 -76 34t-34 97q0 145 93 321t232 298t251 122t155 -70l39 56q10 14 20 14z" />
    <glyph glyph-name="aring" unicode="&#xe5;" horiz-adv-x="931" 
d="M606 1132q0 -50 32 -76t72 -26t68 28t29 79q0 51 -32 75q-31 24 -69 25q-38 0 -69 -28t-31 -77zM905 1136q1 -72 -57 -112q-58 -41 -144 -41t-141 39q-55 40 -55 108t61 112t147 44t137 -39q52 -39 52 -111zM274 88q68 0 214 164t190 255t45 159q0 121 -96 120
q-88 0 -187 -116q-98 -117 -159 -264t-62 -246q0 -72 55 -72zM860 852h72q14 0 6 -18q-28 -55 -140 -356t-112 -351q0 -25 23 -25q16 0 71 52t72 73q12 12 16 4l19 -20q25 -25 -129 -146q-109 -85 -185 -85q-43 0 -43 36t99 310l-11 4q-78 -121 -208 -236t-230 -114
q-41 0 -76 34t-34 97q0 145 93 321t232 298t251 122t155 -70l39 56q10 14 20 14z" />
    <glyph glyph-name="ae" unicode="&#xe6;" horiz-adv-x="1105" 
d="M709 733q-43 0 -131 -61q-204 -141 -328 -340q-66 -104 -67 -176t53 -72q72 0 241 131q55 276 240 477q41 41 -8 41zM627 307q372 235 372 366q0 89 -67 89q-92 0 -186 -135t-119 -320zM127 -20q-43 0 -69 32t-25 70q0 102 86 237t217 253t304 199t329 81q86 0 126 -36
t40 -91q0 -127 -183 -262q-94 -72 -331 -219q-1 -76 27 -122t88 -46t123 43q62 43 99 102q7 10 19 2l22 -18q10 -8 2 -19q-55 -78 -141 -142t-190 -64q-180 0 -191 174q-213 -174 -352 -174z" />
    <glyph glyph-name="ccedilla" unicode="&#xe7;" horiz-adv-x="618" 
d="M88 168q0 139 66 299q66 161 176 273t223 112q63 0 90 -38t27 -75t-28 -63t-62 -25q-34 0 -48 45q-6 18 -23 36t-40 18q-80 0 -150 -142q-39 -82 -63 -192t-25 -166q0 -170 82 -170q51 0 101 37t70 62t28 20l23 -21q12 -8 2 -22q-29 -42 -104 -100t-152 -72l-86 -121
q84 -41 84 -116q-1 -75 -99 -126t-164 -51q-39 0 -39 35t37 35q57 0 105 29q47 30 47 67q0 57 -78 86l117 164q-49 10 -83 56t-34 126z" />
    <glyph glyph-name="egrave" unicode="&#xe8;" horiz-adv-x="714" 
d="M431 1266q38 0 77 -49l172 -228q8 -8 0 -16l-14 -17q-8 -10 -19 0l-246 187q-39 33 -23 78t53 45zM547 762q-86 0 -172 -116t-103 -193q76 -5 208 63t132 168q0 34 -16 56t-49 22zM284 -20q-101 0 -148 49q-46 49 -46 163t74 262t188 261q55 55 131 96q75 41 137 41
t93 -34t30 -75q0 -77 -52 -149t-138 -117q-143 -72 -297 -84q-27 -63 -27 -188q0 -61 35 -95q34 -34 88 -34t117 44t100 101q8 12 19 2l22 -18q14 -8 2 -19q-55 -78 -141 -142t-187 -64z" />
    <glyph glyph-name="eacute" unicode="&#xe9;" horiz-adv-x="714" 
d="M864 1235q32 0 49 -25q15 -24 7 -58t-50 -52l-309 -146q-12 -6 -16 2l-15 21q-4 4 9 16l258 211q35 31 67 31zM547 762q-86 0 -172 -116t-103 -193q76 -5 208 63t132 168q0 34 -16 56t-49 22zM284 -20q-101 0 -148 49q-46 49 -46 163t74 262t188 261q55 55 131 96
q75 41 137 41t93 -34t30 -75q0 -77 -52 -149t-138 -117q-143 -72 -297 -84q-27 -63 -27 -188q0 -61 35 -95q34 -34 88 -34t117 44t100 101q8 12 19 2l22 -18q14 -8 2 -19q-55 -78 -141 -142t-187 -64z" />
    <glyph glyph-name="ecircumflex" unicode="&#xea;" horiz-adv-x="714" 
d="M762 967l-109 135l-204 -133q-10 -4 -15 2l-12 18q-4 4 6 15l256 262q14 10 21 -9l92 -266q6 -10 -2 -16q-28 -13 -33 -8zM547 762q-86 0 -172 -116t-103 -193q76 -5 208 63t132 168q0 34 -16 56t-49 22zM284 -20q-101 0 -148 49q-46 49 -46 163t74 262t188 261
q55 55 131 96q75 41 137 41t93 -34t30 -75q0 -77 -52 -149t-138 -117q-143 -72 -297 -84q-27 -63 -27 -188q0 -61 35 -95q34 -34 88 -34t117 44t100 101q8 12 19 2l22 -18q14 -8 2 -19q-55 -78 -141 -142t-187 -64z" />
    <glyph glyph-name="edieresis" unicode="&#xeb;" horiz-adv-x="714" 
d="M797 1126q-37 0 -66 20t-29 59q0 38 22 64q22 25 65 25t67 -24t25 -61q1 -39 -23 -61t-61 -22zM518 1126q-38 0 -66 20t-28 59q0 38 21 64q22 25 65 25t68 -24q24 -24 24 -61q0 -39 -24 -61t-60 -22zM547 762q-86 0 -172 -116t-103 -193q76 -5 208 63t132 168
q0 34 -16 56t-49 22zM284 -20q-101 0 -148 49q-46 49 -46 163t74 262t188 261q55 55 131 96q75 41 137 41t93 -34t30 -75q0 -77 -52 -149t-138 -117q-143 -72 -297 -84q-27 -63 -27 -188q0 -61 35 -95q34 -34 88 -34t117 44t100 101q8 12 19 2l22 -18q14 -8 2 -19
q-55 -78 -141 -142t-187 -64z" />
    <glyph glyph-name="igrave" unicode="&#xec;" horiz-adv-x="587" 
d="M286 1266q38 0 76 -49l173 -228q8 -8 0 -16l-15 -17q-8 -10 -18 0l-246 187q-39 33 -24 78q16 45 54 45zM481 852q49 0 49 -59q0 -33 -69 -220l-119 -311q-37 -104 -37 -134t23 -36q29 6 91 64t73 80q8 10 22 -5l16 -14q10 -14 5 -24q-58 -81 -165 -147
q-106 -66 -182 -66q-34 4 -34 48t120 373l60 160q37 100 37 124t-29 24q-27 0 -129 -107q-27 -30 -37 -40t-20 1l-17 19q-12 10 -3 23q8 13 60 67t139 118t146 62z" />
    <glyph glyph-name="iacute" unicode="&#xed;" horiz-adv-x="587" 
d="M759 1235q34 0 50 -25q16 -24 7 -58t-50 -52l-309 -146q-13 -6 -17 2l-14 21q-4 4 8 16l258 211q33 31 67 31zM481 852q49 0 49 -59q0 -33 -69 -220l-119 -311q-37 -104 -37 -134t23 -36q29 6 91 64t73 80q8 10 22 -5l16 -14q10 -14 5 -24q-58 -81 -165 -147
q-106 -66 -182 -66q-34 4 -34 48t120 373l60 160q37 100 37 124t-29 24q-27 0 -129 -107q-27 -30 -37 -40t-20 1l-17 19q-12 10 -3 23q8 13 60 67t139 118t146 62z" />
    <glyph glyph-name="icircumflex" unicode="&#xee;" horiz-adv-x="587" 
d="M637 967l-109 135l-204 -133q-10 -4 -15 2l-12 18q-4 4 6 15l256 262q14 10 21 -9l92 -266q6 -10 -2 -16q-28 -13 -33 -8zM481 852q49 0 49 -59q0 -33 -69 -220l-119 -311q-37 -104 -37 -134t23 -36q29 6 91 64t73 80q8 10 22 -5l16 -14q10 -14 5 -24q-58 -81 -165 -147
q-106 -66 -182 -66q-34 4 -34 48t120 373l60 160q37 100 37 124t-29 24q-27 0 -129 -107q-27 -30 -37 -40t-20 1l-17 19q-12 10 -3 23q8 13 60 67t139 118t146 62z" />
    <glyph glyph-name="idieresis" unicode="&#xef;" horiz-adv-x="587" 
d="M672 1126q-37 0 -66 20q-28 20 -28 59q0 38 22 64q23 25 65 25q43 0 67 -24t24 -61q0 -39 -24 -61t-60 -22zM393 1126q-37 0 -65 20t-29 59q0 38 23 64q22 25 64 25t67 -24t25 -61q0 -39 -24 -61t-61 -22zM481 852q49 0 49 -59q0 -33 -69 -220l-119 -311
q-37 -98 -37 -131t23 -39q29 6 91 64t73 80q8 10 22 -5l16 -14q10 -14 5 -24q-58 -81 -165 -147q-106 -66 -182 -66q-34 4 -34 52t120 369l60 160q37 100 37 124t-29 24q-27 0 -129 -107q-27 -30 -37 -40t-20 1l-17 19q-12 10 -3 23q8 13 60 67t139 118t146 62z" />
    <glyph glyph-name="eth" unicode="&#xf0;" horiz-adv-x="847" 
d="M817 696q0 -145 -52 -306t-165 -286t-256 -124q-69 0 -137 40q-93 57 -93 253q0 108 49 241q48 134 154 236t244 102q74 0 117 -37q-10 154 -64 299l-219 -74q-14 -6 -18 9l-12 45q-2 10 10 14l219 72q-53 111 -111 168q-14 10 -4 20l35 31q17 13 83 -63t91 -124l152 52
q14 6 18 -7l14 -38q8 -14 -8 -19l-145 -49q98 -197 98 -455zM680 648q0 142 -114 140q-54 0 -132 -84t-141 -250q-63 -167 -64 -288q0 -39 26 -81t75 -44q86 2 171 122t132 264t47 221z" />
    <glyph glyph-name="ntilde" unicode="&#xf1;" horiz-adv-x="1062" 
d="M696 1161q42 0 98 -16q56 -17 108 -17t89 66q8 14 17 8l30 -16q10 -6 -12 -45t-68 -76q-45 -37 -84 -37t-99 16t-91 17q-30 0 -62 -24t-51 -54q-8 -10 -14 -6l-27 16q-6 6 2 21q25 59 73 103t91 44zM227 0h-80q-16 0 -21 4t-1 14l145 379q106 273 106 309t-30 35
q-49 0 -172 -137q-10 -10 -20 2l-19 19q-10 10 -4 20q29 35 68 73t117 86t128 48q82 0 82 -61q0 -47 -51 -173q-51 -125 -53 -133l8 -4q70 113 209 242t258 129q47 0 75 -23t28 -49t-3 -40q-2 -14 -3 -27q-1 -11 -7 -31t-12 -44t-15 -47q-10 -23 -21 -51t-16 -40t-19 -46
t-68 -169q-56 -135 -56 -162t22 -27t74 38q50 38 76 67q12 10 23 -4l14 -17q10 -10 2 -22q-33 -43 -136 -111t-191 -67q-49 0 -50 40q0 29 120 331t120 341q0 47 -55 47q-55 1 -177 -111t-192 -222t-123 -256l-51 -138q-6 -12 -29 -12z" />
    <glyph glyph-name="ograve" unicode="&#xf2;" horiz-adv-x="813" 
d="M419 1266q38 0 77 -49l172 -228q8 -8 0 -16l-15 -17q-8 -10 -18 0l-246 187q-39 33 -23 78t53 45zM287 78q98 0 201 115q102 115 162 245t62 192t-27 95t-87 33t-136 -62t-151 -182q-119 -188 -118 -332q0 -47 27 -76q28 -28 67 -28zM317 -20q-86 0 -148 74
q-63 74 -63 199q0 124 59 262q58 137 169 237t225 100q113 0 173 -67t60 -181t-54 -255t-168 -255t-253 -114z" />
    <glyph glyph-name="oacute" unicode="&#xf3;" horiz-adv-x="813" 
d="M873 1235q33 0 49 -25q16 -24 7 -58t-50 -52l-310 -146q-12 -6 -16 2l-14 21q-4 4 8 16l258 211q35 31 68 31zM287 78q98 0 201 115q102 115 162 245t62 192t-27 95t-87 33t-136 -62t-151 -182q-119 -188 -118 -332q0 -47 27 -76q28 -28 67 -28zM317 -20q-86 0 -148 74
q-63 74 -63 199q0 124 59 262q58 137 169 237t225 100q113 0 173 -67t60 -181t-54 -255t-168 -255t-253 -114z" />
    <glyph glyph-name="ocircumflex" unicode="&#xf4;" horiz-adv-x="813" 
d="M750 967l-109 135l-205 -133q-10 -4 -14 2l-12 18q-4 4 6 15l256 262q14 10 20 -9l92 -266q6 -10 -2 -16q-27 -13 -32 -8zM287 78q98 0 201 115q102 115 162 245t62 192t-27 95t-87 33t-136 -62t-151 -182q-119 -188 -118 -332q0 -47 27 -76q28 -28 67 -28zM317 -20
q-86 0 -148 74q-63 74 -63 199q0 124 59 262q58 137 169 237t225 100q113 0 173 -67t60 -181t-54 -255t-168 -255t-253 -114z" />
    <glyph glyph-name="otilde" unicode="&#xf5;" horiz-adv-x="813" 
d="M510 1161q43 0 98 -16q56 -17 108 -17t89 66q6 14 16 8l31 -16q10 -6 -12 -45t-68 -76q-45 -37 -84 -37q-40 0 -100 16t-90 17q-30 0 -63 -24q-32 -24 -50 -54q-8 -10 -14 -6l-27 16q-6 6 2 21q25 59 73 103t91 44zM287 78q98 0 201 115q102 115 162 245t62 192t-27 95
t-87 33t-136 -62t-151 -182q-119 -188 -118 -332q0 -47 27 -76q28 -28 67 -28zM317 -20q-86 0 -148 74q-63 74 -63 199q0 124 59 262q58 137 169 237t225 100q113 0 173 -67t60 -181t-54 -255t-168 -255t-253 -114z" />
    <glyph glyph-name="odieresis" unicode="&#xf6;" horiz-adv-x="813" 
d="M805 1126q-37 0 -66 20t-29 59q0 38 22 64q22 25 65 25t67 -24t25 -61q1 -39 -23 -61t-61 -22zM526 1126q-38 0 -66 20t-28 59q0 38 23 64q23 25 65 25t66 -24t24 -61q0 -39 -24 -61t-60 -22zM287 78q98 0 201 115q104 115 162 245t60 192t-26 95t-86 33t-136 -62
t-151 -182q-119 -188 -118 -332q0 -47 27 -76q28 -28 67 -28zM317 -20q-86 0 -148 74q-63 74 -63 199q0 124 59 262q58 137 169 237t225 100q113 0 173 -67t60 -181t-54 -255t-168 -255t-253 -114z" />
    <glyph glyph-name="divide" unicode="&#xf7;" 
d="M546 66q-48 0 -81 30t-33 74q0 45 33 77t81 32t81 -32t33 -77t-33 -75q-33 -29 -81 -29zM546 705q-48 1 -81 31t-33 75t33 76t81 31t81 -31t33 -76t-33 -76q-33 -30 -81 -30zM147 547h795v-111h-795v111z" />
    <glyph glyph-name="oslash" unicode="&#xf8;" horiz-adv-x="813" 
d="M612 758q-147 0 -303 -246q-59 -94 -89 -192t-27 -148l495 551q-23 35 -76 35zM707 655l-486 -549q23 -29 70 -28q94 0 194 110t161 242q60 133 65 221zM328 -20q-98 0 -156 71l-84 -88q-6 -8 -14 0l-37 39q-4 8 4 16l92 93q-27 80 -27 133q0 135 60 274q59 138 170 236
q112 98 230 98t173 -74l74 86q10 12 18 4l41 -32q10 -6 0 -17l-96 -106q16 -66 17 -101q0 -188 -124 -400q-59 -100 -151 -166t-190 -66z" />
    <glyph glyph-name="ugrave" unicode="&#xf9;" horiz-adv-x="991" 
d="M509 1266q38 0 77 -49l172 -228q8 -8 0 -16l-15 -17q-8 -10 -18 0l-246 187q-39 33 -23 78t53 45zM889 831h84q25 0 18 -18l-157 -426q-86 -231 -86 -257t16 -34q20 0 82 52t74 70t22 5l21 -20q8 -9 -1 -21q-8 -12 -56 -55t-133 -95t-148 -52q-39 0 -39 47q0 8 131 350
l-12 6q-83 -119 -207 -247q-70 -72 -149 -114t-130 -42q-94 0 -96 83q1 40 23 95t36 89t41 95t42 96t59 139q45 104 45 131q0 28 -29 28t-85 -46q-56 -45 -79 -72q-8 -8 -18 0l-19 19q-10 6 2 18q33 43 132 120t184 77q29 0 44 -23t15 -51q0 -66 -121 -329t-121 -322
q0 -35 35 -35q72 0 193 126q224 234 286 403l72 196q4 14 29 14z" />
    <glyph glyph-name="uacute" unicode="&#xfa;" horiz-adv-x="991" 
d="M1004 1235q33 0 49 -25q16 -24 7 -58t-50 -52l-310 -146q-12 -6 -16 2l-14 21q-4 4 8 16l258 211q35 31 68 31zM889 831h84q25 0 18 -18l-157 -426q-86 -231 -86 -257t16 -34q20 0 82 52t74 70t22 5l21 -20q8 -9 -1 -21q-8 -12 -56 -55t-133 -95t-148 -52q-39 0 -39 47
q0 8 131 350l-12 6q-83 -119 -207 -247q-70 -72 -149 -114t-130 -42q-94 0 -96 83q1 40 23 95t36 89t41 95t42 96t59 139q45 104 45 131q0 28 -29 28t-85 -46q-56 -45 -79 -72q-8 -8 -18 0l-19 19q-10 6 2 18q33 43 132 120t184 77q29 0 44 -23t15 -51q0 -66 -121 -329
t-121 -322q0 -35 35 -35q72 0 193 126q224 234 286 403l72 196q4 14 29 14z" />
    <glyph glyph-name="ucircumflex" unicode="&#xfb;" horiz-adv-x="991" 
d="M860 967l-108 135l-205 -133q-10 -4 -15 2l-12 18q-4 4 6 15l256 262q14 10 21 -9l92 -266q6 -10 -2 -16q-27 -14 -33 -8zM889 831h84q25 0 18 -18l-157 -426q-86 -231 -86 -257t16 -34q20 0 82 52t74 70t22 5l21 -20q8 -9 -1 -21q-8 -12 -56 -55t-133 -95t-148 -52
q-39 0 -39 47q0 8 131 350l-12 6q-83 -119 -207 -247q-70 -72 -149 -114t-130 -42q-94 0 -96 83q1 40 23 95t36 89t41 95t42 96t59 139q45 104 45 131q0 28 -29 28t-85 -46q-56 -45 -79 -72q-8 -8 -18 0l-19 19q-10 6 2 18q33 43 132 120t184 77q29 0 44 -23t15 -51
q0 -66 -121 -329t-121 -322q0 -35 35 -35q72 0 193 126q224 234 286 403l72 196q4 14 29 14z" />
    <glyph glyph-name="udieresis" unicode="&#xfc;" horiz-adv-x="991" 
d="M895 1126q-37 0 -66 20t-29 59q0 38 22 64q22 25 65 25t67 -24t25 -61q1 -39 -23 -61t-61 -22zM616 1126q-38 0 -66 20t-28 59q0 38 22 64q22 25 64 25t68 -24q24 -24 24 -61q0 -39 -24 -61t-60 -22zM889 831h84q25 0 18 -18l-157 -426q-86 -231 -86 -257t16 -34
q20 0 82 52t74 70t22 5l21 -20q8 -9 -1 -21q-8 -12 -56 -55t-133 -95t-148 -52q-39 0 -39 47q0 8 131 350l-12 6q-83 -119 -207 -247q-70 -72 -149 -114t-130 -42t-74 24t-22 62q1 39 23 92t36 88t41 95t42 96t59 140q45 103 45 131t-29 28t-85 -46q-56 -45 -79 -72
q-8 -8 -18 0l-19 19q-10 6 2 18q33 43 132 120t184 77q29 0 44 -23t15 -51q0 -66 -121 -329t-121 -322q0 -35 35 -35q72 0 193 126q224 234 286 403l72 196q4 14 29 14z" />
    <glyph glyph-name="yacute" unicode="&#xfd;" horiz-adv-x="837" 
d="M906 1235q32 0 48 -25q16 -24 8 -58t-51 -52l-309 -146q-12 -6 -16 2l-15 21q-4 4 9 16l258 211q36 31 68 31zM336 852q46 0 68 -48t34 -183q31 -356 39 -607l8 2q47 76 118 220t97 232q26 86 25 148q0 62 -10 89q-23 51 -23 77t20 48t61 22q42 0 64 -31t21 -71
q0 -135 -137 -435q-78 -172 -219 -395t-264 -342q-180 -186 -312 -186q-55 0 -85 28q-29 28 -29 67t26 61q59 52 131 -9q29 -25 59 -25t89 44q154 115 225 276q20 49 18 97t-27 355t-39 368q-13 62 -36 63q-26 -1 -64 -61t-55 -105q-6 -10 -18 -6l-29 12q-9 5 1 27
q42 87 60 112q17 24 33 48q72 108 150 108z" />
    <glyph glyph-name="thorn" unicode="&#xfe;" horiz-adv-x="944" 
d="M604 768q-18 0 -61 -6l-277 -701q195 15 354 157t158 339q0 103 -50 157t-124 54zM573 846q38 6 101 6q116 0 184 -74t68 -184q0 -221 -199 -391q-221 -186 -487 -203l-160 -406q-31 -80 -18 -110t79 -29h58q16 0 12 -16l-14 -41q-8 -12 -25 -12l-215 6q-134 0 -174 -3
q-39 -3 -46 -3q-17 0 -13 12l10 37q6 20 18 20h47q57 0 90 36t70 130l438 1104q-67 -19 -141 -77t-117 -107q-8 -12 -18 -2l-21 20q-10 10 -2 19q146 169 334 239l205 510q8 20 29 29l116 45q4 2 12 2t9 -6q0 -6 -4 -19z" />
    <glyph glyph-name="ydieresis" unicode="&#xff;" horiz-adv-x="837" 
d="M756 1126q-37 0 -66 20q-28 20 -28 59q0 38 21 64q22 25 65 25q44 0 68 -24t24 -61q0 -39 -24 -61t-60 -22zM477 1126q-37 0 -65 20t-29 59q0 38 21 64q22 25 65 25t68 -24t25 -61q0 -39 -24 -61t-61 -22zM336 852q46 0 68 -48t34 -183q31 -356 39 -607l8 2
q47 76 118 220t97 232q26 86 25 148q0 62 -10 89q-23 51 -23 77t20 48t61 22q42 0 64 -31t21 -71q0 -135 -137 -435q-78 -168 -219 -391t-264 -346q-193 -186 -312 -186q-55 0 -85 28q-29 28 -29 67t26 61q59 52 131 -9q29 -25 59 -25t89 44q154 115 225 276q20 49 18 97
t-27 355t-39 368q-13 62 -36 63q-26 -1 -64 -61t-55 -105q-6 -10 -18 -6l-29 12q-9 5 1 27q42 87 60 112q17 24 33 48q72 108 150 108z" />
    <glyph glyph-name="Amacron" unicode="&#x100;" horiz-adv-x="1267" 
d="M1004 1581v70q0 12 20 12h410q20 0 20 -14v-68q0 -14 -18 -14h-416q-16 0 -16 14zM655 688h334l158 541q6 20 -13 24t-32 -10zM692 70q68 0 106 30t66 138l103 378h-365l-287 -360q-84 -109 -84 -137q0 -49 72 -49h74q20 0 14 -21l-8 -39q-4 -16 -21 -16l-268 6l-229 -6
q-8 0 -15 4q-6 4 -4 10l11 45q2 16 14 17h31q123 0 248 149l948 1133q12 18 66 21t100 16t55 14q27 0 20 -21l-301 -1136q-20 -86 -20 -115t22 -45t54 -16h55q18 0 16 -21l-6 -37q-4 -18 -24 -18l-246 6l-240 -6q-25 0 -20 20l8 39q4 16 16 17h39z" />
    <glyph glyph-name="amacron" unicode="&#x101;" horiz-adv-x="931" 
d="M530 1057v61q0 12 21 12h369q20 0 20 -14v-59q0 -14 -18 -15h-375q-17 1 -17 15zM274 88q68 0 214 164t190 255t45 159q0 121 -96 120q-88 0 -187 -116q-98 -117 -159 -264t-62 -246q0 -72 55 -72zM860 852h72q14 0 6 -18q-28 -55 -140 -356t-112 -351q0 -25 23 -25
q16 0 71 52t72 73q12 12 16 4l19 -20q25 -25 -129 -146q-109 -85 -185 -85q-43 0 -43 36t99 310l-11 4q-78 -121 -208 -236t-230 -114q-41 0 -76 34t-34 97q0 145 93 321t232 298t251 122t155 -70l39 56q10 14 20 14z" />
    <glyph glyph-name="Abreve" unicode="&#x102;" horiz-adv-x="1267" 
d="M1227 1524q-80 0 -134 45t-67 127q-2 23 8 24l21 6q6 2 20 -16q55 -74 181 -74t214 78q20 16 27 12l23 -10q8 -4 -2 -26q-94 -166 -291 -166zM655 688h334l158 541q6 20 -13 24t-32 -10zM692 70q68 0 106 30t66 138l103 378h-365l-287 -360q-84 -109 -84 -137
q0 -49 72 -49h74q20 0 14 -21l-8 -39q-4 -16 -21 -16l-268 6l-229 -6q-8 0 -15 4q-6 4 -4 10l11 45q2 16 14 17h31q123 0 248 149l948 1133q12 18 66 21t100 16t55 14q27 0 20 -21l-301 -1136q-20 -86 -20 -115t22 -45t54 -16h55q18 0 16 -21l-6 -37q-4 -18 -24 -18l-246 6
l-240 -6q-25 0 -20 20l8 39q4 16 16 17h39z" />
    <glyph glyph-name="abreve" unicode="&#x103;" horiz-adv-x="931" 
d="M722 975q-79 0 -131 51t-61 141q-2 23 9 25l20 6q6 2 9 -2t10 -16q26 -45 72 -71t93 -26q113 0 193 101q16 20 25 14l22 -10q8 -4 -2 -27q-41 -78 -111 -132t-148 -54zM274 88q68 0 214 164t190 255t45 159q0 121 -96 120q-88 0 -187 -116q-98 -117 -159 -264t-62 -246
q0 -72 55 -72zM860 852h72q14 0 6 -18q-28 -55 -140 -356t-112 -351q0 -25 23 -25q16 0 71 52t72 73q12 12 16 4l19 -20q25 -25 -129 -146q-109 -85 -185 -85q-43 0 -43 36t99 310l-11 4q-78 -121 -208 -236t-230 -114q-41 0 -76 34t-34 97q0 145 93 321t232 298t251 122
t155 -70l39 56q10 14 20 14z" />
    <glyph glyph-name="Aogonek" unicode="&#x104;" horiz-adv-x="1267" 
d="M842 -473q0 -9 -20 -25q-53 -40 -136 -43q-221 0 -221 164q0 176 299 404q32 25 48 62q15 38 31 85q15 47 21 64l103 378h-365l-287 -360q-84 -104 -84 -137q0 -49 72 -49h74q20 0 14 -21l-8 -39q-4 -16 -21 -16l-268 6l-229 -6q-8 0 -15 4q-6 4 -4 10l11 45q2 16 14 17
h31q123 0 248 149l948 1133q16 18 68 21t98 16t55 14q27 0 20 -21l-301 -1136q-20 -86 -20 -115t22 -45t54 -16h55q18 0 16 -21l-6 -37q-4 -18 -24 -18l-80 4l-166 2q-95 0 -195 -113t-100 -226t102 -136q18 -4 35 -4l94 30q17 1 17 -24zM655 688h334l162 539q6 20 -15 25
q-22 5 -34 -9z" />
    <glyph glyph-name="aogonek" unicode="&#x105;" horiz-adv-x="931" 
d="M723 666q0 121 -96 120q-88 0 -187 -116q-98 -117 -159 -264t-62 -246q0 -72 55 -72q68 0 214 164t190 255t45 159zM530 -430q-57 0 -116 35q-60 35 -60 105t86 159q86 90 131 111q-41 4 -41 34q0 37 99 312l-11 4q-78 -121 -208 -236t-230 -114q-41 0 -76 34t-34 97
q0 145 93 321t232 298t251 122t155 -70l39 56q10 14 20 14h72q14 0 6 -18q-28 -55 -140 -356t-112 -351q0 -25 23 -25q16 0 71 52t72 73q12 12 16 4l19 -20q16 -16 -27 -60q-44 -43 -68 -61t-69 -50t-64 -46q-176 -133 -176 -252q0 -57 38 -84t73 -27l57 21q16 0 17 -25
t-40 -41t-98 -16z" />
    <glyph glyph-name="Cacute" unicode="&#x106;" horiz-adv-x="1363" 
d="M1288 1786q34 0 51 -31q19 -31 11 -67t-45 -52l-357 -145q-12 -6 -16 2l-12 20q-4 10 6 21l293 227q35 25 69 25zM1106 16q0 39 -33 39q-25 0 -76 -23q-51 -22 -139 -42t-158 -21q-209 0 -350 134t-141 354q0 178 79 368t218 342q100 111 231 173q292 138 533 -25
q56 -56 102 -58q37 0 53 64q6 18 19 12l26 -6q18 -2 13 -20l-109 -424q-6 -16 -22 -13l-29 4q-14 2 -12 21q35 162 -47 298t-250 136q-121 0 -212 -59t-189 -203q-99 -143 -147 -315t-48 -316q0 -197 100 -290t213 -93q360 0 510 363q10 20 21 16l34 -10q13 -5 11 -19
l-146 -438q-6 -14 -18 -10l-37 10q-10 4 -5 26t5 25z" />
    <glyph glyph-name="cacute" unicode="&#x107;" horiz-adv-x="618" 
d="M796 1235q34 0 50 -25q16 -24 7 -58t-50 -52l-309 -146q-13 -6 -17 2l-14 21q-4 4 8 16l258 211q33 31 67 31zM254 -20q-74 0 -120 47t-46 163t66 277t176 273t223 112q63 0 90 -38t27 -75t-28 -63t-62 -25q-34 0 -48 45q-6 18 -23 36t-40 18q-80 0 -150 -142
q-39 -82 -63 -192t-25 -166q0 -170 82 -170q51 0 101 37t70 62t28 20l23 -21q12 -8 2 -22q-33 -48 -121 -112t-162 -64z" />
    <glyph glyph-name="Ccaron" unicode="&#x10c;" horiz-adv-x="1363" 
d="M1055 1663l243 127q10 4 15 -4l14 -23q4 -4 -4 -12l-285 -246q-16 -12 -26 4l-146 246q-6 10 4 17l21 18q8 6 22 -4zM1106 16q0 39 -33 39q-25 0 -76 -23q-51 -22 -139 -42t-158 -21q-209 0 -350 134t-141 354q0 178 79 368t218 342q100 111 231 173q292 138 533 -25
q56 -56 102 -58q37 0 53 64q6 18 19 12l26 -6q18 -2 13 -20l-109 -424q-6 -16 -22 -13l-29 4q-14 2 -12 21q35 162 -47 298t-250 136q-121 0 -212 -59t-189 -203q-99 -143 -147 -315t-48 -316q0 -197 100 -290t213 -93q360 0 510 363q10 20 21 16l34 -10q13 -5 11 -19
l-146 -438q-6 -14 -18 -10l-37 10q-10 4 -5 26t5 25z" />
    <glyph glyph-name="ccaron" unicode="&#x10d;" horiz-adv-x="618" 
d="M598 1130l205 134q10 4 14 -2l12 -19q4 -4 -6 -14l-256 -262q-14 -10 -20 8l-92 266q-6 10 2 16q26 15 32 9zM254 -20q-74 0 -120 47t-46 163t66 277t176 273t223 112q63 0 90 -38t27 -75t-28 -63t-62 -25q-34 0 -48 45q-6 18 -23 36t-40 18q-80 0 -150 -142
q-39 -82 -63 -192t-25 -166q0 -170 82 -170q51 0 101 37t70 62t28 20l23 -21q12 -8 2 -22q-33 -48 -121 -112t-162 -64z" />
    <glyph glyph-name="Dcaron" unicode="&#x10e;" horiz-adv-x="1591" 
d="M1024 1663l244 127q10 4 14 -4l14 -23q4 -4 -4 -12l-284 -246q-16 -12 -27 4l-145 246q-6 10 4 17l20 18q8 6 23 -4zM430 131q0 -61 145 -61q387 0 586 170q100 84 175 242t75 327q0 205 -131 340q-90 92 -212 126t-231 34q-108 0 -128 -6l-265 -1086q-14 -66 -14 -86z
M25 -6q-20 0 -17 16l12 45q4 14 21 15h61q63 0 107 33q42 34 65 128l236 963q27 102 -104 102h-93q-14 0 -19 3t-1 14l12 45q4 14 44 14t159 6l221 6q518 0 719 -198q154 -156 154 -371q0 -141 -40 -262t-105 -202q-115 -143 -234 -212q-258 -145 -670 -145l-299 6
q-148 0 -188 -3t-41 -3z" />
    <glyph glyph-name="dcaron" unicode="&#x10f;" horiz-adv-x="1159" 
d="M1221 983q-16 0 -19 14q-2 16 19 25q41 10 84 48t42 82t-38 85q-45 45 -45 74t19 51t59 20q40 0 73 -51t34 -109t-30 -110q-31 -51 -73 -78t-75 -39q-34 -12 -50 -12zM285 84q59 0 155 90t170 191q133 180 133 286q0 135 -108 135q-90 0 -190 -120q-99 -121 -159 -271
t-61 -245q1 -30 19 -48t41 -18zM915 1313h-63q-20 0 -16 14l12 43q4 12 24 12h252q20 0 26 -12t-12 -52t-204 -542t-211 -590t10 -88q23 0 75 44t69 63q14 10 22 -2l21 -21q26 -16 -101 -109q-129 -93 -191 -93t-63 47q0 63 90 297l-16 4q-84 -133 -209 -241t-223 -107
q-55 0 -93 36t-38 99q0 123 79 285t203 286q172 166 322 166q72 0 129 -68l158 449q15 29 1 55t-53 25z" />
    <glyph glyph-name="Dcroat" unicode="&#x110;" horiz-adv-x="1591" 
d="M25 -6q-20 0 -17 16l12 45q4 14 21 15h61q63 0 107 33q42 34 65 128l107 441h-221q-29 0 -23 18l17 45q2 12 26 13h221l109 446q27 102 -104 102h-93q-14 0 -19 3t-1 14l12 45q4 14 44 14t159 6l221 6q518 0 719 -198q154 -156 154 -371q0 -141 -40 -262t-105 -202
q-115 -143 -234 -212q-258 -145 -670 -145l-299 6q-148 0 -188 -3t-41 -3zM430 131q0 -61 145 -61q387 0 586 170q100 84 175 242t75 327q0 205 -131 340q-90 92 -212 126t-231 34q-108 0 -128 -6l-134 -555h293q31 0 21 -23l-15 -37q-6 -16 -36 -16h-283l-111 -455
q-14 -66 -14 -86z" />
    <glyph glyph-name="dcroat" unicode="&#x111;" horiz-adv-x="1005" 
d="M285 84q59 0 155 90t170 191q133 180 133 286q0 135 -108 135q-90 0 -190 -120q-99 -121 -159 -271t-61 -245q1 -30 19 -48t41 -18zM915 1313h-63q-20 0 -16 14l12 43q4 12 24 12h252q20 0 26 -12t-3 -22q-18 -43 -84 -228h127q23 0 18 -12l-10 -49q0 -7 -9 -9t-15 -6
h-140q-280 -737 -308 -841t7 -105q23 0 75 44t69 63q14 10 22 -2l21 -21q26 -16 -101 -109q-129 -93 -191 -93t-63 47q0 63 90 297l-16 4q-84 -133 -209 -241t-223 -107q-55 0 -93 36t-38 99q0 123 79 285t203 286q172 166 322 166q72 0 129 -68l92 260h-305q-10 0 -15 4
t-3 11l8 49q4 12 20 12h322l39 113q15 29 1 55t-53 25z" />
    <glyph glyph-name="Emacron" unicode="&#x112;" horiz-adv-x="1370" 
d="M768 1581v70q0 12 20 12h410q20 0 21 -14v-68q0 -14 -19 -14h-416q-16 0 -16 14zM438 1303h-65q-18 0 -13 22l11 39q4 14 24 14l78 -2q86 -4 205 -4h131q188 0 356 4l158 2q23 0 30 -7t13 -32l66 -280q2 -10 -13 -19l-22 -8q-12 -4 -21 6l-192 248q-10 16 -33 17h-373
l-176 -539h197q73 0 107 7t72 46t64 119q4 12 15 10l30 -6q14 -4 13 -16l-111 -408q-2 -14 -14 -12l-33 4q-10 2 -8 16q10 117 -40 146t-189 28h-123l-199 -628h530q98 0 164 86l164 206q10 14 25 5l20 -13q12 -10 6 -28l-104 -297q-8 -23 -16 -29t-29 -6l-228 4l-413 2
h-238l-192 -2l-62 -4q-23 0 -16 16l6 43q6 16 16 17h76q111 -1 148 114l311 973q25 78 -12 112t-101 34z" />
    <glyph glyph-name="emacron" unicode="&#x113;" horiz-adv-x="714" 
d="M422 1057v61q0 12 20 12h369q20 0 20 -14v-59q0 -14 -18 -15h-375q-16 1 -16 15zM547 762q-86 0 -172 -116t-103 -193q76 -5 208 63t132 168q0 34 -16 56t-49 22zM284 -20q-101 0 -148 49q-46 49 -46 163t74 262t188 261q55 55 131 96q75 41 137 41t93 -34t30 -75
q0 -77 -52 -149t-138 -117q-143 -72 -297 -84q-27 -63 -27 -188q0 -61 35 -95q34 -34 88 -34t117 44t100 101q8 12 19 2l22 -18q14 -8 2 -19q-55 -78 -141 -142t-187 -64z" />
    <glyph glyph-name="Edotaccent" unicode="&#x116;" horiz-adv-x="1370" 
d="M999 1511q-43 0 -77 23t-33 69q-1 45 25 77t77 32t80 -28t29 -74t-29 -72q-29 -27 -72 -27zM438 1303h-65q-18 0 -13 22l11 39q4 14 24 14l78 -2q86 -4 205 -4h131q188 0 356 4l158 2q23 0 30 -7t13 -32l66 -280q2 -10 -13 -19l-22 -8q-12 -4 -21 6l-192 248
q-10 16 -33 17h-373l-176 -539h197q73 0 107 7t72 46t64 119q4 12 15 10l30 -6q14 -4 13 -16l-111 -408q-2 -14 -14 -12l-33 4q-10 2 -8 16q10 117 -40 146t-189 28h-123l-199 -628h530q98 0 164 86l164 206q10 14 25 5l20 -13q12 -10 6 -28l-104 -297q-8 -23 -16 -29
t-29 -6l-228 4l-413 2h-238l-192 -2l-62 -4q-23 0 -16 16l6 43q6 16 16 17h76q111 -1 148 114l311 973q25 78 -12 112t-101 34z" />
    <glyph glyph-name="edotaccent" unicode="&#x117;" horiz-adv-x="714" 
d="M673 1126q-56 0 -81 34t-25 71t30 67t79 29q49 0 78 -30q28 -29 28 -65t-26 -71t-83 -35zM547 762q-86 0 -172 -116t-103 -193q76 -5 208 63t132 168q0 34 -16 56t-49 22zM284 -20q-101 0 -148 49q-46 49 -46 163t74 262t188 261q55 55 131 96q75 41 137 41t93 -34
t30 -75q0 -77 -52 -149t-138 -117q-143 -72 -297 -84q-27 -63 -27 -188q0 -61 35 -95q34 -34 88 -34t117 44t100 101q8 12 19 2l22 -18q14 -8 2 -19q-55 -78 -141 -142t-187 -64z" />
    <glyph glyph-name="Eogonek" unicode="&#x118;" horiz-adv-x="1370" 
d="M264 0q-197 0 -254 -6q-23 0 -16 16l6 43q6 16 16 17h76q111 0 148 114l311 973q25 78 -12 112t-101 34h-65q-18 0 -13 22l11 39q4 14 24 14l78 -2l205 -4h131l356 4l158 2q23 0 30 -7t13 -32l66 -280q2 -10 -13 -19l-22 -8q-12 -4 -21 6l-192 248q-10 16 -33 17h-373
l-176 -539h197q73 0 107 7t72 46t64 119q4 12 15 10l30 -6q14 -4 13 -16l-111 -408q-2 -14 -14 -12l-35 4q-8 2 -6 16q10 117 -40 146t-189 28h-123l-199 -628h530q98 0 164 86l164 206q10 14 25 5l20 -13q12 -10 6 -28l-104 -297q-7 -25 -24 -31q-5 -2 -21 -4
q-99 -14 -185 -122t-86 -216t103 -131q18 -4 35 -4l94 30q16 0 16 -17q0 -35 -79 -61q-38 -13 -76 -14q-221 0 -222 164q0 94 88 204t187 173l-103 -2l-413 2h-238z" />
    <glyph glyph-name="eogonek" unicode="&#x119;" horiz-adv-x="714" 
d="M612 684q0 34 -16 56t-49 22q-86 0 -172 -116t-103 -193q76 -5 208 63t132 168zM371 -348q16 0 16 -25t-40 -41q-39 -16 -97 -16t-117 35t-59 95t45 122t78 90q33 27 92 68q-106 0 -153 47q-46 47 -46 163t74 264t188 261q55 55 131 96q75 41 137 41t92 -34t31 -92
q0 -58 -52 -132q-52 -72 -138 -117q-143 -72 -297 -84q-27 -63 -27 -188q0 -61 35 -95q34 -34 88 -34t117 44t100 101q8 12 19 2l22 -18q16 -8 0 -19q-78 -109 -227 -190q-59 -33 -119 -113t-61 -139q0 -59 38 -86t72 -27z" />
    <glyph glyph-name="Ecaron" unicode="&#x11a;" horiz-adv-x="1370" 
d="M995 1663l244 127q10 4 14 -4l15 -23q4 -4 -4 -12l-285 -246q-16 -12 -27 4l-145 246q-6 10 4 17l20 18q8 6 23 -4zM438 1303h-65q-18 0 -13 22l11 39q4 14 24 14l78 -2q86 -4 205 -4h131q188 0 356 4l158 2q23 0 30 -7t13 -32l66 -280q2 -10 -13 -19l-22 -8
q-12 -4 -21 6l-192 248q-10 16 -33 17h-373l-176 -539h197q73 0 107 7t72 46t64 119q4 12 15 10l30 -6q14 -4 13 -16l-111 -408q-2 -14 -14 -12l-33 4q-10 2 -8 16q10 117 -40 146t-189 28h-123l-199 -628h530q98 0 164 86l164 206q10 14 25 5l20 -13q12 -10 6 -28
l-104 -297q-8 -23 -16 -29t-29 -6l-228 4l-413 2h-238l-192 -2l-62 -4q-23 0 -16 16l6 43q6 16 16 17h76q111 -1 148 114l311 973q25 78 -12 112t-101 34z" />
    <glyph glyph-name="ecaron" unicode="&#x11b;" horiz-adv-x="714" 
d="M666 1130l204 134q10 4 15 -2l12 -19q4 -4 -6 -14l-256 -262q-14 -10 -21 8l-92 266q-6 10 2 16q27 15 33 9zM547 762q-86 0 -172 -116t-103 -193q76 -5 208 63t132 168q0 34 -16 56t-49 22zM284 -20q-101 0 -148 49q-46 49 -46 163t74 262t188 261q55 55 131 96
q75 41 137 41t93 -34t30 -75q0 -77 -52 -149t-138 -117q-143 -72 -297 -84q-27 -63 -27 -188q0 -61 35 -95q34 -34 88 -34t117 44t100 101q8 12 19 2l22 -18q14 -8 2 -19q-55 -78 -141 -142t-187 -64z" />
    <glyph glyph-name="Gbreve" unicode="&#x11e;" horiz-adv-x="1452" 
d="M1073 1524q-80 0 -134 45t-67 127q-2 23 9 24l20 6q6 2 21 -16q55 -74 180 -74t215 78q20 16 26 12l23 -10q8 -4 -2 -26q-94 -166 -291 -166zM1427 496h-32q-76 0 -92 -74l-72 -316q-10 -33 -37 -45q-223 -92 -397 -92q-264 0 -426 164t-162 405q0 240 118 440
q119 200 311 312t402 113q210 0 338 -103q33 -25 56 -24q35 0 53 65q4 12 20 9l25 -7q14 -4 12 -16l-117 -412q-4 -14 -24 -12l-27 4q-18 4 -12 21q37 145 -50 275t-267 130q-274 0 -457 -243q-182 -244 -182 -586q0 -227 112 -344t266 -117t256 86q20 18 37 70l41 198
q12 57 -7 77t-75 22h-75q-20 0 -15 20l8 39q2 16 23 16l238 -6q84 0 151 4l66 2q20 0 18 -20l-6 -39q-2 -16 -19 -16z" />
    <glyph glyph-name="gbreve" unicode="&#x11f;" horiz-adv-x="884" 
d="M566 975q-79 0 -131 51t-60 141q-2 23 8 25l20 6q9 3 26 -30q18 -33 65 -59t94 -26q113 0 192 101q16 20 25 14l22 -10q8 -4 -2 -27q-41 -78 -111 -132t-148 -54zM35 -326q0 -98 102 -158t216 -60t186 40q72 41 71 123q0 41 -27 81q-28 40 -52 59t-238 157
q-258 -105 -258 -242zM403 268q70 0 123 70q101 133 101 326q0 137 -92 137q-86 0 -157 -134q-71 -135 -71 -267t96 -132zM288 -608q-138 0 -266 80t-128 187t140 191q94 56 206 105q-78 57 -78 119q0 30 37 62t137 89q-56 13 -108 75t-52 177t102 245t261 130
q117 0 174 -96q25 24 75 50t96 26q48 0 68 -28q40 -52 5 -95q-15 -21 -53 -21t-64 31q-14 14 -34 14t-38 -9q-20 -9 -27 -19q17 -41 17 -109t-22 -137q-22 -70 -92 -145t-179 -93q-53 -8 -75 -18t-58 -40q-36 -29 -35 -57q0 -28 29 -49t123 -81q93 -60 149 -97
q152 -98 152 -221q0 -45 -39 -108q-102 -158 -423 -158z" />
    <glyph glyph-name="Gcommaaccent" unicode="&#x122;" horiz-adv-x="1452" 
d="M633 -522q-16 0 -19 14q-2 16 19 25q41 10 84 48t42 83t-42 87q-41 43 -41 71t19 50t59 22t73 -52t34 -110t-30 -109t-73 -78t-75 -39q-34 -12 -50 -12zM1427 496h-32q-76 0 -92 -74l-72 -316q-10 -33 -37 -45q-223 -92 -397 -92q-264 0 -426 164t-162 405q0 240 118 440
q119 200 311 312t402 113q210 0 338 -103q33 -25 56 -24q35 0 53 65q4 12 20 9l25 -7q14 -4 12 -16l-117 -412q-4 -14 -24 -12l-27 4q-18 4 -12 21q37 145 -50 275t-267 130q-274 0 -457 -243q-182 -244 -182 -586q0 -227 112 -344t266 -117t256 86q20 18 37 70l41 198
q12 57 -7 77t-75 22h-75q-20 0 -15 20l8 39q2 16 23 16l238 -6q84 0 151 4l66 2q20 0 18 -20l-6 -39q-2 -16 -19 -16z" />
    <glyph glyph-name="gcommaaccent" unicode="&#x123;" horiz-adv-x="884" 
d="M485 1106q0 130 126 207q64 39 91 39t29 -14t-16 -25q-41 -10 -84 -48t-43 -83t41 -87t42 -71q1 -28 -19 -50t-61 -22q-42 0 -74 52t-32 102zM35 -326q0 -98 102 -158t216 -60t186 40q72 41 71 123q0 41 -27 81q-28 40 -52 59t-238 157q-258 -105 -258 -242zM403 268
q70 0 123 70q101 133 101 326q0 137 -92 137q-86 0 -157 -134q-71 -135 -71 -267t96 -132zM288 -608q-138 0 -266 80t-128 187t140 191q94 56 206 105q-78 57 -78 119q0 30 37 62t137 89q-56 13 -108 75t-52 177t102 245t261 130q117 0 174 -96q25 24 75 50t96 26
q48 0 68 -28q40 -52 5 -95q-15 -21 -53 -21t-64 31q-14 14 -34 14t-38 -9q-20 -9 -27 -19q17 -41 17 -109t-22 -137q-22 -70 -92 -145t-179 -93q-53 -8 -75 -18t-58 -40q-36 -29 -35 -57q0 -28 29 -49t123 -81q93 -60 149 -97q152 -98 152 -221q0 -45 -39 -108
q-102 -158 -423 -158z" />
    <glyph glyph-name="Imacron" unicode="&#x12a;" horiz-adv-x="735" 
d="M451 1581v70q0 12 20 12h410q20 0 20 -14v-68q0 -14 -18 -14h-416q-16 0 -16 14zM98 70q84 0 114 29q29 30 54 122l256 946q37 135 -73 136h-95q-12 0 -16 3t-2 13l10 47q2 12 27 12l276 -6l285 6q30 0 22 -20l-10 -39q-4 -16 -22 -16h-39q-94 0 -129 -27t-62 -119
l-256 -948q-20 -74 4 -107t105 -32h71q16 0 13 -21l-6 -39q-2 -16 -25 -16l-297 6l-303 -6q-20 0 -16 16l8 39q4 20 18 21h88z" />
    <glyph glyph-name="imacron" unicode="&#x12b;" horiz-adv-x="587" 
d="M256 1057v61q0 12 20 12h369q20 0 21 -14v-59q0 -14 -19 -15h-375q-16 1 -16 15zM481 852q49 0 49 -59q0 -33 -69 -220l-119 -311q-37 -104 -37 -134t23 -36q29 6 91 64t73 80q8 10 22 -5l16 -14q10 -14 5 -24q-58 -81 -165 -147q-106 -66 -182 -66q-34 4 -34 48t120 373
l60 160q37 100 37 124t-29 24q-27 0 -129 -107q-27 -30 -37 -40t-20 1l-17 19q-12 10 -3 23q8 13 60 67t139 118t146 62z" />
    <glyph glyph-name="Iogonek" unicode="&#x12e;" horiz-adv-x="735" 
d="M924 1303h-39q-94 0 -129 -27t-62 -119l-256 -948q-20 -74 4 -107t105 -32h71q16 0 13 -21l-6 -39q-2 -16 -23 -16q-4 0 -27 3q-96 12 -192 -11q-61 -14 -140 -124t-79 -196q0 -118 102 -141q18 -4 35 -4l94 30q17 0 17 -17q0 -16 -20 -32q-53 -40 -136 -43
q-221 0 -221 164q0 109 100 221t176 156l-215 -2l-96 -4q-20 0 -16 16l8 39q4 20 18 21h88q84 0 114 30t54 121l256 946q37 135 -73 136h-95q-12 0 -16 3t-2 13l10 47q2 12 27 12l276 -6l285 6q30 0 22 -20l-10 -39q-4 -16 -22 -16z" />
    <glyph glyph-name="iogonek" unicode="&#x12f;" horiz-adv-x="587" 
d="M481 852q49 0 49 -59q0 -33 -69 -220l-119 -311q-37 -98 -37 -131t23 -39q29 6 91 64t73 80q8 10 22 -5l16 -14q11 -15 5 -27q-25 -31 -246 -200q-172 -131 -172 -248q0 -57 38 -84t72 -27l58 21q16 0 16 -25t-40 -41q-39 -16 -97 -16t-117 35t-59 94q0 131 215 278
q-32 6 -41 17q-8 10 -8 48t120 359l60 160q37 100 37 124t-29 24q-27 0 -129 -107q-27 -30 -37 -40t-20 1l-17 19q-12 10 -3 23q8 13 60 67t139 118t146 62zM528 1409q48 1 78 -29q29 -30 29 -66t-27 -71t-83 -35t-81 34q-24 34 -24 71t30 67t78 29z" />
    <glyph glyph-name="Idotaccent" unicode="&#x130;" horiz-adv-x="735" 
d="M702 1511q-42 0 -76 23t-34 69q0 45 26 77t76 32q51 0 80 -28t29 -74t-29 -72q-29 -27 -72 -27zM98 70q84 0 114 29q29 30 54 122l256 946q37 135 -73 136h-95q-12 0 -16 3t-2 13l10 47q2 12 27 12l276 -6l285 6q30 0 22 -20l-10 -39q-4 -16 -22 -16h-39q-94 0 -129 -27
t-62 -119l-256 -948q-20 -74 4 -107t105 -32h71q16 0 13 -21l-6 -39q-2 -16 -25 -16l-297 6l-303 -6q-20 0 -16 16l8 39q4 20 18 21h88z" />
    <glyph glyph-name="dotlessi" unicode="&#x131;" horiz-adv-x="587" 
d="M481 852q49 0 49 -59q0 -33 -69 -220l-119 -311q-37 -104 -37 -134t23 -36q29 6 91 64t73 80q8 10 22 -5l16 -14q10 -14 5 -24q-58 -81 -165 -147q-106 -66 -182 -66q-34 4 -34 48t120 373l60 160q37 100 37 124t-29 24q-27 0 -129 -107q-27 -30 -37 -40t-20 1l-17 19
q-12 10 -3 23q8 13 60 67t139 118t146 62z" />
    <glyph glyph-name="Kcommaaccent" unicode="&#x136;" horiz-adv-x="1400" 
d="M483 -522q-16 0 -18 15t18 24q41 10 84 48t42 83t-42 87q-41 43 -41 71t20 50t59 22q40 0 73 -52t34 -110t-30 -109q-49 -81 -148 -117q-35 -12 -51 -12zM907 70q35 0 56 18q20 18 6 39q-2 2 -150 228t-176 262q-29 36 -78 36l-145 -448q-20 -68 -1 -102t70 -33h52
q16 0 14 -21l-8 -39q-4 -16 -27 -16l-252 6q-148 0 -188 -3t-41 -3q-20 0 -16 22l8 37q4 16 22 17h58q92 0 131 123l315 978q45 132 -68 132h-51q-25 0 -18 20l14 43q4 12 25 12l229 -6l250 6q16 0 12 -20l-6 -39q-2 -16 -24 -16h-50q-98 0 -133 -109l-153 -483q68 0 98 10
q30 11 58 35q26 24 122 108t195 174t137 129t60 67t14 50t-49 21h-25q-20 0 -16 20l8 37q6 16 22 16l226 -6l198 6q12 0 18 -5t5 -13l-8 -37q-6 -20 -21 -20h-63q-75 1 -149 -57t-340 -296t-290 -264q12 -23 171 -252t194 -272q80 -92 147 -92h60q23 0 18 -21l-8 -35
q-6 -20 -27 -20l-209 6q-72 0 -163 -4l-95 -2q-20 0 -18 22l4 33q2 20 19 21h30z" />
    <glyph glyph-name="kcommaaccent" unicode="&#x137;" horiz-adv-x="888" 
d="M227 -522q-16 0 -18 15t18 24q41 10 84 48t42 83t-42 87q-41 43 -41 71t20 50t59 22q40 0 73 -52t34 -110t-30 -109q-49 -81 -148 -117q-35 -12 -51 -12zM139 0h-88q-20 0 -10 23l483 1200q37 90 -73 90h-56q-16 0 -10 20l12 33q10 16 25 16h272q29 0 17 -34l-295 -711
l10 -4q60 79 158 149t190 70q41 0 74 -28t33 -98t-79 -152q-134 -141 -300 -203v-9l133 -215q51 -84 98 -84t101 54q10 14 18 2l20 -23q8 -8 -21 -39q-29 -30 -73 -54q-44 -23 -100 -23t-92 24t-74 96l-113 215q-16 31 -102 23l-127 -324q-4 -14 -31 -14zM362 500l-47 -113
q139 -16 286 93q146 110 147 210q0 25 -16 43q-43 47 -142 -14q-98 -61 -155 -124q-57 -64 -73 -95z" />
    <glyph glyph-name="Lacute" unicode="&#x139;" horiz-adv-x="1280" 
d="M1019 1786q34 0 52 -31t10 -67t-45 -52l-356 -145q-12 -6 -16 2l-13 20q-4 10 6 21l293 227q35 25 69 25zM80 70q70 0 104 28t64 123l295 955q23 68 5 98t-93 29h-76q-20 0 -17 16l15 47q2 12 24 12l283 -6l291 6q20 0 16 -16l-10 -43q-6 -16 -25 -16h-92q-59 0 -90 -28
t-57 -114l-320 -1032q-18 -59 52 -59h81q373 0 420 7t75 33t91 120q62 94 70 110q8 18 24 10l21 -8q16 -6 10 -24t-42 -149q-36 -132 -42 -166t-24 -34q-7 1 -53 13t-76 12l-480 6l-506 -6q-18 0 -16 20l8 39q4 16 19 17h51z" />
    <glyph glyph-name="lacute" unicode="&#x13a;" horiz-adv-x="520" 
d="M927 1786q34 0 52 -31t10 -67t-45 -52l-356 -145q-13 -6 -17 2l-12 20q-4 10 6 21l293 227q35 25 69 25zM475 1313h-59q-20 0 -13 18l13 37q4 14 20 14h254q29 0 19 -30l-426 -1084q-53 -137 -37 -155q4 -4 20 -4q16 -1 67 39q53 40 69 58t26 9l23 -25q8 -10 -2 -20
q-17 -31 -133 -111t-199 -79q-45 0 -45 59q-1 33 75 221l359 924q51 129 -31 129z" />
    <glyph glyph-name="Lcommaaccent" unicode="&#x13b;" horiz-adv-x="1280" 
d="M424 -522q-16 0 -18 15t18 24q41 10 84 48t42 83t-42 87q-41 43 -41 71t19 50q20 22 60 22t72 -52t34 -110q0 -58 -30 -109t-72 -78t-76 -39t-50 -12zM80 70q70 0 104 28t64 123l295 955q23 68 5 98t-93 29h-76q-20 0 -17 16l15 47q2 12 24 12l283 -6l291 6q20 0 16 -16
l-10 -43q-6 -16 -25 -16h-92q-59 0 -90 -28t-57 -114l-320 -1032q-18 -59 52 -59h81q373 0 420 7t75 33t91 120q62 94 70 110q8 18 24 10l21 -8q16 -6 10 -24t-42 -149q-36 -132 -42 -166t-24 -34q-7 1 -53 13t-76 12l-480 6l-506 -6q-18 0 -16 20l8 39q4 16 19 17h51z" />
    <glyph glyph-name="lcommaaccent" unicode="&#x13c;" horiz-adv-x="520" 
d="M-18 -522q-16 0 -19 14q-2 16 19 25q41 10 84 48q44 38 42 83t-42 87q-40 43 -41 71q0 28 19 50t59 22t73 -52t34 -110t-30 -109q-30 -51 -72 -78t-76 -39t-50 -12zM475 1313h-59q-20 0 -13 18l13 37q4 14 20 14h254q29 0 19 -30l-426 -1084q-53 -137 -37 -155
q4 -4 20 -4q16 -1 67 39q53 40 69 58t26 9l23 -25q8 -10 -2 -20q-17 -31 -133 -111t-199 -79q-45 0 -45 59q-1 33 75 221l359 924q51 129 -31 129z" />
    <glyph glyph-name="Lcaron" unicode="&#x13d;" horiz-adv-x="1280" 
d="M1141 973q-16 0 -19 14q-2 16 19 25q41 10 84 48t42 83t-42 87t-41 70t19 51q19 21 59 21t73 -51t34 -109t-30 -110q-31 -51 -73 -78t-75 -39q-34 -12 -50 -12zM80 70q70 0 104 28t64 123l295 955q23 68 5 98t-93 29h-76q-20 0 -17 16l15 47q2 12 24 12l283 -6l291 6
q20 0 16 -16l-10 -43q-6 -16 -25 -16h-92q-59 0 -90 -28t-57 -114l-320 -1032q-18 -59 52 -59h81q373 0 420 7t75 33t91 120q62 94 70 110q8 18 24 10l21 -8q16 -6 10 -24t-42 -149q-36 -132 -42 -166t-24 -34q-7 1 -53 13t-76 12l-480 6l-506 -6q-18 0 -16 20l8 39
q4 16 19 17h51z" />
    <glyph glyph-name="lcaron" unicode="&#x13e;" horiz-adv-x="729" 
d="M780 983q-16 0 -18 15t18 24q41 10 84 48t42 82t-38 85q-45 45 -45 74q-1 29 19 51t60 20q40 0 73 -51t34 -109t-30 -110q-31 -51 -73 -78t-76 -39t-50 -12zM475 1313h-59q-20 0 -13 18l13 37q4 14 20 14h254q29 0 19 -30l-426 -1084q-53 -137 -37 -155q4 -4 20 -4
q16 -1 67 39q53 40 69 58t26 9l23 -25q8 -10 -2 -20q-17 -31 -133 -111t-199 -79q-45 0 -45 59q-1 33 75 221l359 924q51 129 -31 129z" />
    <glyph glyph-name="Lslash" unicode="&#x141;" horiz-adv-x="1280" 
d="M956 1303h-92q-59 0 -90 -28t-57 -114l-119 -381l334 94q16 4 20 -8l15 -43q4 -16 -11 -22l-387 -111l-172 -561q-18 -59 52 -59h81q373 0 420 7t75 33t91 120q62 94 70 110t24 10l21 -8q16 -6 10 -24t-42 -149q-36 -132 -42 -166t-24 -34q-7 1 -53 13t-76 12l-480 6
l-506 -6q-23 0 -16 20l8 39q4 16 19 17h51q70 0 104 28t64 123l129 414l-191 -53q-14 -4 -18 8l-16 51q-2 10 10 14l241 70l140 451q23 68 5 98t-93 29h-76q-20 0 -17 16l15 47q2 12 24 12l283 -6l291 6q20 0 16 -16l-10 -43q-6 -16 -25 -16z" />
    <glyph glyph-name="lslash" unicode="&#x142;" horiz-adv-x="540" 
d="M266 109q16 -1 67 39q53 40 69 58t26 9l23 -25q8 -10 -2 -20q-17 -31 -133 -111t-199 -79q-45 0 -45 59q0 33 75 221l168 424l-157 -37q-18 -4 -21 12l-8 43q-2 10 10 15l209 49l158 418q47 129 -31 129h-59q-20 0 -13 18l13 37q4 14 20 14h254q33 1 19 -30l-220 -551
l156 37q14 4 17 -9l8 -49q2 -12 -17 -16l-196 -45l-174 -451q-53 -137 -37 -155q4 -4 20 -4z" />
    <glyph glyph-name="Nacute" unicode="&#x143;" horiz-adv-x="1527" 
d="M1328 1786q34 0 52 -31t10 -67t-44 -52l-357 -145q-12 -6 -16 2l-12 20q-4 10 6 21l293 227q34 25 68 25zM-14 -6q-20 0 -17 22l6 37q4 16 19 17h55q74 0 114 46t79 165l282 901q18 55 -4 88q-23 33 -114 33h-78q-23 0 -17 24l8 31q6 20 23 20l352 -6q21 0 27 -12t10 -24
t6 -17l441 -983q14 -31 24 -14l27 61l268 801q41 119 -65 119h-72q-25 0 -23 22l6 37q4 16 21 16l233 -6l177 6q25 0 18 -26l-6 -33q-2 -16 -19 -16h-51q-40 0 -64 -22t-48 -91l-398 -1137q-21 -68 -56 -48q-15 9 -28 36l-487 1087q-14 27 -23 20q-10 -7 -14 -22l-262 -866
q-57 -190 70 -190h79q23 0 19 -21l-6 -39q-6 -16 -25 -16l-258 6q-137 0 -181 -3t-48 -3z" />
    <glyph glyph-name="nacute" unicode="&#x144;" horiz-adv-x="1062" 
d="M935 1235q34 0 50 -25q16 -24 7 -58t-50 -52l-309 -146q-13 -6 -17 2l-14 21q-4 4 8 16l258 211q33 31 67 31zM227 0h-80q-16 0 -21 4t-1 14l145 379q106 273 106 309t-30 35q-49 0 -172 -137q-10 -10 -20 2l-19 19q-10 10 -4 20q29 35 68 73t117 86t128 48q82 0 82 -61
q0 -47 -51 -173q-51 -125 -53 -133l8 -4q70 113 209 242t258 129q47 0 75 -23t28 -49t-3 -40q-2 -14 -3 -27q-1 -11 -7 -31t-12 -44t-15 -47q-10 -23 -21 -51t-16 -40t-19 -46t-68 -169q-56 -135 -56 -162t22 -27t74 38q50 38 76 67q12 10 23 -4l14 -17q10 -10 2 -22
q-33 -43 -136 -111t-191 -67q-49 0 -50 40q0 29 120 331t120 341q0 47 -55 47q-55 1 -177 -111t-192 -222t-123 -256l-51 -138q-6 -12 -29 -12z" />
    <glyph glyph-name="Ncommaaccent" unicode="&#x145;" horiz-adv-x="1527" 
d="M629 -481q-16 0 -19 14q-2 16 19 25q41 10 84 48t42 83t-42 87t-41 70t19 51q19 21 59 21t73 -51t34 -110t-30 -109t-73 -78q-42 -27 -75 -39q-34 -12 -50 -12zM-14 -6q-20 0 -17 22l6 37q4 16 19 17h55q74 0 114 46t79 165l282 901q18 55 -4 88q-23 33 -114 33h-78
q-23 0 -17 24l8 31q6 20 23 20l352 -6q21 0 27 -12t10 -24t6 -17l441 -983q14 -31 24 -14l27 61l268 801q41 119 -65 119h-72q-25 0 -23 22l6 37q4 16 21 16l233 -6l177 6q25 0 18 -26l-6 -33q-2 -16 -19 -16h-51q-40 0 -64 -22t-48 -91l-398 -1137q-21 -68 -56 -48
q-15 9 -28 36l-487 1087q-14 27 -23 20q-10 -7 -14 -22l-262 -866q-57 -190 70 -190h79q23 0 19 -21l-6 -39q-6 -16 -25 -16l-258 6q-137 0 -181 -3t-48 -3z" />
    <glyph glyph-name="ncommaaccent" unicode="&#x146;" horiz-adv-x="1062" 
d="M274 -481q-16 0 -18 15t18 24q41 10 84 48t42 83t-42 87t-41 70q-1 28 19 51q20 21 60 21t73 -51t34 -110t-30 -109q-50 -81 -148 -117q-35 -12 -51 -12zM227 0h-80q-16 0 -21 4t-1 14l145 379q106 273 106 309t-30 35q-49 0 -172 -137q-10 -10 -20 2l-19 19
q-10 10 -4 20q29 35 68 73t117 86t128 48q82 0 82 -61q0 -47 -51 -173q-51 -125 -53 -133l8 -4q70 113 209 242t258 129q47 0 75 -23t28 -49t-3 -40q-2 -14 -3 -27q-1 -11 -7 -31t-12 -44t-15 -47q-10 -23 -21 -51t-16 -40t-19 -46t-68 -169q-56 -135 -56 -162t22 -27t74 38
q50 38 76 67q12 10 23 -4l14 -17q10 -10 2 -22q-33 -43 -136 -111t-191 -67q-49 0 -50 40q0 29 120 331t120 341q0 47 -55 47q-55 1 -177 -111t-192 -222t-123 -256l-51 -138q-6 -12 -29 -12z" />
    <glyph glyph-name="Ncaron" unicode="&#x147;" horiz-adv-x="1527" 
d="M1075 1663l244 127q10 4 14 -4l15 -23q4 -4 -5 -12l-284 -246q-16 -12 -27 4l-145 246q-6 10 4 17l20 18q8 6 23 -4zM-14 -6q-20 0 -17 22l6 37q4 16 19 17h55q74 0 114 46t79 165l282 901q18 55 -4 88q-23 33 -114 33h-78q-23 0 -17 24l8 31q6 20 23 20l352 -6
q21 0 27 -12t10 -24t6 -17l441 -983q14 -31 24 -14l27 61l268 801q41 119 -65 119h-72q-25 0 -23 22l6 37q4 16 21 16l233 -6l177 6q25 0 18 -26l-6 -33q-2 -16 -19 -16h-51q-40 0 -64 -22t-48 -91l-398 -1137q-21 -68 -56 -48q-15 9 -28 36l-487 1087q-14 27 -23 20
q-10 -7 -14 -22l-262 -866q-57 -190 70 -190h79q23 0 19 -21l-6 -39q-6 -16 -25 -16l-258 6q-137 0 -181 -3t-48 -3z" />
    <glyph glyph-name="ncaron" unicode="&#x148;" horiz-adv-x="1062" 
d="M758 1130l205 134q10 4 14 -2l12 -19q4 -4 -6 -14l-256 -262q-14 -10 -20 8l-93 266q-6 10 2 16q27 15 33 9zM227 0h-80q-16 0 -21 4t-1 14l145 379q106 273 106 309t-30 35q-49 0 -172 -137q-10 -10 -20 2l-19 19q-10 10 -4 20q29 35 68 73t117 86t128 48q82 0 82 -61
q0 -47 -51 -173q-51 -125 -53 -133l8 -4q70 113 209 242t258 129q47 0 75 -23t28 -49t-3 -40q-2 -14 -3 -27q-1 -11 -7 -31t-12 -44t-15 -47q-10 -23 -21 -51t-16 -40t-19 -46t-68 -169q-56 -135 -56 -162t22 -27t74 38q50 38 76 67q12 10 23 -4l14 -17q10 -10 2 -22
q-33 -43 -136 -111t-191 -67q-49 0 -50 40q0 29 120 331t120 341q0 47 -55 47q-55 1 -177 -111t-192 -222t-123 -256l-51 -138q-6 -12 -29 -12z" />
    <glyph glyph-name="Omacron" unicode="&#x14c;" horiz-adv-x="1452" 
d="M809 1581v70q0 12 20 12h410q20 0 21 -14v-68q0 -14 -19 -14h-416q-16 0 -16 14zM690 49q162 0 306 131t227 332q82 202 82 392t-88 300t-247 109q-159 1 -298 -139t-223 -346t-84 -389t98 -287t227 -103zM737 -31q-223 0 -356 140q-172 174 -172 481q0 207 99 395
t266 303t352 115q233 0 386 -171q152 -171 152 -458t-188 -537q-90 -120 -232 -194t-307 -74z" />
    <glyph glyph-name="omacron" unicode="&#x14d;" horiz-adv-x="813" 
d="M451 1057v61q0 12 20 12h369q20 0 20 -14v-59q0 -14 -18 -15h-375q-16 1 -16 15zM287 78q98 0 201 115q102 115 162 245t62 192t-27 95t-87 33t-136 -62t-151 -182q-119 -188 -118 -332q0 -47 27 -76q28 -28 67 -28zM317 -20q-86 0 -148 74q-63 74 -63 199q0 124 59 262
q58 137 169 237t225 100q113 0 173 -67t60 -181t-54 -255t-168 -255t-253 -114z" />
    <glyph glyph-name="Ohungarumlaut" unicode="&#x150;" horiz-adv-x="1452" 
d="M846 1493l-12 14q-6 10 4 21l237 246q27 26 63 26t52 -47t-27 -76l-297 -184q-14 -10 -20 0zM1071 1493l-12 18q-6 8 12 25l260 221q20 16 39 17q50 0 62 -50t-33 -71l-309 -160q-11 -8 -19 0zM690 49q162 0 306 131t227 332q82 202 82 392t-88 300t-247 109
q-159 1 -298 -139t-223 -346t-84 -389t98 -287t227 -103zM737 -31q-223 0 -356 140q-172 174 -172 481q0 207 99 395t266 303t352 115q233 0 386 -171q152 -171 152 -458t-188 -537q-90 -120 -232 -194t-307 -74z" />
    <glyph glyph-name="ohungarumlaut" unicode="&#x151;" horiz-adv-x="813" 
d="M653 1260q45 0 53 -44t-22 -63l-258 -190q-12 -13 -18 -5l-19 17q-8 8 6 20l195 226q35 39 63 39zM912 1241q34 0 47 -44t-33 -73l-279 -163q-10 -8 -18 0l-15 18q-6 6 9 18l217 207q38 37 72 37zM287 78q98 0 201 115q102 115 162 245t62 192t-27 95t-87 33t-136 -62
t-151 -182q-119 -188 -118 -332q0 -47 27 -76q28 -28 67 -28zM317 -20q-86 0 -148 74q-63 74 -63 199q0 124 59 262q58 137 169 237t225 100q113 0 173 -67t60 -181t-54 -255t-168 -255t-253 -114z" />
    <glyph glyph-name="OE" unicode="&#x152;" horiz-adv-x="2179" 
d="M680 49q352 0 428 242l278 889q20 68 -54 106t-204 37q-248 0 -477 -211q-131 -123 -207 -306q-76 -182 -76 -366t94 -288q93 -104 218 -103zM1628 764q72 0 107 7t73 46t64 119q4 12 14 10l31 -6q14 -4 12 -16l-110 -408q-2 -14 -15 -12l-32 4q-10 2 -9 16
q10 117 -40 146t-189 28h-123l-199 -628h510q59 0 90 16t74 70l164 206q10 14 25 5l20 -13q12 -10 6 -28l-104 -297q-9 -23 -17 -29t-28 -6l-203 4l-387 2h-313q-41 0 -163 -15t-196 -15t-166 32q-94 33 -155 90q-180 168 -181 432q0 371 293 641q111 102 268 170t338 68
q63 0 218 -14q127 -16 184 -17h178q168 0 320 4l145 2q23 0 30 -7t13 -32l66 -280q2 -10 -13 -19l-22 -8q-12 -4 -21 6l-192 248q-10 16 -33 17h-352l-176 -539h196z" />
    <glyph glyph-name="oe" unicode="&#x153;" horiz-adv-x="1198" 
d="M193 188q1 -53 27 -82t67 -28q113 0 211 108t148 238t50 202q0 130 -94 130q-59 0 -137 -60t-154 -180q-118 -183 -118 -328zM1096 684q0 34 -16 56t-50 22q-86 0 -173 -116t-103 -193q42 -5 120 21t150 83t72 127zM1096 852q132 0 131 -128q0 -60 -52 -130
q-52 -72 -139 -117q-143 -72 -299 -84q-27 -63 -26 -188q-1 -61 35 -95t90 -34t116 44q63 44 101 101q8 12 18 2l23 -18q14 -8 2 -19q-56 -78 -142 -142t-190 -64q-66 0 -114 40t-68 113q-45 -69 -123 -111t-132 -42t-123 39q-42 24 -70 85t-28 150q0 210 138 404t317 194
q87 0 145 -54t60 -153h4q64 87 160 147t166 60z" />
    <glyph glyph-name="Racute" unicode="&#x154;" horiz-adv-x="1421" 
d="M1234 1786q34 0 52 -31t10 -67t-45 -52l-356 -145q-12 -6 -16 2l-13 20q-4 10 6 21l293 227q35 25 69 25zM578 731h132q112 0 244 51q94 39 155 119q60 80 60 173t-78 166q-79 73 -247 73q-59 0 -84 -2zM98 70q94 0 127 102l326 1022q38 104 -59 102h-80q-20 0 -17 17
l11 43q2 16 26 16l459 6q463 0 463 -293q0 -151 -137 -263t-324 -134v-4q47 -16 102 -123q176 -351 203 -395q60 -97 166 -96h51q18 0 15 -21l-7 -39q-4 -16 -20 -16l-47 2q-45 4 -105 4l-151 -6q-12 0 -30 21t-136 277t-133 283t-35 42q-20 14 -30 22t-31 13t-29 8
q-17 6 -62 6h-57l-145 -449q-25 -88 -9 -118t84 -29h84q18 0 15 -17l-6 -47q-2 -12 -25 -12l-287 6q-72 0 -149 -4l-76 -2q-16 0 -12 16l8 43q2 16 20 17h39z" />
    <glyph glyph-name="racute" unicode="&#x155;" horiz-adv-x="729" 
d="M811 1235q33 0 49 -25q16 -24 7 -58t-50 -52l-309 -146q-12 -6 -16 2l-15 21q-4 4 8 16l258 211q35 31 68 31zM219 0h-82q-27 0 -18 18l114 332q101 310 101 350t-31 40t-83 -46q-52 -45 -83 -82q-6 -10 -16 0l-21 21q-6 6 0 16q47 71 130 137t176 66q57 0 57 -72
q2 -37 -74 -291l10 -4q55 117 157 242t177 125q45 0 71 -26t26 -66t-26 -67q-24 -27 -54 -27t-54 22q-23 22 -51 23q-63 0 -252 -312q-43 -70 -80 -178l-67 -207q-4 -14 -27 -14z" />
    <glyph glyph-name="Rcommaaccent" unicode="&#x156;" horiz-adv-x="1421" 
d="M575 -481q-16 0 -18 15t18 24q41 10 84 48t42 83t-41 87q-68 70 -22 121q19 21 59 21t73 -51t34 -110t-30 -109q-50 -81 -148 -117q-35 -12 -51 -12zM578 731h132q112 0 244 51q94 39 155 119q60 80 60 173t-78 166q-79 73 -247 73q-59 0 -84 -2zM98 70q94 0 127 102
l326 1022q38 104 -59 102h-80q-20 0 -17 17l11 43q2 16 26 16l459 6q463 0 463 -293q0 -151 -137 -263t-324 -134v-4q47 -16 102 -123q176 -351 203 -395q60 -97 166 -96h51q18 0 15 -21l-7 -39q-4 -16 -20 -16l-47 2q-45 4 -105 4l-151 -6q-12 0 -30 21t-136 277t-133 283
t-35 42q-20 14 -30 22t-31 13t-29 8q-17 6 -62 6h-57l-145 -449q-25 -88 -9 -118t84 -29h84q18 0 15 -17l-6 -47q-2 -12 -25 -12l-287 6q-72 0 -149 -4l-76 -2q-16 0 -12 16l8 43q2 16 20 17h39z" />
    <glyph glyph-name="rcommaaccent" unicode="&#x157;" horiz-adv-x="729" 
d="M25 -522q-16 0 -19 14q-2 16 19 25q41 10 84 48t42 83t-42 87q-41 43 -41 71t19 50t59 22t73 -52t34 -110t-30 -109t-73 -78t-75 -39q-34 -12 -50 -12zM219 0h-82q-27 0 -18 18l114 332q101 310 101 350t-31 40t-83 -46q-52 -45 -83 -82q-6 -10 -16 0l-21 21q-6 6 0 16
q47 71 130 137t176 66q57 0 57 -72q2 -37 -74 -291l10 -4q55 117 157 242t177 125q45 0 71 -26t26 -66t-26 -67q-24 -27 -54 -27t-54 22q-23 22 -51 23q-63 0 -252 -312q-43 -70 -80 -178l-67 -207q-4 -14 -27 -14z" />
    <glyph glyph-name="Rcaron" unicode="&#x158;" horiz-adv-x="1421" 
d="M961 1663l243 127q10 4 15 -4l14 -23q4 -4 -4 -12l-285 -246q-16 -12 -26 4l-146 246q-6 10 4 17l21 18q8 6 22 -4zM578 731h132q112 0 244 51q94 39 155 119q60 80 60 173t-78 166q-79 73 -247 73q-59 0 -84 -2zM98 70q94 0 127 102l326 1022q38 104 -59 102h-80
q-20 0 -17 17l11 43q2 16 26 16l459 6q463 0 463 -293q0 -151 -137 -263t-324 -134v-4q47 -16 102 -123q176 -351 203 -395q60 -97 166 -96h51q18 0 15 -21l-7 -39q-4 -16 -20 -16l-47 2q-45 4 -105 4l-151 -6q-12 0 -30 21t-136 277t-133 283t-35 42q-20 14 -30 22t-31 13
t-29 8q-17 6 -62 6h-57l-145 -449q-25 -88 -9 -118t84 -29h84q18 0 15 -17l-6 -47q-2 -12 -25 -12l-287 6q-72 0 -149 -4l-76 -2q-16 0 -12 16l8 43q2 16 20 17h39z" />
    <glyph glyph-name="rcaron" unicode="&#x159;" horiz-adv-x="729" 
d="M571 1130l205 134q10 4 15 -2l12 -19q4 -4 -6 -14l-256 -262q-14 -10 -21 8l-92 266q-6 10 2 16q26 15 33 9zM219 0h-82q-27 0 -18 18l114 332q101 310 101 350t-31 40t-83 -46q-52 -45 -83 -82q-6 -10 -16 0l-21 21q-6 6 0 16q47 71 130 137t176 66q57 0 57 -72
q2 -37 -74 -291l10 -4q55 117 157 242t177 125q45 0 71 -26t26 -66t-26 -67q-24 -27 -54 -27t-54 22q-23 22 -51 23q-63 0 -252 -312q-43 -70 -80 -178l-67 -207q-4 -14 -27 -14z" />
    <glyph glyph-name="Sacute" unicode="&#x15a;" horiz-adv-x="1032" 
d="M1080 1786q34 0 52 -31t11 -67q-8 -36 -45 -52l-357 -145q-12 -6 -16 2l-12 20q-4 10 6 21l293 227q34 25 68 25zM552 49q108 0 177 70q70 70 70 163t-35 142q-65 91 -156 182q-184 200 -213 310q-14 56 -14 126q0 127 94 244t254 117q109 0 242 -92q16 -11 31 -11t30 72
q2 8 21 6l26 -2q16 -2 15 -14l-74 -389q-4 -12 -16 -12l-29 2q-20 4 -19 18q13 79 -28 201q-20 59 -72 100t-135 41q-82 0 -138 -68q-57 -68 -57 -158t33 -138t43 -61t55 -57q45 -43 53 -51l17 -18q63 -63 98 -104t72 -125t37 -178q0 -191 -111 -293t-260 -103
q-87 0 -157 41t-144 115q-27 27 -46 -1t-44 -81q-6 -12 -20 -6l-27 10q-12 5 -8 21l151 446q4 10 23 8l20 -6q18 -8 15 -22q-50 -207 34 -326t192 -119z" />
    <glyph glyph-name="sacute" unicode="&#x15b;" horiz-adv-x="602" 
d="M788 1235q34 0 50 -25q16 -24 7 -58t-50 -52l-310 -146q-12 -6 -16 2l-14 21q-4 4 8 16l258 211q33 31 67 31zM228 -20q-100 0 -151 32q-52 32 -52 82q0 24 19 46t50 22q61 0 84 -66q10 -31 24 -44t55 -13q40 0 75 36t35 95q1 59 -41 136t-46 89t-17 39q-44 91 -44 176
q0 84 77 163t181 79q55 0 101 -26t45 -78q1 -26 -19 -46t-45 -20q-49 0 -70 49q0 3 -6 19t-14 27t-37 11q-28 0 -62 -38t-34 -82q0 -42 14 -80t36 -77q22 -38 23 -41q1 -4 13 -24q65 -111 65 -218t-79 -178q-80 -70 -180 -70z" />
    <glyph glyph-name="Scedilla" unicode="&#x15e;" horiz-adv-x="1032" 
d="M552 49q108 0 177 70q70 70 70 163t-35 142q-65 91 -156 182q-184 200 -213 310q-14 56 -14 126q0 127 94 244t254 117q109 0 242 -92q16 -11 31 -11t30 72q2 8 21 6l26 -2q16 -2 15 -14l-74 -389q-4 -12 -16 -12l-29 2q-20 4 -19 18q13 79 -28 201q-20 59 -72 100
t-135 41q-82 0 -138 -68q-57 -68 -57 -158t33 -138t43 -61t55 -57q45 -43 53 -51l17 -18q63 -63 98 -104t72 -125t37 -178q0 -191 -111 -293t-260 -103h-18l-68 -98q101 -37 101 -120t-94 -144t-189 -62q-39 0 -39 32t25 32q82 6 127 41t45 78q0 59 -99 88l119 166
q-96 29 -211 143q-27 27 -46 -1t-44 -81q-6 -12 -20 -6l-27 10q-12 5 -8 21l151 446q4 10 23 8l20 -6q18 -8 15 -22q-50 -207 34 -326t192 -119z" />
    <glyph glyph-name="Scedilla" unicode="&#xf6c1;" horiz-adv-x="1032" 
d="M552 49q108 0 177 70q70 70 70 163t-35 142q-65 91 -156 182q-184 200 -213 310q-14 56 -14 126q0 127 94 244t254 117q109 0 242 -92q16 -11 31 -11t30 72q2 8 21 6l26 -2q16 -2 15 -14l-74 -389q-4 -12 -16 -12l-29 2q-20 4 -19 18q13 79 -28 201q-20 59 -72 100
t-135 41q-82 0 -138 -68q-57 -68 -57 -158t33 -138t43 -61t55 -57q45 -43 53 -51l17 -18q63 -63 98 -104t72 -125t37 -178q0 -191 -111 -293t-260 -103h-18l-68 -98q101 -37 101 -120t-94 -144t-189 -62q-39 0 -39 32t25 32q82 6 127 41t45 78q0 59 -99 88l119 166
q-96 29 -211 143q-27 27 -46 -1t-44 -81q-6 -12 -20 -6l-27 10q-12 5 -8 21l151 446q4 10 23 8l20 -6q18 -8 15 -22q-50 -207 34 -326t192 -119z" />
    <glyph glyph-name="scedilla" unicode="&#x15f;" horiz-adv-x="602" 
d="M248 -253q0 -75 -98 -126t-164 -51q-39 0 -39 35t37 35q57 0 104 30t47 66q0 57 -78 86l115 160q-70 8 -109 38t-39 64t20 56q19 22 50 22q61 0 84 -66q10 -31 24 -44t55 -13q40 0 75 36t35 95q1 59 -41 136t-46 88t-16 39q-45 105 -44 184t77 157t180 78q55 0 101 -26
t45 -78q1 -26 -19 -46t-45 -20q-49 0 -70 49q0 3 -6 19t-14 27t-37 11q-28 0 -62 -38t-34 -82q0 -42 14 -80t36 -77q22 -38 23 -41q1 -4 13 -24q65 -111 65 -214t-69 -172q-70 -68 -172 -78l-82 -119q84 -41 84 -116z" />
    <glyph glyph-name="scedilla" unicode="&#xf6c2;" horiz-adv-x="602" 
d="M248 -253q0 -75 -98 -126t-164 -51q-39 0 -39 35t37 35q57 0 104 30t47 66q0 57 -78 86l115 160q-70 8 -109 38t-39 64t20 56q19 22 50 22q61 0 84 -66q10 -31 24 -44t55 -13q40 0 75 36t35 95q1 59 -41 136t-46 88t-16 39q-45 105 -44 184t77 157t180 78q55 0 101 -26
t45 -78q1 -26 -19 -46t-45 -20q-49 0 -70 49q0 3 -6 19t-14 27t-37 11q-28 0 -62 -38t-34 -82q0 -42 14 -80t36 -77q22 -38 23 -41q1 -4 13 -24q65 -111 65 -214t-69 -172q-70 -68 -172 -78l-82 -119q84 -41 84 -116z" />
    <glyph glyph-name="Scaron" unicode="&#x160;" horiz-adv-x="1032" 
d="M827 1663l244 127q10 4 14 -4l15 -23q4 -4 -4 -12l-285 -246q-16 -12 -27 4l-145 246q-6 10 4 17l21 18q8 6 22 -4zM552 49q108 0 177 70q70 70 70 163t-35 142q-65 91 -156 182q-184 200 -213 310q-14 56 -14 126q0 127 94 244t254 117q109 0 242 -92q16 -11 31 -11
t30 72q2 8 21 6l26 -2q16 -2 15 -14l-74 -389q-4 -12 -16 -12l-29 2q-20 4 -19 18q13 79 -28 201q-20 59 -72 100t-135 41q-82 0 -138 -68q-57 -68 -57 -158t33 -138t43 -61t55 -57q45 -43 53 -51l17 -18q63 -63 98 -104t72 -125t37 -178q0 -191 -111 -293t-260 -103
q-87 0 -157 41t-144 115q-27 27 -46 -1t-44 -81q-6 -12 -20 -6l-27 10q-12 5 -8 21l151 446q4 10 23 8l20 -6q18 -8 15 -22q-50 -207 34 -326t192 -119z" />
    <glyph glyph-name="scaron" unicode="&#x161;" horiz-adv-x="602" 
d="M508 1130l205 134q10 4 14 -2l12 -19q4 -4 -6 -14l-256 -262q-14 -10 -20 8l-92 266q-6 10 2 16q26 15 32 9zM228 -20q-100 0 -151 32q-52 32 -52 82q0 24 19 46t50 22q61 0 84 -66q10 -31 24 -44t55 -13q40 0 75 36t35 95q1 59 -41 136t-46 89t-17 39q-44 91 -44 176
q0 84 77 163t181 79q55 0 101 -26t45 -78q1 -26 -19 -46t-45 -20q-49 0 -70 49q0 3 -6 19t-14 27t-37 11q-28 0 -62 -38t-34 -82q0 -42 14 -80t36 -77q22 -38 23 -41q1 -4 13 -24q65 -111 65 -218t-79 -178q-80 -70 -180 -70z" />
    <glyph glyph-name="Tcommaaccent" unicode="&#x162;" horiz-adv-x="1359" 
d="M422 -522q-16 0 -19 14q-2 16 19 25q41 10 84 48t42 83t-42 87q-41 43 -41 71t19 50q20 22 60 22t72 -52t34 -110q0 -58 -30 -109t-72 -78t-76 -39t-50 -12zM371 70q88 0 129 44t80 167l327 1026h-53q-238 0 -369 -41q-57 -47 -118 -121t-91 -121q-8 -12 -26 -6l-27 12
q-12 6 0 30t80 172t73 164t15 15q2 0 33 -9q103 -30 301 -30h612q123 0 167 12t58 17q14 4 18 7q5 3 7 3q14 -1 11 -27t-12 -186t-5 -213q0 -14 -16 -16l-27 -2q-14 -2 -18 3t-9 23q-7 55 -31 143t-44 128q-39 16 -148 29t-166 14h-43l-338 -1061q-33 -98 -15 -137t103 -39
h80q18 0 15 -21l-9 -39q-4 -16 -26 -16l-307 6l-279 -6q-18 0 -16 20l6 39q4 16 22 17h56z" />
    <glyph glyph-name="tcommaaccent" unicode="&#x163;" horiz-adv-x="643" 
d="M-39 -522q-16 0 -18 15t18 24q41 10 84 48t42 83t-42 87q-41 43 -41 71t20 50t59 22q40 0 73 -52q34 -52 34 -110t-30 -109t-73 -78q-42 -27 -76 -39t-50 -12zM223 721q-18 0 -12 16l16 45q6 14 23 15h147l107 237q12 23 33 31q49 15 83 31t39 16q23 0 3 -41l-136 -274
h209q16 0 8 -23l-18 -43q-4 -10 -18 -10h-209l-199 -461q-47 -110 -47 -138t33 -28t105 53t87 71q14 18 25 7l22 -24q8 -8 2 -19q-40 -49 -156 -126t-218 -76q-66 0 -66 49q0 41 23 96l258 596h-144z" />
    <glyph glyph-name="Tcaron" unicode="&#x164;" horiz-adv-x="1359" 
d="M1063 1663l244 127q10 4 14 -4l14 -23q4 -4 -4 -12l-284 -246q-16 -12 -27 4l-146 246q-6 10 5 17l20 18q8 6 23 -4zM371 70q88 0 129 44t80 167l327 1026h-53q-238 0 -369 -41q-57 -47 -118 -121t-91 -121q-8 -12 -26 -6l-27 12q-12 6 0 30t80 172t73 164t15 15
q2 0 33 -9q103 -30 301 -30h612q123 0 167 12t58 17q14 4 18 7q5 3 7 3q14 -1 11 -27t-12 -186t-5 -213q0 -14 -16 -16l-27 -2q-14 -2 -18 3t-9 23q-7 55 -31 143t-44 128q-39 16 -148 29t-166 14h-43l-338 -1061q-33 -98 -15 -137t103 -39h80q18 0 15 -21l-9 -39
q-4 -16 -26 -16l-307 6l-279 -6q-18 0 -16 20l6 39q4 16 22 17h56z" />
    <glyph glyph-name="tcaron" unicode="&#x165;" horiz-adv-x="765" 
d="M780 983q-16 0 -18 15t18 24q41 10 84 48t42 82t-38 85q-45 45 -45 74q-1 29 19 51t60 20q40 0 73 -51t34 -109t-30 -110q-31 -51 -73 -78t-76 -39t-50 -12zM223 721q-18 0 -12 16l16 45q6 14 23 15h147l107 237q12 23 33 31q49 15 83 31t39 16q23 0 3 -41l-136 -274h209
q16 0 8 -23l-18 -43q-4 -10 -18 -10h-209l-199 -461q-47 -110 -47 -138t33 -28t105 53t87 71q14 18 25 7l22 -24q8 -8 2 -19q-40 -49 -156 -126t-218 -76q-66 0 -66 49q0 41 23 96l258 596h-144z" />
    <glyph glyph-name="Umacron" unicode="&#x16a;" horiz-adv-x="1497" 
d="M893 1581v70q0 12 20 12h410q20 0 20 -14v-68q0 -14 -18 -14h-416q-16 0 -16 14zM1720 1303h-43q-79 -1 -118 -95l-201 -637q-92 -297 -240 -449t-372 -153t-355 95t-131 280q0 106 43 256l174 576q43 127 -57 127h-74q-16 0 -14 16l10 43q2 16 27 16l243 -6l256 6
q20 0 19 -20l-8 -39q-4 -16 -21 -16h-65q-31 -1 -51 -7t-42 -32q-23 -26 -38 -78l-168 -547q-60 -217 -60 -298t39 -143q60 -95 188 -123t221 8q94 35 154 91q126 116 217 414l181 590q39 125 -76 125h-78q-23 0 -18 16l6 39q6 20 26 20l250 -6l187 6q20 0 18 -20l-6 -39
q-4 -16 -23 -16z" />
    <glyph glyph-name="umacron" unicode="&#x16b;" horiz-adv-x="991" 
d="M520 1057v61q0 12 21 12h368q20 0 21 -14v-59q0 -14 -19 -15h-374q-17 1 -17 15zM889 831h84q25 0 18 -18l-157 -426q-86 -231 -86 -257t16 -34q20 0 82 52t74 70t22 5l21 -20q8 -9 -1 -21q-8 -12 -56 -55t-133 -95t-148 -52q-39 0 -39 47q0 8 131 350l-12 6
q-83 -119 -207 -247q-70 -72 -149 -114t-130 -42q-94 0 -96 83q1 40 23 95t36 89t41 95t42 96t59 139q45 104 45 131q0 28 -29 28t-85 -46q-56 -45 -79 -72q-8 -8 -18 0l-19 19q-10 6 2 18q33 43 132 120t184 77q29 0 44 -23t15 -51q0 -66 -121 -329t-121 -322q0 -35 35 -35
q72 0 193 126q224 234 286 403l72 196q4 14 29 14z" />
    <glyph glyph-name="Uring" unicode="&#x16e;" horiz-adv-x="1497" 
d="M1040 1640q0 -50 31 -76t73 -26t73 27t30 80q0 53 -35 79q-34 26 -72 25q-38 0 -69 -30t-31 -79zM1139 1487q-88 0 -148 39q-59 38 -59 110t65 118q66 46 153 46t146 -41q60 -41 60 -115t-64 -116t-153 -41zM1720 1303h-43q-79 -1 -118 -95l-201 -637q-92 -297 -240 -449
t-372 -153t-355 95t-131 280q0 106 43 256l174 576q43 127 -57 127h-74q-16 0 -14 16l10 43q2 16 27 16l243 -6l256 6q20 0 19 -20l-8 -39q-4 -16 -21 -16h-65q-31 -1 -51 -7t-42 -32q-23 -26 -38 -78l-168 -547q-60 -217 -60 -298t39 -143q60 -95 188 -123t221 8
q94 35 154 91q126 116 217 414l181 590q39 125 -76 125h-78q-23 0 -18 16l6 39q6 20 26 20l250 -6l187 6q20 0 18 -20l-6 -39q-4 -16 -23 -16z" />
    <glyph glyph-name="uring" unicode="&#x16f;" horiz-adv-x="991" 
d="M616 1132q0 -50 32 -76t72 -26t68 28t29 79q0 51 -32 75q-31 24 -69 25q-38 0 -69 -28t-31 -77zM715 983q-86 0 -142 39q-55 40 -55 108t62 112t146 44q85 0 137 -39t52 -111t-57 -112q-57 -41 -143 -41zM889 831h84q25 0 18 -18l-157 -426q-86 -231 -86 -257t16 -34
q20 0 82 52t74 70t22 5l21 -20q8 -9 -1 -21q-8 -12 -56 -55t-133 -95t-148 -52q-39 0 -39 47q0 8 131 350l-12 6q-83 -119 -207 -247q-70 -72 -149 -114t-130 -42q-94 0 -96 83q1 40 23 95t36 89t41 95t42 96t59 139q45 104 45 131q0 28 -29 28t-85 -46q-56 -45 -79 -72
q-8 -8 -18 0l-19 19q-10 6 2 18q33 43 132 120t184 77q29 0 44 -23t15 -51q0 -66 -121 -329t-121 -322q0 -35 35 -35q72 0 193 126q224 234 286 403l72 196q4 14 29 14z" />
    <glyph glyph-name="Uhungarumlaut" unicode="&#x170;" horiz-adv-x="1497" 
d="M889 1493l-12 14q-6 10 4 21l237 246q27 26 63 26t52 -47t-27 -76l-297 -184q-14 -10 -20 0zM1114 1493l-12 18q-6 8 12 25l260 221q20 16 39 17q49 0 61 -50t-32 -71l-309 -160q-11 -8 -19 0zM1720 1303h-43q-79 -1 -118 -95l-201 -637q-92 -297 -240 -449t-372 -153
t-355 95t-131 280q0 106 43 256l174 576q43 127 -57 127h-74q-16 0 -14 16l10 43q2 16 27 16l243 -6l256 6q20 0 19 -20l-8 -39q-4 -16 -21 -16h-65q-31 -1 -51 -7t-42 -32q-23 -26 -38 -78l-168 -547q-60 -217 -60 -298t39 -143q60 -95 188 -123t221 8q94 35 154 91
q126 116 217 414l181 590q39 125 -76 125h-78q-23 0 -18 16l6 39q6 20 26 20l250 -6l187 6q20 0 18 -20l-6 -39q-4 -16 -23 -16z" />
    <glyph glyph-name="uhungarumlaut" unicode="&#x171;" horiz-adv-x="991" 
d="M764 1260q45 0 52 -44t-21 -63l-258 -190q-13 -13 -19 -5l-18 17q-8 8 6 20l194 226q35 39 64 39zM1022 1241q35 0 48 -44t-34 -73l-278 -163q-11 -8 -19 0l-14 18q-6 6 8 18l217 207q37 37 72 37zM889 831h84q25 0 18 -18l-157 -426q-86 -231 -86 -257t16 -34
q20 0 82 52t74 70t22 5l21 -20q8 -9 -1 -21q-8 -12 -56 -55t-133 -95t-148 -52q-39 0 -39 47q0 8 131 350l-12 6q-83 -119 -207 -247q-70 -72 -149 -114t-130 -42q-94 0 -96 83q1 40 23 95t36 89t41 95t42 96t59 139q45 104 45 131q0 28 -29 28t-85 -46q-56 -45 -79 -72
q-8 -8 -18 0l-19 19q-10 6 2 18q33 43 132 120t184 77q29 0 44 -23t15 -51q0 -66 -121 -329t-121 -322q0 -35 35 -35q72 0 193 126q224 234 286 403l72 196q4 14 29 14z" />
    <glyph glyph-name="Uogonek" unicode="&#x172;" horiz-adv-x="1497" 
d="M1720 1303h-43q-88 0 -118 -95l-207 -647q-86 -272 -190 -392t-255 -179q-61 -25 -135 -143t-74 -173q0 -102 59 -132q42 -21 79 -21l94 30q16 0 16 -17q0 -35 -79 -61q-38 -13 -76 -14q-221 0 -222 164q0 65 43 137t79 108t112 105q-53 -8 -121 -2q-190 11 -306 107
t-116 266q0 106 43 256l174 576q20 70 6 98t-63 29h-74q-16 0 -14 16l10 43q2 16 27 16l243 -6l256 6q20 0 19 -20l-8 -39q-4 -16 -21 -16h-65q-31 -1 -51 -7t-42 -32q-23 -26 -38 -78l-168 -547q-60 -187 -60 -283q-1 -232 242 -284q114 -25 206 11q94 35 154 91
q126 116 217 414l181 590q39 125 -76 125h-78q-23 0 -18 16l6 39q6 20 26 20l250 -6l187 6q20 0 18 -20l-6 -39q-4 -16 -23 -16z" />
    <glyph glyph-name="uogonek" unicode="&#x173;" horiz-adv-x="991" 
d="M715 -348q16 0 16 -25t-40 -41q-39 -16 -97 -16t-117 35t-59 85q0 92 65 159t108 98q42 30 42 33q-27 4 -37 12t-10 35q0 8 131 350l-12 6q-83 -119 -207 -247q-70 -72 -149 -114t-130 -42t-74 24t-22 62q1 39 23 92t36 88t41 95t42 96t59 140q45 103 45 131t-29 28
t-85 -46q-56 -45 -79 -72q-8 -8 -18 0l-19 19q-10 6 2 18q33 43 132 120t184 77q29 0 44 -23t15 -51q0 -66 -121 -329t-121 -322q0 -35 35 -35q72 0 193 126q224 234 286 403l72 196q4 14 29 14h84q24 0 18 -18l-157 -426q-86 -231 -86 -257t16 -34q20 0 82 52t74 70t22 5
l21 -20q8 -7 3 -15t-71 -65t-164 -125q-184 -129 -184 -256q0 -57 38 -84t72 -27z" />
    <glyph glyph-name="Ydieresis" unicode="&#x178;" horiz-adv-x="1105" 
d="M1032 1532q-102 0 -102 96q0 31 23 59q24 27 71 27t74 -24q26 -24 26 -67q0 -42 -26 -67q-27 -24 -66 -24zM668 1532q-102 0 -103 96q0 31 24 59q24 27 71 27q48 0 74 -24t26 -67t-26 -67t-66 -24zM1386 1303h-38q-49 0 -83 -23q-33 -23 -101 -110t-252 -350t-205 -295
q-20 -32 -37 -109l-52 -232q-16 -74 4 -94t76 -20h62q18 0 14 -17l-6 -43q-4 -16 -23 -16l-77 2q-80 4 -163 4t-140 -1t-87 -3t-36 -2q-18 0 -17 16l8 43q0 16 19 17h59q65 0 93 28t40 80l68 303q10 49 -10 111l-221 633q-27 78 -125 78h-47q-16 0 -15 16l8 43q2 16 21 16
l215 -6l252 6q22 0 18 -16l-4 -43q-2 -16 -18 -16h-54q-100 0 -65 -99l190 -569q10 -35 31 -8q66 90 214 307t166 266q37 103 -79 103h-41q-18 0 -14 20l4 39q2 16 25 16l225 -6l201 6q24 0 20 -16l-6 -39q-2 -20 -17 -20z" />
    <glyph glyph-name="Zacute" unicode="&#x179;" horiz-adv-x="1386" 
d="M1215 1786q35 0 53 -31t10 -67t-45 -52l-356 -145q-13 -6 -17 2l-12 20q-4 10 6 21l293 227q33 25 68 25zM797 0h-647q-16 0 -23 9q-10 15 6 36l1079 1253q-496 0 -594 -10q-160 -16 -225 -155q-8 -14 -18 -11l-29 11q-10 4 -8 16l78 233q6 20 20 21q14 0 30 -9
q16 -10 131 -16q116 -6 169 -6h664q24 0 26 -17t-10 -28l-1071 -1251q530 0 682 28q80 14 127 56t98 125q8 12 21 6l28 -15q12 -4 6 -20l-96 -268q-8 -25 -57 -4q-59 16 -387 16z" />
    <glyph glyph-name="zacute" unicode="&#x17a;" horiz-adv-x="976" 
d="M873 1235q33 0 49 -25q16 -24 7 -58t-50 -52l-310 -146q-12 -6 -16 2l-14 21q-4 4 8 16l258 211q35 31 68 31zM923 899q38 0 40 -49q0 -80 -127 -160l-478 -473l7 -10q76 0 213 -90q19 -15 46 -32q28 -17 44 -27q95 -60 146 -14q22 19 22 46q0 28 -18 60t-18 61t21 49
q20 20 47 21q84 0 84 -101q0 -80 -66 -150t-172 -71q-106 0 -270 78q-6 1 -61 33t-93 32t-54 -16t-29 -57q-20 -59 -88 -60q-19 1 -31 13t-12 32q0 54 54 106t110 83l428 426l-9 8q-108 -8 -223 91q-71 61 -113 62q-41 0 -56 -12t-15 -28t28 -34t28 -52q0 -36 -20 -58
q-19 -22 -51 -20q-32 0 -60 26q-27 26 -27 79t50 107t141 54t158 -31q25 -10 107 -50t136 -40t77 74q12 35 39 65t65 29z" />
    <glyph glyph-name="Zdotaccent" unicode="&#x17b;" horiz-adv-x="1386" 
d="M946 1511q-43 0 -77 23q-33 23 -33 69q0 45 26 77t76 32q51 0 80 -28t29 -74t-29 -72q-29 -27 -72 -27zM797 0h-647q-16 0 -23 9q-10 15 6 36l1079 1253q-496 0 -594 -10q-160 -16 -225 -155q-8 -14 -18 -11l-29 11q-10 4 -8 16l78 233q6 20 20 21q14 0 30 -9
q16 -10 131 -16q116 -6 169 -6h664q24 0 26 -17t-10 -28l-1071 -1251q530 0 682 28q80 14 127 56t98 125q8 12 21 6l28 -15q12 -4 6 -20l-96 -268q-8 -25 -57 -4q-59 16 -387 16z" />
    <glyph glyph-name="zdotaccent" unicode="&#x17c;" horiz-adv-x="976" 
d="M514 1231q0 37 30 67t79 29q49 0 77 -30q28 -29 29 -65q-1 -36 -27 -71t-82 -35t-81 34t-25 71zM923 899q38 0 40 -49q0 -80 -127 -160l-478 -473l7 -10q76 0 213 -90q19 -15 46 -32q28 -17 44 -27q95 -60 146 -14q22 19 22 46q0 28 -18 60t-18 61t21 49q20 20 47 21
q84 0 84 -101q0 -80 -66 -150t-172 -71q-106 0 -270 78q-6 1 -61 33t-93 32t-54 -16t-29 -57q-20 -59 -88 -60q-19 1 -31 13t-12 32q0 54 54 106t110 83l428 426l-9 8q-108 -8 -223 91q-71 61 -113 62q-41 0 -56 -12t-15 -28t28 -34t28 -52q0 -36 -20 -58q-19 -22 -51 -20
q-32 0 -60 26q-27 26 -27 79t50 107t141 54t158 -31q25 -10 107 -50t136 -40t77 74q12 35 39 65t65 29z" />
    <glyph glyph-name="Zcaron" unicode="&#x17d;" horiz-adv-x="1386" 
d="M983 1663l244 127q10 4 14 -4l14 -23q4 -4 -4 -12l-284 -246q-16 -12 -27 4l-145 246q-6 10 4 17l20 18q8 6 23 -4zM797 0h-647q-16 0 -23 9q-10 15 6 36l1079 1253q-496 0 -594 -10q-160 -16 -225 -155q-8 -14 -18 -11l-29 11q-10 4 -8 16l78 233q6 20 20 21q14 0 30 -9
q16 -10 131 -16q116 -6 169 -6h664q24 0 26 -17t-10 -28l-1071 -1251q530 0 682 28q80 14 127 56t98 125q8 12 21 6l28 -15q12 -4 6 -20l-96 -268q-8 -25 -57 -4q-59 16 -387 16z" />
    <glyph glyph-name="zcaron" unicode="&#x17e;" horiz-adv-x="976" 
d="M633 1130l205 134q10 4 14 -2l12 -19q4 -4 -6 -14l-256 -262q-14 -10 -20 8l-93 266q-6 10 3 16q26 15 32 9zM923 899q38 0 40 -49q0 -80 -127 -160l-478 -473l7 -10q76 0 213 -90q19 -15 46 -32q28 -17 44 -27q95 -60 146 -14q22 19 22 46q0 28 -18 60t-18 61t21 49
q20 20 47 21q84 0 84 -101q0 -80 -66 -150t-172 -71q-106 0 -270 78q-6 1 -61 33t-93 32t-54 -16t-29 -57q-20 -59 -88 -60q-19 1 -31 13t-12 32q0 54 54 106t110 83l428 426l-9 8q-108 -8 -223 91q-71 61 -113 62q-41 0 -56 -12t-15 -28t28 -34t28 -52q0 -36 -20 -58
q-19 -22 -51 -20q-32 0 -60 26q-27 26 -27 79t50 107t141 54t158 -31q25 -10 107 -50t136 -40t77 74q12 35 39 65t65 29z" />
    <glyph glyph-name="longs" unicode="&#x17f;" horiz-adv-x="430" 
d="M-250 -608q-63 0 -108 32t-45 74q0 43 22 71q23 28 63 28t66 -27q26 -28 34 -60q9 -32 36 -32q74 0 146 132t130 378q25 100 82 369t94 413q80 299 205 471q51 70 133 117t184 46t157 -45t55 -88t-28 -73t-65 -29t-59 30q-22 31 -27 61q-9 65 -75 65t-111 -28
q-111 -70 -173 -302l-20 -73q-9 -34 -25 -111q-137 -624 -219 -872q-82 -247 -190 -397t-262 -150z" />
    <glyph glyph-name="florin" unicode="&#x192;" 
d="M811 651h-201l-104 -344q-92 -303 -205 -437t-270 -134q-80 0 -126 34t-46 72q1 38 25 64t53 24q61 0 98 -82q16 -37 67 -36q78 0 119 78t79 216t46 164l111 381h-154q-20 0 -12 19l20 45q4 12 21 12h147q39 117 59 170q19 53 65 135q162 289 419 289q90 0 140 -38
t50 -89q0 -28 -28 -52t-61 -24q-32 0 -50 14t-23 27q-5 12 -16 37q-16 49 -92 49q-98 0 -168 -117t-141 -401h207q20 0 16 -12l-20 -51q-5 -13 -25 -13z" />
    <glyph glyph-name="Scommaaccent" unicode="&#x218;" horiz-adv-x="1032" 
d="M360 -522q-16 0 -18 15t18 24q41 10 84 48t42 83q-2 45 -42 87q-68 70 -21 121q19 22 59 22t73 -52t34 -110t-30 -109q-49 -81 -148 -117q-35 -12 -51 -12zM552 49q108 0 177 70q70 70 70 163t-35 142q-65 91 -156 182q-184 200 -213 310q-14 56 -14 126q0 127 94 244
t254 117q109 0 242 -92q16 -11 31 -11t30 72q2 8 21 6l26 -2q16 -2 15 -14l-74 -389q-4 -12 -16 -12l-29 2q-20 4 -19 18q13 79 -28 201q-20 59 -72 100t-135 41q-82 0 -138 -68q-57 -68 -57 -158t33 -138t43 -61t55 -57q45 -43 53 -51l17 -18q63 -63 98 -104t72 -125
t37 -178q0 -191 -111 -293t-260 -103q-87 0 -157 41t-144 115q-27 27 -46 -1t-44 -81q-6 -12 -20 -6l-27 10q-12 5 -8 21l151 446q4 10 23 8l20 -6q18 -8 15 -22q-50 -207 34 -326t192 -119z" />
    <glyph glyph-name="scommaaccent" unicode="&#x219;" horiz-adv-x="602" 
d="M43 -522q-16 0 -18 15t18 24q41 10 84 48t42 83t-42 87q-41 43 -41 71t19 50t59 22t74 -52t34 -110t-30 -109t-73 -78q-42 -27 -76 -39t-50 -12zM228 -20q-100 0 -151 32q-52 32 -52 82q0 24 19 46t50 22q61 0 84 -66q10 -31 24 -44t55 -13q40 0 75 36t35 95
q1 59 -41 136t-46 89t-17 39q-44 91 -44 176q0 84 77 163t181 79q55 0 101 -26t45 -78q1 -26 -19 -46t-45 -20q-49 0 -70 49q0 3 -6 19t-14 27t-37 11q-28 0 -62 -38t-34 -82q0 -42 14 -80t36 -77q22 -38 23 -41q1 -4 13 -24q65 -111 65 -218t-79 -178q-80 -70 -180 -70z
" />
    <glyph glyph-name="uni021A" unicode="&#x21a;" horiz-adv-x="1359" 
d="M422 -522q-16 0 -19 14q-2 16 19 25q41 10 84 48t42 83t-42 87q-41 43 -41 71t19 50q20 22 60 22t72 -52t34 -110q0 -58 -30 -109t-72 -78t-76 -39t-50 -12zM371 70q88 0 129 44t80 167l327 1026h-53q-238 0 -369 -41q-57 -47 -118 -121t-91 -121q-8 -12 -26 -6l-27 12
q-12 6 0 30t80 172t73 164t15 15q2 0 33 -9q103 -30 301 -30h612q123 0 167 12t58 17q14 4 18 7q5 3 7 3q14 -1 11 -27t-12 -186t-5 -213q0 -14 -16 -16l-27 -2q-14 -2 -18 3t-9 23q-7 55 -31 143t-44 128q-39 16 -148 29t-166 14h-43l-338 -1061q-33 -98 -15 -137t103 -39
h80q18 0 15 -21l-9 -39q-4 -16 -26 -16l-307 6l-279 -6q-18 0 -16 20l6 39q4 16 22 17h56z" />
    <glyph glyph-name="uni021B" unicode="&#x21b;" horiz-adv-x="643" 
d="M-39 -522q-16 0 -18 15t18 24q41 10 84 48t42 83t-42 87q-41 43 -41 71t20 50t59 22q40 0 73 -52q34 -52 34 -110t-30 -109t-73 -78q-42 -27 -76 -39t-50 -12zM223 721q-18 0 -12 16l16 45q6 14 23 15h147l107 237q12 23 33 31q49 15 83 31t39 16q23 0 3 -41l-136 -274
h209q16 0 8 -23l-18 -43q-4 -10 -18 -10h-209l-199 -461q-47 -110 -47 -138t33 -28t105 53t87 71q14 18 25 7l22 -24q8 -8 2 -19q-40 -49 -156 -126t-218 -76q-66 0 -66 49q0 41 23 96l258 596h-144z" />
    <glyph glyph-name="circumflex" unicode="&#x2c6;" horiz-adv-x="522" 
d="M563 967l-108 135l-205 -133q-10 -4 -14 2l-13 18q-4 4 6 15l256 262q14 10 21 -9l92 -266q6 -10 -2 -16q-27 -14 -33 -8z" />
    <glyph glyph-name="caron" unicode="&#x2c7;" horiz-adv-x="522" 
d="M426 1130l205 134q10 4 14 -2l12 -19q4 -4 -6 -14l-256 -262q-14 -10 -20 8l-92 266q-6 10 2 16q26 15 32 9z" />
    <glyph glyph-name="uni02C9" unicode="&#x2c9;" horiz-adv-x="522" 
d="M223 1057v61q0 12 21 12h368q20 0 21 -14v-59q0 -14 -19 -15h-374q-17 1 -17 15z" />
    <glyph glyph-name="breve" unicode="&#x2d8;" horiz-adv-x="563" 
d="M435 975q-79 0 -131 51t-60 141q-2 23 8 25l20 6q9 3 26 -30q18 -33 64 -59t95 -26q113 0 192 101q16 20 25 14l22 -10q8 -4 -2 -27q-40 -78 -110 -132t-149 -54z" />
    <glyph glyph-name="dotaccent" unicode="&#x2d9;" horiz-adv-x="307" 
d="M325 1126q-56 0 -81 34t-25 71t30 67t79 29q49 0 78 -30q28 -29 28 -65t-26 -71t-83 -35z" />
    <glyph glyph-name="ring" unicode="&#x2da;" horiz-adv-x="522" 
d="M541 1137q0 51 -32 75t-70 25q-39 0 -69 -28t-30 -77q0 -50 32 -76t71 -26q40 0 69 28t29 79zM639 1136q1 -72 -57 -112q-58 -41 -144 -41t-141 39q-55 40 -55 108t61 112t147 44t137 -39q52 -39 52 -111z" />
    <glyph glyph-name="ogonek" unicode="&#x2db;" horiz-adv-x="440" 
d="M147 -348q17 0 17 -25t-40 -41t-98 -16t-116 35q-59 35 -60 94q0 88 85 171t165 130h62q-182 -152 -182 -258q0 -57 38 -84t72 -27z" />
    <glyph glyph-name="tilde" unicode="&#x2dc;" horiz-adv-x="583" 
d="M375 1161q43 0 98 -16q55 -17 107 -17t90 66q6 14 16 8l31 -16q9 -6 -13 -45t-67 -76t-84 -37t-99 16t-92 17q-30 0 -62 -24t-50 -54q-8 -10 -14 -6l-27 16q-6 6 2 21q25 59 73 103t91 44z" />
    <glyph glyph-name="hungarumlaut" unicode="&#x2dd;" horiz-adv-x="624" 
d="M457 1260q45 0 52 -44t-22 -63l-258 -190q-12 -13 -18 -5l-18 17q-8 8 6 20l194 226q35 39 64 39zM715 1241q35 0 48 -44t-34 -73l-278 -163q-11 -8 -19 0l-14 18q-6 6 8 18l217 207q37 37 72 37z" />
    <glyph glyph-name="Delta" unicode="&#x394;" horiz-adv-x="1267" 
d="M211 92h793l-195 1043zM59 0l15 49l786 1297l58 18l266 -1315l-13 -49h-1112z" />
    <glyph glyph-name="Delta" unicode="&#x2206;" horiz-adv-x="1267" 
d="M211 92h793l-195 1043zM59 0l15 49l786 1297l58 18l266 -1315l-13 -49h-1112z" />
    <glyph glyph-name="Omega" unicode="&#x3a9;" horiz-adv-x="1540" 
d="M301 137h209q-229 303 -229 541q1 290 201 488t495 198q244 0 392 -151t149 -408q0 -111 -31 -180q-31 -68 -49 -107t-56 -84t-57 -72q-21 -26 -67 -68t-61 -57t-61 -55t-53 -45h189q68 0 98 23t84 116l51 -2l-88 -274h-520l-12 31l55 55q158 152 238 274q81 122 101 184
q52 155 52 269q0 215 -97 349t-278 134q-229 0 -358 -194t-129 -474q0 -278 166 -599l-17 -29h-485l-8 274l51 2q18 -86 45 -112t80 -27z" />
    <glyph glyph-name="Omega" unicode="&#x2126;" horiz-adv-x="1540" 
d="M301 137h209q-229 303 -229 541q1 290 201 488t495 198q244 0 392 -151t149 -408q0 -111 -31 -180q-31 -68 -49 -107t-56 -84t-57 -72q-21 -26 -67 -68t-61 -57t-61 -55t-53 -45h189q68 0 98 23t84 116l51 -2l-88 -274h-520l-12 31l55 55q158 152 238 274q81 122 101 184
q52 155 52 269q0 215 -97 349t-278 134q-229 0 -358 -194t-129 -474q0 -278 166 -599l-17 -29h-485l-8 274l51 2q18 -86 45 -112t80 -27z" />
    <glyph glyph-name="pi" unicode="&#x3c0;" horiz-adv-x="1126" 
d="M719 -25q-119 0 -68 236q59 274 123 520q-238 4 -291 4q-104 -522 -231 -715q-78 -45 -148 -45l-12 33q86 76 179 308t124 421q-153 3 -266 -112l-31 37q108 143 228 177q63 17 143 17l492 -8q43 0 63 10t47 49l47 -18q-39 -113 -76 -156q-20 -8 -141 -8
q-59 -250 -100 -463q-29 -154 18 -153q49 0 139 77l25 -45q-137 -166 -264 -166z" />
    <glyph glyph-name="figuredash" unicode="&#x2012;" 
d="M1071 444h-1024v111h1024v-111z" />
    <glyph glyph-name="endash" unicode="&#x2013;" 
d="M1075 444h-1024v111h1024v-111z" />
    <glyph glyph-name="emdash" unicode="&#x2014;" horiz-adv-x="2048" 
d="M2099 555v-111h-2048v111h2048z" />
    <glyph glyph-name="quoteleft" unicode="&#x2018;" horiz-adv-x="368" 
d="M551 1403h12q13 3 17 -17t-19 -26q-45 -12 -96 -57t-51 -97t43 -100q53 -43 53 -80q0 -36 -23 -62t-59 -26q-59 0 -96 60t-37 128t36 127t84 89t87 46t49 15z" />
    <glyph glyph-name="quoteright" unicode="&#x2019;" horiz-adv-x="368" 
d="M239 938h-12q-14 -2 -17 17t19 26q45 12 97 57q51 44 51 96t-43 101q-53 43 -53 80q1 37 23 63t58 25q58 -1 96 -61t38 -128t-36 -127q-56 -90 -172 -134q-40 -15 -49 -15z" />
    <glyph glyph-name="quotesinglbase" unicode="&#x201a;" horiz-adv-x="368" 
d="M35 -219h-12q-14 -2 -19 16q-2 20 21 27q45 12 96 57t51 97t-43 100q-53 43 -53 80q0 36 22 62t60 26q59 0 96 -60t37 -128t-36 -128t-84 -89q-48 -30 -87 -45t-49 -15z" />
    <glyph glyph-name="quotedblleft" unicode="&#x201c;" horiz-adv-x="655" 
d="M838 1403h12q14 3 17 -17t-19 -26q-45 -12 -96 -57q-52 -45 -52 -97t43 -100q53 -43 53 -80q0 -36 -22 -62q-23 -26 -59 -26q-59 0 -97 60t-36 120q0 188 206 270q40 16 50 15zM551 1403h12q13 3 17 -17t-19 -26q-45 -12 -96 -57t-51 -97t43 -100q53 -43 53 -80
q0 -36 -23 -62t-59 -26q-59 0 -96 60t-37 128t36 127t84 89t87 46t49 15z" />
    <glyph glyph-name="quotedblright" unicode="&#x201d;" horiz-adv-x="655" 
d="M526 938h-12q-14 -2 -17 17t19 26q45 12 96 57q52 44 52 96t-43 101q-53 43 -53 80t22 63q23 26 59 25q59 -1 96 -61t37 -128t-36 -127q-54 -90 -170 -134q-40 -15 -50 -15zM239 938h-12q-14 -2 -17 17t19 26q45 12 97 57q51 44 51 96t-43 101q-53 43 -53 80q1 37 23 63
t58 25q58 -1 96 -61t38 -128t-36 -127q-56 -90 -172 -134q-40 -15 -49 -15z" />
    <glyph glyph-name="quotedblbase" unicode="&#x201e;" horiz-adv-x="655" 
d="M321 -219h-12q-14 -2 -17 17t19 26q45 12 97 57q51 45 51 97t-43 100q-54 43 -54 80q0 36 23 62t59 26q58 0 96 -60t38 -128t-36 -128q-56 -90 -172 -134q-40 -15 -49 -15zM35 -219h-12q-14 -2 -19 16q-2 20 21 27q45 12 96 57t51 97t-43 100q-53 43 -53 80q0 36 22 62
t60 26q59 0 96 -60t37 -128t-36 -128t-84 -89q-48 -30 -87 -45t-49 -15z" />
    <glyph glyph-name="dagger" unicode="&#x2020;" 
d="M780 1403q72 0 72 -74q0 -25 -80 -216t-100 -263q74 0 205 22t157 23q26 0 42 -19q18 -20 18 -50t-25 -58t-51 -27q-26 0 -158 28t-203 28q-37 -154 9 -236q-46 -74 -152 -379t-141 -450q-4 -18 -19 -19h-30q-14 0 -9 25q45 180 95 465q49 285 39 348q22 21 30 33t22 28
q13 16 21 34t23 47q15 30 35 104q-72 0 -210 -28t-151 -28q-72 0 -72 64q0 35 30 63q29 28 61 29q32 0 157 -24t199 -23q23 88 39 252t25 202t43 69q34 30 79 30z" />
    <glyph glyph-name="daggerdbl" unicode="&#x2021;" 
d="M792 1403q44 1 58 -19t14 -51t-81 -216t-101 -265q76 0 214 22t162 21q48 0 48 -59q0 -35 -32 -64t-59 -29t-151 28t-194 28q-35 -143 -11 -248q-74 -94 -114 -229q70 0 209 26t157 25q61 0 62 -58q0 -43 -28 -69q-29 -26 -61 -25q-32 0 -157 23t-201 22
q-23 -90 -39 -255t-25 -201t-44 -67q-35 -30 -72 -30q-70 0 -70 76q0 37 78 219t99 258q-74 0 -213 -22t-157 -23t-35 17t-17 49q1 31 27 59t54 27q28 0 156 -26q127 -26 201 -25q37 131 12 229q80 98 113 248q-74 0 -213 -28t-154 -28q-68 0 -67 56q0 45 33 71t83 25
q10 0 134 -22t196 -21q23 88 36 252q12 164 22 202t47 67q37 30 81 30z" />
    <glyph glyph-name="bullet" unicode="&#x2022;" horiz-adv-x="724" 
d="M453 881q98 -1 158 -57q61 -56 61 -155t-69 -161t-161 -62t-156 56t-65 151q0 94 67 161t165 67z" />
    <glyph glyph-name="onedotenleader" unicode="&#x2024;" 
d="M590 84q0 -36 -33 -70t-81 -34t-79 32t-31 73q0 42 28 77t83 35t84 -38t29 -75z" />
    <glyph glyph-name="twodotenleader" unicode="&#x2025;" 
d="M856 84q0 -36 -33 -70t-81 -34t-78 32t-31 73q0 42 27 77q28 35 83 35t84 -38t29 -75zM344 84q0 -36 -33 -70t-81 -34t-78 32t-31 73q0 42 27 77q28 35 83 35t84 -38t29 -75z" />
    <glyph glyph-name="ellipsis" unicode="&#x2026;" horiz-adv-x="2048" 
d="M1065 84q0 -36 -33 -70t-81 -34t-79 32q-30 32 -30 73q0 42 27 77q28 35 83 35t84 -38t29 -75zM1749 84q0 -36 -33 -70t-81 -34t-79 32q-30 32 -30 73q0 42 27 77q28 35 83 35t84 -38t29 -75zM381 84q0 -36 -33 -70t-81 -34t-79 32q-30 32 -30 73q0 42 27 77q28 35 83 35
t84 -38t29 -75z" />
    <glyph glyph-name="perthousand" unicode="&#x2030;" horiz-adv-x="2109" 
d="M1696 41q82 0 156 102q74 103 114 233q39 130 39 210t-30 112q-30 33 -72 33q-74 0 -147 -97t-114 -222q-77 -236 -11 -330q30 -41 65 -41zM1704 -14q-104 0 -160 66q-55 68 -55 186t54 246q55 128 155 218t206 90t160 -60q53 -62 54 -163q0 -211 -125 -397t-289 -186z
M1024 41q82 0 157 102q75 103 113 233t39 210q0 80 -29 112q-30 33 -73 33q-74 0 -147 -97q-74 -97 -114 -222t-40 -207t30 -123t64 -41zM1032 -14q-104 0 -160 66q-55 68 -55 186t54 246q55 128 155 218t206 90t160 -60q54 -62 54 -163q0 -211 -125 -397t-289 -186zM336 13
q0 9 8 24l836 1276q6 8 12 8t14 -4l45 -29q16 -4 2 -24l-839 -1280q-14 -24 -33 -9l-39 27q-6 2 -6 11zM371 514q-104 0 -160 67q-55 67 -55 185t54 247q54 128 154 218t208 90q106 0 159 -61t53 -162q0 -212 -124 -398t-289 -186zM362 569q82 1 157 103t114 232t39 210
t-30 113t-73 33q-75 0 -147 -98t-113 -222q-41 -125 -41 -207t30 -123t64 -41z" />
    <glyph glyph-name="guilsinglleft" unicode="&#x2039;" horiz-adv-x="471" 
d="M485 712q0 -5 -12 -18l-215 -250l156 -251q2 -4 6 -9t4 -9q0 -5 -8 -13l-25 -23q-4 -4 -10 -4t-12 8l-256 279q-8 8 -9 12q0 4 11 15l317 296q12 12 23 3l22 -23q8 -8 8 -13z" />
    <glyph glyph-name="guilsinglright" unicode="&#x203a;" horiz-adv-x="471" 
d="M442 455q0 -4 -10 -15l-317 -297q-9 -8 -13 -8t-10 6l-22 23q-8 8 -8 13t12 18l215 249l-156 252q-2 4 -6 8t-4 10t8 13l25 23q10 10 22 -5l256 -278q8 -8 8 -12z" />
    <glyph glyph-name="fraction" unicode="&#x2044;" horiz-adv-x="204" 
d="M575 1321q6 0 15 -4l45 -29q8 -2 8 -8t-6 -16l-840 -1280q-14 -24 -33 -9l-38 27q-16 5 2 35l835 1276q6 8 12 8z" />
    <glyph glyph-name="zerosuperior" unicode="&#x2070;" horiz-adv-x="665" 
d="M578 1528q-74 0 -147 -98t-114 -224t-41 -209q0 -82 30 -123t65 -40q83 0 157 102t113 233t39 211t-30 114t-72 34zM580 1585q106 0 157 -60t51 -161q0 -211 -124 -398t-289 -188q-104 0 -158 66q-53 66 -53 184t54 246q54 129 154 220q102 91 208 91z" />
    <glyph glyph-name="foursuperior" unicode="&#x2074;" horiz-adv-x="665" 
d="M258 1085h223q3 8 61 152t58 162q-16 -12 -22 -19l-308 -264q-20 -14 -20 -22t8 -9zM467 793h-86q-14 0 -2 28l78 185h-314q-31 0 -30 30q0 12 28 39l568 494q17 16 39 16t30 -14t2 -29l-180 -457h129q14 0 4 -18l-18 -43q-10 -18 -21 -18h-121l-75 -189q-11 -24 -31 -24
z" />
    <glyph glyph-name="fivesuperior" unicode="&#x2075;" horiz-adv-x="665" 
d="M664 1085q0 -109 -100 -207t-269 -100q-53 0 -98 16t-45 48q0 20 13 32q32 30 69 -2q37 -31 88 -30q100 0 160 62t61 126q0 117 -80 162q-53 29 -101 29t-55 4q-6 10 -2 20l123 316q6 10 18 10h226q45 0 57 14q11 15 23 29t28 4t13 -19l-74 -122q-6 -10 -39 -11h-219
l-62 -145l2 -4q66 0 142 -35q121 -55 121 -197z" />
    <glyph glyph-name="sixsuperior" unicode="&#x2076;" horiz-adv-x="665" 
d="M395 834q84 0 136 86q53 86 53 158t-27 107q-27 36 -70 36q-88 0 -133 -56q-59 -68 -65 -188q-3 -51 21 -97t85 -46zM702 1114q0 -136 -94 -236t-208 -100t-163 64q-105 133 0 343q83 168 282 308q132 92 202 92q20 0 20 -20t-34 -37q-217 -109 -328 -291l2 -4
q72 49 154 49q83 0 125 -47t42 -121z" />
    <glyph glyph-name="sevensuperior" unicode="&#x2077;" horiz-adv-x="665" 
d="M469 1571h328q14 0 14 -9q0 -8 -8 -20q-9 -12 -61 -96t-166 -294t-142 -265q-28 -56 -36 -70q-23 -37 -62 -39q-41 0 -41 45q0 20 33 68q144 213 172 260t102 167t90 148h-211q-65 0 -93 -16t-62 -61q-10 -15 -28 -5t-11 27l98 188q9 17 25 13t14 -18t9 -19q11 -4 36 -4z
" />
    <glyph glyph-name="eightsuperior" unicode="&#x2078;" horiz-adv-x="665" 
d="M567 1530q-61 0 -109 -36t-48 -100t106 -173q170 98 170 204q0 33 -29 69t-90 36zM369 836q77 0 121 42t42 87q-2 84 -94 170q-172 -70 -172 -189q0 -46 33 -78t70 -32zM299 1362q0 80 81 152q82 72 192 71q110 0 165 -43t56 -104q0 -135 -238 -258q33 -38 45 -52t30 -49
t17 -69q0 -94 -79 -163q-80 -69 -198 -69t-165 54t-47 101q0 86 59 135t118 80q58 30 64 34q-100 100 -100 180z" />
    <glyph glyph-name="ninesuperior" unicode="&#x2079;" horiz-adv-x="665" 
d="M561 1534q-92 0 -142 -93t-50 -157q-1 -64 25 -102q26 -39 73 -39q90 0 133 59q63 80 64 211q0 62 -31 91q-31 30 -72 30zM567 1585q99 0 149 -55t50 -152q0 -196 -164 -368t-356 -228q-20 -4 -34 -4t-13 22q0 22 28 34q236 109 353 294l-7 2q-57 -47 -146 -47
q-89 1 -130 63t-41 122q0 117 89 217t222 100z" />
    <glyph glyph-name="parenleftsuperior" unicode="&#x207d;" horiz-adv-x="409" 
d="M236 1034q0 192 130 369q130 178 355 301q13 8 31 -11t-7 -32q-185 -109 -293 -283t-108 -368t62 -308q8 -14 -15 -20q-18 -8 -31 4q-124 156 -124 348z" />
    <glyph glyph-name="parenrightsuperior" unicode="&#x207e;" horiz-adv-x="409" 
d="M463 1348q0 -194 -125 -368q-125 -175 -348 -298q-14 -8 -31 10q-16 20 4 33q182 109 287 281q104 172 104 356t-35 257l-12 29q-6 15 -17 32t11 24q18 8 31 -4q131 -158 131 -352z" />
    <glyph glyph-name="nsuperior" unicode="&#x207f;" horiz-adv-x="737" 
d="M154 528q-12 0 -16 2q-3 2 -1 11l101 262q70 171 70 191t-20 20q-18 0 -56 -24t-53 -40t-25 -6l-13 17q-11 11 30 49q106 94 206 94q55 0 55 -45q0 -38 -34 -108t-36 -79l7 -2q45 72 144 153t187 81t86 -70q0 -43 -71 -225q-74 -177 -74 -193q1 -16 19 -16t53 25t46 37
t17 6l15 -17q8 -8 -3 -20q-20 -29 -94 -73t-143 -44q-41 0 -41 35q0 9 76 203t76 219q0 39 -42 39t-121 -64t-127 -137q-48 -74 -87 -178l-35 -94q-6 -8 -21 -9h-75z" />
    <glyph glyph-name="zeroinferior" unicode="&#x2080;" horiz-adv-x="665" 
d="M254 -176q82 0 157 102t113 232t39 210q0 80 -29 113q-30 33 -73 33q-74 0 -147 -97q-74 -97 -114 -222t-40 -207t30 -124q30 -40 64 -40zM258 -231q-104 0 -160 66q-55 67 -55 185t54 247q55 128 155 218t206 90t160 -61q53 -61 54 -162q0 -211 -125 -397t-289 -186z
" />
    <glyph glyph-name="oneinferior" unicode="&#x2081;" horiz-adv-x="665" 
d="M51 -170h66q37 0 59 10t37 41q14 31 49 137l86 271q37 111 37 123t-17 12t-83 -27l-66 -26q-8 -4 -14 8l-12 24q-2 8 8 15l291 143q31 14 47 14t16 -15q-1 -16 -35 -106t-82 -237l-57 -182q-39 -127 -45 -153q-12 -53 43 -52h55q14 0 10 -10l-6 -33q-4 -10 -14 -10
l-195 6l-192 -6q-12 0 -6 10l6 33q4 10 14 10z" />
    <glyph glyph-name="twoinferior" unicode="&#x2082;" horiz-adv-x="665" 
d="M139 -127h230q80 0 133 86q10 12 20 8q31 -18 19 -24q-19 -29 -51 -95t-34 -76t-16 -12q-12 0 -20 12t-80 11h-334q-25 0 -24 16q0 15 18 29t139 108t199 171q141 139 141 249q0 51 -27 93q-28 41 -85 40q-82 0 -158 -127q-12 -20 -23 -16l-22 12q-10 6 -6 19
q26 67 94 133t165 66t146 -51q49 -49 49 -123q0 -180 -237 -364q-104 -81 -232 -161l-4 -2v-2z" />
    <glyph glyph-name="threeinferior" unicode="&#x2083;" horiz-adv-x="665" 
d="M215 -231q-86 0 -137 42t-51 95q0 20 14 38t39 17q61 0 51 -78q-4 -16 25 -38t63 -21q88 0 152 65q63 66 63 165t-94 136q-20 8 -21 23q0 16 21 20q56 11 114 59t58 118q0 30 -23 58t-84 28t-124 -88q-18 -27 -31 -19l-21 17q-4 6 2 20q88 150 238 149q82 1 124 -37
t42 -81q0 -125 -178 -217q109 -58 109 -178t-110 -206t-241 -87z" />
    <glyph glyph-name="fourinferior" unicode="&#x2084;" horiz-adv-x="665" 
d="M156 76h223q3 8 61 152t58 161q-16 -12 -23 -18l-307 -265q-20 -14 -20 -22t8 -8zM365 -217h-86q-14 0 -3 29l78 184h-313q-31 0 -31 31q0 12 29 39l567 493q16 16 38 16t32 -14q8 -14 2 -29l-180 -456h129q14 0 4 -19l-19 -43q-10 -18 -20 -18h-121l-76 -189
q-10 -24 -30 -24z" />
    <glyph glyph-name="fiveinferior" unicode="&#x2085;" horiz-adv-x="665" 
d="M547 76q-1 -109 -101 -208t-268 -99q-53 0 -98 16t-45 47q0 20 13 32t32 13q18 -1 46 -23t79 -22q101 0 161 62t60 126q0 117 -80 162q-54 29 -102 29t-54 4q-6 10 -2 21l123 315q4 10 19 10h225q46 0 63 22l18 21t28 4t12 -18l-74 -123q-4 -10 -39 -10h-219l-61 -146
l2 -4q66 0 141 -35q121 -55 121 -196z" />
    <glyph glyph-name="sixinferior" unicode="&#x2086;" horiz-adv-x="665" 
d="M289 -176q84 0 136 86t52 180q0 49 -26 85q-27 36 -70 36q-88 1 -140 -61t-59 -183q-4 -51 21 -97t86 -46zM294 -231q-114 0 -164 63t-50 152q0 88 50 190t127 178q160 158 302 211q33 12 54 12t21 -19t-34 -38q-217 -109 -328 -291l2 -4q72 49 154 49t125 -47t43 -121
q0 -135 -94 -235t-208 -100z" />
    <glyph glyph-name="seveninferior" unicode="&#x2087;" horiz-adv-x="665" 
d="M346 561h328q14 0 14 -10q0 -11 -8 -21t-60 -94t-167 -294t-143 -264q-28 -56 -36 -70q-23 -38 -62 -39q-40 0 -40 45q0 20 33 67q145 213 173 260t101 167q74 120 90 149h-211q-66 -1 -94 -17t-61 -61q-9 -14 -27 -4t-12 26l98 189q10 16 26 12t13 -18q-2 -14 9 -18
t36 -5z" />
    <glyph glyph-name="eightinferior" unicode="&#x2088;" horiz-adv-x="665" 
d="M451 520q-61 0 -109 -36t-49 -100q0 -64 106 -173q170 98 170 205q-1 32 -29 68t-89 36zM252 -174q78 0 122 42t42 87q-2 84 -94 170q-172 -70 -172 -188q0 -45 32 -78t70 -33zM182 352q0 80 81 152t191 71q110 0 166 -43t56 -104q0 -135 -238 -258q33 -37 45 -51
q11 -14 29 -49t18 -70q0 -94 -78 -163t-198 -69q-119 0 -166 55q-47 54 -47 100q0 86 63 138t117 79q55 28 62 32q-101 100 -101 180z" />
    <glyph glyph-name="nineinferior" unicode="&#x2089;" horiz-adv-x="665" 
d="M438 524q-92 0 -142 -93t-50 -157t26 -102q26 -39 72 -39q90 0 133 60q63 80 64 210q0 64 -31 92q-31 29 -72 29zM444 575q98 0 148 -55t51 -151q0 -197 -164 -369t-356 -227q-19 -4 -33 -4t-14 21t28 34q236 109 353 295l-6 2q-57 -47 -147 -47t-130 62q-41 62 -41 122
q0 117 89 217t222 100z" />
    <glyph glyph-name="parenleftinferior" unicode="&#x208d;" horiz-adv-x="409" 
d="M104 -2q0 192 130 370t356 302q14 8 32 -12t-8 -31q-184 -109 -292 -283t-109 -368q0 -194 61 -308q8 -14 -14 -20q-18 -8 -31 4q-125 154 -125 346z" />
    <glyph glyph-name="parenrightinferior" unicode="&#x208e;" horiz-adv-x="409" 
d="M344 312q0 -194 -125 -368q-125 -175 -348 -298q-14 -8 -31 10q-16 20 4 33q182 109 287 281t105 363q0 192 -48 278q-8 18 -18 34t12 23q18 8 31 -4q131 -158 131 -352z" />
    <glyph glyph-name="colonmonetary" unicode="&#x20a1;" 
d="M780 113q0 33 -26 32q-8 -1 -75 -29t-138 -38l-52 -148q-6 -18 -16 -14l-35 14q-12 2 -6 21l45 123q-63 -6 -106 10l-47 -139q-6 -10 -17 -8l-35 12q-10 4 -4 20l47 135q-172 84 -172 353q0 127 68 285t180 286q135 156 305 197l58 159q4 18 18 13l33 -15q10 -2 2 -28
l-41 -121q6 2 36 2t68 -12l50 149q4 10 16 6l35 -14q12 -4 4 -18l-53 -148q25 -15 58 -51q33 -35 42 -35q20 0 35 51q6 16 18 13l23 -7q16 -2 10 -18l-94 -365q-6 -14 -21 -10l-24 4q-12 4 -8 17q31 109 15 199t-75 137l-338 -983q229 25 336 307q6 16 16 14l31 -10
q10 -5 8 -17l-127 -376q-6 -10 -14 -9l-33 9q-6 4 -3 17t3 28zM358 233l312 914q-100 -41 -198 -181t-139 -282q-43 -143 -43 -258t68 -193zM502 154l348 1009q-57 14 -107 4l-335 -977q51 -36 94 -36z" />
    <glyph glyph-name="Euro" unicode="&#x20ac;" 
d="M551 -31q-178 0 -267 159t-65 353h-129q-18 0 -24 7t0 16l14 31q6 12 33 12h114q16 98 37 168h-114q-33 0 -25 22l14 31q6 12 33 12h117q57 158 170 305q180 236 397 236q58 0 110 -22q52 -21 76 -47t45 -48q20 -22 27 -20q23 0 39 55q2 14 14 12l23 -6q14 -4 8 -20
l-84 -310q-4 -14 -18 -12l-25 4q-10 2 -8 21q20 109 -28 210t-171 101q-172 0 -317 -242q-49 -82 -96 -217h491q20 0 16 -12l-18 -41q-4 -12 -27 -12h-483q-18 -63 -37 -168h443q20 0 16 -12l-21 -41q-4 -12 -26 -13h-420q-4 -25 -4 -45q-13 -199 51 -291t156 -92
q246 0 342 250q4 12 7 15t9 1l29 -10q12 -4 6 -18l-104 -326q-6 -12 -15 -10l-33 10q-7 4 3 41q9 37 -15 39q-4 0 -93 -38t-173 -38z" />
    <glyph glyph-name="afii61289" unicode="&#x2113;" horiz-adv-x="829" 
d="M739 1300q72 0 116 -50t44 -131t-39 -161t-82 -134t-129 -128t-124 -102t-122 -86l-26 -115q-59 -293 94 -293q63 0 140 47t130 107l33 -45q-76 -102 -178 -168t-210 -66t-160 82t-9 289l10 60q-102 -69 -131 -87l-16 56q102 72 162 119l30 139q51 252 110 376
q58 124 146 201q98 90 211 90zM680 1225q-72 -1 -125 -105t-100 -336l-37 -180q141 106 249 238t109 260q0 55 -26 89q-27 34 -70 34z" />
    <glyph glyph-name="trademark" unicode="&#x2122;" horiz-adv-x="1710" 
d="M1630 1364q10 16 75 16h146l19 2q8 0 4 -10l-6 -35q-6 -14 -13 -14h-20q-43 0 -53 -39q-4 -14 -39 -158t-52 -229q-17 -84 -29 -129t24 -45h47q6 0 4 -10l-6 -35q-4 -10 -15 -10l-139 2l-145 -2q-10 0 -7 10l7 33q2 12 14 12h39q37 0 50 29q23 52 40 142q16 91 20 112
l74 303h-8l-404 -602q-25 -25 -30 -25q-16 0 -17 18l-100 613h-10l-62 -275q-47 -182 -56 -248t46 -67h27q6 0 4 -12l-8 -33q-4 -10 -13 -10l-123 2l-129 -4q-8 4 -8 12l8 33q4 12 11 12h24q53 0 78 61t90 326l37 160q10 53 -43 53h-29q-8 0 -6 12l8 35q2 12 13 12l123 -4
q44 0 82 3t44 0t9 -19l76 -492zM510 723h51q10 0 8 -10l-10 -37q0 -10 -12 -10l-60 2q-57 2 -79 2l-152 -4q-14 0 -10 10l8 37q2 10 12 10h56q33 0 38 25q12 41 46 180l92 391q-117 0 -163 -14t-110 -95q-2 -14 -16 -8l-19 8q-6 0 0 7q74 166 80 179t12 13t23 -14
q27 -14 53 -17q190 -6 220 -6q231 0 272 19l22 14l11 4q6 0 6 -18q-14 -68 -19 -179q0 -8 -8 -12l-16 -2q-12 -2 -15 10q-16 74 -48 92t-167 19l-88 -365q-33 -131 -43 -192q-4 -39 25 -39z" />
    <glyph glyph-name="estimated" unicode="&#x212e;" horiz-adv-x="1644" 
d="M1368 670v372q0 25 -20 45q-188 193 -456 193t-462 -199q-20 -20 -20 -47v-364q0 -10 12 -11h936q10 1 10 11zM1642 623h-1220q-12 0 -12 -11v-366q0 -20 18 -43q188 -199 473 -199t475 221h111q-104 -121 -262 -191t-336 -71q-311 0 -533 199q-221 200 -221 480t221 480
q220 200 532 199q312 0 533 -200t221 -480v-18z" />
    <glyph glyph-name="onethird" unicode="&#x2153;" horiz-adv-x="1433" 
d="M102 575h66q38 1 60 11t36 41t49 137l86 270q37 111 37 123t-17 12t-83 -26l-66 -27q-8 -4 -14 8l-12 25q-2 8 8 14l291 144q31 14 47 14t16 -15q0 -16 -34 -106t-83 -237l-57 -183q-37 -114 -44 -146t2 -45t40 -14h55q14 0 11 -10l-7 -33q-4 -10 -14 -10l-194 6l-193 -6
q-10 0 -6 10l6 33q4 10 14 10zM1014 -14q-86 0 -137 42t-52 95q1 19 15 37t39 18q61 0 51 -78q-4 -16 24 -38t64 -21q88 -1 151 65t63 165t-93 137q-20 8 -21 22q0 16 21 21q57 12 114 59t58 117q0 31 -23 59q-22 28 -84 27q-62 0 -125 -88q-18 -27 -30 -19l-21 17
q-4 6 2 20q88 150 238 150q82 0 124 -38t42 -81q0 -125 -179 -217q109 -57 109 -177t-110 -207t-240 -87zM313 13q0 9 9 24l835 1276q6 8 12 8t15 -4l45 -29q8 -2 8 -8t-6 -16l-840 -1280q-14 -24 -33 -9l-39 27q-6 2 -6 11z" />
    <glyph glyph-name="twothirds" unicode="&#x2154;" horiz-adv-x="1433" 
d="M190 618h230q80 0 133 87q10 12 20 8q30 -19 19 -25q-20 -28 -51 -94t-34 -77t-15 -11t-21 11q-8 11 -80 11h-334q-25 0 -24 17q0 14 18 28q17 14 103 80q281 217 345 334q63 117 4 207q-28 41 -85 41q-82 0 -158 -127q-12 -20 -22 -16l-23 12q-10 6 -6 18q25 68 93 134
t166 65q97 0 146 -50q50 -49 50 -123t-37 -141t-79 -114q-101 -113 -353 -270l-5 -2v-3zM1014 -14q-86 0 -137 42t-52 95q1 19 15 37t39 18q61 0 51 -78q-4 -16 24 -38t64 -21q88 -1 151 65t63 165t-93 137q-20 8 -21 22q0 16 21 21q57 12 114 59t58 117q0 31 -23 59
q-22 28 -84 27q-62 0 -125 -88q-18 -27 -30 -19l-21 17q-4 6 2 20q88 150 238 150q82 0 124 -38t42 -81q0 -125 -179 -217q109 -57 109 -177t-110 -207t-240 -87zM365 13q0 9 8 24l835 1276q6 8 12 8t15 -4l45 -29q8 -2 8 -8t-6 -16l-840 -1280q-13 -23 -32 -9l-39 27
q-6 2 -6 11z" />
    <glyph glyph-name="oneeighth" unicode="&#x215b;" horiz-adv-x="1433" 
d="M102 575h66q38 1 60 11t36 41t49 137l86 270q37 111 37 123t-17 12t-83 -26l-66 -27q-8 -4 -14 8l-12 25q-2 8 8 14l291 144q31 14 47 14t16 -15q0 -16 -34 -106t-83 -237l-57 -183q-37 -114 -44 -146t2 -45t40 -14h55q14 0 11 -10l-7 -33q-4 -10 -14 -10l-194 6l-193 -6
q-10 0 -6 10l6 33q4 10 14 10zM313 13q0 9 9 24l835 1276q6 8 12 8t15 -4l45 -29q8 -2 8 -8t-6 -16l-840 -1280q-14 -24 -33 -9l-39 27q-6 2 -6 11zM1368 633q0 33 -28 69t-86 35q-58 0 -104 -36q-46 -37 -46 -101t100 -168q164 90 164 201zM1063 43q74 0 115 42t41 87
q-4 84 -91 170q-164 -72 -163 -188q-1 -45 31 -78t67 -33zM995 568q0 82 79 153q80 72 186 72t158 -43t52 -105q0 -133 -225 -258q4 -6 40 -47t42 -70q6 -30 6 -53q0 -94 -77 -163q-76 -68 -190 -68t-160 54t-46 100q0 86 61 138t113 79q51 28 58 32q-97 97 -97 179z" />
    <glyph glyph-name="threeeighths" unicode="&#x215c;" horiz-adv-x="1433" 
d="M276 514q-86 0 -137 42t-51 95q0 19 14 37t39 19q61 0 52 -78q-3 -16 25 -38t63 -22q88 0 151 66q64 66 64 165t-95 136q-20 8 -20 23t20 20q57 12 115 59q57 47 57 117q-1 31 -23 59t-84 27q-62 0 -124 -88q-18 -27 -31 -18l-20 16q-4 6 2 20q88 150 237 150
q82 0 124 -38t42 -81q0 -125 -178 -217q109 -57 109 -177t-110 -207t-241 -87zM334 13q0 9 8 24l836 1276q6 8 12 8t14 -4l45 -29q8 -2 8 -8t-6 -16l-839 -1280q-14 -24 -33 -9l-39 27q-6 2 -6 11zM1368 633q0 33 -28 69t-86 35q-58 0 -104 -36q-46 -37 -46 -101t100 -168
q164 90 164 201zM1063 43q74 0 115 42t41 87q-4 78 -91 172q-44 -23 -72 -40t-60 -59t-32 -89t32 -80t67 -33zM1260 793q106 0 158 -43t52 -105q0 -137 -227 -258q35 -35 41 -45t28 -38t21 -87q0 -94 -77 -163q-76 -68 -190 -68t-160 54t-46 100q0 86 61 138t113 79
q51 28 58 32l-19 19q-16 18 -21 25q-6 7 -20 27t-19 34t-12 33q-6 19 -6 40q0 82 79 154q80 72 186 72z" />
    <glyph glyph-name="fiveeighths" unicode="&#x215d;" horiz-adv-x="1433" 
d="M623 821q-1 -109 -101 -208t-268 -99q-53 0 -98 16t-45 48q0 20 13 32q32 30 69 -2q37 -31 88 -30q100 0 160 62t61 126q0 117 -80 162q-54 28 -102 28t-54 5q-6 10 -2 20l123 315q6 10 19 11h225q45 0 57 14q12 15 24 29t27 4q16 -10 13 -19l-74 -123q-6 -10 -39 -10
h-219l-62 -145l2 -4q66 0 142 -35q121 -55 121 -197zM334 13q0 9 8 24l836 1276q6 8 12 8t14 -4l45 -29q8 -2 8 -8t-6 -16l-839 -1280q-14 -24 -33 -9l-39 27q-6 2 -6 11zM1368 633q0 33 -28 69t-86 35q-58 0 -104 -36q-46 -37 -46 -101t100 -168q164 86 164 201zM1063 43
q74 0 115 42t41 87q-4 86 -91 172q-44 -23 -72 -40t-60 -59t-32 -89t32 -80t67 -33zM1333 211q0 -88 -77 -157q-76 -68 -190 -68t-160 54t-46 100q0 86 61 138t113 79q51 28 58 32q-2 4 -38 42q-59 62 -59 140t79 150q80 72 186 72t158 -43t52 -105q0 -133 -225 -258
q88 -88 88 -176z" />
    <glyph glyph-name="seveneighths" unicode="&#x215e;" horiz-adv-x="1433" 
d="M397 1307h328q14 -1 14 -11t-8 -20t-84 -133t-194 -349q-119 -227 -127 -241q-22 -39 -63 -39q-40 0 -40 45q0 20 33 68q144 213 172 259t102 168q74 120 91 148h-211q-66 0 -94 -16t-62 -62q-10 -14 -28 -4t-11 27l98 188q9 17 25 13t14 -18t9 -19q11 -4 36 -4zM252 13
q0 9 8 24l836 1276q6 8 12 8t14 -4l45 -29q16 -4 2 -24l-839 -1280q-14 -24 -33 -9l-39 27q-6 2 -6 11zM1327 633q0 33 -28 69t-86 35q-58 0 -104 -36q-46 -37 -46 -101t100 -168q164 86 164 201zM1022 43q74 0 115 42t41 87q-4 86 -91 172q-45 -23 -73 -40t-59 -59t-31 -89
t32 -80t66 -33zM1204 387q88 -88 88 -176t-77 -157q-77 -68 -191 -68t-159 54q-46 54 -46 100q0 86 61 138t113 79q51 28 58 32q-2 4 -39 43q-54 57 -56 137t77 152t185 72t159 -43t53 -107t-63 -138q-23 -27 -66 -57t-51 -34t-26 -16q-17 -12 -20 -11z" />
    <glyph glyph-name="partialdiff" unicode="&#x2202;" horiz-adv-x="1013" 
d="M489 39q150 0 237 185t120 390q-102 125 -218 123t-214 -132t-103 -320q-2 -94 43 -170t135 -76zM584 817h2q178 0 276 -129q23 94 26 234t-38 254q-70 184 -266 184q-129 0 -238 -66q-26 4 -54 40t-22 61q104 57 267 57q274 0 415 -264t47 -668q-33 -143 -92 -252
q-166 -293 -413 -293q-162 -1 -256 105t-96 286t132 318q138 133 310 133z" />
    <glyph glyph-name="product" unicode="&#x220f;" horiz-adv-x="1536" 
d="M662 1264q-48 0 -62 -10t-22 -56l-213 -1106q-25 -129 1 -164t154 -43l-8 -47h-522l10 47q117 8 152 43t59 164l192 987q25 129 -1 163t-158 44l10 47h1268l-13 -47q-115 -10 -149 -45t-57 -162l-191 -987q-25 -129 1 -164t155 -43l-8 -47h-523l8 47q119 8 154 43t59 164
l216 1112q8 39 -4 49t-52 11h-456z" />
    <glyph glyph-name="summation" unicode="&#x2211;" horiz-adv-x="1153" 
d="M774 -25q102 0 162 43q59 43 129 175l47 -17l-135 -338h-938l10 53l608 695l-352 696l8 51h871q-14 -92 -29 -301l-49 -6q-18 145 -49 186q-37 51 -226 52h-335l317 -629l-575 -660h536z" />
    <glyph glyph-name="minus" unicode="&#x2212;" 
d="M147 547h795v-111h-795v111z" />
    <glyph glyph-name="uni2215" unicode="&#x2215;" horiz-adv-x="204" 
d="M575 1321q6 0 15 -4l45 -29q8 -2 8 -8t-6 -16l-840 -1280q-14 -24 -33 -9l-38 27q-16 5 2 35l835 1276q6 8 12 8z" />
    <glyph glyph-name="uni2219" unicode="&#x2219;" horiz-adv-x="512" 
d="M347 594q-48 0 -79 32q-30 32 -30 74t28 76t82 35q55 0 84 -38q29 -39 29 -75t-33 -70t-81 -34z" />
    <glyph glyph-name="radical" unicode="&#x221a;" horiz-adv-x="1241" 
d="M276 866l-26 66l338 160l207 -826h6l600 1612l82 -18l-733 -1938l-267 1041z" />
    <glyph glyph-name="infinity" unicode="&#x221e;" horiz-adv-x="1624" 
d="M1280 743q-54 0 -114 -32t-91 -61q-100 -92 -114 -105q109 -109 172 -154t145 -55q86 0 143 58t61 148t-52 146q-57 55 -150 55zM500 336q72 0 140 38q67 38 101 68t93 90q-58 66 -98 103t-108 73t-142 36q-76 0 -130 -62q-54 -61 -51 -146q3 -84 63 -142t132 -58z
M1597 537q0 -131 -92 -213t-227 -82q-88 0 -177 53t-208 170q-181 -175 -283 -206q-55 -17 -118 -17q-123 0 -211 88t-88 213t88 211q89 86 211 86t212 -58t193 -168q69 63 95 87q110 99 178 119q69 19 130 20q129 0 213 -86t84 -217z" />
    <glyph glyph-name="integral" unicode="&#x222b;" horiz-adv-x="753" 
d="M39 -362q-51 0 -84 26t-33 65t27 63t63 24t76 -36t60 -36q79 0 135 328l123 716q35 207 87 365q90 275 213 385q94 86 189 86q49 0 76 -22t27 -56t-26 -56q-24 -22 -61 -22t-65 29t-47 29q-101 0 -162 -383l-100 -594q-78 -467 -207 -689t-291 -222z" />
    <glyph glyph-name="approxequal" unicode="&#x2248;" horiz-adv-x="1286" 
d="M955 588q-99 0 -243 64t-239 65q-125 0 -211 -133l-65 67q49 78 124 123t158 45q121 4 262 -61q147 -64 252 -64t191 121l59 -74q-43 -69 -116 -111t-172 -42zM958 274q-96 0 -240 64t-256 62q-114 -1 -202 -119l-63 65q111 158 282 158q115 4 262 -60t242 -63
q123 0 201 121l57 -74q-41 -68 -114 -111t-169 -43z" />
    <glyph glyph-name="notequal" unicode="&#x2260;" 
d="M147 289v110h263l139 199h-402v111h480l172 241l90 -63l-125 -178h178v-111h-258l-139 -199h397v-110h-475l-174 -246l-90 63l129 183h-185z" />
    <glyph glyph-name="lessequal" unicode="&#x2264;" 
d="M942 23h-795v110h795v-110zM942 264l-801 361v69l801 361v-119l-641 -277l641 -276v-119z" />
    <glyph glyph-name="greaterequal" unicode="&#x2265;" 
d="M942 23h-795v110h795v-110zM948 625l-801 -361v119l641 276l-641 277v119l801 -361v-69z" />
    <glyph glyph-name="lozenge" unicode="&#x25ca;" horiz-adv-x="1062" 
d="M764 1386h-4l-475 -710l227 -680h4l469 709zM719 1493h112l275 -801l-549 -801h-115l-274 799z" />
    <glyph glyph-name="A.swash" unicode="&#xe000;" horiz-adv-x="2068" 
d="M1942 1235q-26 0 -74 -46q-49 -46 -209 -249t-279 -369h359l213 615q16 49 -10 49zM1442 70q66 0 104 22t62 94l106 318h-391q-137 -182 -293 -336q-270 -270 -588 -270q-176 0 -310 116t-134 328q0 154 103 272t268 119q77 0 113 -39t36 -77q0 -37 -32 -63t-72 -26
t-86 46q-45 46 -90 44t-104 -71q-58 -70 -58 -172q0 -170 130 -261t265 -91q261 0 475 185q111 96 201 198t211 262q367 487 489 592q168 143 346 143q89 0 147 -33t58 -74q0 -46 -55 -46q-31 0 -70 53q-31 39 -67 39t-59 -36q-22 -34 -48 -120l-303 -940q-27 -86 -27 -119
q0 -57 58 -57h74q16 0 16 -15l-6 -45q-2 -16 -27 -16l-254 6l-239 -6q-23 0 -19 20l6 39q4 16 19 17h45z" />
    <glyph glyph-name="AE.swash" unicode="&#xe001;" horiz-adv-x="2721" 
d="M1942 1235q-26 0 -74 -46q-49 -46 -209 -249t-279 -369h359l213 615q16 49 -10 49zM2163 764q73 0 107 7t72 46t64 119q4 12 15 10l30 -6q14 -4 13 -16l-111 -408q-2 -14 -14 -12l-33 4q-8 2 -6 16q8 117 -42 146t-190 28h-122l-177 -571q0 -57 58 -57h450q23 12 79 30
t85 58l164 204q10 14 25 5l20 -13q12 -10 6 -28l-104 -297q-8 -23 -16 -29t-29 -6l-228 4h-413l-475 -4q-23 0 -19 20l6 39q4 16 19 17h45q66 0 104 22t62 94l106 318h-391q-137 -182 -293 -336q-270 -270 -588 -270q-176 0 -310 116t-134 328q0 154 103 272t268 119
q77 0 113 -39t36 -77q0 -37 -32 -63t-72 -26t-86 46q-45 46 -90 44t-104 -71q-58 -70 -58 -172q0 -170 130 -261t265 -91q261 0 475 185q111 96 201 198t211 262q367 487 489 592q16 14 43 38t37 32q11 8 31 22t61 21t170 7t162 -4t90 -4l246 6q23 0 30 -7t13 -32l66 -280
q2 -10 -13 -19l-22 -8q-12 -4 -21 6l-192 248q-10 16 -33 17h-373l-176 -539h197z" />
    <glyph glyph-name="Aacute.swash" unicode="&#xe002;" horiz-adv-x="2068" 
d="M2295 1786q34 0 52 -31t10 -67t-45 -52l-356 -145q-13 -6 -17 2l-12 20q-4 10 6 21l293 227q35 25 69 25zM1942 1235q-26 0 -74 -46q-49 -46 -209 -249t-279 -369h359l213 615q16 49 -10 49zM1442 70q66 0 104 22t62 94l106 318h-391q-137 -182 -293 -336
q-270 -270 -588 -270q-176 0 -310 116t-134 328q0 154 103 272t268 119q77 0 113 -39t36 -77q0 -37 -32 -63t-72 -26t-86 46q-45 46 -90 44t-104 -71q-58 -70 -58 -172q0 -170 130 -261t265 -91q261 0 475 185q111 96 201 198t211 262q367 487 489 592q168 143 346 143
q89 0 147 -33t58 -74q0 -46 -55 -46q-31 0 -70 53q-31 39 -67 39t-59 -36q-22 -34 -48 -120l-303 -940q-27 -86 -27 -119q0 -57 58 -57h74q16 0 16 -15l-6 -45q-2 -16 -27 -16l-254 6l-239 -6q-23 0 -19 20l6 39q4 16 19 17h45z" />
    <glyph glyph-name="Abreve.swash" unicode="&#xe003;" horiz-adv-x="2068" 
d="M2140 1524q-80 0 -134 45t-67 127q-2 23 9 24l20 6q6 2 21 -16q55 -74 180 -74t215 78q20 16 26 12l23 -10q8 -4 -2 -26q-94 -166 -291 -166zM1942 1235q-26 0 -74 -46q-49 -46 -209 -249t-279 -369h359l213 615q16 49 -10 49zM1442 70q66 0 104 22t62 94l106 318h-391
q-137 -182 -293 -336q-270 -270 -588 -270q-176 0 -310 116t-134 328q0 154 103 272t268 119q77 0 113 -39t36 -77q0 -37 -32 -63t-72 -26t-86 46q-45 46 -90 44t-104 -71q-58 -70 -58 -172q0 -170 130 -261t265 -91q261 0 475 185q111 96 201 198t211 262q367 487 489 592
q168 143 346 143q89 0 147 -33t58 -74q0 -46 -55 -46q-31 0 -70 53q-31 39 -67 39t-59 -36q-22 -34 -48 -120l-303 -940q-27 -86 -27 -119q0 -57 58 -57h74q16 0 16 -15l-6 -45q-2 -16 -27 -16l-254 6l-239 -6q-23 0 -19 20l6 39q4 16 19 17h45z" />
    <glyph glyph-name="Acircumflex.swash" unicode="&#xe004;" horiz-adv-x="2068" 
d="M2167 1622l-244 -127q-10 -4 -14 4l-15 23q-4 4 4 12l285 246q16 12 27 -4l145 -246q6 -10 -4 -17l-20 -18q-8 -6 -23 4zM1942 1235q-26 0 -74 -46q-49 -46 -209 -249t-279 -369h359l213 615q16 49 -10 49zM1442 70q66 0 104 22t62 94l106 318h-391q-137 -182 -293 -336
q-270 -270 -588 -270q-176 0 -310 116t-134 328q0 154 103 272t268 119q77 0 113 -39t36 -77q0 -37 -32 -63t-72 -26t-86 46q-45 46 -90 44t-104 -71q-58 -70 -58 -172q0 -170 130 -261t265 -91q261 0 475 185q111 96 201 198t211 262q367 487 489 592q168 143 346 143
q89 0 147 -33t58 -74q0 -46 -55 -46q-31 0 -70 53q-31 39 -67 39t-59 -36q-22 -34 -48 -120l-303 -940q-27 -86 -27 -119q0 -57 58 -57h74q16 0 16 -15l-6 -45q-2 -16 -27 -16l-254 6l-239 -6q-23 0 -19 20l6 39q4 16 19 17h45z" />
    <glyph glyph-name="Adieresis.swash" unicode="&#xe005;" horiz-adv-x="2068" 
d="M2333 1532q-102 0 -103 96q0 31 24 59q24 27 71 27t73 -24t27 -67q-1 -43 -27 -67t-65 -24zM1968 1532q-102 0 -102 96q0 31 23 59q24 27 71 27t74 -24q26 -24 26 -67q0 -42 -26 -67q-27 -24 -66 -24zM1942 1235q-26 0 -74 -46q-49 -46 -209 -249t-279 -369h359l213 615
q16 49 -10 49zM1442 70q66 0 104 22t62 94l106 318h-391q-137 -182 -293 -336q-270 -270 -588 -270q-176 0 -310 116t-134 328q0 154 103 272t268 119q77 0 113 -39t36 -77q0 -37 -32 -63t-72 -26t-86 46q-45 46 -90 44t-104 -71q-58 -70 -58 -172q0 -170 130 -261t265 -91
q261 0 475 185q111 96 201 198t211 262q367 487 489 592q168 143 346 143q89 0 147 -33t58 -74q0 -46 -55 -46q-31 0 -70 53q-31 39 -67 39t-59 -36q-22 -34 -48 -120l-303 -940q-27 -86 -27 -119q0 -57 58 -57h74q16 0 16 -15l-6 -45q-2 -16 -27 -16l-254 6l-239 -6
q-23 0 -19 20l6 39q4 16 19 17h45z" />
    <glyph glyph-name="Agrave.swash" unicode="&#xe006;" horiz-adv-x="2068" 
d="M1828 1798q42 0 87 -45l239 -227q11 -7 5 -17l-15 -20q-4 -4 -14 0l-320 166q-59 33 -41 88q17 55 59 55zM1942 1235q-26 0 -74 -46q-49 -46 -209 -249t-279 -369h359l213 615q16 49 -10 49zM1442 70q66 0 104 22t62 94l106 318h-391q-137 -182 -293 -336
q-270 -270 -588 -270q-176 0 -310 116t-134 328q0 154 103 272t268 119q77 0 113 -39t36 -77q0 -37 -32 -63t-72 -26t-86 46q-45 46 -90 44t-104 -71q-58 -70 -58 -172q0 -170 130 -261t265 -91q261 0 475 185q111 96 201 198t211 262q367 487 489 592q168 143 346 143
q89 0 147 -33t58 -74q0 -46 -55 -46q-31 0 -70 53q-31 39 -67 39t-59 -36q-22 -34 -48 -120l-303 -940q-27 -86 -27 -119q0 -57 58 -57h74q16 0 16 -15l-6 -45q-2 -16 -27 -16l-254 6l-239 -6q-23 0 -19 20l6 39q4 16 19 17h45z" />
    <glyph glyph-name="Amacron.swash" unicode="&#xe007;" horiz-adv-x="2068" 
d="M1896 1581v70q0 12 21 12h410q20 0 20 -14v-68q0 -14 -18 -14h-416q-17 0 -17 14zM1942 1235q-26 0 -74 -46q-49 -46 -209 -249t-279 -369h359l213 615q16 49 -10 49zM1442 70q66 0 104 22t62 94l106 318h-391q-137 -182 -293 -336q-270 -270 -588 -270q-176 0 -310 116
t-134 328q0 154 103 272t268 119q77 0 113 -39t36 -77q0 -37 -32 -63t-72 -26t-86 46q-45 46 -90 44t-104 -71q-58 -70 -58 -172q0 -170 130 -261t265 -91q261 0 475 185q111 96 201 198t211 262q367 487 489 592q168 143 346 143q89 0 147 -33t58 -74q0 -46 -55 -46
q-31 0 -70 53q-31 39 -67 39t-59 -36q-22 -34 -48 -120l-303 -940q-27 -86 -27 -119q0 -57 58 -57h74q16 0 16 -15l-6 -45q-2 -16 -27 -16l-254 6l-239 -6q-23 0 -19 20l6 39q4 16 19 17h45z" />
    <glyph glyph-name="Aogonek.swash" unicode="&#xe008;" horiz-adv-x="2068" 
d="M1575 -466q-1 -18 -21 -32q-53 -40 -135 -43q-221 0 -221 164q0 88 100 209t203 193q29 20 61 69t46 92l106 318h-391q-137 -182 -293 -336q-270 -270 -588 -270q-176 0 -310 116t-134 328q0 154 103 272t268 119q77 0 113 -39t36 -77q0 -37 -32 -63t-72 -26t-86 46
q-45 46 -90 44t-104 -71q-58 -70 -58 -172q0 -170 130 -261t265 -91q261 0 475 185q111 96 201 198t211 262q367 487 489 592q168 143 346 143q89 0 147 -33t58 -74q0 -46 -55 -46q-31 0 -70 53q-31 39 -67 39t-59 -36q-22 -34 -48 -120l-303 -940q-27 -86 -27 -119
q0 -57 58 -57h74q16 0 16 -15l-6 -45q-2 -16 -27 -16l-80 4q-43 2 -174 2q-102 0 -202 -111t-101 -227q0 -116 103 -137q18 -4 34 -4l95 30q16 1 16 -17zM1942 1235q-26 0 -74 -46q-49 -46 -209 -249t-279 -369h359l213 615q16 49 -10 49z" />
    <glyph glyph-name="Aring.swash" unicode="&#xe009;" horiz-adv-x="2068" 
d="M2251 1645q0 53 -35 79t-73 25q-39 0 -69 -30t-30 -79q0 -50 30 -76t73 -26q42 0 73 27t31 80zM2154 1800q86 0 146 -41t59 -115t-65 -116t-152 -41q-88 0 -147 39q-59 38 -59 110t65 118q67 46 153 46zM1942 1235q-26 0 -74 -46q-49 -46 -209 -249t-279 -369h359
l213 615q16 49 -10 49zM1442 70q66 0 104 22t62 94l106 318h-391q-137 -182 -293 -336q-270 -270 -588 -270q-176 0 -310 116t-134 328q0 154 103 272t268 119q77 0 113 -39t36 -77q0 -37 -32 -63t-72 -26t-86 46q-45 46 -90 44t-104 -71q-58 -70 -58 -172q0 -170 130 -261
t265 -91q261 0 475 185q111 96 201 198t211 262q367 487 489 592q168 143 346 143q89 0 147 -33t58 -74q0 -46 -55 -46q-31 0 -70 53q-31 39 -67 39t-59 -36q-22 -34 -48 -120l-303 -940q-27 -86 -27 -119q0 -57 58 -57h74q16 0 16 -15l-6 -45q-2 -16 -27 -16l-254 6
l-239 -6q-23 0 -19 20l6 39q4 16 19 17h45z" />
    <glyph glyph-name="Atilde.swash" unicode="&#xe00a;" horiz-adv-x="2068" 
d="M2022 1724q44 0 121 -16t147 -16t106 65q8 14 17 8l30 -16q10 -4 -6 -35q-76 -135 -168 -135q-59 0 -130 16t-138 17q-25 0 -55 -24t-44 -44t-22 -14l-27 16q-6 6 0 21q27 65 76 111t93 46zM1942 1235q-26 0 -74 -46q-49 -46 -209 -249t-279 -369h359l213 615
q16 49 -10 49zM1442 70q66 0 104 22t62 94l106 318h-391q-137 -182 -293 -336q-270 -270 -588 -270q-176 0 -310 116t-134 328q0 154 103 272t268 119q77 0 113 -39t36 -77q0 -37 -32 -63t-72 -26t-86 46q-45 46 -90 44t-104 -71q-58 -70 -58 -172q0 -170 130 -261t265 -91
q261 0 475 185q111 96 201 198t211 262q367 487 489 592q168 143 346 143q89 0 147 -33t58 -74q0 -46 -55 -46q-31 0 -70 53q-31 39 -67 39t-59 -36q-22 -34 -48 -120l-303 -940q-27 -86 -27 -119q0 -57 58 -57h74q16 0 16 -15l-6 -45q-2 -16 -27 -16l-254 6l-239 -6
q-23 0 -19 20l6 39q4 16 19 17h45z" />
    <glyph glyph-name="B.swash" unicode="&#xe00b;" horiz-adv-x="1699" 
d="M1044 59q160 0 266 77q105 77 105 253q0 131 -112 200q-113 69 -289 73l-137 -508q-11 -39 31 -67t136 -28zM1174 721q198 0 290 99t92 222t-83 188q-85 64 -181 64t-116 -8l-150 -555q45 -10 148 -10zM563 70q66 0 100 28t52 97l276 1015q14 51 -13 68q-28 16 -144 16
q-268 0 -450 -128t-181 -320q-1 -74 31 -106q70 -71 128 20q33 43 89 43q88 0 88 -105q-1 -42 -49 -74t-103 -32q-121 0 -187 78t-65 200q0 122 72 237q135 218 459 251q146 14 464 14t463 -77t146 -232q0 -113 -109 -221t-305 -162v-4q111 -25 196 -110t85 -187
q0 -101 -52 -189q-117 -195 -520 -196l-266 6l-285 -6q-22 0 -18 16l8 43q4 16 19 17h71z" />
    <glyph glyph-name="C.swash" unicode="&#xe00c;" horiz-adv-x="1150" 
d="M932 1331q-172 0 -354 -346q-117 -225 -190 -515t-73 -477t69 -295t206 -108q109 0 207 78t151 180q35 64 45 120t51 57t41 -47q-1 -48 -39 -122q-105 -203 -276 -302q-106 -62 -198 -62t-160 29q-272 117 -273 540q0 242 88 522t244 494q238 326 469 326q144 0 246 -108
t102 -251q0 -121 -94 -120q-30 0 -56 22t-26 76l12 123q0 63 -30 104q-59 82 -162 82z" />
    <glyph glyph-name="Cacute.swash" unicode="&#xe00d;" horiz-adv-x="1150" 
d="M1242 1786q34 0 52 -31t10 -67t-44 -52l-357 -145q-12 -6 -16 2l-13 20q-4 10 7 21l293 227q34 25 68 25zM932 1331q-172 0 -354 -346q-117 -225 -190 -515t-73 -477t69 -295t206 -108q109 0 207 78t151 180q35 64 45 120t51 57t41 -47q-1 -48 -39 -122
q-105 -203 -276 -302q-106 -62 -198 -62t-160 29q-272 117 -273 540q0 242 88 522t244 494q238 326 469 326q144 0 246 -108t102 -251q0 -121 -94 -120q-30 0 -56 22t-26 76l12 123q0 63 -30 104q-59 82 -162 82z" />
    <glyph glyph-name="Ccaron.swash" unicode="&#xe00e;" horiz-adv-x="1150" 
d="M979 1663l244 127q10 4 14 -4l14 -23q4 -4 -4 -12l-284 -246q-16 -12 -27 4l-145 246q-6 10 4 17l20 18q8 6 23 -4zM932 1331q-172 0 -354 -346q-117 -225 -190 -515t-73 -477t69 -295t206 -108q109 0 207 78t151 180q35 64 45 120t51 57t41 -47q-1 -48 -39 -122
q-105 -203 -276 -302q-106 -62 -198 -62t-160 29q-272 117 -273 540q0 242 88 522t244 494q238 326 469 326q144 0 246 -108t102 -251q0 -121 -94 -120q-30 0 -56 22t-26 76l12 123q0 63 -30 104q-59 82 -162 82z" />
    <glyph glyph-name="Ccedilla.swash" unicode="&#xe00f;" horiz-adv-x="1150" 
d="M932 1331q-172 0 -354 -346q-117 -225 -190 -515t-73 -477t69 -295t206 -108q109 0 207 78t151 180q35 64 45 120t51 57q41 0 41 -65t-88 -190q-107 -154 -244 -227q-83 -43 -171 -49l-70 -102q100 -37 100 -120t-93 -144t-189 -62q-39 0 -39 32t24 32q83 6 128 41t44 77
q0 59 -98 88l113 160q-147 20 -255 156t-108 393q0 258 88 538t244 494q238 326 469 326q144 0 246 -108t102 -251q0 -121 -94 -120q-30 0 -56 22t-26 76l12 123q0 63 -30 104q-59 82 -162 82z" />
    <glyph glyph-name="D.swash" unicode="&#xe010;" horiz-adv-x="2019" 
d="M1288 1290q-86 0 -110 -10t-33 -51l-260 -1047q-15 -66 7 -92t83 -24q397 0 610 200q246 231 250 568q-2 220 -140 338t-407 118zM559 70q57 0 91 34t59 125l252 988q10 43 -23 58t-139 15q-266 0 -431 -136t-165 -302q0 -74 36 -120q35 -46 73 -46t41 41t34 73t70 32
t61 -28q22 -26 21 -75t-53 -92t-134 -43t-149 71q-66 71 -66 201t69 244q129 212 445 247q143 15 427 15t467 -31t292 -122q98 -85 143 -181t45 -237q0 -301 -225 -525q-293 -283 -848 -282l-237 6l-254 -6q-20 0 -17 16l13 45q4 14 20 15h82z" />
    </font>
</defs>
</svg>
